<svg width="80" height="80" viewBox="0 0 80 80" fill="none" xmlns="http://www.w3.org/2000/svg">
<circle cx="40" cy="40" r="40" fill="#2FC8E0"/>
<circle cx="40" cy="40" r="40" stroke="#EBECF2"/>
<path d="M64.8938 40.8058C64.8453 41.4999 64.8282 42.1985 64.7433 42.8876C63.8424 50.2046 60.4298 56.0678 54.4395 60.3611C49.9646 63.5691 44.9141 65.0663 39.4131 64.8758C33.0518 64.6571 27.5676 62.2893 22.9689 57.8868C22.9265 57.8462 22.9276 57.6841 22.9689 57.6407C28.7046 51.8954 34.4457 46.1559 40.1922 40.4222C40.3281 40.2978 40.5039 40.2259 40.688 40.2195C48.7573 40.2095 56.8264 40.2066 64.8955 40.2109L64.8938 40.8058Z" fill="white"/>
<path d="M40.7958 15.5C41.4742 15.5515 42.154 15.5816 42.83 15.6546C46.7885 16.0837 50.4342 17.3906 53.7671 19.5752C53.7897 19.5922 53.8114 19.6104 53.832 19.6298L51.7251 21.7324C51.2664 22.1901 50.8109 22.6508 50.3467 23.1027C50.3174 23.1216 50.2839 23.1331 50.2491 23.1362C50.2143 23.1392 50.1793 23.1337 50.1471 23.1201C46.7917 21.1896 43.1799 20.3017 39.3117 20.4564C30.6572 20.8052 23.1124 26.9349 21.0373 35.3402C19.7528 40.5481 20.4674 45.4956 23.1124 50.1654C23.1377 50.2097 23.139 50.3077 23.1087 50.336C21.9605 51.4927 20.8083 52.6464 19.6521 53.7972C19.6409 53.8085 19.6269 53.8177 19.6006 53.8389C19.4917 53.6703 19.3822 53.5072 19.2791 53.3406C16.4266 48.7293 15.1674 43.7172 15.5748 38.3073C16.4242 27.0611 24.7945 17.8477 35.9322 15.8911C37.0584 15.6935 38.2101 15.6433 39.3496 15.5249L39.5823 15.5H40.7958Z" fill="white"/>
<path d="M53.3193 30.4078C53.3213 29.3808 53.6791 28.3862 54.3318 27.5932C54.9846 26.8003 55.8919 26.2581 56.8993 26.059C57.9068 25.8598 58.9522 26.0159 59.8575 26.5008C60.7628 26.9856 61.4722 27.7693 61.8648 28.7183C62.2574 29.6673 62.309 30.7231 62.0108 31.7059C61.7127 32.6887 61.0832 33.5378 60.2295 34.1087C59.3758 34.6796 58.3506 34.937 57.3285 34.837C56.3065 34.7371 55.3506 34.286 54.6236 33.5606C54.2096 33.1466 53.8813 32.6551 53.6575 32.1141C53.4337 31.5731 53.3188 30.9933 53.3193 30.4078V30.4078Z" fill="white"/>
</svg>
