<svg width="600" height="600" viewBox="0 0 600 600" fill="none" xmlns="http://www.w3.org/2000/svg">
<circle cx="300" cy="300" r="300" fill="#2FC8E0"/>
<circle cx="300" cy="300" r="300" stroke="#EBECF2"/>
<path d="M485.452 304.79C485.089 309.996 484.961 315.235 484.324 320.403C477.567 375.281 451.973 419.254 407.045 451.454C373.484 475.514 335.605 486.743 294.347 485.315C246.638 483.674 205.506 465.916 171.015 432.897C170.698 432.592 170.706 431.377 171.015 431.052C214.034 387.962 257.092 344.915 300.191 301.913C301.21 300.979 302.528 300.44 303.909 300.392C364.429 300.317 424.947 300.296 485.465 300.328L485.452 304.79Z" fill="white"/>
<path d="M304.718 115C309.806 115.386 314.905 115.612 319.975 116.159C349.664 119.378 377.007 129.179 402.003 145.564C402.173 145.691 402.335 145.828 402.49 145.974L386.688 161.743C383.248 165.176 379.831 168.631 376.351 172.02C376.131 172.162 375.879 172.249 375.618 172.271C375.357 172.294 375.095 172.253 374.853 172.15C349.688 157.672 322.599 151.013 293.588 152.173C228.679 154.789 172.093 200.762 156.53 263.802C146.896 302.861 152.255 339.967 172.093 374.99C172.283 375.323 172.293 376.057 172.065 376.27C163.454 384.945 154.812 393.598 146.141 402.229C146.056 402.314 145.952 402.383 145.754 402.542C144.938 401.277 144.116 400.054 143.344 398.805C121.95 364.219 112.505 326.629 115.561 286.055C121.932 201.709 184.708 132.607 268.242 117.933C276.688 116.451 285.326 116.075 293.872 115.187L295.617 115H304.718Z" fill="white"/>
<path d="M398.644 226.809C398.659 219.106 401.342 211.646 406.238 205.699C411.133 199.753 417.938 195.686 425.494 194.192C433.05 192.698 440.89 193.869 447.68 197.506C454.47 201.142 459.79 207.019 462.735 214.137C465.679 221.255 466.066 229.173 463.83 236.544C461.594 243.915 456.873 250.284 450.47 254.565C444.067 258.847 436.379 260.777 428.713 260.028C421.047 259.278 413.878 255.895 408.426 250.454C405.321 247.35 402.859 243.663 401.18 239.606C399.502 235.548 398.64 231.2 398.644 226.809V226.809Z" fill="white"/>
</svg>
