<svg width="128" height="128" viewBox="0 0 128 128" fill="none" xmlns="http://www.w3.org/2000/svg">
<circle cx="64" cy="64" r="64" fill="#2FC8E0"/>
<circle cx="64" cy="64" r="64" stroke="#EBECF2"/>
<path d="M103.83 65.2889C103.753 66.3995 103.725 67.5173 103.589 68.6198C102.148 80.327 96.6879 89.708 87.1034 96.5773C79.9436 101.71 71.8628 104.106 63.0612 103.801C52.8831 103.451 44.1083 99.6625 36.7504 92.6185C36.6827 92.5535 36.6843 92.2941 36.7504 92.2248C45.9276 83.0323 55.1134 73.849 64.3077 64.6751C64.5252 64.476 64.8065 64.361 65.1011 64.3508C78.0119 64.3347 90.9225 64.3302 103.833 64.3371L103.83 65.2889Z" fill="white"/>
<path d="M65.274 24.8008C66.3595 24.8832 67.4471 24.9313 68.5288 25.0481C74.8624 25.7347 80.6955 27.8257 86.0282 31.3211C86.0643 31.3483 86.099 31.3775 86.1319 31.4085L82.7609 34.7727C82.0271 35.5049 81.2981 36.2421 80.5556 36.965C80.5087 36.9954 80.455 37.0138 80.3993 37.0187C80.3437 37.0235 80.2876 37.0147 80.2362 36.9929C74.8675 33.9041 69.0886 32.4835 62.8995 32.731C49.0523 33.2891 36.9807 43.0966 33.6604 56.5451C31.6053 64.8778 32.7486 72.7938 36.9807 80.2653C37.0211 80.3363 37.0232 80.493 36.9747 80.5384C35.1375 82.3891 33.294 84.2351 31.4442 86.0764C31.4262 86.0944 31.4038 86.1091 31.3617 86.143C31.1876 85.8732 31.0123 85.6122 30.8474 85.3458C26.2834 77.9676 24.2686 69.9484 24.9205 61.2925C26.2795 43.2986 39.6719 28.557 57.4924 25.4265C59.2942 25.1104 61.137 25.0301 62.9601 24.8406L63.3324 24.8008H65.274Z" fill="white"/>
<path d="M85.3115 48.6537C85.3147 47.0104 85.8872 45.419 86.9315 44.1504C87.9759 42.8817 89.4276 42.0142 91.0395 41.6955C92.6515 41.3768 94.3241 41.6266 95.7726 42.4024C97.2211 43.1782 98.356 44.432 98.9842 45.9504C99.6124 47.4689 99.695 49.1581 99.2179 50.7306C98.7409 52.3031 97.7337 53.6617 96.3678 54.5751C95.0018 55.4885 93.3616 55.9003 91.7263 55.7404C90.0909 55.5805 88.5615 54.8588 87.3984 53.6981C86.7359 53.0358 86.2107 52.2493 85.8526 51.3837C85.4945 50.5182 85.3106 49.5904 85.3115 48.6537V48.6537Z" fill="white"/>
</svg>
