<svg width="200" height="200" viewBox="0 0 200 200" fill="none" xmlns="http://www.w3.org/2000/svg">
<circle cx="100" cy="100" r="100" fill="#2FC8E0"/>
<circle cx="100" cy="100" r="100" stroke="#EBECF2"/>
<path d="M162.234 102.013C162.113 103.749 162.07 105.495 161.858 107.218C159.605 125.511 151.074 140.168 136.098 150.902C124.911 158.922 112.285 162.665 98.5323 162.189C82.6291 161.642 68.9184 155.722 57.4216 144.716C57.3159 144.614 57.3184 144.209 57.4216 144.101C71.7611 129.738 86.1139 115.389 100.48 101.055C100.82 100.743 101.259 100.564 101.72 100.548C121.893 100.523 142.066 100.516 162.238 100.526L162.234 102.013Z" fill="white"/>
<path d="M101.989 38.75C103.685 38.8788 105.385 38.9539 107.075 39.1365C116.971 40.2092 126.086 43.4764 134.418 48.938C134.474 48.9805 134.528 49.026 134.58 49.0745L129.313 54.3311C128.166 55.4752 127.027 56.627 125.867 57.7566C125.794 57.8041 125.71 57.8329 125.623 57.8404C125.536 57.848 125.448 57.8342 125.368 57.8002C116.979 52.9739 107.95 50.7542 98.2792 51.141C76.6429 52.0129 57.7811 67.3372 52.5932 88.3505C49.382 101.37 51.1684 113.739 57.7811 125.413C57.8442 125.524 57.8476 125.769 57.7717 125.84C54.9012 128.732 52.0207 131.616 49.1303 134.493C49.1022 134.521 49.0672 134.544 49.0015 134.597C48.7293 134.176 48.4555 133.768 48.1978 133.352C41.0665 121.823 37.9185 109.293 38.9371 95.7682C41.0606 67.6529 61.9861 44.6191 89.8306 39.7278C92.646 39.2338 95.5253 39.1083 98.3739 38.8123L98.9557 38.75H101.989Z" fill="white"/>
<path d="M133.298 76.0196C133.303 73.452 134.198 70.9654 135.83 68.9831C137.461 67.0008 139.73 65.6454 142.248 65.1474C144.767 64.6494 147.38 65.0397 149.644 66.2519C151.907 67.464 153.68 69.4231 154.662 71.7957C155.643 74.1683 155.772 76.8077 155.027 79.2647C154.282 81.7218 152.708 83.8445 150.574 85.2718C148.439 86.699 145.877 87.3424 143.321 87.0925C140.766 86.8427 138.376 85.715 136.559 83.9014C135.524 82.8666 134.703 81.6377 134.144 80.2853C133.584 78.9328 133.297 77.4832 133.298 76.0196V76.0196Z" fill="white"/>
</svg>
