<svg width="760" height="760" viewBox="0 0 760 760" fill="none" xmlns="http://www.w3.org/2000/svg">
<circle cx="380" cy="380" r="380" fill="#2FC8E0"/>
<circle cx="380" cy="380" r="380" stroke="#EBECF2"/>
<path d="M614.906 386.066C614.446 392.661 614.284 399.297 613.477 405.843C604.918 475.355 572.499 531.055 515.591 571.841C473.08 602.317 425.1 616.541 372.84 614.732C312.408 612.653 260.307 590.159 216.62 548.336C216.218 547.95 216.227 546.41 216.62 545.998C271.109 491.418 325.65 436.892 380.241 382.422C381.532 381.24 383.203 380.557 384.952 380.496C461.61 380.401 538.267 380.374 614.922 380.415L614.906 386.066Z" fill="white"/>
<path d="M385.977 145.666C392.422 146.156 398.879 146.441 405.302 147.135C442.908 151.211 477.542 163.626 509.204 184.38C509.419 184.542 509.625 184.715 509.82 184.899L489.805 204.874C485.448 209.222 481.12 213.599 476.711 217.891C476.432 218.072 476.114 218.181 475.783 218.21C475.453 218.239 475.12 218.186 474.814 218.057C442.938 199.717 408.626 191.282 371.878 192.752C289.66 196.065 217.985 254.297 198.271 334.148C186.068 383.623 192.857 430.625 217.985 474.987C218.225 475.408 218.238 476.339 217.949 476.608C207.041 487.597 196.095 498.557 185.112 509.49C185.005 509.597 184.872 509.684 184.622 509.885C183.588 508.284 182.548 506.734 181.569 505.152C154.47 461.344 142.507 413.73 146.378 362.335C154.447 255.497 233.964 167.969 339.773 149.382C350.471 147.504 361.413 147.028 372.237 145.903L374.448 145.666H385.977Z" fill="white"/>
<path d="M504.949 287.29C504.968 277.533 508.367 268.085 514.568 260.552C520.769 253.019 529.388 247.868 538.959 245.976C548.53 244.084 558.461 245.567 567.062 250.173C575.662 254.779 582.401 262.224 586.131 271.24C589.861 280.256 590.351 290.285 587.518 299.622C584.686 308.959 578.706 317.025 570.596 322.449C562.485 327.872 552.747 330.317 543.037 329.368C533.327 328.418 524.246 324.133 517.34 317.241C513.407 313.309 510.288 308.639 508.162 303.5C506.036 298.361 504.944 292.852 504.949 287.29V287.29Z" fill="white"/>
</svg>
