<svg width="480" height="480" viewBox="0 0 480 480" fill="none" xmlns="http://www.w3.org/2000/svg">
<circle cx="240" cy="240" r="240" fill="#2FC8E0"/>
<circle cx="240" cy="240" r="240" stroke="#EBECF2"/>
<path d="M389.362 244.832C389.071 248.997 388.969 253.188 388.459 257.323C383.053 301.225 362.578 336.404 326.636 362.163C299.787 381.412 269.484 390.395 236.478 389.252C198.31 387.939 165.405 373.733 137.812 347.318C137.558 347.074 137.565 346.101 137.812 345.841C172.227 311.37 206.674 276.932 241.152 242.53C241.968 241.784 243.023 241.352 244.128 241.314C292.543 241.254 340.958 241.237 389.372 241.263L389.362 244.832Z" fill="white"/>
<path d="M244.775 93C248.845 93.3092 252.924 93.4894 256.98 93.9276C280.731 96.5022 302.605 104.343 322.603 117.451C322.738 117.553 322.868 117.663 322.992 117.779L310.35 130.395C307.599 133.14 304.865 135.905 302.08 138.616C301.905 138.73 301.703 138.799 301.495 138.817C301.286 138.835 301.076 138.802 300.883 138.72C280.75 127.137 259.079 121.81 235.87 122.738C183.943 124.831 138.675 161.609 126.224 212.041C118.517 243.289 122.804 272.974 138.675 300.992C138.826 301.258 138.834 301.846 138.652 302.016C131.763 308.956 124.85 315.879 117.913 322.783C117.845 322.851 117.761 322.906 117.604 323.033C116.95 322.022 116.293 321.043 115.675 320.044C98.5597 292.376 91.0043 262.303 93.4491 229.844C98.5453 162.367 148.767 107.086 215.594 95.3466C222.35 94.161 229.261 93.86 236.097 93.1495L237.494 93H244.775Z" fill="white"/>
<path d="M319.915 182.447C319.927 176.285 322.074 170.317 325.99 165.559C329.907 160.802 335.351 157.549 341.395 156.354C347.44 155.159 353.712 156.095 359.144 159.005C364.576 161.914 368.832 166.616 371.188 172.31C373.543 178.004 373.853 184.339 372.064 190.235C370.275 196.132 366.498 201.227 361.376 204.652C356.254 208.078 350.103 209.622 343.971 209.022C337.838 208.422 332.103 205.716 327.741 201.363C325.257 198.88 323.287 195.931 321.944 192.685C320.601 189.439 319.912 185.96 319.915 182.447V182.447Z" fill="white"/>
</svg>
