<svg width="256" height="256" viewBox="0 0 256 256" fill="none" xmlns="http://www.w3.org/2000/svg">
<circle cx="128" cy="128" r="128" fill="#2FC8E0"/>
<circle cx="128" cy="128" r="128" stroke="#EBECF2"/>
<path d="M207.659 130.579C207.504 132.8 207.45 135.036 207.178 137.24C204.295 160.655 193.375 179.417 174.206 193.156C159.886 203.421 143.724 208.212 126.121 207.603C105.765 206.903 88.2154 199.326 73.4995 185.238C73.3641 185.108 73.3674 184.589 73.4995 184.451C91.854 166.066 110.226 147.699 128.614 129.351C129.049 128.953 129.612 128.723 130.201 128.703C156.023 128.67 181.844 128.661 207.665 128.675L207.659 130.579Z" fill="white"/>
<path d="M130.546 49.6016C132.717 49.7665 134.892 49.8626 137.056 50.0963C149.723 51.4694 161.389 55.6514 172.054 62.6422C172.127 62.6966 172.196 62.7549 172.262 62.817L165.52 69.5453C164.052 71.0098 162.594 72.4841 161.109 73.9301C161.015 73.9908 160.908 74.0276 160.797 74.0373C160.685 74.047 160.573 74.0293 160.47 73.9858C149.733 67.8082 138.175 64.9669 125.797 65.462C98.1026 66.5781 73.9594 86.1932 67.3189 113.09C63.2086 129.756 65.4952 145.588 73.9594 160.531C74.0402 160.673 74.0445 160.986 73.9474 161.077C70.2731 164.778 66.5861 168.47 62.8864 172.153C62.8504 172.189 62.8056 172.218 62.7215 172.286C62.3732 171.746 62.0226 171.224 61.6928 170.692C52.5648 155.935 48.5353 139.897 49.8391 122.585C52.5571 86.5972 79.3419 57.1141 114.983 50.8531C118.586 50.2208 122.272 50.0602 125.918 49.6813L126.663 49.6016H130.546Z" fill="white"/>
<path d="M170.621 97.3064C170.627 94.0199 171.772 90.8371 173.861 88.2998C175.95 85.7624 178.853 84.0274 182.077 83.39C185.301 82.7526 188.646 83.2522 191.543 84.8038C194.44 86.3553 196.71 88.863 197.966 91.8999C199.223 94.9368 199.388 98.3152 198.434 101.46C197.48 104.605 195.465 107.322 192.734 109.149C190.002 110.976 186.721 111.8 183.451 111.48C180.18 111.16 177.121 109.717 174.795 107.395C173.47 106.071 172.419 104.498 171.703 102.767C170.987 101.035 170.619 99.1799 170.621 97.3064V97.3064Z" fill="white"/>
</svg>
