<svg width="32" height="32" viewBox="0 0 32 32" fill="none" xmlns="http://www.w3.org/2000/svg">
<circle cx="16" cy="16" r="16" fill="#2FC8E0"/>
<circle cx="16" cy="16" r="16" stroke="#EBECF2"/>
<path d="M25.9568 16.3217C25.9374 16.5994 25.9306 16.8788 25.8966 17.1544C25.5363 20.0813 24.1713 22.4265 21.7751 24.1438C19.9852 25.427 17.965 26.0259 15.7646 25.9497C13.2201 25.8622 11.0263 24.9151 9.18686 23.1541C9.16993 23.1379 9.17034 23.073 9.18686 23.0557C11.4812 20.7576 13.7776 18.4618 16.0762 16.1683C16.1306 16.1185 16.2009 16.0898 16.2745 16.0872C19.5022 16.0832 22.7299 16.0821 25.9575 16.0838L25.9568 16.3217Z" fill="white"/>
<path d="M16.3175 6.19922C16.5889 6.21983 16.8608 6.23184 17.1312 6.26106C18.7146 6.4327 20.1729 6.95545 21.5061 7.8293C21.5151 7.83609 21.5238 7.84339 21.532 7.85114L20.6892 8.69219C20.5058 8.87525 20.3236 9.05954 20.1379 9.24028C20.1262 9.24787 20.1128 9.25248 20.0989 9.25369C20.0849 9.2549 20.0709 9.25269 20.0581 9.24724C18.7159 8.47505 17.2712 8.11989 15.7239 8.18177C12.2621 8.32129 9.24419 10.7732 8.41413 14.1353C7.90034 16.2185 8.18617 18.1975 9.24419 20.0654C9.25429 20.0831 9.25484 20.1223 9.24269 20.1336C8.78341 20.5963 8.32253 21.0578 7.86007 21.5181C7.85556 21.5226 7.84997 21.5263 7.83946 21.5348C7.79591 21.4673 7.7521 21.4021 7.71087 21.3355C6.56986 19.4909 6.06617 17.4861 6.22916 15.3221C6.56891 10.8237 9.917 7.13828 14.3721 6.35566C14.8226 6.27662 15.2833 6.25655 15.739 6.20918L15.8321 6.19922H16.3175Z" fill="white"/>
<path d="M21.3271 12.162C21.3279 11.7511 21.4711 11.3533 21.7321 11.0361C21.9932 10.719 22.3562 10.5021 22.7592 10.4224C23.1621 10.3427 23.5803 10.4052 23.9424 10.5991C24.3045 10.7931 24.5883 11.1065 24.7453 11.4861C24.9024 11.8658 24.923 12.2881 24.8037 12.6812C24.6845 13.0743 24.4327 13.414 24.0912 13.6423C23.7497 13.8707 23.3397 13.9736 22.9308 13.9336C22.522 13.8937 22.1396 13.7132 21.8489 13.4231C21.6833 13.2575 21.5519 13.0609 21.4624 12.8445C21.3729 12.6281 21.3269 12.3961 21.3271 12.162V12.162Z" fill="white"/>
</svg>
