<svg width="360" height="360" viewBox="0 0 360 360" fill="none" xmlns="http://www.w3.org/2000/svg">
<circle cx="180" cy="180" r="180" fill="#2FC8E0"/>
<circle cx="180" cy="180" r="180" stroke="#EBECF2"/>
<path d="M292.021 183.624C291.803 186.748 291.727 189.892 291.344 192.992C287.29 225.919 271.934 252.303 244.977 271.623C224.84 286.059 202.113 292.796 177.359 291.939C148.733 290.955 124.054 280.3 103.359 260.489C103.169 260.306 103.174 259.576 103.359 259.381C129.17 233.527 155.005 207.7 180.864 181.898C181.476 181.338 182.267 181.015 183.096 180.986C219.407 180.941 255.718 180.928 292.029 180.947L292.021 183.624Z" fill="white"/>
<path d="M183.581 69.75C186.634 69.9819 189.693 70.117 192.735 70.4457C210.548 72.3766 226.954 78.2576 241.952 88.0884C242.054 88.1649 242.151 88.2469 242.244 88.3341L232.763 97.7959C230.699 99.8554 228.649 101.929 226.56 103.962C226.428 104.047 226.278 104.099 226.121 104.113C225.964 104.126 225.807 104.102 225.662 104.04C210.563 95.353 194.309 91.3575 176.903 92.0537C137.957 93.6233 104.006 121.207 94.6677 159.031C88.8876 182.467 92.1032 204.73 104.006 225.744C104.12 225.944 104.126 226.384 103.989 226.512C98.8221 231.717 93.6373 236.909 88.4346 242.088C88.3839 242.138 88.3209 242.18 88.2027 242.275C87.7128 241.516 87.2199 240.782 86.7561 240.033C73.9197 219.282 68.2532 196.728 70.0868 172.383C73.909 121.775 111.575 80.3144 161.695 71.51C166.763 70.6208 171.945 70.395 177.073 69.8621L178.12 69.75H183.581Z" fill="white"/>
<path d="M239.937 136.835C239.945 132.214 241.556 127.738 244.493 124.17C247.43 120.602 251.513 118.162 256.047 117.265C260.58 116.369 265.284 117.071 269.358 119.253C273.432 121.435 276.624 124.962 278.391 129.232C280.158 133.503 280.39 138.254 279.048 142.677C277.707 147.099 274.874 150.92 271.032 153.489C267.191 156.058 262.577 157.216 257.978 156.767C253.379 156.317 249.077 154.287 245.806 151.023C243.943 149.16 242.465 146.948 241.458 144.513C240.451 142.079 239.934 139.47 239.937 136.835V136.835Z" fill="white"/>
</svg>
