<?xml version="1.0" encoding="utf-8"?>
<!-- Generator: Adobe Illustrator 21.0.2, SVG Export Plug-In . SVG Version: 6.00 Build 0)  -->
<svg version="1.1" id="Layer_1" xmlns="http://www.w3.org/2000/svg" xmlns:xlink="http://www.w3.org/1999/xlink" x="0px" y="0px"
	 viewBox="0 0 612 792" style="enable-background:new 0 0 612 792;" xml:space="preserve">
<style type="text/css">
	.st0{fill-opacity:0;stroke:#CCCCCC;stroke-miterlimit:10;}
	.st1{fill:#E97D28;}
	.st2{fill-opacity:0;stroke:#D07215;stroke-miterlimit:10;}
	.st3{fill:#F9C500;}
	.st4{fill-opacity:0;stroke:#ECC530;stroke-miterlimit:10;}
	.st5{fill:#C65628;}
	.st6{fill-opacity:0;stroke:#C65628;stroke-miterlimit:10;}
	.st7{fill:#1598E5;}
	.st8{fill-opacity:0;stroke:#0995E9;stroke-miterlimit:10;}
	.st9{fill:#99B83C;}
	.st10{fill-opacity:0;stroke:#99B83C;stroke-miterlimit:10;}
</style>
<g id="Layer_1_1_">
	<path class="st0" d="M488.6,579.7H106.5c-13.2,0-24.1-10.8-24.1-24.1V196.3c0-13.2,10.8-24.1,24.1-24.1h382.1
		c13.2,0,24.1,10.8,24.1,24.1v359.4C512.7,568.9,501.8,579.7,488.6,579.7z"/>
	<g>
		<path class="st1" d="M150.7,348.5c-7.6-28,5.8-50.1-2.2-54.3c-6.9-3.6-22.9,9.5-30.4,24.2c-12.4,24.3,0,49.5,0.5,50.6
			c17.4,33.9,67,39.9,71.1,32.6C193.3,395.4,160.1,383.3,150.7,348.5z"/>
		<path class="st2" d="M150.7,348.5c-7.6-28,5.8-50.1-2.2-54.3c-6.9-3.6-22.9,9.5-30.4,24.2c-12.4,24.3,0,49.5,0.5,50.6
			c17.4,33.9,67,39.9,71.1,32.6C193.3,395.4,160.1,383.3,150.7,348.5z"/>
	</g>
	<g>
		<path class="st3" d="M160.5,416.4c-43.2-13.4-59.4-45.3-68.7-39.8c-7.3,4.4-4.2,28.9,7.9,45.2c23.3,31.5,71.2,21.1,73.9,20.5
			c14.3-3.3,30.5-11.4,29.6-16.7C202.4,420.1,183.7,423.6,160.5,416.4z"/>
		<path class="st4" d="M160.5,416.4c-43.2-13.4-59.4-45.3-68.7-39.8c-7.3,4.4-4.2,28.9,7.9,45.2c23.3,31.5,71.2,21.1,73.9,20.5
			c14.3-3.3,30.5-11.4,29.6-16.7C202.4,420.1,183.7,423.6,160.5,416.4z"/>
	</g>
	<g>
		<path class="st5" d="M196.4,460.9c-39,7.4-71.1-17-74-10.4c-2.2,5,15.3,20.6,32.2,29.2c10.9,5.6,30.3,15.4,45,5.5
			c8.9-6,15.3-18.6,12.5-23.4C209.9,457.8,201.6,459.9,196.4,460.9z"/>
		<path class="st6" d="M196.4,460.9c-39,7.4-71.1-17-74-10.4c-2.2,5,15.3,20.6,32.2,29.2c10.9,5.6,30.3,15.4,45,5.5
			c8.9-6,15.3-18.6,12.5-23.4C209.9,457.8,201.6,459.9,196.4,460.9z"/>
	</g>
	<g>
		<path class="st7" d="M209.3,493.6c-21.5,12-41.2,5.7-42.1,9.7c-0.9,4.4,21.1,20,38.5,11.7c14-6.7,19.1-26.1,16.1-28.4
			C220.3,485.4,216.8,489.4,209.3,493.6z"/>
		<path class="st8" d="M209.3,493.6c-21.5,12-41.2,5.7-42.1,9.7c-0.9,4.4,21.1,20,38.5,11.7c14-6.7,19.1-26.1,16.1-28.4
			C220.3,485.4,216.8,489.4,209.3,493.6z"/>
	</g>
	<g>
		<path class="st7" d="M230.4,514.9c-19.7,14.8-40.1,11.2-40.4,15.3c-0.3,4.5,23.6,16.9,39.7,6.4c13-8.5,15.5-28.5,12.2-30.3
			C240.2,505.2,237.2,509.7,230.4,514.9z"/>
		<path class="st8" d="M230.4,514.9c-19.7,14.8-40.1,11.2-40.4,15.3c-0.3,4.5,23.6,16.9,39.7,6.4c13-8.5,15.5-28.5,12.2-30.3
			C240.2,505.2,237.2,509.7,230.4,514.9z"/>
	</g>
	<g>
		<path class="st9" d="M396.6,224.6c2.1-0.1,3.3,0.2,5,1.4c1.2,1.1,1.6,2.8,1.9,4.4c1.8,13-9.9,25.9-5.6,38.2
			c2.8,8,11.2,12.2,17.4,17.9c14.3,13.1,17.2,34.2,25.4,51.8c6.5,14.2,16.6,26.4,25.8,39c9.2,12.6,17.7,26.3,20.4,41.7
			c2.6,15.4-1.8,32.9-14.4,42.1c-10.2,7.4-24.8,8.1-35.7,1.7c-10.1-5.9-16.6-17.1-27.3-21.8c-6.4-2.8-13.6-3.1-20.4-4.5
			c-15.3-3.2-29.1-12.9-37.4-26.3c-9.6,8.2-14.9,20.7-16.4,33.2s0.2,25.3,2.8,37.6c2.4,11.7,5.1,25.5-3.1,34.2
			c-4.7,5-11.8,6.8-18.7,7.6c-5.6,0.6-11.3,0.7-16.9,0.1c-11.8-1.1-23.4-4.7-33.8-10.4c-15.8-8.7-28.4-22.6-38.5-37.4
			c-2.3-3.4-4.5-6.9-6.5-10.5c-10.7-19.1-13.9-39-18.1-64.1c-1.8-10.6-2.9-19.7-10.3-25.3c-4.5-3.4-9.9-4.3-9.8-6.5
			c0.1-1.6,3-3.2,13.7-5.6c20-4.6,30-3.9,31.1-7.9c0.8-3-4-6.6-4.5-7c-4-3-7-1.4-13.8-3.8c-2.3-0.8-6.1-2.2-9.5-5.5
			c-1.2-1.1-6.4-6.2-6.2-13.6c0.1-4,1.7-9.9,4.7-10.4c3.2-0.5,4.2,5.7,11.8,9.8c3.6,1.9,6.7,2.4,11.2,3c3.6,0.5,9.1,1.2,15.6-0.6
			c4.1-1.2,9.1-3.5,8.8-5c-0.2-1-2.4-0.7-6-2.1c-2.7-1.1-4.9-3-9.4-7c0,0-2.9-2.6-7-7c-0.5-0.6-1.2-1.4-2-2.5c0,0-1.5-2.2-2.2-4.5
			c-1.6-4.8,1.2-13.9,4-14c2.5-0.1,2.5,6.9,9,10.5c1.4,0.8,2.6,1.1,5,1.7c3.8,0.9,10.2,1.7,22.5,1c1.8-0.1,10.6-0.6,10.7-2.1
			c0.1-1.4-6.7-1-11.6-6c-0.4-0.4-1.1-1.4-2.5-3.4c-2.3-3.1-3.6-5.3-6.4-9.6c-4.5-7-4.5-6.9-4.7-7.3c-1.7-4.1-2.9-10.6-0.7-12
			c2.5-1.5,5.9,5.6,16.9,10.5c9.3,4.2,12.8,3.9,22.3,6.5c0.8,0.2,3.1,1.6,6.4,1.8c2.8,0.2,7.6-0.2,8.2-2.2c0.8-2.7-6.3-7.6-8.8-8.6
			c-0.3-0.1-1.7-0.7-3.5-1.7c0,0-0.6-0.4-1.2-0.8c-6.6-4.2-10.3-12.2-10.3-12.2c-1.1-2.2-1.9-4.1-2.3-6.8
			c-0.9-7.6,3.3-14.9,5.3-14.6c1.5,0.2,0.6,4.5,4,8.8c2.1,2.6,4.6,3.7,6.3,4.4c5.6,2.4,33.3,13.7,37.8,15.5
			c4.5,1.8,26.6,9.3,26.6,9.3c5.4,1.6,8.4,2.1,12.2,1.3c4-0.8,7.9-4.1,7.9-8.3c0-3.8-3.2-7.1-6.8-8.3c-3.6-1.3-7.6-1-11.4-0.7
			c9.7-13,24-22.6,39.7-26.6C395.1,224.7,394,224.9,396.6,224.6z M418.5,326.8c-5.7,0-10.4,5-10.4,11.1s4.7,11.1,10.4,11.1
			s10.4-5,10.4-11.1S424.2,326.8,418.5,326.8z"/>
		<path class="st10" d="M396.6,224.6c2.1-0.1,3.3,0.2,5,1.4c1.2,1.1,1.6,2.8,1.9,4.4c1.8,13-9.9,25.9-5.6,38.2
			c2.8,8,11.2,12.2,17.4,17.9c14.3,13.1,17.2,34.2,25.4,51.8c6.5,14.2,16.6,26.4,25.8,39c9.2,12.6,17.7,26.3,20.4,41.7
			c2.6,15.4-1.8,32.9-14.4,42.1c-10.2,7.4-24.8,8.1-35.7,1.7c-10.1-5.9-16.6-17.1-27.3-21.8c-6.4-2.8-13.6-3.1-20.4-4.5
			c-15.3-3.2-29.1-12.9-37.4-26.3c-9.6,8.2-14.9,20.7-16.4,33.2s0.2,25.3,2.8,37.6c2.4,11.7,5.1,25.5-3.1,34.2
			c-4.7,5-11.8,6.8-18.7,7.6c-5.6,0.6-11.3,0.7-16.9,0.1c-11.8-1.1-23.4-4.7-33.8-10.4c-15.8-8.7-28.4-22.6-38.5-37.4
			c-2.3-3.4-4.5-6.9-6.5-10.5c-10.7-19.1-13.9-39-18.1-64.1c-1.8-10.6-2.9-19.7-10.3-25.3c-4.5-3.4-9.9-4.3-9.8-6.5
			c0.1-1.6,3-3.2,13.7-5.6c20-4.6,30-3.9,31.1-7.9c0.8-3-4-6.6-4.5-7c-4-3-7-1.4-13.8-3.8c-2.3-0.8-6.1-2.2-9.5-5.5
			c-1.2-1.1-6.4-6.2-6.2-13.6c0.1-4,1.7-9.9,4.7-10.4c3.2-0.5,4.2,5.7,11.8,9.8c3.6,1.9,6.7,2.4,11.2,3c3.6,0.5,9.1,1.2,15.6-0.6
			c4.1-1.2,9.1-3.5,8.8-5c-0.2-1-2.4-0.7-6-2.1c-2.7-1.1-4.9-3-9.4-7c0,0-2.9-2.6-7-7c-0.5-0.6-1.2-1.4-2-2.5c0,0-1.5-2.2-2.2-4.5
			c-1.6-4.8,1.2-13.9,4-14c2.5-0.1,2.5,6.9,9,10.5c1.4,0.8,2.6,1.1,5,1.7c3.8,0.9,10.2,1.7,22.5,1c1.8-0.1,10.6-0.6,10.7-2.1
			c0.1-1.4-6.7-1-11.6-6c-0.4-0.4-1.1-1.4-2.5-3.4c-2.3-3.1-3.6-5.3-6.4-9.6c-4.5-7-4.5-6.9-4.7-7.3c-1.7-4.1-2.9-10.6-0.7-12
			c2.5-1.5,5.9,5.6,16.9,10.5c9.3,4.2,12.8,3.9,22.3,6.5c0.8,0.2,3.1,1.6,6.4,1.8c2.8,0.2,7.6-0.2,8.2-2.2c0.8-2.7-6.3-7.6-8.8-8.6
			c-0.3-0.1-1.7-0.7-3.5-1.7c0,0-0.6-0.4-1.2-0.8c-6.6-4.2-10.3-12.2-10.3-12.2c-1.1-2.2-1.9-4.1-2.3-6.8
			c-0.9-7.6,3.3-14.9,5.3-14.6c1.5,0.2,0.6,4.5,4,8.8c2.1,2.6,4.6,3.7,6.3,4.4c5.6,2.4,33.3,13.7,37.8,15.5
			c4.5,1.8,26.6,9.3,26.6,9.3c5.4,1.6,8.4,2.1,12.2,1.3c4-0.8,7.9-4.1,7.9-8.3c0-3.8-3.2-7.1-6.8-8.3c-3.6-1.3-7.6-1-11.4-0.7
			c9.7-13,24-22.6,39.7-26.6C395.1,224.7,394,224.9,396.6,224.6z M418.5,326.8c-5.7,0-10.4,5-10.4,11.1s4.7,11.1,10.4,11.1
			s10.4-5,10.4-11.1S424.2,326.8,418.5,326.8z"/>
	</g>
	<path class="st9" d="M466,215.8l0.1,0c7.9-6.8,15.7-14,24.8-19.3c2.3-1.3,6.2-3.8,8.9-2.2c2.8,3.7-1.8,12.3-3.4,15.7
		c-3.5,7.3-7.6,14.4-11.9,21.3c0.4,1.7,0.1,2.7-0.8,4.1l-8.9,10.8c0.8,1.3,0.4,2.8-0.1,4.1c-0.1,0.3-0.4,0.5-0.5,0.8l-5.8,7
		c1.2,2.1,0.8,3.8-0.5,5.7l-5.4,6.5c0.8,1.5,0.4,3.2-0.2,4.6c-0.1,0.3-0.4,0.6-0.6,0.9l-4.8,5.9c1.9,1.9,2,4.2,1,6.5
		c-0.1,0.3-0.4,0.6-0.6,0.9l-12,14.5c-1.6,2.4-5.2,2.7-7.5,0.8c-2-5.1-5.7-12.7-12.6-20.4c-6.4-7.2-13.1-11.6-17.8-14.2
		c-0.4,0-1.2-0.1-2-0.5c-0.5-0.3-1.4-0.7-1.8-1.8c-0.4-1.2,0.1-2.3,0.2-2.5c3.4-4,6.8-7.9,10.1-11.9c2.3-2.4,5-2.7,7.8-0.7l4.8-5.9
		c1.3-1.4,3.3-2.5,5.2-1.9l5.4-6.4c1.4-1.6,2.5-1.7,4.5-1.8c0.7,0.2,0.5,0.1,0.8,0.2l5.9-7.2c1.2-1.3,3-2,4.8-1.5l8.8-10.7
		c0.9-1.3,2.3-1.4,3.8-1.6L466,215.8z"/>
</g>
</svg>
