<svg width="1233" height="570" viewBox="0 0 1233 570" fill="none" xmlns="http://www.w3.org/2000/svg">
<path d="M106.008 34.352V0.815994H0.792V34.352H35.864V190H70.936V34.352H106.008ZM246.02 190V109.872C246.02 63.28 224.516 44.592 190.468 44.592C175.876 44.592 164.612 48.688 154.372 57.904V0.815994H120.324V190H154.372V118.064C154.372 86.832 164.868 76.08 184.324 76.08C204.292 76.08 211.972 87.856 211.972 117.552V190H246.02ZM415.648 121.136C415.648 77.104 384.672 44.848 342.432 44.848C300.704 44.848 267.68 77.872 267.68 119.6C267.68 161.072 301.216 193.328 344.48 193.328C373.152 193.328 402.592 177.2 412.064 148.016H374.944C366.24 158.256 357.792 162.096 343.712 162.096C323.488 162.096 308.64 151.344 304.544 134.192H414.368C415.392 129.328 415.648 126.256 415.648 121.136ZM382.112 104.24H303.52C308.896 86.064 322.72 76.08 342.944 76.08C363.936 76.08 377.76 86.064 382.112 104.24ZM609.164 34.352V0.815994H512.908V190H547.98V112.432H606.348V78.896H547.98V34.352H609.164ZM756.032 190V48.176H721.984V114.992C721.984 133.936 720.448 142.64 716.608 149.04C711.488 157.232 702.272 162.096 690.752 162.096C674.368 162.096 663.872 155.184 663.872 117.552V48.176H629.824V124.208C629.824 174.128 650.816 193.328 683.84 193.328C700.992 193.328 711.744 188.976 724.544 176.432V190H756.032ZM842.972 79.152V48.176H822.492V0.815994H788.444V48.176H771.804V79.152H788.444V190H822.492V79.152H842.972ZM986.282 190V48.176H952.234V114.992C952.234 133.936 950.698 142.64 946.858 149.04C941.738 157.232 932.522 162.096 921.002 162.096C904.618 162.096 894.122 155.184 894.122 117.552V48.176H860.074V124.208C860.074 174.128 881.066 193.328 914.09 193.328C931.242 193.328 941.994 188.976 954.794 176.432V190H986.282ZM1078.09 77.616V44.848H1075.53C1060.93 44.848 1053.77 48.944 1044.81 62V48.176H1013.57V190H1047.62V111.152C1047.62 89.136 1057.61 78.128 1078.09 77.616ZM1232.4 121.136C1232.4 77.104 1201.42 44.848 1159.18 44.848C1117.45 44.848 1084.43 77.872 1084.43 119.6C1084.43 161.072 1117.97 193.328 1161.23 193.328C1189.9 193.328 1219.34 177.2 1228.81 148.016H1191.69C1182.99 158.256 1174.54 162.096 1160.46 162.096C1140.24 162.096 1125.39 151.344 1121.29 134.192H1231.12C1232.14 129.328 1232.4 126.256 1232.4 121.136ZM1198.86 104.24H1120.27C1125.65 86.064 1139.47 76.08 1159.69 76.08C1180.69 76.08 1194.51 86.064 1198.86 104.24ZM157.464 443.112C157.464 400.872 124.44 367.848 81.688 367.848C40.472 367.848 6.68 401.384 6.68 442.088C6.68 483.048 40.472 516.328 81.944 516.328C123.16 516.328 157.464 483.048 157.464 443.112ZM123.16 442.088C123.16 465.896 104.728 485.096 82.2 485.096C59.16 485.096 40.984 465.896 40.984 441.576C40.984 418.28 59.672 399.08 81.944 399.08C104.728 399.08 123.16 418.536 123.16 442.088ZM232.894 356.584V324.328C228.798 323.816 226.75 323.816 224.446 323.816C199.87 323.816 181.438 336.36 177.598 373.736H165.31V402.152H177.598V513H211.646V402.152H230.846V373.736H211.646C211.902 360.936 216.254 356.584 229.566 356.584H232.894ZM515.658 421.096V416.488H392.01V449.256H470.346C460.106 470.248 439.626 482.536 414.794 482.536C377.674 482.536 349.258 454.632 349.258 418.536C349.258 382.952 375.37 354.28 412.746 354.28C434.762 354.28 452.938 362.984 464.714 379.368H505.93C493.642 345.32 454.73 320.488 413.514 320.488C358.218 320.488 313.93 363.752 313.93 418.024C313.93 473.32 358.73 516.328 416.842 516.328C472.65 516.328 515.658 472.552 515.658 421.096ZM569.122 513V371.176H535.074V513H569.122ZM569.378 350.696V316.648H535.33V350.696H569.378ZM724.318 371.176H685.918L653.662 465.128L620.894 371.176H583.006L640.094 513H667.23L724.318 371.176ZM773.872 513V371.176H739.824V513H773.872ZM774.128 350.696V316.648H740.08V350.696H774.128ZM927.276 513V436.968C927.276 411.624 924.716 399.336 917.036 388.328C907.82 375.016 892.46 367.848 872.748 367.848C856.62 367.848 845.356 372.712 832.812 384.744V371.176H801.324V513H835.372V446.184C835.372 427.24 836.652 419.048 841.004 412.136C846.38 403.688 855.34 399.08 866.092 399.08C882.988 399.08 893.228 405.736 893.228 443.624V513H927.276ZM1097.42 486.12V371.176H1064.9V389.096C1054.41 374.76 1039.05 367.848 1018.57 367.848C978.376 367.848 948.68 399.08 948.68 441.064C948.68 484.84 977.864 516.328 1018.31 516.328C1038.28 516.328 1051.59 509.928 1064.9 494.312C1063.62 524.776 1050.57 539.624 1025.22 539.624C1009.35 539.624 999.624 535.528 989.64 524.52H950.984C962.504 552.936 989.128 569.576 1023.94 569.576C1067.98 569.576 1097.42 547.048 1097.42 486.12ZM1063.37 442.6C1063.37 468.2 1047.24 485.096 1022.92 485.096C998.6 485.096 982.984 468.456 982.984 442.6C982.984 416.488 998.6 399.08 1022.41 399.08C1046.73 399.08 1063.37 416.744 1063.37 442.6ZM1162.48 513V480.232H1128.43V513H1162.48Z" fill="#FED670"/>
</svg>
