<svg width="1702" height="174" viewBox="0 0 1702 174" fill="none" xmlns="http://www.w3.org/2000/svg">
<path d="M72.568 27.992V4.936H0.232V27.992H24.344V135H48.456V27.992H72.568ZM168.826 135V79.912C168.826 47.88 154.042 35.032 130.634 35.032C120.602 35.032 112.858 37.848 105.818 44.184V4.936H82.4103V135H105.818V85.544C105.818 64.072 113.034 56.68 126.41 56.68C140.138 56.68 145.418 64.776 145.418 85.192V135H168.826ZM285.446 87.656C285.446 57.384 264.15 35.208 235.11 35.208C206.422 35.208 183.718 57.912 183.718 86.6C183.718 115.112 206.774 137.288 236.518 137.288C256.23 137.288 276.47 126.2 282.982 106.136H257.462C251.478 113.176 245.67 115.816 235.99 115.816C222.086 115.816 211.878 108.424 209.062 96.632H284.566C285.27 93.288 285.446 91.176 285.446 87.656ZM262.39 76.04H208.358C212.054 63.544 221.558 56.68 235.462 56.68C249.894 56.68 259.398 63.544 262.39 76.04ZM418.488 27.992V4.936H352.312V135H376.424V81.672H416.552V58.616H376.424V27.992H418.488ZM519.46 135V37.496H496.052V83.432C496.052 96.456 494.996 102.44 492.356 106.84C488.836 112.472 482.5 115.816 474.58 115.816C463.316 115.816 456.1 111.064 456.1 85.192V37.496H432.692V89.768C432.692 124.088 447.124 137.288 469.828 137.288C481.62 137.288 489.012 134.296 497.812 125.672V135H519.46ZM579.231 58.792V37.496H565.151V4.936H541.743V37.496H530.303V58.792H541.743V135H565.151V58.792H579.231ZM677.756 135V37.496H654.348V83.432C654.348 96.456 653.292 102.44 650.652 106.84C647.132 112.472 640.796 115.816 632.876 115.816C621.612 115.816 614.396 111.064 614.396 85.192V37.496H590.988V89.768C590.988 124.088 605.42 137.288 628.124 137.288C639.916 137.288 647.308 134.296 656.108 125.672V135H677.756ZM740.872 57.736V35.208H739.112C729.08 35.208 724.152 38.024 717.992 47V37.496H696.52V135H719.928V80.792C719.928 65.656 726.792 58.088 740.872 57.736ZM846.961 87.656C846.961 57.384 825.665 35.208 796.625 35.208C767.937 35.208 745.233 57.912 745.233 86.6C745.233 115.112 768.289 137.288 798.033 137.288C817.745 137.288 837.985 126.2 844.497 106.136H818.977C812.993 113.176 807.185 115.816 797.505 115.816C783.601 115.816 773.393 108.424 770.577 96.632H846.081C846.785 93.288 846.961 91.176 846.961 87.656ZM823.905 76.04H769.873C773.569 63.544 783.073 56.68 796.977 56.68C811.409 56.68 820.913 63.544 823.905 76.04ZM1010.8 86.952C1010.8 57.912 988.099 35.208 958.707 35.208C930.371 35.208 907.139 58.264 907.139 86.248C907.139 114.408 930.371 137.288 958.883 137.288C987.219 137.288 1010.8 114.408 1010.8 86.952ZM987.219 86.248C987.219 102.616 974.547 115.816 959.059 115.816C943.219 115.816 930.723 102.616 930.723 85.896C930.723 69.88 943.571 56.68 958.883 56.68C974.547 56.68 987.219 70.056 987.219 86.248ZM1062.66 27.464V5.28799C1059.85 4.936 1058.44 4.936 1056.85 4.936C1039.96 4.936 1027.29 13.56 1024.65 39.256H1016.2V58.792H1024.65V135H1048.05V58.792H1061.25V39.256H1048.05C1048.23 30.456 1051.22 27.464 1060.37 27.464H1062.66ZM1257.06 71.816V68.648H1172.05V91.176H1225.91C1218.87 105.608 1204.79 114.056 1187.72 114.056C1162.2 114.056 1142.66 94.872 1142.66 70.056C1142.66 45.592 1160.61 25.88 1186.31 25.88C1201.45 25.88 1213.94 31.864 1222.04 43.128H1250.37C1241.93 19.72 1215.17 2.64799 1186.84 2.64799C1148.82 2.64799 1118.37 32.392 1118.37 69.704C1118.37 107.72 1149.17 137.288 1189.13 137.288C1227.49 137.288 1257.06 107.192 1257.06 71.816ZM1293.82 135V37.496H1270.41V135H1293.82ZM1293.99 23.416V0.00799656H1270.59V23.416H1293.99ZM1400.52 37.496H1374.12L1351.94 102.088L1329.41 37.496H1303.36L1342.61 135H1361.27L1400.52 37.496ZM1434.58 135V37.496H1411.18V135H1434.58ZM1434.76 23.416V0.00799656H1411.35V23.416H1434.76ZM1540.05 135V82.728C1540.05 65.304 1538.29 56.856 1533.01 49.288C1526.67 40.136 1516.11 35.208 1502.56 35.208C1491.47 35.208 1483.73 38.552 1475.11 46.824V37.496H1453.46V135H1476.87V89.064C1476.87 76.04 1477.75 70.408 1480.74 65.656C1484.43 59.848 1490.59 56.68 1497.99 56.68C1509.6 56.68 1516.64 61.256 1516.64 87.304V135H1540.05ZM1657.02 116.52V37.496H1634.67V49.816C1627.45 39.96 1616.89 35.208 1602.81 35.208C1575.18 35.208 1554.76 56.68 1554.76 85.544C1554.76 115.64 1574.83 137.288 1602.64 137.288C1616.36 137.288 1625.52 132.888 1634.67 122.152C1633.79 143.096 1624.81 153.304 1607.39 153.304C1596.48 153.304 1589.79 150.488 1582.92 142.92H1556.35C1564.27 162.456 1582.57 173.896 1606.51 173.896C1636.78 173.896 1657.02 158.408 1657.02 116.52ZM1633.61 86.6C1633.61 104.2 1622.52 115.816 1605.8 115.816C1589.08 115.816 1578.35 104.376 1578.35 86.6C1578.35 68.648 1589.08 56.68 1605.45 56.68C1622.17 56.68 1633.61 68.824 1633.61 86.6ZM1701.75 135V112.472H1678.34V135H1701.75Z" fill="#2FC8E0"/>
</svg>
