<svg id="Capa_1" data-name="Capa 1" xmlns="http://www.w3.org/2000/svg" viewBox="0 0 2065 3266">
  <rect width="2065" height="3266" fill="#1b1658"/>
  <path d="M201,165.2v-9.8h2v9.8Zm8.8,0v-9.8h2.1v8h5.3v1.8Zm13.8,0v-9.8h2v8H231v1.8Zm21.8-4.2a5.7,5.7,0,0,1-.3,1.8,4.2,4.2,0,0,1-.9,1.4,4.7,4.7,0,0,1-1.4.8,4.8,4.8,0,0,1-1.8.4,5.8,5.8,0,0,1-1.8-.4,5.7,5.7,0,0,1-1.3-.8,4.2,4.2,0,0,1-.9-1.4,5.7,5.7,0,0,1-.3-1.8v-5.6h2V161a2.4,2.4,0,0,0,2.4,2.5,2.2,2.2,0,0,0,1.6-.7,2.9,2.9,0,0,0,.7-1.8v-5.6h2Zm5.8,2.7,1.1-1.5a5.5,5.5,0,0,0,1.7,1.1,4.5,4.5,0,0,0,1.6.3,3.3,3.3,0,0,0,1.5-.3.9.9,0,0,0,.5-.9,1.1,1.1,0,0,0-.3-.8,3.3,3.3,0,0,0-1.3-.4l-1.9-.3a3.7,3.7,0,0,1-1.9-.9,2.4,2.4,0,0,1-.7-1.8,2.5,2.5,0,0,1,1.1-2.1,4.1,4.1,0,0,1,2.8-.8l2.1.3a6.7,6.7,0,0,1,1.9,1l-1.1,1.6-1.5-.9a4,4,0,0,0-1.5-.3,2.9,2.9,0,0,0-1.4.3.8.8,0,0,0-.4.8.9.9,0,0,0,.3.7,1.6,1.6,0,0,0,1.1.3l1.8.4a3.4,3.4,0,0,1,2.2.9,2.4,2.4,0,0,1,.7,1.8,2.6,2.6,0,0,1-1.1,2.3,4.5,4.5,0,0,1-3,.9,5.9,5.9,0,0,1-2.3-.5A6.7,6.7,0,0,1,251.2,163.7Zm13.7-6.5v-1.8h8.7v1.8h-3.3v8h-2.1v-8Zm14.8,8v-9.8h4.8l1.4.2,1,.7a1.6,1.6,0,0,1,.7.9,2.7,2.7,0,0,1,.3,1.2,3.1,3.1,0,0,1-.5,1.7,4.9,4.9,0,0,1-1.4,1.1l2.1,4h-2.2l-2-3.7h-2.2v3.7Zm4.6-8h-2.6v2.6h2.6a1.4,1.4,0,0,0,1.1-.4,1,1,0,0,0,.4-.9,1.3,1.3,0,0,0-.4-1A1.8,1.8,0,0,0,284.3,157.2Zm9.1,8,4-9.8h2.4l4,9.8h-2.2l-1-2.6h-4.1l-1,2.6Zm3.8-4.2H300l-1.4-3.6Zm9.9-3.8v-1.8h8.6v1.8h-3.3v8h-2v-8Zm14.7,8v-9.8h2v9.8Zm18.8-4.9a4.5,4.5,0,0,1-.4,2,3.6,3.6,0,0,1-1.1,1.6,4.6,4.6,0,0,1-1.6,1.1,7.1,7.1,0,0,1-2.1.4,6.5,6.5,0,0,1-2-.4,4.6,4.6,0,0,1-1.6-1.1,3.6,3.6,0,0,1-1.1-1.6,4.5,4.5,0,0,1-.4-2,4.8,4.8,0,0,1,.4-2,4.2,4.2,0,0,1,1.1-1.6,4.4,4.4,0,0,1,3.6-1.4,7.1,7.1,0,0,1,2.1.3,6.4,6.4,0,0,1,1.6,1.1,4.2,4.2,0,0,1,1.1,1.6A4.8,4.8,0,0,1,340.6,160.3Zm-2.1,0a2.3,2.3,0,0,0-.2-1.2,4.1,4.1,0,0,0-.7-1.1,2,2,0,0,0-.9-.6,2.8,2.8,0,0,0-1.3-.3l-1.2.3a3.3,3.3,0,0,0-1,.6,3.9,3.9,0,0,0-.6,1.1,2.4,2.4,0,0,0-.3,1.2,2.8,2.8,0,0,0,.3,1.3,3.3,3.3,0,0,0,.6,1l1,.7,1.2.2,1.3-.2a2.2,2.2,0,0,0,.9-.7,3.6,3.6,0,0,0,.7-1A2.7,2.7,0,0,0,338.5,160.3Zm8.5-4.9h2l4.8,6.4v-6.4h1.9v9.8h-1.8l-5-6.5v6.5H347Zm14.7,8.3,1.1-1.5a5.5,5.5,0,0,0,1.7,1.1,4.5,4.5,0,0,0,1.6.3,3.1,3.1,0,0,0,1.5-.3,1,1,0,0,0,.6-.9,1.2,1.2,0,0,0-.4-.8,3.3,3.3,0,0,0-1.3-.4l-1.9-.3a4.2,4.2,0,0,1-1.9-.9,2.4,2.4,0,0,1-.7-1.8,2.5,2.5,0,0,1,1.1-2.1,4.1,4.1,0,0,1,2.8-.8l2.1.3a6.7,6.7,0,0,1,1.9,1l-1,1.6-1.6-.9a4,4,0,0,0-1.5-.3,2.3,2.3,0,0,0-1.3.3.7.7,0,0,0-.5.8.9.9,0,0,0,.3.7,1.6,1.6,0,0,0,1.1.3l1.8.4a3.4,3.4,0,0,1,2.2.9,2.4,2.4,0,0,1,.7,1.8,2.6,2.6,0,0,1-1.1,2.3,4.5,4.5,0,0,1-3,.9,5.9,5.9,0,0,1-2.3-.5A6.7,6.7,0,0,1,361.7,163.7Z" fill="#fff"/>
  <path d="M236.8,972.5h.1l2.7,2.6.6.6h0l2,1.6h0a49.4,49.4,0,0,0,5.6,4.4h0a71.4,71.4,0,0,0,87.7-4.2h0a71,71,0,0,0,23.3-38.4h0l.3-1.3v-.4l1.3-5.9H337l-1,3.5A48.6,48.6,0,0,1,256.1,959h0a50.5,50.5,0,0,1-14.6-23.8l-1-3.6h-23l1.2,5.8a71.8,71.8,0,0,0,14.4,30.7h0l2.6,3h0Zm-13.3-36.1h0a38.9,38.9,0,0,0,1.2,4.9,65.7,65.7,0,0,0,12.2,23.8l2.4,2.8h0l1.2,1.4,2.3,2.3.5.4,2.3,1.9h0c1.6,1.3,3.2,2.7,5,3.9a66.7,66.7,0,0,0,71.5,3.4,66.7,66.7,0,0,1-71.5-3.4c-1.8-1.2-3.4-2.6-5-3.9l-2.3-1.9-.5-.4-2.3-2.3-1.2-1.4-2.4-2.8A67.7,67.7,0,0,1,223.5,936.4Zm117.2,0h0a50.3,50.3,0,0,1-2.8,8A50.3,50.3,0,0,0,340.7,936.4Z" fill="#2fc8e0" fill-rule="evenodd"/>
  <path d="M460.7,890.8h-.1l-2.6-2.6-.7-.6h0l-2-1.6h0a58.9,58.9,0,0,0-5.5-4.4h0a71.5,71.5,0,0,0-87.8,4.2h0a71,71,0,0,0-23.3,38.4h0a5.9,5.9,0,0,0-.2,1.3.6.6,0,0,0-.1.4l-1.3,5.9h23.4l1-3.5c3.6-12.9,11-23,22.3-29.8a48.5,48.5,0,0,1,57.6,5.8h0A49,49,0,0,1,456,928.1l1,3.6h23.1l-1.3-5.8a71.6,71.6,0,0,0-14.4-30.8h0l-2.6-3h0Zm13.4,36.1h0l-1.2-4.9a67.5,67.5,0,0,0-12.3-23.8l-2.4-2.8h0L457,894l-2.3-2.3-.5-.4-2.3-1.9h0c-1.6-1.3-3.2-2.7-4.9-3.9a66.8,66.8,0,0,0-68.3-5.1,66.8,66.8,0,0,1,68.3,5.1c1.7,1.2,3.3,2.6,4.9,3.9l2.3,1.9.5.4L457,894l1.2,1.4,2.4,2.8A66.7,66.7,0,0,1,474.1,926.9ZM360.8,916.3a60,60,0,0,0-4,10.5h0A60,60,0,0,1,360.8,916.3Z" fill="#2fc8e0" fill-rule="evenodd"/>
  <path d="M700.2,890.8h-.1l-2.7-2.6-.7-.6h0l-1.9-1.6h0a60.3,60.3,0,0,0-5.6-4.4h0a71.5,71.5,0,0,0-87.8,4.2h0a71.4,71.4,0,0,0-23.2,38.4h0l-.3,1.3a.6.6,0,0,1-.1.4l-1.2,5.9H600l1-3.5a48.7,48.7,0,0,1,79.9-24h0a50.5,50.5,0,0,1,14.6,23.8l1,3.6h23l-1.2-5.8a74,74,0,0,0-14.4-30.8h0l-2.6-3h0Zm13.3,36.1h0a38.9,38.9,0,0,0-1.2-4.9,65.7,65.7,0,0,0-12.2-23.8l-2.4-2.8h0l-1.2-1.4-2.3-2.3-.5-.4-2.3-1.9h0a47.8,47.8,0,0,0-5-3.9,66.7,66.7,0,0,0-68.4-5,66.7,66.7,0,0,1,68.4,5c1.8,1.2,3.4,2.6,5,3.9l2.3,1.9.5.4,2.3,2.3,1.2,1.4,2.4,2.8A67.7,67.7,0,0,1,713.5,926.9Zm-117.2-.1h0a57.8,57.8,0,0,1,4.6-11.8A57.8,57.8,0,0,0,596.3,926.8Z" fill="#2fc8e0" fill-rule="evenodd"/>
  <path d="M476.6,972.5h.1l2.7,2.6.7.6h0l1.9,1.6h0a60.3,60.3,0,0,0,5.6,4.4h0a71.5,71.5,0,0,0,87.8-4.2h0a71.4,71.4,0,0,0,23.2-38.4h0l.3-1.3a.6.6,0,0,1,.1-.4l1.2-5.9H576.8l-1,3.5A48.6,48.6,0,0,1,496,959h0a49.9,49.9,0,0,1-14.7-23.8l-.9-3.6H457.3l1.2,5.8a73,73,0,0,0,14.4,30.7h0l2.6,3h0Zm-13.3-36.1h0a38.9,38.9,0,0,0,1.2,4.9,65.7,65.7,0,0,0,12.2,23.8l2.4,2.8h0l1.2,1.4,2.3,2.3.5.4a21.1,21.1,0,0,1,2.3,1.9h0c1.6,1.3,3.2,2.7,5,3.9a66.7,66.7,0,0,0,71.5,3.4,66.7,66.7,0,0,1-71.5-3.4c-1.8-1.2-3.4-2.6-5-3.9a21.1,21.1,0,0,0-2.3-1.9l-.5-.4-2.3-2.3-1.2-1.4-2.4-2.8A67.7,67.7,0,0,1,463.3,936.4Zm117.2,0h0a50.3,50.3,0,0,1-2.8,8A50.3,50.3,0,0,0,580.5,936.4Z" fill="#2fc8e0" fill-rule="evenodd"/>
  <path d="M715.7,972.5h.1l2.7,2.6.6.6h0l2,1.6h0a58.9,58.9,0,0,0,5.5,4.4h.1a71.4,71.4,0,0,0,87.7-4.2h0a71,71,0,0,0,23.3-38.4h0l.3-1.3v-.4l1.3-5.9H815.9l-1,3.5A48.6,48.6,0,0,1,735,959h0a50.5,50.5,0,0,1-14.6-23.8l-1-3.6h-23l1.2,5.8A71.8,71.8,0,0,0,712,968.1h0l2.6,3h0Zm-13.3-36.1h0a38.9,38.9,0,0,0,1.2,4.9,65.7,65.7,0,0,0,12.2,23.8l2.4,2.8h0l1.2,1.4,2.3,2.3.5.4,2.3,1.9h0c1.6,1.3,3.2,2.7,5,3.9a66.7,66.7,0,0,0,71.5,3.4,66.7,66.7,0,0,1-71.5-3.4c-1.8-1.2-3.4-2.6-5-3.9l-2.3-1.9-.5-.4-2.3-2.3-1.2-1.4-2.4-2.8A67.7,67.7,0,0,1,702.4,936.4Zm117.2,0h0a50.3,50.3,0,0,1-2.8,8A50.3,50.3,0,0,0,819.6,936.4Z" fill="#2fc8e0" fill-rule="evenodd"/>
  <path d="M395.5,930.8a20.4,20.4,0,0,1,25.6-2.5,20.9,20.9,0,0,1,8.1,11,20.5,20.5,0,0,1-.7,13.6,20.1,20.1,0,0,1-9.2,10.1,20.4,20.4,0,0,1-13.5,2,20.3,20.3,0,0,1-16.2-19.9,20.3,20.3,0,0,1,1.5-7.7,19.6,19.6,0,0,1,4.4-6.6Z" fill="#092560"/>
  <path d="M236.8,1984.5h.1l2.7,2.6.6.6h0l2,1.6h0a49.4,49.4,0,0,0,5.6,4.4h0a71.3,71.3,0,0,0,87.7-4.2h0a70.6,70.6,0,0,0,23.3-38.4h0l.3-1.3v-.4l1.3-5.9H337l-1,3.6a48.6,48.6,0,0,1-79.9,23.9h0a51.3,51.3,0,0,1-14.6-23.9l-1-3.6h-23l1.2,5.8a72.8,72.8,0,0,0,14.4,30.8h0l2.6,3h0Zm-13.3-36.1h0a38.9,38.9,0,0,0,1.2,4.9,65.7,65.7,0,0,0,12.2,23.8l2.4,2.8h0l1.2,1.4,2.3,2.3.5.4,2.3,1.9h0a47.8,47.8,0,0,0,5,3.9,66.7,66.7,0,0,0,71.5,3.4,66.7,66.7,0,0,1-71.5-3.4,47.8,47.8,0,0,1-5-3.9l-2.3-1.9-.5-.4-2.3-2.3-1.2-1.4-2.4-2.8A67.7,67.7,0,0,1,223.5,1948.4Zm117.2.1h0a52.8,52.8,0,0,1-2.8,7.9A52.8,52.8,0,0,0,340.7,1948.5Z" fill="#fed670" fill-rule="evenodd"/>
  <path d="M460.7,1902.8h-.1l-2.6-2.6-.7-.6h0l-2-1.6h0a58.9,58.9,0,0,0-5.5-4.4h0a71.5,71.5,0,0,0-87.8,4.2h0a71,71,0,0,0-23.3,38.4h0a5.9,5.9,0,0,0-.2,1.3.6.6,0,0,0-.1.4l-1.3,5.9h23.4l1-3.5c3.6-12.9,11-23,22.3-29.8a48.4,48.4,0,0,1,57.6,5.9h0a49,49,0,0,1,14.6,23.8l1,3.6h23.1l-1.3-5.8a70.7,70.7,0,0,0-14.4-30.7h0c-.8-1.1-1.8-2.1-2.6-3.1h0Zm13.4,36.1h0l-1.2-4.9a67.5,67.5,0,0,0-12.3-23.8l-2.4-2.8h0L457,1906l-2.3-2.3-.5-.4-2.3-1.9h0c-1.6-1.3-3.2-2.7-4.9-3.9a66.8,66.8,0,0,0-68.3-5.1,66.8,66.8,0,0,1,68.3,5.1c1.7,1.2,3.3,2.6,4.9,3.9l2.3,1.9.5.4,2.3,2.3,1.2,1.4,2.4,2.8A66.7,66.7,0,0,1,474.1,1938.9Zm-113.3-10.6a58.1,58.1,0,0,0-4,10.6h0A58.1,58.1,0,0,1,360.8,1928.3Z" fill="#fed670" fill-rule="evenodd"/>
  <path d="M700.2,1902.8h-.1l-2.7-2.6-.7-.6h0l-1.9-1.6h0a60.3,60.3,0,0,0-5.6-4.4h0a71.5,71.5,0,0,0-87.8,4.2h0a71.4,71.4,0,0,0-23.2,38.4h0l-.3,1.3a.6.6,0,0,1-.1.4l-1.2,5.9H600l1-3.5a48.6,48.6,0,0,1,79.9-23.9h0a50.5,50.5,0,0,1,14.6,23.8l1,3.6h23l-1.2-5.8a73,73,0,0,0-14.4-30.7h0l-2.6-3.1h0Zm13.3,36.1h0a38.9,38.9,0,0,0-1.2-4.9,65.7,65.7,0,0,0-12.2-23.8l-2.4-2.8h0l-1.2-1.4-2.3-2.3-.5-.4-2.3-1.9h0c-1.6-1.3-3.2-2.7-5-3.9a66.7,66.7,0,0,0-68.4-5,66.7,66.7,0,0,1,68.4,5c1.8,1.2,3.4,2.6,5,3.9l2.3,1.9.5.4,2.3,2.3,1.2,1.4,2.4,2.8A67.7,67.7,0,0,1,713.5,1938.9Zm-117.2,0h0a56.5,56.5,0,0,1,4.6-11.9A56.5,56.5,0,0,0,596.3,1938.9Z" fill="#fed670" fill-rule="evenodd"/>
  <path d="M476.6,1984.5h.1l2.7,2.6.7.6h0l1.9,1.6h0a60.3,60.3,0,0,0,5.6,4.4h0a71.4,71.4,0,0,0,87.8-4.2h0a71.1,71.1,0,0,0,23.2-38.4h0l.3-1.3a.6.6,0,0,1,.1-.4l1.2-5.9H576.8l-1,3.6a48.6,48.6,0,0,1-79.8,23.9h0a50.7,50.7,0,0,1-14.7-23.9l-.9-3.6H457.3l1.2,5.8a74,74,0,0,0,14.4,30.8h0l2.6,3h0Zm-13.3-36.1h0a38.9,38.9,0,0,0,1.2,4.9,65.7,65.7,0,0,0,12.2,23.8l2.4,2.8h0l1.2,1.4,2.3,2.3.5.4,2.3,1.9h0a47.8,47.8,0,0,0,5,3.9,66.7,66.7,0,0,0,71.5,3.4,66.7,66.7,0,0,1-71.5-3.4,47.8,47.8,0,0,1-5-3.9l-2.3-1.9-.5-.4-2.3-2.3-1.2-1.4-2.4-2.8A67.7,67.7,0,0,1,463.3,1948.4Zm117.2.1h0a52.8,52.8,0,0,1-2.8,7.9A52.8,52.8,0,0,0,580.5,1948.5Z" fill="#fed670" fill-rule="evenodd"/>
  <path d="M715.7,1984.5h.1l2.7,2.6.6.6h0l2,1.6h0a58.9,58.9,0,0,0,5.5,4.4h.1a71.3,71.3,0,0,0,87.7-4.2h0a70.6,70.6,0,0,0,23.3-38.4h0l.3-1.3v-.4l1.3-5.9H815.9l-1,3.6a48.6,48.6,0,0,1-79.9,23.9h0a51.3,51.3,0,0,1-14.6-23.9l-1-3.6h-23l1.2,5.8a72.8,72.8,0,0,0,14.4,30.8h0l2.6,3h0Zm-13.3-36.1h0a38.9,38.9,0,0,0,1.2,4.9,65.7,65.7,0,0,0,12.2,23.8l2.4,2.8h0l1.2,1.4,2.3,2.3.5.4,2.3,1.9h0a47.8,47.8,0,0,0,5,3.9,66.7,66.7,0,0,0,71.5,3.4,66.7,66.7,0,0,1-71.5-3.4,47.8,47.8,0,0,1-5-3.9l-2.3-1.9-.5-.4-2.3-2.3-1.2-1.4-2.4-2.8A67.7,67.7,0,0,1,702.4,1948.4Zm117.2.1h0a52.8,52.8,0,0,1-2.8,7.9A52.8,52.8,0,0,0,819.6,1948.5Z" fill="#fed670" fill-rule="evenodd"/>
  <path d="M395.5,1942.8a20.4,20.4,0,0,1,25.6-2.5,20.9,20.9,0,0,1,8.1,11,20.5,20.5,0,0,1-.7,13.6,20.1,20.1,0,0,1-9.2,10.1,20.4,20.4,0,0,1-13.5,2,20.3,20.3,0,0,1-16.2-19.8,20.4,20.4,0,0,1,1.5-7.8,19.6,19.6,0,0,1,4.4-6.6Z" fill="#092560"/>
  <path d="M236.8,3025.5h.1l2.7,2.6.6.6h0l2,1.6h0a49.4,49.4,0,0,0,5.6,4.4h0a71.3,71.3,0,0,0,87.7-4.2h0a70.6,70.6,0,0,0,23.3-38.4h0l.3-1.3v-.4l1.3-5.9H337l-1,3.6a48.6,48.6,0,0,1-79.9,23.9h0a51.3,51.3,0,0,1-14.6-23.9l-1-3.6h-23l1.2,5.8a72.8,72.8,0,0,0,14.4,30.8h0l2.6,3h0Zm-13.3-36.1h0a38.9,38.9,0,0,0,1.2,4.9,65.7,65.7,0,0,0,12.2,23.8l2.4,2.8h0l1.2,1.4,2.3,2.3.5.4,2.3,1.9h0a47.8,47.8,0,0,0,5,3.9,66.7,66.7,0,0,0,71.5,3.4,66.7,66.7,0,0,1-71.5-3.4,47.8,47.8,0,0,1-5-3.9l-2.3-1.9-.5-.4-2.3-2.3-1.2-1.4-2.4-2.8A67.7,67.7,0,0,1,223.5,2989.4Zm117.2.1h0a52.8,52.8,0,0,1-2.8,7.9A52.8,52.8,0,0,0,340.7,2989.5Z" fill="#165ffa" fill-rule="evenodd"/>
  <path d="M460.7,2943.8h-.1l-2.6-2.6-.7-.6h0l-2-1.6h0a58.9,58.9,0,0,0-5.5-4.4h0a71.5,71.5,0,0,0-87.8,4.2h0a71,71,0,0,0-23.3,38.4h0a5.9,5.9,0,0,0-.2,1.3.6.6,0,0,0-.1.4l-1.3,5.9h23.4l1-3.5c3.6-12.9,11-23,22.3-29.8a48.4,48.4,0,0,1,57.6,5.9h0a49,49,0,0,1,14.6,23.8l1,3.6h23.1l-1.3-5.8a70.7,70.7,0,0,0-14.4-30.7h0c-.8-1.1-1.8-2.1-2.6-3.1h0Zm13.4,36.1h0l-1.2-4.9a67.5,67.5,0,0,0-12.3-23.8l-2.4-2.8h0L457,2947l-2.3-2.3-.5-.4-2.3-1.9h0c-1.6-1.3-3.2-2.7-4.9-3.9a66.8,66.8,0,0,0-68.3-5.1,66.8,66.8,0,0,1,68.3,5.1c1.7,1.2,3.3,2.6,4.9,3.9l2.3,1.9.5.4,2.3,2.3,1.2,1.4,2.4,2.8A66.7,66.7,0,0,1,474.1,2979.9Zm-113.3-10.6a58.1,58.1,0,0,0-4,10.6h0A58.1,58.1,0,0,1,360.8,2969.3Z" fill="#165ffa" fill-rule="evenodd"/>
  <path d="M700.2,2943.8h-.1l-2.7-2.6-.7-.6h0l-1.9-1.6h0a60.3,60.3,0,0,0-5.6-4.4h0a71.5,71.5,0,0,0-87.8,4.2h0a71.4,71.4,0,0,0-23.2,38.4h0l-.3,1.3a.6.6,0,0,1-.1.4l-1.2,5.9H600l1-3.5a48.6,48.6,0,0,1,79.9-23.9h0a50.5,50.5,0,0,1,14.6,23.8l1,3.6h23l-1.2-5.8a73,73,0,0,0-14.4-30.7h0l-2.6-3.1h0Zm13.3,36.1h0a38.9,38.9,0,0,0-1.2-4.9,65.7,65.7,0,0,0-12.2-23.8l-2.4-2.8h0l-1.2-1.4-2.3-2.3-.5-.4-2.3-1.9h0c-1.6-1.3-3.2-2.7-5-3.9a66.7,66.7,0,0,0-68.4-5,66.7,66.7,0,0,1,68.4,5c1.8,1.2,3.4,2.6,5,3.9l2.3,1.9.5.4,2.3,2.3,1.2,1.4,2.4,2.8A67.7,67.7,0,0,1,713.5,2979.9Zm-117.2,0h0a56.5,56.5,0,0,1,4.6-11.9A56.5,56.5,0,0,0,596.3,2979.9Z" fill="#165ffa" fill-rule="evenodd"/>
  <path d="M476.6,3025.5h.1l2.7,2.6.7.6h0l1.9,1.6h0a60.3,60.3,0,0,0,5.6,4.4h0a71.4,71.4,0,0,0,87.8-4.2h0a71.1,71.1,0,0,0,23.2-38.4h0l.3-1.3a.6.6,0,0,1,.1-.4l1.2-5.9H576.8l-1,3.6a48.6,48.6,0,0,1-79.8,23.9h0a50.7,50.7,0,0,1-14.7-23.9l-.9-3.6H457.3l1.2,5.8a74,74,0,0,0,14.4,30.8h0l2.6,3h0Zm-13.3-36.1h0a38.9,38.9,0,0,0,1.2,4.9,65.7,65.7,0,0,0,12.2,23.8l2.4,2.8h0l1.2,1.4,2.3,2.3.5.4,2.3,1.9h0a47.8,47.8,0,0,0,5,3.9,66.7,66.7,0,0,0,71.5,3.4,66.7,66.7,0,0,1-71.5-3.4,47.8,47.8,0,0,1-5-3.9l-2.3-1.9-.5-.4-2.3-2.3-1.2-1.4-2.4-2.8A67.7,67.7,0,0,1,463.3,2989.4Zm117.2.1h0a52.8,52.8,0,0,1-2.8,7.9A52.8,52.8,0,0,0,580.5,2989.5Z" fill="#165ffa" fill-rule="evenodd"/>
  <path d="M715.7,3025.5h.1l2.7,2.6.6.6h0l2,1.6h0a58.9,58.9,0,0,0,5.5,4.4h.1a71.3,71.3,0,0,0,87.7-4.2h0a70.6,70.6,0,0,0,23.3-38.4h0l.3-1.3v-.4l1.3-5.9H815.9l-1,3.6a48.6,48.6,0,0,1-79.9,23.9h0a51.3,51.3,0,0,1-14.6-23.9l-1-3.6h-23l1.2,5.8a72.8,72.8,0,0,0,14.4,30.8h0l2.6,3h0Zm-13.3-36.1h0a38.9,38.9,0,0,0,1.2,4.9,65.7,65.7,0,0,0,12.2,23.8l2.4,2.8h0l1.2,1.4,2.3,2.3.5.4,2.3,1.9h0a47.8,47.8,0,0,0,5,3.9,66.7,66.7,0,0,0,71.5,3.4,66.7,66.7,0,0,1-71.5-3.4,47.8,47.8,0,0,1-5-3.9l-2.3-1.9-.5-.4-2.3-2.3-1.2-1.4-2.4-2.8A67.7,67.7,0,0,1,702.4,2989.4Zm117.2.1h0a52.8,52.8,0,0,1-2.8,7.9A52.8,52.8,0,0,0,819.6,2989.5Z" fill="#165ffa" fill-rule="evenodd"/>
  <path d="M395.5,2983.8a20.4,20.4,0,0,1,25.6-2.5,20.9,20.9,0,0,1,8.1,11,20.5,20.5,0,0,1-.7,13.6,20.1,20.1,0,0,1-9.2,10.1,20.4,20.4,0,0,1-13.5,2,20.3,20.3,0,0,1-16.2-19.8,20.4,20.4,0,0,1,1.5-7.8,19.6,19.6,0,0,1,4.4-6.6Z" fill="#092560"/>
  <path d="M416.6,496.6a20.9,20.9,0,0,1-10.4,8.8,20.5,20.5,0,0,1-13.6.2A20.2,20.2,0,1,1,410.8,470a19.7,19.7,0,0,1,7.8,11.2,19.1,19.1,0,0,1,.5,7.9,20.2,20.2,0,0,1-2.5,7.5Z" fill="#fed670" stroke="#fed670" stroke-width="20"/>
  <path d="M317.6,329.4c2,.2,4.1.2,6.1.5,21.5,2.6,38.7,12.6,51.3,30.2a69.4,69.4,0,0,1,13.2,44.1c-.6,18.6-7.6,34.7-20.5,48.2a.9.9,0,0,1-.7,0c-16.9-16.8-33.7-33.7-50.5-50.5a2,2,0,0,1-.6-1.5q-.1-35.4-.1-71Z" fill="#2fc8e0"/>
  <path d="M235.3,411.7c.2,2,.2,4.1.5,6.1,2.6,21.4,12.6,38.6,30.2,51.2a69.5,69.5,0,0,0,44.1,13.3,71.6,71.6,0,0,0,48.2-20.5.9.9,0,0,0,0-.7l-50.5-50.6a2.5,2.5,0,0,0-1.5-.5h-71Z" fill="#2fc8e0"/>
  <path d="M473.7,650.3l-6.1-.4c-21.5-2.7-38.7-12.7-51.3-30.3a69.3,69.3,0,0,1-13.2-44c.6-18.7,7.5-34.8,20.5-48.3h.7l50.5,50.5a2.2,2.2,0,0,1,.6,1.5v71Z" fill="#2fc8e0"/>
  <path d="M555.9,568.1c-.1-2.1-.2-4.1-.4-6.1-2.7-21.5-12.7-38.7-30.3-51.3a70,70,0,0,0-44-13.3,71.7,71.7,0,0,0-48.3,20.5,1.1,1.1,0,0,0,0,.8l50.6,50.5a2.5,2.5,0,0,0,1.4.6h71Z" fill="#2fc8e0"/>
  <path d="M473.7,329.4c-2.1.2-4.1.2-6.1.5-21.5,2.6-38.7,12.6-51.3,30.2a69.4,69.4,0,0,0-13.2,44.1c.6,18.6,7.5,34.7,20.5,48.2a.8.8,0,0,0,.7,0l50.5-50.5a2,2,0,0,0,.6-1.5v-71Z" fill="#2fc8e0"/>
  <path d="M555.9,411.7c-.1,2-.2,4.1-.4,6.1-2.7,21.4-12.7,38.6-30.3,51.2a69.4,69.4,0,0,1-44,13.3,71.7,71.7,0,0,1-48.3-20.5.9.9,0,0,1,0-.7l50.6-50.6a2.4,2.4,0,0,1,1.4-.5h71Z" fill="#2fc8e0"/>
  <path d="M317.6,650.3l6.1-.4c21.5-2.7,38.7-12.7,51.3-30.3a69.3,69.3,0,0,0,13.2-44c-.6-18.7-7.6-34.8-20.5-48.3H367l-50.5,50.5a2.2,2.2,0,0,0-.6,1.5c-.1,23.7-.1,47.3-.1,71Z" fill="#2fc8e0"/>
  <path d="M235.3,568.1c.2-2.1.2-4.1.5-6.1,2.6-21.5,12.6-38.7,30.2-51.3a70.1,70.1,0,0,1,44.1-13.3,71.6,71.6,0,0,1,48.2,20.5,1.1,1.1,0,0,1,0,.8l-50.5,50.5a2.5,2.5,0,0,1-1.5.6h-71Z" fill="#2fc8e0"/>
  <path d="M416.6,1508.6a20.9,20.9,0,0,1-10.4,8.8,20.5,20.5,0,0,1-13.6.2,20.2,20.2,0,1,1,18.2-35.6,19.7,19.7,0,0,1,7.8,11.2,19.1,19.1,0,0,1,.5,7.9,20.2,20.2,0,0,1-2.5,7.5Z" fill="#fff" stroke="#fff" stroke-width="20"/>
  <path d="M317.6,1341.4c2,.2,4.1.2,6.1.5,21.5,2.6,38.7,12.6,51.3,30.2a69.4,69.4,0,0,1,13.2,44.1c-.6,18.6-7.6,34.7-20.5,48.2H367l-50.5-50.5a2,2,0,0,1-.6-1.5q-.1-35.4-.1-71Z" fill="#fed670"/>
  <path d="M235.3,1423.7c.2,2,.2,4.1.5,6.1,2.6,21.4,12.6,38.6,30.2,51.2a69.5,69.5,0,0,0,44.1,13.3,71.6,71.6,0,0,0,48.2-20.5.9.9,0,0,0,0-.7l-50.5-50.5a2,2,0,0,0-1.5-.6h-71Z" fill="#fed670"/>
  <path d="M473.7,1662.3l-6.1-.4c-21.5-2.7-38.7-12.7-51.3-30.3a69.3,69.3,0,0,1-13.2-44c.6-18.7,7.5-34.8,20.5-48.3h.7l50.5,50.5a2.2,2.2,0,0,1,.6,1.5v71Z" fill="#fed670"/>
  <path d="M555.9,1580.1c-.1-2.1-.2-4.1-.4-6.1-2.7-21.5-12.7-38.7-30.3-51.3a70,70,0,0,0-44-13.3,71.3,71.3,0,0,0-48.3,20.6.8.8,0,0,0,0,.7l50.6,50.5a2,2,0,0,0,1.4.6h71Z" fill="#fed670"/>
  <path d="M473.7,1341.4c-2.1.2-4.1.2-6.1.5-21.5,2.6-38.7,12.6-51.3,30.2a69.4,69.4,0,0,0-13.2,44.1c.6,18.6,7.5,34.7,20.5,48.2h.7l50.5-50.5a2,2,0,0,0,.6-1.5v-71Z" fill="#fed670"/>
  <path d="M555.9,1423.7c-.1,2-.2,4.1-.4,6.1-2.7,21.4-12.7,38.6-30.3,51.2a69.4,69.4,0,0,1-44,13.3,71.7,71.7,0,0,1-48.3-20.5.9.9,0,0,1,0-.7l50.6-50.5a2,2,0,0,1,1.4-.6h71Z" fill="#fed670"/>
  <path d="M317.6,1662.3l6.1-.4c21.5-2.7,38.7-12.7,51.3-30.3a69.3,69.3,0,0,0,13.2-44c-.6-18.7-7.6-34.8-20.5-48.3H367l-50.5,50.5a2.2,2.2,0,0,0-.6,1.5c-.1,23.7-.1,47.3-.1,71Z" fill="#fed670"/>
  <path d="M235.3,1580.1c.2-2.1.2-4.1.5-6.1,2.6-21.5,12.6-38.7,30.2-51.3a70.1,70.1,0,0,1,44.1-13.3,71.3,71.3,0,0,1,48.2,20.6.8.8,0,0,1,0,.7l-50.5,50.5a2,2,0,0,1-1.5.6h-71Z" fill="#fed670"/>
  <path d="M416.6,2549.6a20.9,20.9,0,0,1-10.4,8.8,20.5,20.5,0,0,1-13.6.2,20.2,20.2,0,1,1,18.2-35.6,19.7,19.7,0,0,1,7.8,11.2,19.1,19.1,0,0,1,.5,7.9,20.2,20.2,0,0,1-2.5,7.5Z" fill="#fff" stroke="#fff" stroke-width="20"/>
  <path d="M317.6,2382.4c2,.2,4.1.2,6.1.5,21.5,2.6,38.7,12.6,51.3,30.2a69.4,69.4,0,0,1,13.2,44.1c-.6,18.6-7.6,34.7-20.5,48.2H367l-50.5-50.5a2,2,0,0,1-.6-1.5q-.1-35.4-.1-71Z" fill="#165ffa"/>
  <path d="M235.3,2464.7c.2,2,.2,4.1.5,6.1,2.6,21.4,12.6,38.6,30.2,51.2a69.5,69.5,0,0,0,44.1,13.3,71.6,71.6,0,0,0,48.2-20.5.9.9,0,0,0,0-.7l-50.5-50.5a2,2,0,0,0-1.5-.6h-71Z" fill="#165ffa"/>
  <path d="M473.7,2703.3l-6.1-.4c-21.5-2.7-38.7-12.7-51.3-30.3a69.3,69.3,0,0,1-13.2-44c.6-18.7,7.5-34.8,20.5-48.3a.8.8,0,0,1,.7,0l50.5,50.5a2.2,2.2,0,0,1,.6,1.5v71Z" fill="#165ffa"/>
  <path d="M555.9,2621.1c-.1-2.1-.2-4.1-.4-6.1-2.7-21.5-12.7-38.7-30.3-51.3a70,70,0,0,0-44-13.3,71.3,71.3,0,0,0-48.3,20.6.8.8,0,0,0,0,.7l50.6,50.5a2,2,0,0,0,1.4.6h71Z" fill="#165ffa"/>
  <path d="M473.7,2382.4c-2.1.2-4.1.2-6.1.5-21.5,2.6-38.7,12.6-51.3,30.2a69.4,69.4,0,0,0-13.2,44.1c.6,18.6,7.5,34.7,20.5,48.2h.7l50.5-50.5a2,2,0,0,0,.6-1.5v-71Z" fill="#165ffa"/>
  <path d="M555.9,2464.7c-.1,2-.2,4.1-.4,6.1-2.7,21.4-12.7,38.6-30.3,51.2a69.4,69.4,0,0,1-44,13.3,71.7,71.7,0,0,1-48.3-20.5.9.9,0,0,1,0-.7l50.6-50.5a2,2,0,0,1,1.4-.6h71Z" fill="#165ffa"/>
  <path d="M317.6,2703.3l6.1-.4c21.5-2.7,38.7-12.7,51.3-30.3a69.3,69.3,0,0,0,13.2-44c-.6-18.7-7.6-34.8-20.5-48.3a.9.9,0,0,0-.7,0c-16.9,16.8-33.7,33.7-50.5,50.5a2.2,2.2,0,0,0-.6,1.5c-.1,23.7-.1,47.3-.1,71Z" fill="#165ffa"/>
  <path d="M235.3,2621.1c.2-2.1.2-4.1.5-6.1,2.6-21.5,12.6-38.7,30.2-51.3a70.1,70.1,0,0,1,44.1-13.3,71.3,71.3,0,0,1,48.2,20.6.8.8,0,0,1,0,.7c-16.8,16.8-33.6,33.7-50.5,50.5a2,2,0,0,1-1.5.6h-71Z" fill="#165ffa"/>
  <path d="M869.3,568.9l.3.3,8.2,4.7,2.1.9h0l5.9,2.8c5.1,2.3,10.9,5,16.5,7.1h0a181.6,181.6,0,0,0,212.4-68h0c22.5-33,32.9-69.7,31.7-109.5h0c-.1-1-.1-2.2-.2-3.2v-1.1l-.8-15.2L1088,402.8v9.5c-.2,33.8-11.8,63.5-35,87.7-37.4,38.8-97.3,48.4-145.1,23.3h0a127.5,127.5,0,0,1-51.5-48.8l-4.7-8.1-9.1,2.3-9.8,2.6h0l-3.2.9L795,481.4l6.9,13.6a182.7,182.7,0,0,0,55.5,65.8h0c2.7,2,5.7,4,8.4,5.8h0Zm264.5-165.3a5.7,5.7,0,0,0,.1,1.3h0c0,.9.1,1.8.1,2.7v0" fill="#2fc8e0" fill-rule="evenodd"/>
  <path d="M831.3,430.7l-5.4-3.1,5.4,3.1a36.9,36.9,0,0,1-19.1,16.1,37.3,37.3,0,0,1-24.9.4,37.8,37.8,0,0,1-19.5-15.5,37.3,37.3,0,0,1-5.2-24.4A36.3,36.3,0,0,1,774,385.2a36.8,36.8,0,0,1,22.8-10A37.2,37.2,0,0,1,835,402.5h0a37.5,37.5,0,0,1,.9,14.5A37,37,0,0,1,831.3,430.7Z" fill="#2fc8e0" fill-rule="evenodd"/>
  <path d="M869.3,1580.9l.3.3,8.2,4.7,2.1.9h0l5.9,2.8c5.1,2.3,10.9,5.1,16.5,7.1h0a181.6,181.6,0,0,0,212.4-68h0c22.5-33,32.9-69.7,31.7-109.5h0c-.1-1-.1-2.2-.2-3.2v-1.1l-.8-15.2-57.4,15.2v9.4c-.2,33.8-11.8,63.5-35,87.7-37.4,38.8-97.3,48.4-145.1,23.4h0c-21.6-11.4-39.4-28-51.5-48.9l-4.7-8.1-9.1,2.3-9.8,2.6h0l-3.2.9-34.5,9.2,6.9,13.6a182.7,182.7,0,0,0,55.5,65.8h0c2.7,2,5.7,4,8.4,5.8h0Zm264.5-165.3a5.7,5.7,0,0,0,.1,1.3h0c0,.9.1,1.8.1,2.7v0" fill="#fed670" fill-rule="evenodd"/>
  <path d="M831.3,1442.7l-5.4-3.1,5.4,3.1a36.9,36.9,0,0,1-19.1,16.1,37.3,37.3,0,0,1-24.9.4,37.8,37.8,0,0,1-19.5-15.5,37.3,37.3,0,0,1-5.2-24.4,37,37,0,0,1,34.2-32,36.7,36.7,0,0,1,24,6.8,37.3,37.3,0,0,1,14.2,20.4h0a37.6,37.6,0,0,1-3.7,28.1Z" fill="#fed670" fill-rule="evenodd"/>
  <path d="M869.3,2621.9l.3.3,8.2,4.7,2.1.9h0l5.9,2.8c5.1,2.3,10.9,5.1,16.5,7.1h0a181.6,181.6,0,0,0,212.4-68h0c22.5-33,32.9-69.7,31.7-109.5h0c-.1-1-.1-2.2-.2-3.2v-1.1l-.8-15.2-57.4,15.2v9.4c-.2,33.8-11.8,63.5-35,87.7-37.4,38.8-97.3,48.4-145.1,23.4h0c-21.6-11.4-39.4-28-51.5-48.9l-4.7-8.1-9.1,2.3-9.8,2.6h0l-3.2.9-34.5,9.2,6.9,13.6a182.7,182.7,0,0,0,55.5,65.8h0c2.7,2,5.7,4,8.4,5.8h0Zm264.5-165.3a5.7,5.7,0,0,0,.1,1.3h0c0,.9.1,1.8.1,2.7v0" fill="#165ffa" fill-rule="evenodd"/>
  <path d="M831.3,2483.7l-5.4-3.1,5.4,3.1a36.9,36.9,0,0,1-19.1,16.1,37.3,37.3,0,0,1-24.9.4,37.8,37.8,0,0,1-19.5-15.5,37.3,37.3,0,0,1-5.2-24.4,37,37,0,0,1,34.2-32,36.7,36.7,0,0,1,24,6.8,37.3,37.3,0,0,1,14.2,20.4h0a37.6,37.6,0,0,1-3.7,28.1Z" fill="#165ffa" fill-rule="evenodd"/>
  <path d="M1635.8,401.8c5,2.4,10.2,4.6,15.1,7.2a202,202,0,0,1,72.5,62.4l.3.7-22.4,9.9-14.6,6.4a1.4,1.4,0,0,1-.9,0l-.7-.4a161.8,161.8,0,0,0-75.4-52.5c-67.5-22.9-143.6,1.8-184.4,60.3-25.2,36.2-34.4,76.3-27.8,120a2,2,0,0,1-.6,1.3l-36.8,16.3-.5.2c-.3-1.6-.7-3.2-1-4.8-8.3-43.8-3.1-86,16-126.4a202.9,202.9,0,0,1,222.7-112c9.2,1.8,18.2,4.9,27.3,7.3l1.8.5Z" fill="#2fc8e0"/>
  <path d="M1486.5,563.2c-5.1-2.4-10.2-4.6-15.2-7.2a201.7,201.7,0,0,1-72.4-62.4l-.4-.6,22.4-10,14.7-6.4a1.1,1.1,0,0,1,.8,0l.8.4a161.5,161.5,0,0,0,75.3,52.5c67.5,22.9,143.6-1.8,184.4-60.3,25.3-36.2,34.4-76.3,27.9-120a1.5,1.5,0,0,1,.5-1.3l36.8-16.3.5-.2c.4,1.6.7,3.2,1,4.8,8.3,43.8,3.2,86.1-16,126.4-39.7,83.9-131.3,129.9-222.6,112-9.2-1.8-18.2-4.8-27.3-7.3l-1.9-.5Z" fill="#2fc8e0"/>
  <path d="M1585.8,489.3a23.3,23.3,0,0,1-8.2,13.4,23.6,23.6,0,0,1-14.9,5.1,22.8,22.8,0,0,1-14.7-5.4,23.4,23.4,0,0,1-7.9-13.5,22.6,22.6,0,0,1,2.4-15.5,23,23,0,0,1,11.7-10.5,23.5,23.5,0,0,1,15.7-.6,23.1,23.1,0,0,1,12.5,9.4,21.7,21.7,0,0,1,3.4,8.5,23.2,23.2,0,0,1,0,9.1Z" fill="#fed670" stroke="#fed670" stroke-width="20"/>
  <path d="M1635.8,1413.8c5,2.4,10.2,4.6,15.1,7.2a201.3,201.3,0,0,1,72.5,62.5l.3.6-22.4,9.9-14.6,6.4h-.9l-.7-.4a161.8,161.8,0,0,0-75.4-52.5c-67.5-22.9-143.6,1.9-184.4,60.3-25.2,36.2-34.4,76.3-27.8,120a2,2,0,0,1-.6,1.3l-36.8,16.3-.5.2c-.3-1.6-.7-3.2-1-4.8-8.3-43.8-3.1-86,16-126.4a202.9,202.9,0,0,1,222.7-112c9.2,1.8,18.2,4.9,27.3,7.3l1.8.5Z" fill="#fed670"/>
  <path d="M1486.5,1575.2c-5.1-2.4-10.2-4.6-15.2-7.2a201.7,201.7,0,0,1-72.4-62.4l-.4-.6,22.4-10,14.7-6.4h.8l.8.4a161.5,161.5,0,0,0,75.3,52.5c67.5,22.9,143.6-1.8,184.4-60.3,25.3-36.2,34.4-76.3,27.9-120a1.5,1.5,0,0,1,.5-1.3l36.8-16.3.5-.2c.4,1.6.7,3.2,1,4.8,8.3,43.8,3.2,86.1-16,126.4-39.7,83.9-131.3,129.9-222.6,112-9.2-1.8-18.2-4.8-27.3-7.3l-1.9-.5Z" fill="#fed670"/>
  <path d="M1585.8,1501.3a23.3,23.3,0,0,1-8.2,13.4,23,23,0,0,1-14.9,5.1,22.8,22.8,0,0,1-14.7-5.4,23.4,23.4,0,0,1-7.9-13.5,22.6,22.6,0,0,1,2.4-15.5,23,23,0,0,1,11.7-10.5,23.5,23.5,0,0,1,15.7-.6,23.1,23.1,0,0,1,12.5,9.4,21.7,21.7,0,0,1,3.4,8.5,23.2,23.2,0,0,1,0,9.1Z" fill="#fff" stroke="#fff" stroke-width="20"/>
  <path d="M1635.8,2454.8c5,2.4,10.2,4.6,15.1,7.2a201.3,201.3,0,0,1,72.5,62.5l.3.6-22.4,9.9-14.6,6.4h-.9l-.7-.4a161.8,161.8,0,0,0-75.4-52.5c-67.5-22.9-143.6,1.9-184.4,60.3-25.2,36.2-34.4,76.3-27.8,120a2,2,0,0,1-.6,1.3l-36.8,16.3-.5.2c-.3-1.6-.7-3.2-1-4.8-8.3-43.8-3.1-86,16-126.4a202.9,202.9,0,0,1,222.7-112c9.2,1.8,18.2,4.9,27.3,7.3l1.8.5Z" fill="#165ffa"/>
  <path d="M1486.5,2616.2c-5.1-2.4-10.2-4.6-15.2-7.2a201.7,201.7,0,0,1-72.4-62.4l-.4-.6,22.4-10,14.7-6.4h.8l.8.4a161.5,161.5,0,0,0,75.3,52.5c67.5,22.9,143.6-1.8,184.4-60.3,25.3-36.2,34.4-76.3,27.9-120a1.5,1.5,0,0,1,.5-1.3l36.8-16.3.5-.2c.4,1.6.7,3.2,1,4.8,8.3,43.8,3.2,86.1-16,126.4-39.7,83.9-131.3,129.9-222.6,112-9.2-1.8-18.2-4.8-27.3-7.3l-1.9-.5Z" fill="#165ffa"/>
  <path d="M1585.8,2542.3a23.3,23.3,0,0,1-8.2,13.4,23,23,0,0,1-14.9,5.1,22.8,22.8,0,0,1-14.7-5.4,23.4,23.4,0,0,1-7.9-13.5,22.6,22.6,0,0,1,2.4-15.5,23,23,0,0,1,11.7-10.5,23.5,23.5,0,0,1,15.7-.6,23.1,23.1,0,0,1,12.5,9.4,21.7,21.7,0,0,1,3.4,8.5,23.2,23.2,0,0,1,0,9.1Z" fill="#fff" stroke="#fff" stroke-width="20"/>
  <path d="M928.4,860.1c1.7-1.4,3.2-2.9,4.9-4.2,18.1-14.1,38.5-19.5,61-15.8a74.2,74.2,0,0,1,43,23.1,75.8,75.8,0,0,1,20.7,51.5c0,.1-.3.5-.5.5H981.8a2.8,2.8,0,0,1-1.5-.6l-53.2-53.2Z" fill="#2fc8e0"/>
  <path d="M1199.3,983.3c-1.6,1.4-3.2,2.9-4.9,4.2-18,14.1-38.4,19.5-61,15.7a73.3,73.3,0,0,1-42.9-23c-13.5-14.5-20.3-31.7-20.8-51.5,0-.2.4-.5.6-.5q37.8-.2,75.6,0a2.5,2.5,0,0,1,1.6.6l53.1,53.2Z" fill="#2fc8e0"/>
  <path d="M1199.3,860.1c-1.6-1.4-3.2-2.9-4.9-4.2-18-14.1-38.4-19.5-61-15.8a74,74,0,0,0-42.9,23.1c-13.5,14.5-20.3,31.7-20.8,51.5a1,1,0,0,0,.6.5h75.6a3.1,3.1,0,0,0,1.6-.6l53.1-53.2Z" fill="#2fc8e0"/>
  <path d="M928.4,983.3c1.7,1.4,3.2,2.9,4.9,4.2,18.1,14.1,38.5,19.5,61,15.7a73.5,73.5,0,0,0,43-23,75.8,75.8,0,0,0,20.7-51.5.6.6,0,0,0-.5-.5q-37.8-.2-75.7,0a2.2,2.2,0,0,0-1.5.6c-17.7,17.7-35.5,35.4-53.2,53.2Z" fill="#2fc8e0"/>
  <path d="M928.4,1872.1c1.7-1.4,3.2-2.9,4.9-4.2,18.1-14.1,38.5-19.5,61-15.8a74.2,74.2,0,0,1,43,23.1,75.8,75.8,0,0,1,20.7,51.5.6.6,0,0,1-.5.5H981.8a2.8,2.8,0,0,1-1.5-.6l-53.2-53.2Z" fill="#fed670"/>
  <path d="M1199.3,1995.3c-1.6,1.4-3.2,2.9-4.9,4.2-18,14.1-38.4,19.5-61,15.7a73.3,73.3,0,0,1-42.9-23c-13.5-14.5-20.3-31.7-20.8-51.5,0-.2.4-.5.6-.5q37.8-.2,75.6,0a2.5,2.5,0,0,1,1.6.6l53.1,53.2Z" fill="#fed670"/>
  <path d="M1199.3,1872.1c-1.6-1.4-3.2-2.9-4.9-4.2-18-14.1-38.4-19.5-61-15.8a74,74,0,0,0-42.9,23.1c-13.5,14.5-20.3,31.7-20.8,51.5,0,.2.4.5.6.5h75.6a3.1,3.1,0,0,0,1.6-.6l53.1-53.2Z" fill="#fed670"/>
  <path d="M928.4,1995.3c1.7,1.4,3.2,2.9,4.9,4.2,18.1,14.1,38.5,19.5,61,15.7a73.5,73.5,0,0,0,43-23,75.8,75.8,0,0,0,20.7-51.5.6.6,0,0,0-.5-.5q-37.8-.2-75.7,0a2.2,2.2,0,0,0-1.5.6L927.1,1994Z" fill="#fed670"/>
  <path d="M928.4,2913.1c1.7-1.4,3.2-2.9,4.9-4.2,18.1-14.1,38.5-19.5,61-15.8a74.2,74.2,0,0,1,43,23.1,75.8,75.8,0,0,1,20.7,51.5.6.6,0,0,1-.5.5H981.8a2.8,2.8,0,0,1-1.5-.6l-53.2-53.2Z" fill="#165ffa"/>
  <path d="M1199.3,3036.3c-1.6,1.4-3.2,2.9-4.9,4.2-18,14.1-38.4,19.5-61,15.7a73.3,73.3,0,0,1-42.9-23c-13.5-14.5-20.3-31.7-20.8-51.5,0-.2.4-.5.6-.5h75.6a2.5,2.5,0,0,1,1.6.6l53.1,53.2Z" fill="#165ffa"/>
  <path d="M1199.3,2913.1c-1.6-1.4-3.2-2.9-4.9-4.2-18-14.1-38.4-19.5-61-15.8a74,74,0,0,0-42.9,23.1c-13.5,14.5-20.3,31.7-20.8,51.5,0,.2.4.5.6.5h75.6a3.1,3.1,0,0,0,1.6-.6l53.1-53.2Z" fill="#165ffa"/>
  <path d="M928.4,3036.3c1.7,1.4,3.2,2.9,4.9,4.2,18.1,14.1,38.5,19.5,61,15.7a73.5,73.5,0,0,0,43-23,75.8,75.8,0,0,0,20.7-51.5.6.6,0,0,0-.5-.5H981.8a2.2,2.2,0,0,0-1.5.6c-17.7,17.7-35.5,35.4-53.2,53.2Z" fill="#165ffa"/>
  <path d="M1513.2,940.9a92.2,92.2,0,1,1,.3-36,94.8,94.8,0,0,1-.3,36Z" fill="#2fc8e0"/>
  <path d="M1513.2,1952.9a92.2,92.2,0,1,1,.3-36,94.8,94.8,0,0,1-.3,36Z" fill="#fed670"/>
  <path d="M1513.2,2993.9a92.2,92.2,0,1,1,.3-36,94.8,94.8,0,0,1-.3,36Z" fill="#165ffa"/>
  <path d="M1748.1,921.9a85.4,85.4,0,1,1-6.5-32.9,85.4,85.4,0,0,1,6.5,32.9Z" fill="none" stroke="#2fc8e0" stroke-width="12"/>
  <path d="M1748.1,1933.9a85.4,85.4,0,1,1-6.5-32.9,85.4,85.4,0,0,1,6.5,32.9Z" fill="none" stroke="#fed670" stroke-width="12"/>
  <path d="M1748.1,2974.9a85.4,85.4,0,1,1-6.5-32.9,85.4,85.4,0,0,1,6.5,32.9Z" fill="none" stroke="#165ffa" stroke-width="12"/>
</svg>
