<?xml version="1.0" encoding="UTF-8"?>
<!DOCTYPE svg PUBLIC "-//W3C//DTD SVG 1.1//EN" "http://www.w3.org/Graphics/SVG/1.1/DTD/svg11.dtd">
<svg version="1.1" xmlns="http://www.w3.org/2000/svg" xmlns:xlink="http://www.w3.org/1999/xlink" x="0" y="0" width="4320" height="7200" viewBox="0, 0, 2160, 3600">
  <g id="Background">
    <rect x="0" y="0" width="2160" height="3600" fill="#000000" fill-opacity="0"/>
  </g>
  <g id="Layer_1">
    <path d="M690.11,3291.948 C690.11,3291.948 674.11,2563.948 674.11,2311.948 C674.11,2059.948 674.11,1475.948 682.11,1319.948 C690.11,1163.948 682.11,963.948 734.11,771.948 C786.11,579.948 834.11,479.949 898.11,363.949 C962.11,247.949 1086.11,219.949 1126.11,191.949 C1166.11,163.949 1282.11,143.949 1338.11,143.949 C1394.11,143.949 1578.11,163.949 1694.11,275.949 C1810.537,388.361 1918.11,623.948 1918.11,623.948 L690.11,3291.948 z" fill="#003063" display="none"/>
    <text transform="matrix(0.421, -0.907, 0.907, 0.421, 1288.673, 1716.019)">
      <tspan x="-561.775" y="7.329" font-family="Futura-Medium" font-size="90" fill="#FFFFFF">Building the future of giving</tspan>
    </text>
    <g id="Layer_4_Image">
      <path d="M1634.477,628.53 C1633.861,637.347 1633.645,646.217 1632.563,654.982 C1621.124,747.898 1577.783,822.354 1501.71,876.888 C1444.879,917.628 1380.737,936.638 1310.874,934.221 C1230.09,931.417 1160.438,901.329 1102.034,845.438 C1101.497,844.921 1101.51,842.864 1102.034,842.314 Q1211.299,732.877 1320.768,623.663 C1322.488,622.087 1324.713,621.174 1327.044,621.088 Q1480.764,620.898 1634.477,620.977 z" fill="#FFFFFF"/>
      <path d="M1328.479,307.177 C1337.095,307.832 1345.73,308.212 1354.313,309.142 Q1429.731,317.311 1493.212,358.928 C1493.5,359.144 1493.775,359.376 1494.038,359.622 L1467.28,386.323 C1461.455,392.133 1455.67,397.983 1449.774,403.722 C1449.017,404.21 1448.068,404.293 1447.238,403.944 Q1383.318,367.168 1309.63,370.116 C1199.722,374.545 1103.902,452.387 1077.55,559.125 C1061.236,625.261 1070.31,688.089 1103.902,747.387 C1104.223,747.95 1104.242,749.195 1103.856,749.575 Q1081.979,771.611 1059.958,793.53 C1059.814,793.674 1059.637,793.792 1059.303,794.061 C1057.921,791.919 1056.532,789.849 1055.221,787.733 C1018.996,729.15 1003.003,665.503 1008.179,596.805 C1018.964,453.992 1125.267,336.989 1266.715,312.142 C1281.011,309.633 1295.641,308.998 1310.114,307.491 L1313.069,307.177 z" fill="#FFFFFF"/>
      <path d="M1483.755,497.55 C1483.749,466.345 1509.035,441.039 1540.245,441.015 C1571.454,440.991 1596.779,466.259 1596.82,497.463 C1596.862,528.668 1571.604,554.003 1540.394,554.061 C1525.374,554.124 1510.949,548.194 1500.317,537.586 C1489.685,526.978 1483.724,512.568 1483.755,497.55 z" fill="#FFFFFF"/>
    </g>
    <g id="Layer_2_copy_Image">
      <path d="M951.527,1627.265 C951.767,1626.948 951.99,1626.619 952.195,1626.278 C964.006,1604.163 981.712,1588.639 1005.018,1579.46 C1005.573,1579.26 1006.143,1579.031 1006.57,1578.858 L1013.285,1597.555 C1012.551,1597.85 1011.639,1598.228 1010.72,1598.593 C999.985,1602.915 990.311,1609.504 982.357,1617.91 C978.931,1621.555 975.844,1625.505 973.135,1629.71 C970.331,1634.135 967.948,1638.812 966.017,1643.68 C963.901,1648.935 962.389,1654.414 961.51,1660.011 C960.722,1664.778 960.37,1669.606 960.458,1674.436 C960.535,1681.044 961.479,1687.613 963.264,1693.976 C963.971,1696.441 964.726,1698.901 965.606,1701.309 C967.391,1706.124 969.655,1710.747 972.365,1715.108 C974.936,1719.281 977.884,1723.21 981.171,1726.846 C985.31,1731.459 989.99,1735.556 995.111,1739.047 C997.28,1740.531 999.523,1741.906 1001.83,1743.166 C1004.573,1744.684 1007.392,1746.059 1010.277,1747.287 C1015.293,1749.361 1020.513,1750.902 1025.85,1751.885 C1031.025,1752.849 1036.281,1753.309 1041.545,1753.259 C1048.619,1753.18 1055.651,1752.167 1062.459,1750.247 C1082.696,1744.562 1099.883,1731.143 1110.305,1712.888 C1112.203,1709.516 1113.881,1706.024 1115.327,1702.434 C1117.662,1696.617 1119.277,1690.536 1120.136,1684.326 C1120.751,1680.072 1121.013,1675.774 1120.921,1671.477 C1120.632,1657.302 1116.608,1643.455 1109.253,1631.333 C1105.144,1624.535 1100.036,1618.393 1094.099,1613.115 C1093.56,1612.635 1093.02,1612.145 1092.329,1611.565 C1091.171,1613.953 1090.136,1616.216 1089.076,1618.466 L1050.665,1699.93 L1040.887,1672.757 L1083.443,1582.501 C1083.892,1582.713 1084.303,1582.907 1084.715,1583.101 C1106.544,1594.002 1122.527,1610.55 1132.378,1632.88 C1141.155,1652.802 1143.019,1673.508 1138.421,1694.788 C1137.174,1700.356 1135.461,1705.808 1133.301,1711.089 C1131.519,1715.52 1129.387,1719.802 1126.926,1723.895 C1115.64,1742.751 1099.95,1756.642 1079.689,1765.208 C1060.002,1773.542 1039.646,1775.272 1018.768,1770.711 C1012.829,1769.42 1007.031,1767.546 1001.46,1765.116 C977.132,1754.485 959.473,1737.06 948.837,1712.753 C940.242,1693.11 938.41,1672.688 942.844,1651.708 C943.958,1646.59 945.466,1641.566 947.355,1636.68 C947.628,1635.965 947.98,1635.277 948.266,1634.563 C948.396,1634.189 948.508,1633.809 948.6,1633.424 z" fill="#FFFFFF"/>
      <path d="M1395.591,1155.171 L1387.082,1173.218 L1315.078,1139.268 L1289.427,1193.671 L1361.265,1227.543 C1361.136,1228.354 1353.618,1244.456 1352.851,1245.603 L1244.657,1194.589 L1253.133,1176.614 L1270.656,1184.876 C1271.216,1184.217 1295.773,1132.33 1296.408,1130.484 C1290.458,1127.679 1284.494,1124.867 1278.53,1122.055 C1272.566,1119.242 1266.632,1116.445 1260.683,1113.64 L1242.707,1105.164 C1242.777,1104.892 1242.863,1104.624 1242.965,1104.363 Q1246.938,1095.937 1250.91,1087.512 C1250.981,1087.361 1251.077,1087.226 1251.163,1087.082 z" fill="#FFFFFF"/>
      <path d="M1238.012,1302.451 L1204.03,1374.523 L1176.912,1384.263 L1209.777,1314.561 C1201.436,1313.695 1193.006,1314.605 1185.042,1317.23 C1172.303,1321.438 1161.995,1329.022 1154.329,1340.025 C1138.697,1362.414 1140.088,1392.519 1157.719,1413.37 C1175.35,1434.222 1204.806,1440.597 1229.481,1428.903 C1243.373,1422.28 1253.387,1411.794 1259.303,1397.604 C1265.219,1383.414 1265.443,1369.013 1260.596,1354.574 L1279.013,1347.963 C1289.365,1374.672 1283.618,1413.42 1253.083,1437.383 C1221.009,1462.538 1175.138,1459.504 1146.656,1430.343 C1118.175,1401.182 1116.222,1355.252 1142.126,1323.779 C1168.743,1291.578 1210.458,1288.651 1238.012,1302.451 z" fill="#FFFFFF"/>
      <path d="M1171.687,1535.224 L1093.221,1422.138 L1102.946,1401.512 C1102.982,1401.505 1103.018,1401.5 1103.054,1401.499 C1103.081,1401.511 1103.131,1401.503 1103.141,1401.54 C1103.235,1401.634 1103.321,1401.735 1103.4,1401.842 L1208.102,1552.717 L1199.629,1570.689 L1055.431,1502.699 C1055.408,1502.664 1055.388,1502.627 1055.372,1502.589 C1055.362,1502.558 1055.36,1502.525 1055.366,1502.494 C1055.389,1502.363 1055.425,1502.234 1055.473,1502.11 L1063.504,1485.078 C1063.589,1484.933 1063.685,1484.793 1063.789,1484.659 L1171.522,1535.455 z" fill="#FFFFFF"/>
      <path d="M1327.211,1300.08 L1318.691,1318.15 L1191.914,1258.375 C1191.266,1259.573 1190.761,1260.761 1190.206,1261.92 C1189.65,1263.079 1189.067,1264.336 1188.497,1265.544 L1181.792,1279.764 L1159.426,1281.726 L1216.992,1159.634 L1234.523,1167.899 L1200.393,1240.285 z" fill="#FFFFFF"/>
      <path d="M1191,1588.97 L1182.535,1606.923 L1074.303,1555.892 L1082.727,1538.026 L1082.794,1538.002 C1082.825,1537.994 1082.864,1537.971 1082.886,1537.981 Q1136.707,1563.33 1190.521,1588.685 C1190.666,1588.758 1190.801,1588.854 1191,1588.97 z" fill="#FFFFFF"/>
      <path d="M1042.371,1529.85 C1044.731,1524.893 1050.659,1522.781 1055.622,1525.131 C1060.584,1527.48 1062.709,1533.403 1060.371,1538.371 C1058.033,1543.339 1052.114,1545.477 1047.141,1543.15 C1044.731,1542.035 1042.868,1539.999 1041.972,1537.499 C1041.075,1534.999 1041.219,1532.243 1042.371,1529.85 z" fill="#FFFFFF"/>
    </g>
    <g opacity="0.899">
      <path d="M10.549,2202.247 L413.102,2030.848 L950.967,3294.091 L548.413,3465.49 L10.549,2202.247 z" fill="#0D412E"/>
      <path d="M412.719,2031.01 L530.578,1980.828 L1068.443,3244.071 L950.584,3294.253 L412.719,2031.01 z" fill="#1A6328"/>
      <path d="M529.813,1981.154 L647.672,1930.972 L1185.536,3194.215 L1067.677,3244.397 L529.813,1981.154 z" fill="#268C2D"/>
    </g>
    <g>
      <g opacity="0.701">
        <path d="M201.004,3354.81 L138.052,3255.268 L1944.049,2113.147 L2007,2212.69 L201.004,3354.81 z" fill="#0D4168"/>
        <path d="M138.257,3255.591 L75.306,3156.048 L1881.302,2013.928 L1944.253,2113.47 L138.257,3255.591 z" fill="#165F91"/>
        <path d="M75.714,3156.695 L11.649,3055.39 L1817.646,1913.27 L1881.711,2014.574 L75.714,3156.695 z" fill="#2BAEFF"/>
      </g>
    </g>
  </g>
</svg>
