<svg xmlns="http://www.w3.org/2000/svg" viewBox="0 0 521.41 705.94"><title>unicorn-dac-dark</title><g id="Layer_2" data-name="Layer 2"><g id="Layer_2-2" data-name="Layer 2"><path d="M29.9,225.58c.45-13.34,6-25.57,17.55-36.19,1.18-1.07,2.56-2,3.85-3a2.59,2.59,0,0,1,3-.24A28,28,0,0,1,59,189.07c3.26,2.87,6.48,5.78,9.4,8.83,12.25,12.84,23.09,26.35,33.73,39.95,26.31,33.62,51,67.9,74.63,102.61,11.15,16.38,22.09,32.85,31.84,49.73,2.43,4.22,4.53,8.54,6.66,12.84a15.43,15.43,0,0,1,1.3,4.05c.26,1.32-.66,1.9-2.33,1.45a14,14,0,0,1-3.87-1.61c-4.16-2.7-8.37-5.36-12.25-8.28-13-9.8-25.07-20.29-37-30.81C136.85,346.55,113.51,325,63,278.05c-4.09-3.8-8.25-7.57-12.29-11.4-9-8.48-15.68-17.78-18.86-28.39A49.15,49.15,0,0,1,29.9,225.58Z" style="fill:#155388"/><path d="M3.35,359.56a79.7,79.7,0,0,1,4-25.26,35.84,35.84,0,0,1,3.38-6.83c1.12-1.81,2.29-2.05,4.76-1.19a39.37,39.37,0,0,1,5.53,2.43,189.69,189.69,0,0,1,20.61,13.21c22.53,16,43.72,33,64.58,50.24,20.37,16.8,40.4,33.82,59.34,51.53,4.48,4.19,8.66,8.56,12.92,12.88a18.14,18.14,0,0,1,2.4,3.06c1.06,1.67.42,2.35-2.11,2.18a30.57,30.57,0,0,1-4.37-.69,225.25,225.25,0,0,1-24.21-7.07c-27.68-9.26-54.67-19.57-81.61-30C58,420,47.47,415.8,36.88,411.68c-2.31-.9-4.68-1.73-7.08-2.49a31.62,31.62,0,0,1-14.13-8.91,41.68,41.68,0,0,1-8.84-15.69C4.26,376.77,3.35,368.81,3.35,359.56Z" style="fill:#6b98a7"/><path d="M175.87,514.05c-2,1.24-4.21,1.29-6.3,1.32-6.36.09-12.72.24-19.06,0-13.15-.45-26.29-1.07-39.42-1.74-8.47-.43-16.93-1-25.38-1.64-13.36-1-26.71-2.12-40.07-3.19-3.43-.28-6.84-.76-10.28-.88a22.28,22.28,0,0,1-14-5.44A67.17,67.17,0,0,1,10.5,491.13C6.41,485.72,2.8,480.14,1,474,.36,472-.48,469.88.34,467.67c1.14-3,2.81-4,6.89-3.5,3.86.48,7.72,1,11.5,1.77,15.39,3,30.33,7,45.22,11.05,27.62,7.57,54.93,15.7,81.74,24.73,8.76,2.94,17.28,6.29,25.87,9.52C173.18,511.85,174.86,512.53,175.87,514.05Z" style="fill:#6b98a7"/><path d="M192.66,556.68a17,17,0,0,1-2.67,2c-2.42,1.09-4.86,2.14-7.37,3-14.44,5-29.27,9.07-44.12,13-19.85,5.3-39.79,10.31-60,14.56-3.63.76-7.29,1.44-11,1.88-15.72,1.89-30.45-8.26-34.88-19.4-.9-2.26-1.6-4.59-.77-7.06a4.72,4.72,0,0,1,3.65-3.44A97.09,97.09,0,0,1,46,559.34c8.52-.87,17.07-1.62,25.63-2.16,10.25-.65,20.51-1,30.77-1.52,24.28-1.13,48.58-1.18,72.88-.82,4.66.07,9.31.57,14,.94A24.5,24.5,0,0,1,192.66,556.68Z" style="fill:#6b98a7"/><path d="M304.13,705.94a4.26,4.26,0,0,1-.24-3.85,85.22,85.22,0,0,1,9-18.61c2.61-4.23,5.55-8.35,8.6-12.41a27.47,27.47,0,0,1,5.08-5c2.46-1.93,4.25-1.71,6.39.46a14.18,14.18,0,0,1,3.56,7.39,31.77,31.77,0,0,1,0,12.06,6.81,6.81,0,0,1-2.85,4.42c-8,6-16.59,11.42-27,15a5.66,5.66,0,0,0-.87.48Z" style="fill:#5ca43f"/><path d="M213.8,598.91a15.39,15.39,0,0,1-1.66,2.53,53,53,0,0,1-4.61,4.2,342.57,342.57,0,0,1-38.47,25.88c-7.1,4.18-15.09,6.16-23.88,7a238.56,238.56,0,0,1-31.06.71,82.78,82.78,0,0,1-19-2.4A20.76,20.76,0,0,1,90,634.72c-2.3-1.39-2.37-3-.17-4.45a39.72,39.72,0,0,1,6.37-3.37A194.28,194.28,0,0,1,120,619c26.42-7.4,53.29-13.75,80.74-18.69,3-.54,6-1,9-1.35A36.62,36.62,0,0,1,213.8,598.91Z" style="fill:#5ca43f"/><path d="M253.44,637.13a15.2,15.2,0,0,1-1.57,2.88c-2.81,3.2-5.59,6.42-8.64,9.49-7,7-14.72,13.49-22.48,20-6.21,5.21-14,7.33-22.93,8a116.21,116.21,0,0,1-21.51,0,95.88,95.88,0,0,1-10.05-1.74,14.1,14.1,0,0,1-4.3-1.87c-2.51-1.59-2.72-3.41-.68-5.32a14.55,14.55,0,0,1,3.41-2.45c5.06-2.49,10-5.13,15.35-7.24a489.57,489.57,0,0,1,64.26-20.44c2.21-.54,4.51-.89,6.78-1.27A17.19,17.19,0,0,1,253.44,637.13Z" style="fill:#5ca43f"/><path d="M290.21,657.71a42.16,42.16,0,0,1-2,3.81,164.74,164.74,0,0,1-16.41,20.63c-2.15,2.36-4.52,4.6-6.77,6.91a19.24,19.24,0,0,1-7.37,4.38A93.27,93.27,0,0,1,237.35,698c-4.89.6-9.81,1.13-14.76.45a19.71,19.71,0,0,1-4-.9c-2.33-.86-2.94-2.35-1.62-4a13.42,13.42,0,0,1,3.12-2.92c4.81-3.09,9.56-6.25,14.66-9.05a433,433,0,0,1,45.7-21.46c2-.82,4.18-1.54,6.31-2.24.9-.29,1.89-.42,2.83-.62Z" style="fill:#5ca43f"/><path d="M124.11,123.44c7.06-13,19.29-23.73,37.5-31.41,1.85-.78,3.87-1.39,5.81-2.07a3.32,3.32,0,0,1,3.51.49,23.36,23.36,0,0,1,3.8,4A112,112,0,0,1,181,105.41c7.45,15.55,13,31.43,18.25,47.35,13,39.36,23.92,79,33.39,118.78,4.47,18.78,8.68,37.59,11.32,56.53.66,4.73.89,9.48,1.18,14.23a14,14,0,0,1-.53,4.29c-.36,1.36-1.67,1.71-3.33.87a12.85,12.85,0,0,1-3.56-2.51c-3.35-3.65-6.77-7.28-9.69-11.07-9.84-12.76-18.19-25.95-26.46-39.16-23.15-37-44.46-74.4-66-111.76-2.73-4.72-5.54-9.42-8.21-14.16-5.89-10.47-8.86-21.23-7.23-32.43A48,48,0,0,1,124.11,123.44Z" style="fill:#155388"/><path d="M262.32,38.36c13-15.08,30.35-27.31,52.55-35.81,2.25-.87,4.61-1.52,6.92-2.27,1.64-.53,2.88-.3,3.41.67a16.58,16.58,0,0,1,2.17,4.83,104.39,104.39,0,0,1,1.63,13c.89,18.47-.36,37.27-1.89,56.1-3.8,46.58-9.92,93.4-17.58,140.37-3.61,22.18-7.52,44.38-13.1,66.69-1.39,5.57-3.23,11.15-5,16.73a23.43,23.43,0,0,1-2.43,5c-1,1.58-2.47,2-3.82.92a8,8,0,0,1-2.58-3.05,126.64,126.64,0,0,1-5.16-13.26c-4.58-15.25-7.43-31-10.19-46.72-7.72-44-13.33-88.58-19.26-133-.75-5.62-1.6-11.21-2.28-16.85a65.44,65.44,0,0,1,6.75-38.27A90.8,90.8,0,0,1,262.32,38.36Z" style="fill:#155388"/><rect x="464.01" y="337.64" width="16.73" height="27.39" rx="4.79" ry="4.79" transform="translate(332.54 -220.53) rotate(39.62)" style="fill:#2c0d54"/><path d="M443.06,404.26c0-3.66-.61-8.95-3.41-13.39a16.13,16.13,0,0,0-8.87-6.87,2.25,2.25,0,0,1-1.3.14.87.87,0,0,1-.78-1,4.81,4.81,0,0,1,.87-2.14l10.61-12.63c2.07-2.49,4.71-3.74,5.87-2.78l17.2,14.24c1.17,1,.43,3.79-1.64,6.28l-12.68,15.33C446.86,404,444.22,405.22,443.06,404.26Z" style="fill:#2c0d54"/><rect x="443.34" y="359.06" width="22.63" height="27.39" rx="5.57" ry="5.57" transform="translate(342.12 -204.3) rotate(39.62)" style="fill:#2c0d54"/><rect x="453.47" y="348.51" width="19.83" height="27.39" rx="5.21" ry="5.21" transform="translate(337.4 -212.29) rotate(39.62)" style="fill:#2c0d54"/><rect x="477.31" y="323.18" width="14.08" height="27.39" rx="4.39" ry="4.39" transform="translate(326.07 -231.48) rotate(39.62)" style="fill:#2c0d54"/><path d="M484.69,326.83c3.7-3.94,31.3-33.2,33.9-31,2.45,2.1-18.53,31-22.12,36" style="fill:#2c0d54"/><path d="M520.63,534.22c-2.79-16.28-11.82-30.77-21.53-44.13s-20.38-26.24-27.3-41.24C463.2,430.21,460.1,408,445,394.06c-6.56-6-15.39-10.55-18.35-19-4.6-13.05-8-24.74-5.4-43.66-17.5,13.66-31.8,29-28.29,37.8-14.57-13.12-53.53-3.57-94-34.7-14.36,25.72,16.43,49.52,22,47.14-20.61,8.74-51.69-17.53-51.86-15.18-2.34,33.63,21.44,38.37,22.25,37.92-20.79,11.61-45.68-4.57-49.87-11.72-6.76,26,19.56,44,24,39.21-13.18,14.37-46.19-4.14-51-15.8-8.61,24,18.87,47.65,31.81,50.87-8.73,5.63-33.44,6.41-38.25,13.43-17.42,25.4,19.86,82.07,31.17,102.22q3.21,5.72,6.9,11.12c10.64,15.61,24,30.33,40.7,39.5a92.39,92.39,0,0,0,35.7,11,86.59,86.59,0,0,0,17.85-.15c7.21-.82,14.77-2.76,19.73-8.06,8.62-9.22,5.86-23.81,3.28-36.17-2.74-13.08-4.66-26.53-3-39.79s7.22-26.44,17.38-35.12a62.2,62.2,0,0,0,39.53,27.76c7.22,1.52,14.81,1.77,21.56,4.77,11.31,5,18.21,16.79,28.88,23.07a35.25,35.25,0,0,0,37.7-1.81C518.74,569,523.43,550.5,520.63,534.22Zm-71.37-74c-6.06,0-11-5.27-11-11.76s4.91-11.77,11-11.77,11,5.27,11,11.77S455.32,460.24,449.26,460.24Z" style="fill:#2c0d54"/></g></g></svg>