<?xml version="1.0" encoding="UTF-8" standalone="no"?>
<!-- Created with Inkscape (http://www.inkscape.org/) -->

<svg
   xmlns:dc="http://purl.org/dc/elements/1.1/"
   xmlns:cc="http://creativecommons.org/ns#"
   xmlns:rdf="http://www.w3.org/1999/02/22-rdf-syntax-ns#"
   xmlns:svg="http://www.w3.org/2000/svg"
   xmlns="http://www.w3.org/2000/svg"
   xmlns:sodipodi="http://sodipodi.sourceforge.net/DTD/sodipodi-0.dtd"
   xmlns:inkscape="http://www.inkscape.org/namespaces/inkscape"
   version="1.1"
   id="svg2"
   xml:space="preserve"
   width="1930.1733"
   height="2734.6533"
   viewBox="0 0 1930.1733 2734.6533"
   sodipodi:docname="Giveth Logo purple.svg"
   inkscape:version="0.92.3 (2405546, 2018-03-11)"><metadata
     id="metadata8"><rdf:RDF><cc:Work
         rdf:about=""><dc:format>image/svg+xml</dc:format><dc:type
           rdf:resource="http://purl.org/dc/dcmitype/StillImage" /><dc:title></dc:title></cc:Work></rdf:RDF></metadata><defs
     id="defs6"><clipPath
       clipPathUnits="userSpaceOnUse"
       id="clipPath18"><path
         d="M 0,2050.992 H 1447.632 V 0 H 0 Z"
         id="path16"
         inkscape:connector-curvature="0" /></clipPath><clipPath
       clipPathUnits="userSpaceOnUse"
       id="clipPath26"><path
         d="M 0,2050.99 H 1447.63 V 0 H 0 Z"
         id="path24"
         inkscape:connector-curvature="0" /></clipPath></defs><sodipodi:namedview
     pagecolor="#ffffff"
     bordercolor="#666666"
     borderopacity="1"
     objecttolerance="10"
     gridtolerance="10"
     guidetolerance="10"
     inkscape:pageopacity="0"
     inkscape:pageshadow="2"
     inkscape:window-width="1920"
     inkscape:window-height="1171"
     id="namedview4"
     showgrid="false"
     inkscape:zoom="0.086299787"
     inkscape:cx="-697.7216"
     inkscape:cy="1367.3267"
     inkscape:window-x="0"
     inkscape:window-y="0"
     inkscape:window-maximized="1"
     inkscape:current-layer="g10" /><g
     id="g10"
     inkscape:groupmode="layer"
     inkscape:label="Giveth Logo Full "
     transform="matrix(1.3333333,0,0,-1.3333333,0,2734.6533)"><g
       id="g12"
       style="fill:#2f0340;fill-opacity:1"><g
         id="g14"
         clip-path="url(#clipPath18)"
         style="fill:#2f0340;fill-opacity:1"><g
           id="g20"
           style="fill:#2f0340;fill-opacity:1"><g
             id="g22"
             style="fill:#2f0340;fill-opacity:1" /><g
             id="g32"
             style="fill:#2f0340;fill-opacity:1"><g
               clip-path="url(#clipPath26)"
               id="g30"
               style="opacity:0;fill:#2f0340;fill-opacity:1"><path
                 d="M 0,2050.992 H 1447.632 V 0 H 0 Z"
                 style="fill:#2f0340;fill-opacity:1;fill-rule:nonzero;stroke:none"
                 id="path28"
                 inkscape:connector-curvature="0" /></g></g></g><g
           id="g34"
           transform="translate(1447.5117,1309.4958)"
           style="fill:#2f0340;fill-opacity:1"><path
             d="m 0,0 c -1.42,-20.344 -1.92,-40.81 -4.414,-61.036 -26.396,-214.394 -126.399,-386.193 -301.934,-512.03 -131.131,-94.002 -279.133,-137.866 -440.336,-132.288 -186.404,6.468 -347.12,75.894 -481.882,204.856 -1.238,1.196 -1.208,5.942 0,7.21 168.08,168.344 336.317,336.517 504.711,504.52 3.967,3.636 9.101,5.74 14.481,5.94 236.463,0.292 472.921,0.377 709.374,0.256 z"
             style="fill:#2f0340;fill-opacity:1;fill-rule:nonzero;stroke:none"
             id="path36"
             inkscape:connector-curvature="0" /></g><g
           id="g38"
           transform="translate(741.4502,2050.9919)"
           style="fill:#2f0340;fill-opacity:1"><path
             d="m 0,0 c 19.88,-1.512 39.804,-2.388 59.607,-4.534 116.015,-12.567 222.848,-50.859 320.498,-114.876 0.665,-0.5 1.3,-1.034 1.907,-1.602 l -61.742,-61.61 c -13.44,-13.408 -26.789,-26.906 -40.394,-40.148 -1.746,-1.126 -3.937,-1.318 -5.851,-0.514 -98.326,56.572 -204.166,82.591 -317.519,78.056 -253.602,-10.218 -474.7,-189.832 -535.504,-436.122 -37.644,-152.604 -16.706,-297.574 60.804,-434.398 0.74,-1.3 0.786,-4.172 -0.106,-5.048 -33.652,-33.898 -67.415,-67.707 -101.29,-101.424 -0.332,-0.332 -0.74,-0.604 -1.512,-1.224 -3.19,4.942 -6.394,9.72 -9.418,14.602 -83.586,135.176 -120.488,282.036 -108.546,440.55 24.884,329.528 270.17,599.502 596.55,656.834 32.986,5.79 66.744,7.256 100.14,10.732 L -35.558,0 Z"
             style="fill:#2f0340;fill-opacity:1;fill-rule:nonzero;stroke:none"
             id="path40"
             inkscape:connector-curvature="0" /></g><g
           id="g42"
           transform="translate(1108.3037,1614.1702)"
           style="fill:#2f0340;fill-opacity:1"><path
             d="M 0,0 C -0.014,72.002 58.332,130.396 130.347,130.45 202.36,130.506 260.794,72.202 260.889,0.2 260.984,-71.802 202.704,-130.26 130.69,-130.394 96.032,-130.54 62.748,-116.856 38.214,-92.38 13.683,-67.902 -0.071,-34.652 0,0"
             style="fill:#2f0340;fill-opacity:1;fill-rule:nonzero;stroke:none"
             id="path44"
             inkscape:connector-curvature="0" /></g><g
           id="g46"
           transform="translate(208.0342,402.8923)"
           style="fill:#2f0340;fill-opacity:1"><path
             d="m 0,0 c 0.782,-0.166 1.572,-0.288 2.368,-0.37 50.36,-2.519 93.786,-21.412 130.474,-55.935 0.84,-0.838 1.746,-1.677 2.426,-2.307 l -28.252,-28.252 c -1.166,1.084 -2.636,2.418 -4.088,3.778 -17.07,15.819 -37.354,27.768 -59.466,35.025 -9.57,3.107 -19.404,5.334 -29.378,6.657 -10.452,1.303 -21.004,1.628 -31.516,0.964 -11.376,-0.659 -22.64,-2.607 -33.574,-5.808 -9.346,-2.654 -18.432,-6.156 -27.144,-10.458 -11.954,-5.811 -23.094,-13.16 -33.138,-21.864 -3.878,-3.401 -7.704,-6.884 -11.33,-10.552 -7.228,-7.374 -13.696,-15.46 -19.306,-24.13 -5.386,-8.257 -10.004,-16.988 -13.798,-26.086 -4.842,-11.486 -8.28,-23.515 -10.24,-35.824 -0.838,-5.219 -1.416,-10.479 -1.728,-15.754 -0.41,-6.292 -0.494,-12.603 -0.252,-18.902 0.53,-10.903 2.202,-21.72 4.994,-32.272 2.684,-10.242 6.354,-20.198 10.962,-29.73 6.21,-12.8 14.084,-24.725 23.416,-35.462 27.698,-31.939 66.852,-51.693 108.996,-54.994 7.764,-0.56 15.556,-0.617 23.326,-0.168 12.586,0.742 25.032,3.019 37.066,6.782 8.266,2.531 16.308,5.74 24.046,9.594 25.538,12.683 47.276,31.881 63.018,55.656 8.844,13.306 15.634,27.865 20.144,43.193 0.412,1.393 0.84,2.794 1.3,4.549 -5.338,0.06 -10.34,0 -15.342,0 H -47.154 l 41.044,41.094 h 200.686 v -2.828 c -1.108,-49.061 -17.5,-92.328 -49.672,-129.401 -28.714,-33.053 -64.78,-54.206 -107.436,-64.091 -11.196,-2.508 -22.584,-4.069 -34.044,-4.668 -9.588,-0.558 -19.206,-0.354 -28.764,0.614 -43.98,4.355 -82.708,20.981 -115.668,50.494 -32.046,28.664 -52.652,64.21 -62.262,106.1 -2.746,11.912 -4.31,24.066 -4.668,36.286 -1.526,53.372 15.024,100.441 50.118,140.637 28.36,32.483 63.94,53.332 105.908,63.263 10.266,2.361 20.698,3.928 31.206,4.682 1.536,0.118 3.088,0.068 4.632,0.16 0.792,0.084 1.58,0.206 2.36,0.37 z"
             style="fill:#2f0340;fill-opacity:1;fill-rule:nonzero;stroke:none"
             id="path48"
             inkscape:connector-curvature="0" /></g><g
           id="g50"
           transform="translate(1447.7021,0.0095)"
           style="fill:#2f0340;fill-opacity:1"><path
             d="M 0,0 H -40.128 V 160.104 H -161.094 V 0.368 c -1.587,-0.46 -37.326,-0.594 -40.07,-0.183 v 240.572 h 39.97 v -38.962 c 1.677,-0.454 117.128,-0.623 121.032,-0.194 v 39.752 39.683 39.968 c 0.554,0.106 1.116,0.181 1.678,0.219 h 37.467 c 0.336,0 0.664,-0.059 1,-0.092 z"
             style="fill:#2f0340;fill-opacity:1;fill-rule:nonzero;stroke:none"
             id="path52"
             inkscape:connector-curvature="0" /></g><g
           id="g54"
           transform="translate(1044.6279,160.3396)"
           style="fill:#2f0340;fill-opacity:1"><path
             d="m 0,0 h -160.256 l -40.975,40.977 h 154.983 c -5.58,15.916 -14.464,30.469 -26.07,42.706 -18.584,19.563 -41.22,31.809 -67.81,36.317 -54.136,9.234 -107.708,-19.117 -130.516,-69.073 -22.808,-49.958 -9.142,-109.011 33.296,-143.866 23.962,-19.59 51.626,-28.815 82.514,-27.405 30.888,1.41 57.276,13.355 79.386,34.557 l 27.824,-27.835 c -39.71,-41.739 -115.124,-64.518 -184.906,-29.527 -73.272,36.771 -107.096,122.819 -78.478,199.641 28.62,76.824 110.496,119.771 189.966,99.643 C -39.634,135.334 1.468,61.96 0,0"
             style="fill:#2f0340;fill-opacity:1;fill-rule:nonzero;stroke:none"
             id="path56"
             inkscape:connector-curvature="0" /></g><g
           id="g58"
           transform="translate(564.2998,81.3416)"
           style="fill:#2f0340;fill-opacity:1"><path
             d="m 0,0 138.414,239.732 h 45.862 c 0.044,-0.06 0.084,-0.12 0.119,-0.185 0,-0.059 0.057,-0.143 0,-0.193 -0.093,-0.251 -0.203,-0.496 -0.329,-0.73 L -0.588,-81.248 h -39.96 v 320.627 c 0.044,0.071 0.094,0.14 0.15,0.201 0.048,0.044 0.106,0.076 0.168,0.092 0.258,0.07 0.522,0.116 0.79,0.135 h 37.87 c 0.338,-0.031 0.676,-0.084 1.008,-0.159 l 0,-239.547 z"
             style="fill:#2f0340;fill-opacity:1;fill-rule:nonzero;stroke:none"
             id="path60"
             inkscape:connector-curvature="0" /></g><g
           id="g62"
           transform="translate(1125.4463,0.1101)"
           style="fill:#2f0340;fill-opacity:1"><path
             d="m 0,0 h -40.179 v 281.892 c -2.735,0.152 -5.33,0.05 -7.916,0.068 -2.584,0.016 -5.369,0 -8.055,0 h -31.619 l -22.755,39.004 H 160.952 V 281.983 H 0 Z"
             style="fill:#2f0340;fill-opacity:1;fill-rule:nonzero;stroke:none"
             id="path64"
             inkscape:connector-curvature="0" /></g><g
           id="g66"
           transform="translate(483.0937,0.1101)"
           style="fill:#2f0340;fill-opacity:1"><path
             d="m 0,0 h -39.92 v 240.656 h 39.726 l 0.102,-0.102 c 0.042,-0.05 0.116,-0.1 0.116,-0.151 C 0.059,160.639 0.087,80.876 0.108,1.116 0.1,0.79 0.042,0.462 0,0"
             style="fill:#2f0340;fill-opacity:1;fill-rule:nonzero;stroke:none"
             id="path68"
             inkscape:connector-curvature="0" /></g><g
           id="g70"
           transform="translate(463.1602,321.1902)"
           style="fill:#2f0340;fill-opacity:1"><path
             d="m 0,0 c 11.042,-0.042 19.968,-9.015 19.95,-20.057 -0.016,-11.044 -8.97,-19.987 -20.012,-19.995 -11.044,-0.009 -20.008,8.924 -20.04,19.968 -0.04,5.34 2.066,10.474 5.846,14.25 C -10.478,-2.059 -5.342,0.044 0,0"
             style="fill:#2f0340;fill-opacity:1;fill-rule:nonzero;stroke:none"
             id="path72"
             inkscape:connector-curvature="0" /></g></g></g></g></svg>