<?xml version="1.0" encoding="UTF-8"?>
<!DOCTYPE svg PUBLIC "-//W3C//DTD SVG 1.1//EN" "http://www.w3.org/Graphics/SVG/1.1/DTD/svg11.dtd">
<svg version="1.1" xmlns="http://www.w3.org/2000/svg" xmlns:xlink="http://www.w3.org/1999/xlink" x="0" y="0" width="7521" height="4320" viewBox="0, 0, 3760.5, 2160">
  <g id="Background">
    <rect x="0" y="0" width="3760.5" height="2160" fill="#000000" fill-opacity="0"/>
  </g>
  <g id="Layer_1">
    <path d="M-4,0 L3760.488,0 L3760.488,2160 L-4,2160 L-4,0 z" fill="#2F0340"/>
    <g>
      <g>
        <path d="M-1064.557,2914.302 L-1382.671,2596.188 L1661.561,-448.044 L1979.675,-129.929 L-1064.557,2914.302 z" fill="#0D4168"/>
        <path d="M-1381.638,2597.221 L-1699.753,2279.106 L1344.479,-765.125 L1662.593,-447.011 L-1381.638,2597.221 z" fill="#165F91"/>
        <path d="M-1697.687,2281.172 L-2479.802,1499.057 L564.43,-1545.174 L1346.544,-763.06 L-1697.687,2281.172 z" fill="#2BAEFF"/>
      </g>
      <g opacity="0.701">
        <path d="M-2399.928,740.689 L-1606.541,-52.698 L1335.691,2889.534 L542.304,3682.921 L-2399.928,740.689 z" fill="#2A9627"/>
        <path d="M-1607.513,-51.726 L-1308.126,-351.113 L1634.106,2591.119 L1334.719,2890.506 L-1607.513,-51.726 z" fill="#1A6328"/>
        <path d="M-1310.07,-349.169 L-1010.683,-648.556 L1931.549,2293.676 L1632.162,2593.063 L-1310.07,-349.169 z" fill="#0E4327"/>
      </g>
    </g>
    <g id="Layer_4_Image">
      <path d="M3067.412,837.841 C3066.251,854.461 3065.843,871.18 3063.805,887.701 C3042.242,1062.844 2960.548,1203.189 2817.153,1305.985 C2710.029,1382.776 2589.123,1418.61 2457.436,1414.054 C2305.161,1408.769 2173.869,1352.055 2063.782,1246.703 C2062.769,1245.728 2062.794,1241.85 2063.782,1240.813 Q2269.742,1034.53 2476.084,828.666 C2479.327,825.696 2483.521,823.976 2487.916,823.814 Q2777.67,823.456 3067.412,823.604 z" fill="#FFFFFF"/>
      <path d="M2490.62,232.104 C2506.86,233.339 2523.138,234.055 2539.316,235.809 Q2681.476,251.206 2801.135,329.652 C2801.677,330.06 2802.196,330.497 2802.691,330.961 L2752.254,381.291 C2741.274,392.244 2730.37,403.27 2719.255,414.087 C2717.829,415.008 2716.04,415.165 2714.475,414.507 Q2593.989,345.186 2455.09,350.743 C2247.919,359.09 2067.302,505.819 2017.63,707.015 C1986.879,831.679 2003.984,950.108 2067.302,1061.88 C2067.907,1062.942 2067.944,1065.288 2067.215,1066.005 Q2025.979,1107.543 1984.471,1148.859 C1984.199,1149.13 1983.865,1149.353 1983.236,1149.859 C1980.63,1145.821 1978.012,1141.919 1975.542,1137.931 C1907.259,1027.504 1877.113,907.532 1886.869,778.04 C1907.197,508.845 2107.575,288.299 2374.198,241.464 C2401.145,236.735 2428.722,235.537 2456.003,232.697 L2461.573,232.104 z" fill="#FFFFFF"/>
      <path d="M2790.309,588.949 C2790.296,530.13 2837.959,482.428 2896.789,482.383 C2955.618,482.338 3003.354,529.967 3003.431,588.786 C3003.509,647.605 2955.899,695.36 2897.07,695.47 C2868.758,695.589 2841.567,684.411 2821.526,664.415 C2801.485,644.419 2790.249,617.257 2790.309,588.949 z" fill="#FFFFFF"/>
    </g>
    <g id="Layer_2_copy_Image">
      <path d="M2054.867,1578.457 C2055.506,1578.592 2056.151,1578.693 2056.801,1578.759 C2097.941,1580.816 2133.417,1596.25 2163.387,1624.451 C2164.073,1625.137 2164.813,1625.823 2165.369,1626.337 L2142.29,1649.417 C2141.336,1648.532 2140.136,1647.442 2138.95,1646.331 C2125.006,1633.407 2108.435,1623.647 2090.371,1617.718 C2082.553,1615.18 2074.521,1613.36 2066.373,1612.281 C2057.834,1611.215 2049.214,1610.951 2040.626,1611.492 C2031.333,1612.03 2022.132,1613.621 2013.199,1616.237 C2005.564,1618.406 1998.142,1621.266 1991.025,1624.781 C1981.26,1629.526 1972.159,1635.531 1963.955,1642.642 C1960.787,1645.419 1957.661,1648.265 1954.698,1651.261 C1948.794,1657.286 1943.51,1663.89 1938.928,1670.974 C1934.528,1677.718 1930.755,1684.852 1927.656,1692.284 C1923.7,1701.667 1920.891,1711.493 1919.291,1721.548 C1918.605,1725.812 1918.134,1730.108 1917.878,1734.418 C1917.545,1739.558 1917.476,1744.712 1917.672,1749.859 C1918.105,1758.766 1919.473,1767.603 1921.752,1776.223 C1923.945,1784.589 1926.944,1792.723 1930.707,1800.51 C1935.781,1810.966 1942.213,1820.707 1949.837,1829.479 C1972.464,1855.569 2004.448,1871.707 2038.877,1874.404 C2045.219,1874.862 2051.584,1874.908 2057.932,1874.541 C2068.213,1873.936 2078.382,1872.075 2088.211,1869.001 C2094.964,1866.933 2101.534,1864.312 2107.855,1861.164 C2128.718,1850.803 2146.476,1835.119 2159.335,1815.697 C2166.56,1804.828 2172.107,1792.933 2175.791,1780.413 C2176.127,1779.275 2176.477,1778.13 2176.854,1776.697 C2172.493,1776.648 2168.406,1776.697 2164.32,1776.697 L2016.347,1776.697 L2049.875,1743.126 L2213.818,1743.126 C2213.818,1743.942 2213.818,1744.69 2213.818,1745.437 C2212.913,1785.514 2199.522,1820.86 2173.24,1851.146 C2149.784,1878.147 2120.321,1895.426 2085.475,1903.503 C2076.328,1905.551 2067.025,1906.827 2057.665,1907.316 C2049.831,1907.772 2041.974,1907.605 2034.167,1906.815 C1998.238,1903.256 1966.602,1889.673 1939.676,1865.566 C1913.497,1842.15 1896.664,1813.112 1888.813,1778.891 C1886.57,1769.16 1885.293,1759.231 1885.001,1749.249 C1883.753,1705.648 1897.274,1667.196 1925.942,1634.359 C1949.11,1607.824 1978.176,1590.792 2012.459,1582.681 C2020.845,1580.75 2029.368,1579.471 2037.952,1578.855 C2039.207,1578.759 2040.475,1578.8 2041.737,1578.724 C2042.384,1578.656 2043.027,1578.556 2043.663,1578.423 z" fill="#FFFFFF"/>
      <path d="M3067.567,1907.576 L3034.785,1907.576 L3034.785,1776.786 L2935.967,1776.786 L2935.967,1907.274 C2934.671,1907.652 2905.476,1907.761 2903.233,1907.425 L2903.233,1710.9 L2935.885,1710.9 L2935.885,1742.729 C2937.256,1743.099 3031.569,1743.236 3034.758,1742.886 C3034.758,1732.08 3034.758,1721.247 3034.758,1710.413 C3034.758,1699.58 3034.758,1688.801 3034.758,1677.995 L3034.758,1645.344 C3035.211,1645.257 3035.669,1645.197 3036.129,1645.165 Q3051.433,1645.165 3066.737,1645.165 C3067.011,1645.165 3067.279,1645.213 3067.553,1645.241 z" fill="#FFFFFF"/>
      <path d="M2738.29,1776.6 L2607.376,1776.6 L2573.902,1743.126 L2700.51,1743.126 C2695.952,1730.125 2688.694,1718.236 2679.213,1708.24 C2664.032,1692.257 2645.54,1682.253 2623.818,1678.571 C2579.594,1671.027 2535.831,1694.189 2517.198,1734.999 C2498.566,1775.809 2509.73,1824.049 2544.398,1852.524 C2563.973,1868.528 2586.573,1876.063 2611.805,1874.911 C2637.038,1873.759 2658.595,1864.002 2676.656,1846.682 L2699.385,1869.419 C2666.947,1903.517 2605.339,1922.126 2548.333,1893.541 C2488.478,1863.501 2460.847,1793.208 2484.225,1730.451 C2507.604,1667.694 2574.49,1632.611 2639.41,1649.053 C2705.913,1666.044 2739.49,1725.985 2738.29,1776.6 z" fill="#FFFFFF"/>
      <path d="M2345.905,1841.135 L2458.978,1645.296 L2496.442,1645.296 C2496.479,1645.343 2496.51,1645.394 2496.538,1645.446 C2496.538,1645.495 2496.586,1645.563 2496.538,1645.604 C2496.463,1645.809 2496.374,1646.009 2496.271,1646.201 L2345.425,1907.508 L2312.78,1907.508 L2312.78,1645.584 C2312.816,1645.525 2312.857,1645.47 2312.904,1645.419 C2312.942,1645.383 2312.989,1645.357 2313.041,1645.344 C2313.251,1645.287 2313.467,1645.25 2313.685,1645.234 L2344.622,1645.234 C2344.899,1645.259 2345.174,1645.303 2345.445,1645.364 L2345.445,1841.053 z" fill="#FFFFFF"/>
      <path d="M2804.312,1907.494 L2771.49,1907.494 L2771.49,1677.213 C2769.254,1677.09 2767.136,1677.172 2765.024,1677.158 C2762.912,1677.145 2760.636,1677.158 2758.441,1677.158 L2732.613,1677.158 L2714.024,1645.296 L2935.796,1645.296 L2935.796,1677.138 L2804.312,1677.138 z" fill="#FFFFFF"/>
      <path d="M2279.566,1907.494 L2246.956,1907.494 L2246.956,1710.9 L2279.409,1710.9 L2279.491,1710.982 C2279.525,1711.023 2279.587,1711.065 2279.587,1711.106 Q2279.628,1808.847 2279.656,1906.582 C2279.649,1906.849 2279.601,1907.117 2279.566,1907.494 z" fill="#FFFFFF"/>
      <path d="M2263.282,1645.2 C2272.303,1645.234 2279.594,1652.564 2279.58,1661.585 C2279.566,1670.606 2272.253,1677.913 2263.231,1677.919 C2254.21,1677.926 2246.887,1670.629 2246.86,1661.608 C2246.829,1657.244 2248.549,1653.05 2251.636,1649.966 C2254.723,1646.882 2258.918,1645.165 2263.282,1645.2 z" fill="#FFFFFF"/>
    </g>
  </g>
</svg>
