<svg id="Capa_1" data-name="Capa 1" xmlns="http://www.w3.org/2000/svg" viewBox="0 0 3023 1080">
  <g>
    <path d="M396.4,422.7l3.4.5c72.7,3.6,135.3,30.9,188.2,80.7l3.5,3.3L550.7,548c-1.6-1.6-3.8-3.5-5.9-5.5A233.3,233.3,0,0,0,459.1,492a236.6,236.6,0,0,0-42.4-9.6,245.7,245.7,0,0,0-45.4-1.4,215.3,215.3,0,0,0-48.4,8.4,225.8,225.8,0,0,0-39.1,15.1A221,221,0,0,0,236,536c-5.6,4.9-11.1,10-16.4,15.2a227.8,227.8,0,0,0-27.8,34.9,233,233,0,0,0-19.9,37.6,221.3,221.3,0,0,0-14.7,51.7,192.2,192.2,0,0,0-2.5,22.7c-.6,9.1-.7,18.2-.4,27.3a230.5,230.5,0,0,0,7.2,46.6A232.9,232.9,0,0,0,368.2,945.4a252.7,252.7,0,0,0,33.7.2,220.4,220.4,0,0,0,53.4-9.7A230.5,230.5,0,0,0,490,922a233.6,233.6,0,0,0,90.8-80.3,228.5,228.5,0,0,0,29.1-62.3l1.9-6.6H328.4l59.2-59.2H677v4.1c-1.6,70.8-25.2,133.2-71.6,186.7C564,952.1,512,982.6,450.5,996.9a301.9,301.9,0,0,1-49.1,6.7,261.5,261.5,0,0,1-41.5-.9c-63.4-6.3-119.2-30.3-166.8-72.9s-75.9-92.6-89.7-153a265.9,265.9,0,0,1-6.8-52.5c-2.2-77,21.7-144.9,72.3-202.9,40.9-46.9,92.2-76.9,152.7-91.2a298.2,298.2,0,0,1,45-6.8c2.2-.2,4.5-.1,6.7-.2l3.4-.5Z" fill="#211985"/>
    <path d="M2183.8,1004H2126V773H1951.5v230.5c-2.2.6-53.8.8-57.7.2V656.6h57.6v56.3c2.4.6,168.9.9,174.5.3V540.9l2.4-.4h54l1.5.2Z" fill="#211985"/>
    <path d="M1602.7,772.7H1371.6l-59.1-59.2H1536a174.6,174.6,0,0,0-37.6-61.6c-26.8-28.2-59.4-45.9-97.8-52.4a174.8,174.8,0,0,0-140.2,307.3c34.6,28.2,74.5,41.5,119,39.5s82.6-19.3,114.5-49.9l40.1,40.2c-57.3,60.2-166,93.1-266.6,42.6-114.3-57.5-160.3-196.9-102.9-311.3a231.7,231.7,0,0,1,263.6-120.5C1545.5,577.4,1604.8,683.2,1602.7,772.7Z" fill="#211985"/>
    <path d="M910.1,886.6l199.6-345.9h66.1c0,.1.1.2.1.3s.1.2,0,.2a3.6,3.6,0,0,1-.4,1.1L909.2,1003.9H851.6V541.2c.1-.1.2-.2.2-.3h.3l1.1-.2h54.6l1.5.2V886.5Z" fill="#211985"/>
    <path d="M1719.2,1003.9h-57.9V597.1c-4-.3-7.7-.1-11.5-.1s-7.7,0-11.6,0h-45.6l-32.8-56.3h391.5v56.2H1719.2Z" fill="#211985"/>
    <path d="M793,1003.9H735.5V656.6h57.2l.2.2s.2.1.2.2q0,172.7.1,345.3A13.7,13.7,0,0,1,793,1003.9Z" fill="#211985"/>
    <path d="M764.3,540.5a28.9,28.9,0,0,1,20.2,8.6,28.9,28.9,0,0,1-.1,40.6,28.8,28.8,0,0,1-49.1-20.3,28.9,28.9,0,0,1,28.6-28.9Z" fill="#211985"/>
    <path d="M2402.8,1003.8h-57.6V656.6h57.4l.2.2q0,172.6.1,345.3C2402.9,1002.7,2402.8,1003.2,2402.8,1003.8Z" fill="#211985"/>
    <path d="M2374,540.5a28.7,28.7,0,0,1,20.3,8.6,28.7,28.7,0,0,1-.2,40.6,28.7,28.7,0,0,1-40.6,0,29.2,29.2,0,0,1-8.5-20.3,29,29,0,0,1,28.6-28.9Z" fill="#211985"/>
    <path d="M2262.5,946a28.9,28.9,0,0,1,20.2,8.6,28.2,28.2,0,0,1,8.3,20.3,28.8,28.8,0,0,1-57.5,0A28.9,28.9,0,0,1,2262,946Z" fill="#211985"/>
    <path d="M2695.1,540.3c-127.9,0-231.5,103.7-231.5,231.7s103.6,231.6,231.5,231.6S2926.5,899.9,2926.5,772,2822.9,540.3,2695.1,540.3Zm0,405.8a174,174,0,1,1,173.6-173.9,170.8,170.8,0,0,1-13.2,66.5,173.9,173.9,0,0,1-160.4,107.4Z" fill="#211985"/>
    <path d="M111.7,204.6V77.9h56.6c12.8,0,23.1,3.7,30.8,11s11.6,16.9,11.6,28.4-3.9,20.6-11.6,27.9-18,11.1-30.8,11.1H133.4v48.3ZM165.1,96.2H133.4v42.3h31.5c7.6,0,13.5-1.9,17.6-5.8s6.3-9.1,6.3-15.5a19.9,19.9,0,0,0-6.2-15.1C178.5,98.2,172.7,96.2,165.1,96.2Zm191.7,45a67.2,67.2,0,0,1-5,25.7,64.1,64.1,0,0,1-13.6,20.8,62.9,62.9,0,0,1-20.3,13.8,62.2,62.2,0,0,1-25.1,5.1,63.1,63.1,0,0,1-25.2-5.1,65.6,65.6,0,0,1-20.4-13.8,67.5,67.5,0,0,1-13.6-20.8,69.1,69.1,0,0,1-4.9-25.7,68.1,68.1,0,0,1,4.9-25.5,65.2,65.2,0,0,1,13.6-20.8A64.2,64.2,0,0,1,267.6,81a63.1,63.1,0,0,1,25.2-5.1,63.5,63.5,0,0,1,59,39.8A66.2,66.2,0,0,1,356.8,141.2Zm-22.2,0a48.9,48.9,0,0,0-3.3-18.1,42,42,0,0,0-8.7-14.6,39.4,39.4,0,0,0-13.2-9.6A37.5,37.5,0,0,0,293,95.3a40.4,40.4,0,0,0-29.9,13.2,47.6,47.6,0,0,0-8.9,14.6,51,51,0,0,0-3.2,18.1,52.5,52.5,0,0,0,3.2,18.3,47.1,47.1,0,0,0,8.9,14.5,42.3,42.3,0,0,0,13.2,9.6A40.6,40.6,0,0,0,293,187a38.8,38.8,0,0,0,16.4-3.4,42.3,42.3,0,0,0,13.2-9.6,41.6,41.6,0,0,0,8.7-14.5A50.4,50.4,0,0,0,334.6,141.2Zm85.7,63.4H397.7L370,77.9h22.1l18.8,92.8,27.2-92.8h20.6l27.1,92.8,18.9-92.8H526L498.3,204.6H475.7L448,108.5Zm127.5,0V77.9h90.7V96.4h-69v35.2h48.2v18.1H569.5v36.4h69.7v18.5Zm115.9,0V77.9H720c12.4,0,22.6,3.6,30.4,10.7s12,16.3,12,27.7a35,35,0,0,1-6.9,21.5A36.8,36.8,0,0,1,737.4,151L764,204.6H739.9l-24.4-50.7h-30v50.7ZM718.2,96.2H685.5v40.3h32.7c6.6,0,12-1.8,16.1-5.4s6.2-8.6,6.2-14.7a18.8,18.8,0,0,0-6.2-14.6C730.2,98,724.8,96.2,718.2,96.2Zm67.1,108.4V77.9H876V96.4H807v35.2h48.2v18.1H807v36.4h69.7v18.5Zm115.9,0V77.9h46.4a64.5,64.5,0,0,1,25.3,4.9A59.5,59.5,0,0,1,993,96.2a58,58,0,0,1,13.2,20.2,66.2,66.2,0,0,1,0,50A59.5,59.5,0,0,1,993,186.5a63.8,63.8,0,0,1-20.1,13.2,66.3,66.3,0,0,1-25.3,4.9ZM948.1,96.7H923v89h25.1a36.9,36.9,0,0,0,15.9-3.4,41.5,41.5,0,0,0,12.9-9.2,45.4,45.4,0,0,0,8.5-14.1,46.6,46.6,0,0,0,3.2-17.6,45.8,45.8,0,0,0-3.2-17.5,43.1,43.1,0,0,0-8.5-14.3,37.7,37.7,0,0,0-12.9-9.4A37,37,0,0,0,948.1,96.7Zm128.1-18.8h56.3c11.9,0,21.6,3.1,28.9,9.2s11,14.2,11,24.1a26.6,26.6,0,0,1-5.6,16.8,32.8,32.8,0,0,1-14.6,11.2,37,37,0,0,1,17.9,11.4,28.2,28.2,0,0,1,6.7,18.7c0,10.5-3.9,19-11.6,25.5s-17.8,9.8-30.2,9.8h-58.8Zm54.1,17.7h-32.4v35.5h32.4c6.1,0,11.1-1.6,14.8-4.7s5.6-7.6,5.6-13-1.8-9.7-5.6-12.9S1136.4,95.6,1130.3,95.6Zm2.2,91.2c6.7,0,12.1-1.7,16.2-5.2a18.2,18.2,0,0,0,6.2-14.3c0-5.9-2.1-10.6-6.2-14.1s-9.5-5.3-16.2-5.3h-34.6v38.9Zm98.4,17.8V154.4l-50.1-76.5H1206l36.5,57.9,36.9-57.9h23.7L1252.7,155v49.6Z" fill="#211985"/>
  </g>
</svg>
