<svg id="Capa_1" data-name="Capa 1" xmlns="http://www.w3.org/2000/svg" viewBox="0 0 3023 1080">
  <g>
    <path d="M348,236.6a21.4,21.4,0,0,0,3.5.6c75.8,3.8,141.1,32.2,196.3,84.2l3.7,3.5L509,367.4l-6.2-5.7A243.4,243.4,0,0,0,413.4,309a248,248,0,0,0-44.2-10,251.4,251.4,0,0,0-47.5-1.5,228.4,228.4,0,0,0-50.5,8.8A240.3,240.3,0,0,0,230.4,322a230.6,230.6,0,0,0-49.9,32.9c-5.8,5.1-11.5,10.4-17,15.9a232.4,232.4,0,0,0-29.1,36.4,240.5,240.5,0,0,0-20.7,39.2,237.7,237.7,0,0,0-18,77.7c-.6,9.5-.7,19-.4,28.5a233.2,233.2,0,0,0,7.5,48.5,242.9,242.9,0,0,0,215.7,181,274.1,274.1,0,0,0,35.1.3,234.8,234.8,0,0,0,55.8-10.3,239.4,239.4,0,0,0,36.2-14.4,244,244,0,0,0,94.8-83.8,239.4,239.4,0,0,0,30.3-65c.6-2.1,1.3-4.2,2-6.9-8.1-.1-15.6,0-23.1,0H277l61.8-61.8H640.7v4.3c-1.6,73.9-26.3,139-74.7,194.8-43.2,49.8-97.5,81.6-161.6,96.5a295.8,295.8,0,0,1-51.3,7,259.6,259.6,0,0,1-43.2-.9c-66.2-6.5-124.5-31.6-174.1-76S56.6,669.2,42.2,606.1a278.7,278.7,0,0,1-7.1-54.7c-2.3-80.3,22.6-151.2,75.4-211.7,42.7-48.9,96.2-80.3,159.4-95.2a308.1,308.1,0,0,1,47-7.1l6.9-.2a22.5,22.5,0,0,0,3.6-.6Z" fill="#211985"/>
    <path d="M2213.1,843.3h-60.4V602.2h-182V842.7c-2.4.7-56.2.9-60.3.3V480.8h60.1v58.7c2.6.7,176.3.9,182.1.3V360a11.5,11.5,0,0,1,2.6-.3H2213Z" fill="#211985"/>
    <path d="M1606.6,601.9H1365.5l-61.6-61.7H1537a178.9,178.9,0,0,0-39.2-64.3c-27.9-29.5-62-47.9-102-54.7a182.4,182.4,0,0,0-146.3,320.6c36.1,29.5,77.7,43.4,124.2,41.3s86.2-20.1,119.4-52.1l41.9,41.9c-59.8,62.9-173.2,97.2-278.2,44.5-119.3-60-167.3-205.4-107.4-324.8a241.7,241.7,0,0,1,275.1-125.8C1547,398.1,1608.8,508.5,1606.6,601.9Z" fill="#211985"/>
    <path d="M884,720.8l208.2-361h69c.1.1.2.2.2.3s.1.2,0,.3a5.4,5.4,0,0,1-.5,1.1L883.1,843.1H823V360.4c0-.2.1-.3.2-.3l.3-.2,1.1-.2h57l1.5.3V720.7Z" fill="#211985"/>
    <path d="M1728.2,843.1h-60.4V418.6c-4.1-.2-8,0-11.9-.1h-59.7l-34.3-58.7h408.5v58.7H1728.2Z" fill="#211985"/>
    <path d="M761.8,843.1h-60V480.8h59.9c0,.1.2.2.2.3q0,180.1.1,360.3A13.7,13.7,0,0,1,761.8,843.1Z" fill="#211985"/>
    <path d="M731.8,359.7a29.6,29.6,0,0,1,21.1,8.9,30,30,0,1,1-42.7,0,29.7,29.7,0,0,1,21.2-8.9Z" fill="#211985"/>
    <path d="M2441.5,843.1h-60.1V480.7h59.8l.2.2c0,.1.1.1.1.2q.1,180.1.2,360.3C2441.6,841.9,2441.6,842.4,2441.5,843.1Z" fill="#211985"/>
    <path d="M2411.5,359.6a30.2,30.2,0,0,1,21.2,9,30,30,0,1,1-42.8,0,30.2,30.2,0,0,1,21.2-9Z" fill="#211985"/>
    <path d="M2295.1,782.8a29.3,29.3,0,0,1,21.1,8.9,30,30,0,1,1-42.6,0,29.3,29.3,0,0,1,21.1-8.9Z" fill="#211985"/>
    <path d="M2746.5,359.4c-133.4,0-241.5,108.3-241.5,241.8s108.1,241.7,241.5,241.7S2988,734.7,2988,601.2,2879.9,359.4,2746.5,359.4Zm0,423.4a181.2,181.2,0,1,1,69.4-13.8A181.4,181.4,0,0,1,2746.5,782.8Z" fill="#211985"/>
  </g>
</svg>
