<svg id="Capa_1" data-name="Capa 1" xmlns="http://www.w3.org/2000/svg" viewBox="0 0 3023 1080">
  <g>
    <path d="M1180.6,343.1l2.5.4c51.8,2.6,96.6,22.1,134.4,57.7l2.4,2.3-29,29.2-4.3-3.9a164.4,164.4,0,0,0-61.2-36.1,164.7,164.7,0,0,0-62.7-7.9,156.8,156.8,0,0,0-34.6,6,158.8,158.8,0,0,0-28,10.8,155,155,0,0,0-34.1,22.5c-4,3.5-7.9,7.1-11.7,10.9a159.9,159.9,0,0,0-19.9,24.9,171.8,171.8,0,0,0-14.2,26.8,159.4,159.4,0,0,0-10.5,37,145.9,145.9,0,0,0-1.8,16.2,181.2,181.2,0,0,0-.2,19.5,156.9,156.9,0,0,0,5.1,33.3,166.3,166.3,0,0,0,147.7,123.8,174.8,174.8,0,0,0,24,.2,163.9,163.9,0,0,0,62.9-16.9,167.1,167.1,0,0,0,65-57.3,163.2,163.2,0,0,0,20.7-44.6c.4-1.4.9-2.8,1.3-4.6H1132.1l42.2-42.4H1381v3c-1.1,50.5-18,95.1-51.1,133.3-29.6,34.1-66.7,55.9-110.7,66.1a206.1,206.1,0,0,1-35,4.8,184.2,184.2,0,0,1-29.7-.6c-45.3-4.5-85.2-21.6-119.1-52.1s-54.2-66.1-64.1-109.3a182.5,182.5,0,0,1-4.8-37.5c-1.6-55,15.4-103.5,51.6-144.9,29.2-33.5,65.8-55,109.1-65.2a192.8,192.8,0,0,1,32.1-4.8c1.6-.2,3.2-.1,4.8-.2l2.4-.4Z" fill="#211985"/>
    <path d="M2457.4,758.4h-41.3v-165H2291.5V758c-1.6.5-38.4.6-41.2.2V510.3h41.1v40.1c1.7.5,120.7.7,124.7.2v-123l1.7-.3h39.6Z" fill="#211985"/>
    <path d="M2042.3,593.2H1877.2L1835,550.9h159.7a124.7,124.7,0,0,0-26.9-44,122.6,122.6,0,0,0-69.8-37.5,124.9,124.9,0,0,0-100.2,219.5c24.7,20.2,53.2,29.7,85,28.3s59-13.8,81.8-35.6l28.6,28.7c-40.9,43-118.5,66.5-190.4,30.4-81.7-41.1-114.5-140.6-73.5-222.4a165.6,165.6,0,0,1,188.3-86.1C2001.5,453.6,2043.8,529.2,2042.3,593.2Z" fill="#211985"/>
    <path d="M1547.6,674.6l142.5-247.2h47.2l.2.2v.2a3,3,0,0,1-.4.8L1546.9,758.3h-41.1V427.8c0-.1.1-.1.1-.2H1547v247Z" fill="#211985"/>
    <path d="M2125.5,758.3h-41.3V467.7c-2.9-.2-5.5-.1-8.2-.1h-40.9l-23.4-40.2h279.6v40.2H2125.5Z" fill="#211985"/>
    <path d="M1463.9,758.3h-41.1V510.2h41c0,.1.1.1.1.2q.1,123.3.1,246.7A4.9,4.9,0,0,1,1463.9,758.3Z" fill="#211985"/>
    <path d="M1443.4,427.3a21.4,21.4,0,0,1,14.5,6.1,20.8,20.8,0,0,1,5.9,14.6,20.7,20.7,0,0,1-20.6,20.5,20.6,20.6,0,0,1-14.6-35.1,21.4,21.4,0,0,1,14.5-6.1Z" fill="#211985"/>
    <path d="M2613.9,758.3h-41.2V510.2h41.1c0,.1.1.1.1.2q0,123.3.1,246.6C2614,757.5,2613.9,757.8,2613.9,758.3Z" fill="#211985"/>
    <path d="M2593.3,427.3a20.2,20.2,0,0,1,14.5,6.1,20.8,20.8,0,0,1-.1,29.1,20.9,20.9,0,0,1-14.5,6,20.5,20.5,0,0,1-14.5-6,21,21,0,0,1-6.1-14.5,20.5,20.5,0,0,1,6-14.6,20.1,20.1,0,0,1,14.4-6.1Z" fill="#211985"/>
    <path d="M2513.6,717a20.5,20.5,0,0,1,20.4,20.6,20.5,20.5,0,0,1-20.5,20.5,20.1,20.1,0,0,1-14.5-6,20.4,20.4,0,0,1-.1-29,20.1,20.1,0,0,1,14.4-6.1Z" fill="#211985"/>
    <path d="M2822.7,427.2c-91.4,0-165.4,74.1-165.4,165.5a165.4,165.4,0,0,0,165.4,165.4c91.3,0,165.3-74.1,165.3-165.4S2914,427.2,2822.7,427.2Zm0,289.8a123.1,123.1,0,1,1,47.5-9.4A124.4,124.4,0,0,1,2822.7,717Z" fill="#211985"/>
    <path d="M783.6,549.2c-.8,10.6-1,21.1-2.3,31.6-13.7,110.9-65.4,199.8-156.2,264.8-67.8,48.7-144.3,71.3-227.7,68.5-96.4-3.4-179.6-39.2-249.3-106-.6-.6-.6-3,0-3.7q130.5-130.6,261.1-261a11.4,11.4,0,0,1,7.5-3q183.5-.3,366.9-.2Z" fill="#211985"/>
    <path d="M418.4,165.7c10.3.8,20.6,1.2,30.8,2.3A371.5,371.5,0,0,1,615,227.5l1,.8-32,31.9c-6.9,6.9-13.8,13.9-20.8,20.7a3,3,0,0,1-1.5.5,2.9,2.9,0,0,1-1.6-.2q-76.2-43.9-164.2-40.4c-131.2,5.3-245.5,98.2-277,225.6-19.4,78.9-8.6,153.9,31.5,224.7.4.7.4,2.2-.1,2.6-17.4,17.5-34.8,35-52.4,52.4l-.7.7c-1.7-2.6-3.4-5-4.9-7.6C49,669.3,30,593.4,36.1,511.4,49,340.9,175.9,201.3,344.7,171.6c17-3,34.5-3.7,51.8-5.5l3.5-.4Z" fill="#211985"/>
    <path d="M608.1,391.7a67.5,67.5,0,1,1,19.8,47.7,66.5,66.5,0,0,1-14.7-21.9A67.4,67.4,0,0,1,608.1,391.7Z" fill="#211985"/>
  </g>
</svg>
