<svg id="Capa_1" data-name="Capa 1" xmlns="http://www.w3.org/2000/svg" viewBox="0 0 3023 1080">
  <g>
    <path d="M525.6,154.6a35,35,0,0,0,4.5.7c96.3,4.8,179.3,41,249.4,107l4.6,4.4-54,54.1-7.8-7.3a310,310,0,0,0-113.6-67A306.8,306.8,0,0,0,492.3,232a279.5,279.5,0,0,0-64.2,11.1,302.4,302.4,0,0,0-51.9,20,293,293,0,0,0-63.3,41.8c-7.4,6.4-14.7,13.2-21.7,20.2a304.4,304.4,0,0,0-63.2,96,292.4,292.4,0,0,0-19.6,68.6,301.1,301.1,0,0,0-3.3,30.1c-.8,12-.9,24.1-.5,36.1a293.5,293.5,0,0,0,9.6,61.8,308.6,308.6,0,0,0,274,229.9,331.8,331.8,0,0,0,44.6.3,294.6,294.6,0,0,0,70.8-13,303.9,303.9,0,0,0,46-18.3,309.3,309.3,0,0,0,159-189.1c.7-2.7,1.6-5.3,2.4-8.7H435.5l78.4-78.5H897.5v5.4c-2.1,93.8-33.4,176.6-94.9,247.5-54.9,63.2-123.8,103.7-205.4,122.6a385,385,0,0,1-65,8.9,348.2,348.2,0,0,1-55-1.1c-84.1-8.4-158.1-40.2-221.1-96.6-61.2-54.8-100.6-122.8-119-203a353.6,353.6,0,0,1-8.9-69.5c-3-102.1,28.7-192.1,95.8-269,54.2-62.1,122.2-102,202.4-120.9a400.1,400.1,0,0,1,59.7-9c2.9-.2,5.9-.1,8.8-.3a35,35,0,0,0,4.5-.7Z" fill="#211985"/>
    <path d="M2895,925.3h-76.7V619H2587.1V924.6c-3,.8-71.3,1.1-76.6.3V464.8h76.4v74.5c3.2.9,223.9,1.2,231.3.4V311.3l3.2-.4h71.7l1.9.2Z" fill="#211985"/>
    <path d="M2124.6,618.6H1818.3L1740,540.2h296.2a229.2,229.2,0,0,0-49.8-81.7c-35.5-37.4-78.8-60.8-129.6-69.5A231.7,231.7,0,0,0,1671,796.4c45.8,37.4,98.6,55.1,157.7,52.4s109.4-25.6,151.7-66.1l53.2,53.2c-75.9,79.9-220.1,123.4-353.4,56.5-151.5-76.3-212.6-261-136.4-412.6A306.9,306.9,0,0,1,1893.3,320C2048.8,359.7,2127.4,500,2124.6,618.6Z" fill="#211985"/>
    <path d="M1206.5,769.7l264.6-458.6h87.6l.3.4c0,.1.1.2,0,.3a6.1,6.1,0,0,1-.7,1.4L1205.4,925.1H1129V311.8l.3-.4.3-.2,1.5-.2h72.4a6.9,6.9,0,0,1,2,.3V769.5Z" fill="#211985"/>
    <path d="M2279.1,925.1h-76.8V385.8c-5.3-.3-10.2-.1-15.2-.1h-75.8l-43.5-74.6h518.9v74.5H2279.1Z" fill="#211985"/>
    <path d="M1051.3,925.1H975V464.8h76l.2.2.2.2q0,228.9.1,457.8A20.6,20.6,0,0,1,1051.3,925.1Z" fill="#211985"/>
    <path d="M1013.2,310.9A38.2,38.2,0,1,1,986,376.1a38.3,38.3,0,0,1-.2-53.9,38.6,38.6,0,0,1,26.8-11.3Z" fill="#211985"/>
  </g>
</svg>
