<svg xmlns="http://www.w3.org/2000/svg" viewBox="0 0 2338.51 480.07"><defs><style>.cls-1{fill:#fff;}</style></defs><title>juanAsset 2</title><g id="Layer_2" data-name="Layer 2"><g id="Layer_1-2" data-name="Layer 1"><g id="Layer_2-2" data-name="Layer 2"><g id="Group_1" data-name="Group 1"><g id="Layer_2_copy_Image" data-name="Layer 2 copy Image"><path class="cls-1" d="M247.85,0a26.67,26.67,0,0,0,2.82.44c60,3,111.74,25.51,155.45,66.64,1,1,2.08,2,2.89,2.75l-33.66,33.66c-1.39-1.29-3.14-2.88-4.87-4.5a192.66,192.66,0,0,0-70.85-41.73,197,197,0,0,0-35-7.93,201.42,201.42,0,0,0-37.55-1.15,179.05,179.05,0,0,0-40,6.92,190,190,0,0,0-32.34,12.46,181.11,181.11,0,0,0-39.48,26.05c-4.62,4-9.18,8.2-13.5,12.57a182.89,182.89,0,0,0-23,28.75A191,191,0,0,0,62.33,166a184.16,184.16,0,0,0-12.2,42.68,187.62,187.62,0,0,0-2.06,18.77,216.9,216.9,0,0,0-.3,22.52,185.18,185.18,0,0,0,5.95,38.45,194.47,194.47,0,0,0,13.06,35.42A192.29,192.29,0,0,0,224.54,431.61a213,213,0,0,0,27.79.2,184.33,184.33,0,0,0,44.16-8.08,188.21,188.21,0,0,0,28.65-11.43A193.06,193.06,0,0,0,400.23,346a190.08,190.08,0,0,0,24-51.46c.49-1.66,1-3.33,1.55-5.42-6.36-.07-12.32,0-18.28,0H191.67l48.91-48.91h239.1v3.37c-1.32,58.45-20.85,110-59.18,154.17-34.21,39.38-77.18,64.58-128,76.36a243.23,243.23,0,0,1-40.56,5.56,215.46,215.46,0,0,1-34.27-.73c-52.4-5.19-98.54-25-137.81-60.16-38.18-34.15-62.73-76.5-74.18-126.41A220.72,220.72,0,0,1,.12,249.09C-1.71,185.5,18,129.42,59.83,81.53,93.61,42.83,136,18,186,6.21A243.39,243.39,0,0,1,223.21.63c1.83-.14,3.68-.08,5.52-.19.94-.1,1.87-.25,2.8-.44Z"/><path class="cls-1" d="M1724.81,480H1677V289.25H1532.88V479.56c-1.89.55-44.47.71-47.74.22V193.2h47.62v46.42c2,.54,139.55.74,144.2.23V97.6a16.83,16.83,0,0,1,2-.26h44.64c.4,0,.79.07,1.19.11Z"/><path class="cls-1" d="M1244.58,289H1053.65l-48.82-48.84h184.65a142.55,142.55,0,0,0-31.06-50.88c-22.14-23.31-49.11-37.9-80.79-43.27A144.27,144.27,0,0,0,961.8,399.71c28.55,23.34,61.51,34.33,98.31,32.65s68.24-15.91,94.58-41.17l33.15,33.16c-47.31,49.73-137.16,76.87-220.3,35.18-94.43-47.5-132.47-162.55-85-257A191.39,191.39,0,0,1,1100.37,103C1197.36,127.74,1246.33,215.11,1244.58,289Z"/><path class="cls-1" d="M672.31,383.1,837.22,97.47h54.64a1.64,1.64,0,0,1,.14.22c0,.07.07.17,0,.23a6.79,6.79,0,0,1-.39.87l-220,381.1H624v-382a1.08,1.08,0,0,1,.18-.24.43.43,0,0,1,.2-.11,4.86,4.86,0,0,1,.94-.16h45.12a10,10,0,0,1,1.2.19V383Z"/><path class="cls-1" d="M1340.87,479.88H1293V144c-3.26-.18-6.35-.06-9.43-.08s-6.4,0-9.6,0H1236.3l-27.11-46.47h323.44v46.44H1340.87Z"/><path class="cls-1" d="M575.56,479.88H528V193.17h47.33l.12.12c0,.06.14.12.14.18q.06,142.54.1,285.09C575.68,478.94,575.61,479.33,575.56,479.88Z"/><path class="cls-1" d="M551.81,97.34a23.77,23.77,0,1,1-.36,0Z"/><path class="cls-1" d="M1905.73,479.85h-47.56V193.14h47.33l.12.12c.05.06.14.12.14.18q.06,142.56.1,285.09C1905.85,478.91,1905.78,479.3,1905.73,479.85Z"/><path class="cls-1" d="M1882,97.31a23.77,23.77,0,1,1-.37,0Z"/><path class="cls-1" d="M1789.81,432.13a23.77,23.77,0,1,1-.36,0Z"/><path class="cls-1" d="M2147.26,97.16c-105.63,0-191.26,85.63-191.26,191.26s85.63,191.26,191.26,191.26,191.25-85.63,191.25-191.26S2252.89,97.16,2147.26,97.16Zm0,335A143.54,143.54,0,1,1,2290.79,288.6,143.53,143.53,0,0,1,2147.26,432.13Z"/></g></g></g></g></g></svg>