<svg id="Capa_1" data-name="Capa 1" xmlns="http://www.w3.org/2000/svg" viewBox="0 0 16 16">
  <g>
    <path d="M15.3,8.2v.6A7.3,7.3,0,0,1,12.2,14a6.4,6.4,0,0,1-4.4,1.3,6.8,6.8,0,0,1-4.9-2h0L8,8.1h7.3Z" fill="#211985"/>
    <path d="M8.2.7h.6A6.3,6.3,0,0,1,12,1.9h.1l-.7.6-.4.4h0a6.2,6.2,0,0,0-3.3-.8A6,6,0,0,0,2.3,6.6,5.7,5.7,0,0,0,2.9,11h0l-1,1h0v-.2A7.2,7.2,0,0,1,.7,7.4,7.1,7.1,0,0,1,6.7.8H8.2Z" fill="#211985"/>
    <path d="M11.9,5.1a1.6,1.6,0,0,1,.3-.9l.8-.4a1.4,1.4,0,0,1,.9.1,1.8,1.8,0,0,1,.5.7,1,1,0,0,1,.1.9,1.8,1.8,0,0,1-.5.7,1.5,1.5,0,0,1-.9.2,1.2,1.2,0,0,1-.8-.4L12,5.6A.9.9,0,0,1,11.9,5.1Z" fill="#211985"/>
  </g>
</svg>
