<svg width="678" height="678" viewBox="0 0 678 678" fill="none" xmlns="http://www.w3.org/2000/svg">
<circle cx="339" cy="339" r="300" transform="rotate(-8 339 339)" fill="#5326EC"/>
<path d="M585.152 345.208C584.644 352.058 584.447 358.954 583.578 365.753C574.353 437.955 540.278 495.74 480.699 537.963C436.193 569.512 386.046 584.159 331.498 582.136C268.419 579.811 214.123 556.296 168.69 512.72C168.272 512.318 168.288 510.717 168.699 510.291C225.811 453.729 282.975 397.224 340.192 340.777C341.544 339.553 343.291 338.848 345.117 338.789C425.144 338.901 505.169 339.083 585.193 339.336L585.152 345.208Z" fill="#FCFCFF"/>
<path d="M347.21 94.8137C353.936 95.3401 360.676 95.6543 367.378 96.3928C406.619 100.732 442.724 113.726 475.691 135.378C475.915 135.546 476.129 135.726 476.332 135.918L455.354 156.618C450.787 161.123 446.251 165.659 441.63 170.107C441.339 170.294 441.006 170.407 440.66 170.436C440.315 170.465 439.968 170.409 439.65 170.274C406.449 151.131 370.664 142.273 332.295 143.699C246.451 146.916 171.384 207.225 150.472 290.139C137.527 341.512 144.418 390.367 170.465 436.53C170.714 436.969 170.724 437.936 170.421 438.215C158.988 449.602 147.516 460.961 136.004 472.29C135.892 472.401 135.753 472.491 135.492 472.7C134.419 471.033 133.339 469.42 132.323 467.773C104.216 422.181 91.926 372.675 96.181 319.284C105.05 208.297 188.425 117.57 298.961 98.5476C310.137 96.6264 321.561 96.1612 332.866 95.022L335.175 94.7821L347.21 94.8137Z" fill="#FCFCFF"/>
<path d="M470.668 242.228C470.728 232.091 474.316 222.282 480.82 214.472C487.325 206.663 496.345 201.334 506.344 199.394C516.344 197.454 526.705 199.023 535.664 203.832C544.623 208.642 551.627 216.396 555.483 225.774C559.339 235.152 559.809 245.574 556.814 255.268C553.818 264.961 547.541 273.326 539.052 278.939C530.563 284.552 520.386 287.066 510.253 286.053C500.121 285.04 490.659 280.562 483.478 273.382C479.388 269.286 476.152 264.425 473.954 259.08C471.756 253.734 470.639 248.007 470.668 242.228Z" fill="#FCFCFF"/>
</svg>
