<svg width="860" height="860" viewBox="0 0 860 860" fill="none" xmlns="http://www.w3.org/2000/svg">
<circle cx="430" cy="430" r="380" transform="rotate(-8 430 430)" fill="#5326EC"/>
<path d="M741.793 437.863C741.149 446.54 740.9 455.275 739.798 463.887C728.114 555.343 684.952 628.538 609.485 682.019C553.111 721.982 489.591 740.535 420.497 737.972C340.597 735.027 271.822 705.241 214.273 650.045C213.744 649.536 213.765 647.509 214.286 646.968C286.627 575.323 359.035 503.751 431.509 432.251C433.223 430.7 435.435 429.807 437.748 429.733C539.115 429.874 640.481 430.105 741.844 430.425L741.793 437.863Z" fill="#FCFCFF"/>
<path d="M440.399 120.697C448.919 121.364 457.457 121.762 465.945 122.698C515.651 128.193 561.383 144.653 603.142 172.078C603.425 172.291 603.696 172.52 603.953 172.763L577.381 198.983C571.597 204.69 565.851 210.435 559.998 216.069C559.629 216.306 559.207 216.449 558.77 216.485C558.332 216.522 557.893 216.452 557.489 216.281C515.435 192.033 470.108 180.812 421.507 182.619C312.771 186.694 217.686 263.085 191.197 368.11C174.8 433.182 183.529 495.065 216.522 553.538C216.837 554.094 216.85 555.319 216.467 555.672C201.985 570.096 187.453 584.484 172.872 598.834C172.73 598.974 172.553 599.089 172.222 599.353C170.863 597.241 169.495 595.198 168.209 593.112C132.607 535.362 117.039 472.655 122.429 405.027C133.662 264.443 239.272 149.522 379.283 125.427C393.44 122.993 407.911 122.404 422.23 120.961L425.155 120.657L440.399 120.697Z" fill="#FCFCFF"/>
<path d="M596.779 307.423C596.855 294.581 601.4 282.157 609.639 272.265C617.878 262.373 629.303 255.623 641.969 253.166C654.635 250.709 667.759 252.696 679.107 258.788C690.456 264.88 699.327 274.701 704.212 286.58C709.096 298.459 709.692 311.661 705.897 323.939C702.102 336.218 694.152 346.813 683.399 353.923C672.646 361.033 659.755 364.217 646.921 362.933C634.086 361.65 622.101 355.979 613.005 346.884C607.825 341.695 603.726 335.539 600.941 328.767C598.157 321.996 596.742 314.743 596.779 307.423Z" fill="#FCFCFF"/>
</svg>
