<svg width="760" height="760" viewBox="0 0 760 760" fill="none" xmlns="http://www.w3.org/2000/svg">
<circle cx="380" cy="380" r="380" fill="#5326EC"/>
<path d="M687.664 431.179C685.819 439.683 684.357 448.297 682.067 456.673C657.769 545.612 604.84 612.088 522.665 654.546C461.277 686.274 395.793 695.806 327.728 683.653C249.016 669.616 185.055 630.549 135.748 567.88C135.295 567.302 135.598 565.298 136.189 564.835C217.797 503.955 299.461 443.157 381.181 382.44C383.094 381.142 385.409 380.566 387.71 380.814C488.071 395.061 588.418 409.397 688.75 423.822L687.664 431.179Z" fill="#FCFCFF"/>
<path d="M433.345 75.1548C441.689 77.0007 450.088 78.583 458.364 80.6908C506.821 93.0507 549.817 115.715 587.353 148.685C587.603 148.935 587.84 149.2 588.061 149.476L558.098 171.743C551.576 176.589 545.086 181.479 538.506 186.244C538.108 186.426 537.67 186.509 537.232 186.485C536.794 186.46 536.368 186.329 535.993 186.104C497.722 156.239 454.398 138.819 406.019 133.844C297.774 122.747 192.983 185.161 152.135 285.477C126.841 347.634 126.872 410.13 151.407 472.626C151.641 473.22 151.483 474.434 151.055 474.731C134.706 486.999 118.314 499.224 101.877 511.406C101.717 511.525 101.526 511.614 101.162 511.829C100.11 509.549 99.0396 507.335 98.0561 505.091C70.8373 442.947 64.1488 378.684 78.8979 312.464C109.588 174.812 230.163 75.7076 372.166 71.3326C386.523 70.8931 400.935 72.3235 415.316 72.8874L418.255 72.9936L433.345 75.1548Z" fill="#FCFCFF"/>
<path d="M562.215 281.827C564.078 269.121 570.307 257.45 579.843 248.801C589.379 240.152 601.632 235.058 614.517 234.388C627.401 233.717 640.121 237.511 650.511 245.123C660.901 252.735 668.32 263.696 671.503 276.139C674.687 288.582 673.439 301.738 667.973 313.369C662.506 325 653.159 334.386 641.521 339.93C629.883 345.474 616.675 346.833 604.144 343.776C591.613 340.719 580.533 333.434 572.792 323.163C568.384 317.303 565.181 310.636 563.367 303.543C561.552 296.45 561.16 289.07 562.215 281.827Z" fill="#FCFCFF"/>
</svg>
