<svg width="360" height="360" viewBox="0 0 360 360" fill="none" xmlns="http://www.w3.org/2000/svg">
<circle cx="180" cy="180" r="180" fill="#5326EC"/>
<path d="M325.736 204.243C324.862 208.271 324.169 212.351 323.084 216.319C311.575 258.448 286.503 289.936 247.578 310.048C218.5 325.077 187.481 329.592 155.24 323.835C117.955 317.187 87.6578 298.681 64.3019 268.996C64.0871 268.722 64.2305 267.773 64.5105 267.553C103.167 238.716 141.85 209.916 180.56 181.156C181.466 180.541 182.562 180.268 183.652 180.386C231.192 187.134 278.724 193.925 326.25 200.758L325.736 204.243Z" fill="#FCFCFF"/>
<path d="M205.268 35.5996C209.221 36.474 213.2 37.2235 217.12 38.2219C240.073 44.0767 260.44 54.8126 278.22 70.4297C278.338 70.5484 278.45 70.6735 278.555 70.8045L264.362 81.3517C261.273 83.6474 258.199 85.9636 255.082 88.2207C254.893 88.3072 254.686 88.3464 254.478 88.3348C254.271 88.3232 254.069 88.2612 253.891 88.1543C235.763 74.0078 215.241 65.7563 192.325 63.3999C141.051 58.1432 91.4129 87.708 72.0638 135.226C60.0827 164.669 60.0975 194.272 71.719 223.875C71.8301 224.157 71.7551 224.732 71.5522 224.872C63.8083 230.684 56.0434 236.475 48.2576 242.245C48.1817 242.301 48.0915 242.343 47.9187 242.445C47.4204 241.365 46.9135 240.317 46.4476 239.254C33.5545 209.817 30.3863 179.377 37.3727 148.009C51.9099 82.8058 109.025 35.8615 176.289 33.7891C183.09 33.5809 189.916 34.2585 196.729 34.5256L198.121 34.5759L205.268 35.5996Z" fill="#FCFCFF"/>
<path d="M266.313 133.497C267.195 127.478 270.146 121.95 274.663 117.853C279.18 113.756 284.984 111.343 291.087 111.026C297.19 110.708 303.215 112.505 308.137 116.111C313.059 119.717 316.572 124.908 318.081 130.803C319.589 136.697 318.998 142.929 316.408 148.438C313.819 153.947 309.391 158.393 303.878 161.019C298.366 163.645 292.109 164.289 286.173 162.841C280.238 161.393 274.989 157.943 271.322 153.077C269.235 150.302 267.717 147.143 266.858 143.784C265.998 140.424 265.813 136.928 266.313 133.497Z" fill="#FCFCFF"/>
</svg>
