<svg width="200" height="200" viewBox="0 0 200 200" fill="none" xmlns="http://www.w3.org/2000/svg">
<circle cx="100" cy="100" r="100" fill="#5326EC"/>
<path d="M180.964 113.468C180.479 115.706 180.094 117.973 179.491 120.177C173.097 143.582 159.168 161.076 137.543 172.249C121.389 180.598 104.156 183.107 86.2442 179.909C65.5304 176.215 48.6988 165.934 35.7233 149.442C35.6039 149.29 35.6836 148.763 35.8392 148.641C57.315 132.62 78.8056 116.62 100.311 100.642C100.814 100.301 101.423 100.149 102.029 100.214C128.44 103.964 154.847 107.736 181.25 111.532L180.964 113.468Z" fill="#FCFCFF"/>
<path d="M114.038 19.7776C116.234 20.2633 118.444 20.6797 120.622 21.2344C133.374 24.487 144.689 30.4514 154.566 39.1276C154.632 39.1935 154.695 39.263 154.753 39.3358L146.868 45.1954C145.152 46.4708 143.444 47.7576 141.712 49.0115C141.607 49.0595 141.492 49.0813 141.377 49.0749C141.262 49.0684 141.15 49.034 141.051 48.9746C130.98 41.1154 119.578 36.5313 106.847 35.2222C78.3616 32.3018 50.785 48.7267 40.0354 75.1255C33.3793 91.4827 33.3875 107.929 39.8439 124.375C39.9056 124.532 39.864 124.851 39.7512 124.929C35.449 128.158 31.1352 131.375 26.8098 134.58C26.7676 134.612 26.7175 134.635 26.6215 134.692C26.3447 134.092 26.0631 133.509 25.8042 132.919C18.6414 116.565 16.8813 99.6536 20.7626 82.2275C28.8388 46.0032 60.5692 19.9231 97.9383 18.7717C101.717 18.6561 105.509 19.0325 109.294 19.1809L110.067 19.2088L114.038 19.7776Z" fill="#FCFCFF"/>
<path d="M147.951 74.1649C148.442 70.8213 150.081 67.7501 152.59 65.4739C155.1 63.1978 158.324 61.8574 161.715 61.6809C165.106 61.5045 168.453 62.5028 171.187 64.5061C173.921 66.5093 175.874 69.3936 176.711 72.6681C177.549 75.9425 177.221 79.4048 175.782 82.4655C174.344 85.5262 171.884 87.9962 168.821 89.4552C165.759 90.9141 162.283 91.2718 158.985 90.4673C155.688 89.6628 152.772 87.7459 150.735 85.0428C149.575 83.5009 148.732 81.7463 148.254 79.8797C147.777 78.0132 147.674 76.0711 147.951 74.1649Z" fill="#FCFCFF"/>
</svg>
