<svg width="256" height="256" viewBox="0 0 256 256" fill="none" xmlns="http://www.w3.org/2000/svg">
<circle cx="128" cy="128" r="128" fill="#5326EC"/>
<path d="M231.634 145.239C231.013 148.104 230.52 151.005 229.749 153.827C221.564 183.785 203.735 206.177 176.055 220.479C155.378 231.166 133.32 234.377 110.393 230.283C83.879 225.555 62.3344 212.395 45.7258 191.286C45.573 191.091 45.6751 190.416 45.8741 190.26C73.3632 169.753 100.871 149.274 128.398 128.822C129.042 128.385 129.822 128.191 130.597 128.274C164.403 133.073 198.204 137.902 232 142.761L231.634 145.239Z" fill="#FCFCFF"/>
<path d="M145.969 25.3153C148.779 25.9371 151.609 26.4701 154.396 27.18C170.719 31.3434 185.202 38.9778 197.845 50.0834C197.93 50.1677 198.009 50.2567 198.084 50.3499L187.991 57.8501C185.794 59.4826 183.608 61.1297 181.392 62.7347C181.257 62.7962 181.11 62.8241 180.962 62.8158C180.815 62.8076 180.671 62.7636 180.545 62.6875C167.654 52.6278 153.06 46.7601 136.764 45.0844C100.303 41.3463 65.0048 62.3701 51.2453 96.1607C42.7254 117.098 42.736 138.149 51.0002 159.2C51.0792 159.4 51.0259 159.809 50.8816 159.909C45.3748 164.042 39.8531 168.16 34.3165 172.263C34.2625 172.303 34.1984 172.333 34.0755 172.406C33.7212 171.638 33.3607 170.892 33.0294 170.136C23.861 149.203 21.608 127.557 26.5761 105.251C36.9137 58.8841 77.5286 25.5015 125.361 24.0278C130.197 23.8798 135.052 24.3616 139.896 24.5515L140.886 24.5873L145.969 25.3153Z" fill="#FCFCFF"/>
<path d="M189.378 94.9311C190.005 90.6513 192.104 86.7201 195.316 83.8066C198.528 80.8932 202.655 79.1775 206.995 78.9516C211.335 78.7257 215.62 80.0036 219.12 82.5678C222.619 85.1319 225.118 88.8238 226.191 93.0151C227.263 97.2064 226.843 101.638 225.001 105.556C223.16 109.474 220.011 112.635 216.091 114.503C212.171 116.37 207.722 116.828 203.501 115.798C199.28 114.768 195.548 112.315 192.94 108.855C191.456 106.881 190.377 104.635 189.766 102.246C189.154 99.8568 189.022 97.3711 189.378 94.9311Z" fill="#FCFCFF"/>
</svg>
