<svg width="544" height="544" viewBox="0 0 544 544" fill="none" xmlns="http://www.w3.org/2000/svg">
<circle cx="272" cy="272" r="240" transform="rotate(-8 272 272)" fill="#5326EC"/>
<path d="M468.922 276.966C468.515 282.447 468.358 287.963 467.662 293.402C460.283 351.164 433.022 397.392 385.359 431.17C349.755 456.41 309.637 468.127 265.998 466.509C215.535 464.649 172.098 445.837 135.752 410.976C135.417 410.654 135.43 409.374 135.759 409.033C181.449 363.783 227.18 318.58 272.953 273.422C274.036 272.442 275.433 271.878 276.894 271.832C340.915 271.921 404.935 272.066 468.954 272.269L468.922 276.966Z" fill="#FCFCFF"/>
<path d="M278.568 76.651C283.949 77.0721 289.341 77.3234 294.702 77.9142C326.095 81.3852 354.979 91.7812 381.353 109.102C381.532 109.237 381.703 109.381 381.866 109.535L365.083 126.094C361.43 129.699 357.801 133.328 354.104 136.886C353.871 137.035 353.604 137.125 353.328 137.149C353.052 137.172 352.775 137.127 352.52 137.019C325.959 121.705 297.331 114.618 266.636 115.759C197.961 118.333 137.907 166.58 121.177 232.911C110.821 274.01 116.334 313.094 137.172 350.024C137.371 350.375 137.379 351.149 137.137 351.372C127.991 360.482 118.813 369.569 109.603 378.632C109.514 378.721 109.402 378.793 109.193 378.96C108.335 377.626 107.471 376.336 106.659 375.018C84.1727 338.544 74.3408 298.94 77.7447 256.228C84.8396 167.438 151.54 94.8562 239.969 79.6381C248.91 78.1011 258.049 77.729 267.093 76.8176L268.94 76.6257L278.568 76.651Z" fill="#FCFCFF"/>
<path d="M377.334 194.583C377.382 186.472 380.253 178.626 385.456 172.378C390.66 166.13 397.876 161.867 405.875 160.316C413.875 158.764 422.164 160.018 429.331 163.866C436.499 167.714 442.102 173.917 445.186 181.419C448.271 188.921 448.647 197.26 446.251 205.014C443.854 212.769 438.833 219.461 432.042 223.951C425.25 228.442 417.109 230.453 409.003 229.642C400.897 228.832 393.327 225.25 387.582 219.506C384.311 216.229 381.722 212.34 379.963 208.064C378.204 203.787 377.311 199.206 377.334 194.583Z" fill="#FCFCFF"/>
</svg>
