<svg width="226" height="226" viewBox="0 0 226 226" fill="none" xmlns="http://www.w3.org/2000/svg">
<circle cx="113" cy="113" r="100" transform="rotate(-8 113 113)" fill="#5326EC"/>
<path d="M195.051 115.069C194.881 117.353 194.816 119.651 194.526 121.918C191.451 145.985 180.093 165.247 160.233 179.321C145.398 189.837 128.682 194.72 110.499 194.045C89.473 193.27 71.3743 185.432 56.2299 170.907C56.0905 170.773 56.096 170.239 56.2331 170.097C75.2702 151.243 94.3249 132.408 113.397 113.592C113.848 113.184 114.43 112.949 115.039 112.93C141.715 112.967 168.39 113.028 195.064 113.112L195.051 115.069Z" fill="#FCFCFF"/>
<path d="M115.737 31.6046C117.979 31.78 120.225 31.8848 122.459 32.1309C135.54 33.5772 147.575 37.9088 158.564 45.1259C158.638 45.1819 158.71 45.2421 158.777 45.3061L151.785 52.206C150.262 53.7078 148.75 55.2198 147.21 56.7025C147.113 56.7647 147.002 56.8023 146.887 56.8119C146.772 56.8216 146.656 56.8031 146.55 56.758C135.483 50.377 123.555 47.4242 110.765 47.8996C82.1504 48.9721 57.1281 69.0751 50.1572 96.7131C45.8423 113.837 48.1393 130.122 56.8217 145.51C56.9046 145.656 56.9078 145.979 56.8071 146.072C52.9961 149.867 49.172 153.654 45.3347 157.43C45.2974 157.467 45.251 157.497 45.1638 157.567C44.8062 157.011 44.4462 156.473 44.1077 155.924C34.7386 140.727 30.642 124.225 32.0603 106.428C35.0165 69.4324 62.8084 39.1901 99.6536 32.8492C103.379 32.2088 107.187 32.0537 110.955 31.674L111.725 31.594L115.737 31.6046Z" fill="#FCFCFF"/>
<path d="M156.889 80.7428C156.909 77.3635 158.105 74.094 160.273 71.4908C162.442 68.8875 165.448 67.1114 168.781 66.4648C172.115 65.8182 175.568 66.3409 178.555 67.9441C181.541 69.5473 183.876 72.1319 185.161 75.2579C186.446 78.3839 186.603 81.8581 185.605 85.0893C184.606 88.3204 182.514 91.1088 179.684 92.9797C176.854 94.8507 173.462 95.6886 170.084 95.3509C166.707 95.0132 163.553 93.5207 161.159 91.1275C159.796 89.7619 158.717 88.1418 157.985 86.3599C157.252 84.5779 156.88 82.6691 156.889 80.7428Z" fill="#FCFCFF"/>
</svg>
