<svg width="92" height="92" viewBox="0 0 92 92" fill="none" xmlns="http://www.w3.org/2000/svg">
<circle cx="46" cy="46" r="40" transform="rotate(-8 46 46)" fill="#5326EC"/>
<path d="M78.8203 46.8277C78.7526 47.7411 78.7263 48.6605 78.6103 49.567C77.3804 59.194 72.837 66.8987 64.8932 72.5284C58.9591 76.7349 52.2728 78.6879 44.9997 78.4181C36.5892 78.1081 29.3497 74.9728 23.2919 69.1626C23.2362 69.109 23.2384 68.8957 23.2932 68.8388C30.9081 61.2972 38.53 53.7633 46.1589 46.237C46.3392 46.0737 46.5721 45.9797 46.8156 45.9719C57.4858 45.9868 68.1559 46.0111 78.8257 46.0448L78.8203 46.8277Z" fill="#FCFCFF"/>
<path d="M47.0946 13.4418C47.9915 13.512 48.8902 13.5539 49.7837 13.6524C55.0159 14.2309 59.8298 15.9635 64.2255 18.8503C64.2553 18.8728 64.2838 18.8968 64.3109 18.9224L61.5138 21.6824C60.9049 22.2831 60.3001 22.8879 59.684 23.481C59.6451 23.5059 59.6007 23.5209 59.5547 23.5248C59.5087 23.5286 59.4624 23.5212 59.4199 23.5032C54.9932 20.9508 50.2219 19.7697 45.106 19.9599C33.6601 20.3888 23.6512 28.43 20.8629 39.4852C19.1369 46.335 20.0557 52.849 23.5287 59.004C23.5618 59.0625 23.5631 59.1914 23.5228 59.2286C21.9984 60.747 20.4688 62.2614 18.9339 63.772C18.9189 63.7868 18.9004 63.7989 18.8655 63.8266C18.7225 63.6044 18.5785 63.3893 18.4431 63.1697C14.6954 57.0907 13.0568 50.49 13.6241 43.3713C14.8066 28.573 25.9233 16.476 40.6614 13.9397C42.1516 13.6835 43.6748 13.6215 45.1821 13.4696L45.49 13.4376L47.0946 13.4418Z" fill="#FCFCFF"/>
<path d="M63.5557 33.0971C63.5637 31.7454 64.0421 30.4376 64.9094 29.3963C65.7767 28.355 66.9793 27.6446 68.3125 27.3859C69.6458 27.1273 71.0273 27.3364 72.2218 27.9777C73.4164 28.6189 74.3502 29.6528 74.8644 30.9032C75.3785 32.1536 75.4412 33.5433 75.0418 34.8357C74.6424 36.1282 73.8055 37.2435 72.6736 37.9919C71.5417 38.7403 70.1848 39.0754 68.8338 38.9404C67.4828 38.8053 66.2212 38.2083 65.2637 37.251C64.7184 36.7048 64.2869 36.0567 63.9938 35.3439C63.7007 34.6312 63.5518 33.8676 63.5557 33.0971Z" fill="#FCFCFF"/>
</svg>
