<svg width="600" height="600" viewBox="0 0 600 600" fill="none" xmlns="http://www.w3.org/2000/svg">
<circle cx="300" cy="300" r="300" fill="#5326EC"/>
<path d="M542.893 340.405C541.436 347.118 540.282 353.919 538.474 360.531C519.291 430.746 477.505 483.227 412.63 516.747C364.166 541.795 312.468 549.321 258.733 539.726C196.591 528.644 146.096 497.802 107.17 448.326C106.812 447.87 107.051 446.288 107.518 445.922C171.945 397.859 236.417 349.861 300.933 301.926C302.443 300.902 304.27 300.447 306.087 300.643C385.319 311.891 464.54 323.208 543.75 334.596L542.893 340.405Z" fill="#FCFCFF"/>
<path d="M342.114 59.3327C348.701 60.79 355.333 62.0392 361.866 63.7032C400.122 73.4611 434.066 91.3543 463.699 117.383C463.897 117.581 464.084 117.789 464.259 118.008L440.604 135.586C435.455 139.412 430.331 143.273 425.137 147.034C424.822 147.179 424.476 147.244 424.131 147.225C423.785 147.205 423.449 147.102 423.152 146.924C392.939 123.346 358.735 109.594 320.541 105.666C235.085 96.9053 152.355 146.18 120.106 225.377C100.138 274.448 100.162 323.787 119.532 373.126C119.717 373.595 119.592 374.553 119.254 374.787C106.347 384.473 93.4056 394.124 80.4293 403.741C80.3028 403.835 80.1524 403.906 79.8646 404.076C79.0341 402.275 78.1892 400.528 77.4127 398.756C55.9242 349.695 50.6438 298.961 62.2878 246.682C86.5165 138.01 181.708 59.7692 293.815 56.3152C305.15 55.9682 316.527 57.0975 327.881 57.5427L330.201 57.6265L342.114 59.3327Z" fill="#FCFCFF"/>
<path d="M443.854 222.495C445.325 212.464 450.243 203.25 457.771 196.422C465.299 189.593 474.973 185.572 485.145 185.043C495.317 184.513 505.359 187.508 513.562 193.518C521.764 199.528 527.621 208.181 530.134 218.004C532.648 227.828 531.663 238.214 527.347 247.396C523.031 256.579 515.651 263.989 506.464 268.366C497.276 272.742 486.849 273.815 476.956 271.402C467.063 268.988 458.316 263.238 452.204 255.128C448.724 250.503 446.196 245.239 444.763 239.639C443.33 234.039 443.021 228.213 443.854 222.495Z" fill="#FCFCFF"/>
</svg>
