<svg width="146" height="146" viewBox="0 0 146 146" fill="none" xmlns="http://www.w3.org/2000/svg">
<circle cx="73" cy="73" r="64" transform="rotate(-8 73 73)" fill="#5326EC"/>
<path d="M125.512 74.3243C125.404 75.7858 125.362 77.2568 125.177 78.7073C123.209 94.1103 115.939 106.438 103.229 115.445C93.7346 122.176 83.0365 125.301 71.3995 124.869C57.9427 124.373 46.3595 119.356 36.6671 110.06C36.5779 109.974 36.5815 109.633 36.6692 109.542C48.8529 97.4755 61.048 85.4212 73.2542 73.3792C73.5428 73.118 73.9154 72.9676 74.305 72.9551C91.3774 72.9788 108.449 73.0177 125.521 73.0717L125.512 74.3243Z" fill="#FCFCFF"/>
<path d="M74.7515 20.9069C76.1863 21.0192 77.6243 21.0862 79.054 21.2438C87.4255 22.1694 95.1277 24.9416 102.161 29.5605C102.208 29.5964 102.254 29.6349 102.297 29.6759L97.8221 34.0918C96.8479 35.053 95.8802 36.0207 94.8944 36.9696C94.8322 37.0094 94.7612 37.0334 94.6875 37.0396C94.6139 37.0458 94.5399 37.034 94.4719 37.0051C87.3891 32.9213 79.755 31.0315 71.5697 31.3358C53.2563 32.0221 37.242 44.888 32.7806 62.5764C30.019 73.536 31.4891 83.9583 37.0459 93.8065C37.0989 93.9 37.101 94.1063 37.0365 94.1658C34.5975 96.5952 32.1501 99.0183 29.6942 101.435C29.6703 101.459 29.6406 101.478 29.5849 101.523C29.356 101.167 29.1256 100.823 28.9089 100.472C22.9127 90.7452 20.2909 80.184 21.1986 68.794C23.0906 45.1168 40.8774 25.7616 64.4583 21.7035C66.8426 21.2936 69.2797 21.1944 71.6914 20.9514L72.184 20.9002L74.7515 20.9069Z" fill="#FCFCFF"/>
<path d="M101.089 52.3554C101.102 50.1926 101.867 48.1002 103.255 46.4341C104.643 44.768 106.567 43.6313 108.7 43.2175C110.833 42.8036 113.044 43.1382 114.955 44.1642C116.866 45.1903 118.36 46.8444 119.183 48.8451C120.006 50.8457 120.106 53.0692 119.467 55.1371C118.828 57.2051 117.489 58.9896 115.678 60.187C113.867 61.3844 111.696 61.9207 109.534 61.7046C107.372 61.4885 105.354 60.5333 103.822 59.0016C102.95 58.1276 102.259 57.0908 101.79 55.9503C101.321 54.8099 101.083 53.5882 101.089 52.3554Z" fill="#FCFCFF"/>
</svg>
