<svg width="480" height="480" viewBox="0 0 480 480" fill="none" xmlns="http://www.w3.org/2000/svg">
<circle cx="240" cy="240" r="240" fill="#5326EC"/>
<path d="M434.314 272.324C433.149 277.695 432.225 283.135 430.779 288.425C415.433 344.597 382.004 386.582 330.104 413.398C291.333 433.436 249.975 439.457 206.986 431.781C157.273 422.915 116.877 398.241 85.7359 358.661C85.4495 358.296 85.6407 357.03 86.014 356.738C137.556 318.288 189.133 279.888 240.746 241.541C241.954 240.721 243.416 240.357 244.87 240.514C308.255 249.513 371.632 258.567 435 267.677L434.314 272.324Z" fill="#FCFCFF"/>
<path d="M273.691 47.4662C278.961 48.632 284.266 49.6314 289.493 50.9626C320.097 58.7689 347.253 73.0835 370.96 93.9063C371.118 94.0645 371.267 94.2313 371.407 94.406L352.483 108.469C348.364 111.53 344.265 114.618 340.109 117.628C339.858 117.743 339.581 117.795 339.304 117.78C339.028 117.764 338.759 117.682 338.522 117.539C314.351 98.6771 286.988 87.6751 256.433 84.5332C188.068 77.5242 121.884 116.944 96.085 180.301C80.1102 219.559 80.13 259.029 95.6253 298.5C95.7735 298.876 95.6735 299.643 95.4029 299.83C85.0777 307.579 74.7245 315.3 64.3434 322.993C64.2422 323.068 64.1219 323.125 63.8917 323.26C63.2273 321.82 62.5513 320.422 61.9302 319.005C44.7394 279.756 40.515 239.169 49.8302 197.346C69.2132 110.408 145.366 47.8153 235.052 45.0522C244.12 44.7746 253.222 45.678 262.305 46.0341L264.161 46.1012L273.691 47.4662Z" fill="#FCFCFF"/>
<path d="M355.083 177.996C356.26 169.971 360.194 162.6 366.217 157.137C372.24 151.675 379.978 148.458 388.116 148.034C396.254 147.611 404.287 150.007 410.849 154.815C417.411 159.622 422.097 166.545 424.107 174.403C426.118 182.262 425.33 190.571 421.878 197.917C418.425 205.263 412.521 211.191 405.171 214.692C397.821 218.194 389.479 219.052 381.564 217.121C373.65 215.191 366.653 210.59 361.763 204.103C358.98 200.402 356.957 196.191 355.81 191.711C354.664 187.232 354.417 182.571 355.083 177.996Z" fill="#FCFCFF"/>
</svg>
