<svg width="128" height="128" viewBox="0 0 128 128" fill="none" xmlns="http://www.w3.org/2000/svg">
<circle cx="64" cy="64" r="64" fill="#5326EC"/>
<path d="M115.817 72.6197C115.506 74.0519 115.26 75.5027 114.874 76.9133C110.782 91.8926 101.868 103.089 88.0277 110.239C77.6888 115.583 66.6599 117.188 55.1963 115.141C41.9395 112.777 31.1672 106.198 22.8629 95.6429C22.7865 95.5456 22.8375 95.2081 22.9371 95.1301C36.6816 84.8767 50.4356 74.6369 64.199 64.4109C64.5211 64.1923 64.911 64.0953 65.2985 64.1371C82.2014 66.5367 99.1019 68.9511 116 71.3805L115.817 72.6197Z" fill="#FCFCFF"/>
<path d="M72.9843 12.6577C74.3896 12.9685 75.8043 13.235 77.1981 13.59C85.3593 15.6717 92.6008 19.4889 98.9225 25.0417C98.9648 25.0839 99.0046 25.1283 99.0419 25.1749L93.9955 28.9251C92.897 29.7413 91.804 30.5649 90.6958 31.3674C90.6287 31.3981 90.555 31.412 90.4812 31.4079C90.4074 31.4038 90.3357 31.3818 90.2725 31.3437C83.8269 26.3139 76.5301 23.38 68.3821 22.5422C50.1514 20.6731 32.5024 31.1851 25.6227 48.0803C21.3627 58.549 21.368 69.0745 25.5001 79.6001C25.5396 79.7002 25.5129 79.9047 25.4408 79.9546C22.6874 82.0209 19.9265 84.0799 17.1582 86.1315C17.1313 86.1516 17.0992 86.1666 17.0378 86.2028C16.8606 85.8188 16.6804 85.4459 16.5147 85.0679C11.9305 74.6017 10.804 63.7783 13.2881 52.6256C18.4569 29.4421 38.7643 12.7508 62.6805 12.0139C65.0986 11.9399 67.5258 12.1808 69.9479 12.2758L70.4429 12.2937L72.9843 12.6577Z" fill="#FCFCFF"/>
<path d="M94.6889 47.4655C95.0026 45.3256 96.0518 43.36 97.6578 41.9033C99.2639 40.4466 101.328 39.5887 103.498 39.4758C105.668 39.3629 107.81 40.0018 109.56 41.2839C111.31 42.5659 112.559 44.4119 113.095 46.5076C113.632 48.6032 113.421 50.8191 112.501 52.7779C111.58 54.7368 110.006 56.3176 108.046 57.2513C106.086 58.185 103.861 58.4139 101.751 57.8991C99.64 57.3842 97.774 56.1574 96.4702 54.4274C95.7279 53.4405 95.1884 52.3177 94.8828 51.123C94.5771 49.9284 94.5112 48.6855 94.6889 47.4655Z" fill="#FCFCFF"/>
</svg>
