<svg width="80" height="80" viewBox="0 0 80 80" fill="none" xmlns="http://www.w3.org/2000/svg">
<circle cx="40" cy="40" r="40" fill="#5326EC"/>
<path d="M72.3857 45.3873C72.1915 46.2824 72.0376 47.1892 71.7965 48.0708C69.2388 57.4329 63.6673 64.4303 55.0173 68.8996C48.5555 72.2394 41.6625 73.2428 34.4977 71.9634C26.2122 70.4859 19.4795 66.3735 14.2893 59.7768C14.2416 59.716 14.2735 59.505 14.3357 59.4563C22.926 53.0479 31.5222 46.6481 40.1244 40.2568C40.3257 40.1202 40.5694 40.0595 40.8116 40.0857C51.3759 41.5854 61.9387 43.0945 72.5 44.6128L72.3857 45.3873Z" fill="#FCFCFF"/>
<path d="M45.6152 7.91103C46.4935 8.10534 47.3777 8.2719 48.2488 8.49376C53.3496 9.79481 57.8755 12.1806 61.8266 15.6511C61.853 15.6774 61.8779 15.7052 61.9012 15.7343L58.7472 18.0782C58.0606 18.5883 57.3775 19.103 56.6849 19.6046C56.6429 19.6238 56.5969 19.6325 56.5507 19.63C56.5046 19.6274 56.4598 19.6136 56.4203 19.5898C52.3918 16.4462 47.8313 14.6125 42.7388 14.0889C31.3446 12.9207 20.314 19.4907 16.0142 30.0502C13.3517 36.5931 13.355 43.1716 15.9376 49.7501C15.9622 49.8126 15.9456 49.9404 15.9005 49.9716C14.1796 51.2631 12.4541 52.5499 10.7239 53.8322C10.707 53.8447 10.687 53.8541 10.6486 53.8767C10.5379 53.6367 10.4252 53.4037 10.3217 53.1675C7.45656 46.6261 6.7525 39.8615 8.30504 32.891C11.5355 18.4013 24.2277 7.96922 39.1753 7.5087C40.6866 7.46243 42.2036 7.613 43.7175 7.67236L44.0268 7.68354L45.6152 7.91103Z" fill="#FCFCFF"/>
<path d="M59.1806 29.666C59.3766 28.3285 60.0324 27.1 61.0361 26.1896C62.0399 25.2791 63.3297 24.743 64.686 24.6724C66.0423 24.6018 67.3812 25.0011 68.4749 25.8024C69.5686 26.6037 70.3494 27.7574 70.6846 29.0672C71.0197 30.377 70.8884 31.7619 70.3129 32.9862C69.7375 34.2105 68.7535 35.1985 67.5285 35.7821C66.3035 36.3656 64.9131 36.5087 63.5941 36.1869C62.275 35.8651 61.1088 35.0984 60.2939 34.0171C59.8299 33.4003 59.4928 32.6985 59.3017 31.9519C59.1107 31.2053 59.0695 30.4285 59.1806 29.666Z" fill="#FCFCFF"/>
</svg>
