<svg width="407" height="181" viewBox="0 0 407 181" fill="none" xmlns="http://www.w3.org/2000/svg">
<path fill-rule="evenodd" clip-rule="evenodd" d="M57.8325 12.2382L57.8325 13.1061L58.5841 13.54L59.3356 13.1061L59.3356 12.2382L58.5841 11.8043L57.8325 12.2382ZM60.8264 49.4709V51.6405L62.7053 52.7253L64.5843 51.6405L64.5843 49.4709L62.7054 48.3861L60.8264 49.4709ZM56.4092 32.3446V30.8259L57.7244 30.0665L59.0397 30.8259L59.0397 32.3446L57.7244 33.104L56.4092 32.3446ZM71.3109 66.2143V69.9026L74.5051 71.7468L77.6993 69.9027L77.6992 66.2144L74.5051 64.3702L71.3109 66.2143ZM84.4209 86.597V83.3426L87.2393 81.7154L90.0576 83.3426L90.0577 86.597L87.2393 88.2242L84.4209 86.597ZM96.8688 101.517V104.338L99.3114 105.748L101.754 104.338L101.754 101.517L99.3114 100.107L96.8688 101.517ZM105.016 124.865V122.913L106.707 121.937L108.398 122.913L108.398 124.866L106.707 125.842L105.016 124.865ZM103.841 143.496L103.841 144.581L104.78 145.123L105.719 144.581L105.719 143.496L104.78 142.953L103.841 143.496Z" fill="url(#paint0_linear)"/>
<g filter="url(#filter0_dd)">
<path d="M96.0113 160.246L96.0113 159.595L96.575 159.269L97.1387 159.595L97.1387 160.246L96.575 160.571L96.0113 160.246Z" fill="url(#paint1_linear)"/>
</g>
<path fill-rule="evenodd" clip-rule="evenodd" d="M38.6281 33.5715V34.4386L39.379 34.8722L40.13 34.4387L40.13 33.5715L39.3791 33.1379L38.6281 33.5715ZM72.275 153.158V154.026L73.0265 154.459L73.7781 154.026L73.7781 153.158L73.0265 152.724L72.275 153.158ZM69.2739 139.11V137.374L70.7771 136.506L72.2802 137.374L72.2802 139.11L70.7771 139.978L69.2739 139.11ZM60.6872 120.154V122.758L62.9419 124.06L65.1966 122.758L65.1966 120.154L62.9419 118.853L60.6872 120.154ZM49.9722 106.965V103.927L52.6027 102.409L55.2332 103.927L55.2332 106.965L52.6027 108.483L49.9722 106.965ZM41.1493 87.17L41.1493 90.6414L44.1556 92.3771L47.1619 90.6414L47.1618 87.1701L44.1556 85.4344L41.1493 87.17ZM36.2795 71.4522L36.2795 69.2826L38.1584 68.1978L40.0373 69.2826L40.0374 71.4522L38.1584 72.537L36.2795 71.4522ZM35.6797 50.0197L35.6797 51.5384L36.9949 52.2978L38.3102 51.5385L38.3102 50.0198L36.9949 49.2604L35.6797 50.0197Z" fill="url(#paint2_linear)"/>
<path fill-rule="evenodd" clip-rule="evenodd" d="M11.8604 72.5667L11.8604 73.4338L12.6114 73.8674L13.3623 73.4338L13.3623 72.5667L12.6114 72.1331L11.8604 72.5667ZM11.0215 86.1312V87.65L12.3367 88.4093L13.652 87.65L13.652 86.1313L12.3367 85.3719L11.0215 86.1312ZM11.6755 104.485L11.6755 102.315L13.5544 101.231L15.4333 102.315L15.4334 104.485L13.5544 105.57L11.6755 104.485ZM15.9323 116.488L15.9323 119.743L18.7507 121.37L21.5691 119.743L21.5691 116.488L18.7507 114.861L15.9323 116.488ZM23.8812 133.011V130.19L26.3238 128.78L28.7664 130.19L28.7664 133.011L26.3238 134.421L23.8812 133.011ZM34.2417 142.762V144.931L36.1207 146.016L37.9996 144.931L37.9996 142.762L36.1207 141.677L34.2417 142.762ZM45.3671 154.652V153.133L46.6823 152.374L47.9976 153.133L47.9976 154.652L46.6823 155.411L45.3671 154.652ZM54.9884 163.571V164.222L55.5521 164.547L56.1157 164.222L56.1157 163.571L55.5521 163.246L54.9884 163.571Z" fill="url(#paint3_linear)"/>
<path fill-rule="evenodd" clip-rule="evenodd" d="M73.9033 4.86893V5.73607L74.6543 6.16964L75.4053 5.73608L75.4053 4.86894L74.6543 4.43536L73.9033 4.86893ZM78.9303 20.2762V21.7969L80.2472 22.5572L81.5641 21.7969L81.5641 20.2763L80.2472 19.5159L78.9303 20.2762ZM86.6808 38.3299V35.5094L89.1234 34.0992L91.5659 35.5094L91.566 38.3299L89.1233 39.7401L86.6808 38.3299ZM101.21 50.4755V54.1639L104.404 56.008L107.599 54.1639L107.599 50.4756L104.404 48.6314L101.21 50.4755ZM115.114 67.9941V65.6076L117.181 64.4143L119.248 65.6076L119.248 67.9941L117.181 69.1874L115.114 67.9941ZM126.434 77.7147V78.7619L127.35 79.2856L128.267 78.7619L128.267 77.7147L127.35 77.191L126.434 77.7147Z" fill="url(#paint4_linear)"/>
<path d="M67.4997 0.00343513C66.7752 -0.0490105 66.2377 0.505735 66.0754 1.21147C60.0648 27.6905 62.4916 47.6508 95.4317 81.5739C141.453 128.969 102.99 165.306 82.9585 178.303C82.6726 178.503 82.155 179.119 82.4285 179.861C82.7704 180.789 83.6251 180.799 83.9608 180.713C130 169.503 159.596 114.926 114.309 74.4004C89.3083 52.0287 70.3157 38.5559 68.7287 1.41021C68.7007 0.691245 68.2242 0.0558807 67.4997 0.00343513Z" fill="url(#paint5_linear)"/>
<path d="M55.8029 3.50966C55.1695 3.15396 54.432 3.4401 54.0001 4.00347C34.6184 34.5356 38.4689 66.5483 56.9845 91.7114C89.878 136.415 81.5772 162.174 72.9363 175.554C72.7466 175.855 72.5288 176.605 73.1747 177.198C73.8206 177.792 74.5589 177.505 74.8473 177.288C97.754 159.691 108.011 126.12 77.7976 85.7928C61.3153 63.7932 42.5776 45.4272 56.3216 5.30955C56.6093 4.6593 56.4362 3.86536 55.8029 3.50966Z" fill="url(#paint6_linear)"/>
<path d="M40.5849 15.406C39.9614 15.0333 39.1777 15.2725 38.7725 15.8466C16.0495 48.2189 12.525 82.6858 23.6389 109.237C37.3964 142.104 59.8574 152.705 63.555 173.379C63.6387 173.847 63.8679 174.77 64.8418 174.762C65.8157 174.754 66.1629 173.986 66.2147 173.602C71.0394 144.876 50.9032 126.328 42.1853 109.237C29.9492 85.2493 22.6331 57.3656 41.0798 17.0874C41.3504 16.4959 41.1258 15.7293 40.5849 15.406Z" fill="url(#paint7_linear)"/>
<path d="M59.5568 180.89C35.2827 177.457 0 159.328 0 112.503C0 99.6372 3 87.0034 6.5 76.0034C6.65625 75.294 7.37311 74.8306 8.0825 74.9868C8.72669 75.1287 9.15566 75.7204 9.11208 76.3592C5.4565 101.629 8.82969 130.062 31.5068 148.361C47.7562 161.473 59.5568 169.879 59.5568 180.89Z" fill="url(#paint8_linear)"/>
<path d="M100.903 35.7903C88.4708 21.8674 82.698 9.28929 81.5 2.50354C100.903 9.50354 119.5 38.0035 129.912 67.7955C129.963 67.9868 130.042 68.7483 129.232 68.9949C128.585 69.1921 128.162 68.732 128.031 68.4773C122.589 56.9816 112.105 48.3363 100.903 35.7903Z" fill="url(#paint9_linear)"/>
<path d="M196.248 58.9926C195.923 58.9926 195.638 58.8809 195.395 58.6576C195.171 58.4139 195.06 58.1297 195.06 57.8048V35.206H197.435V57.8048C197.435 58.1297 197.324 58.4139 197.1 58.6576C196.877 58.8809 196.593 58.9926 196.248 58.9926ZM187.842 37.3684C187.517 37.3684 187.253 37.2669 187.05 37.0638C186.847 36.8608 186.745 36.607 186.745 36.3024C186.745 35.9776 186.847 35.7136 187.05 35.5106C187.253 35.3075 187.517 35.206 187.842 35.206H204.684C205.009 35.206 205.273 35.3075 205.476 35.5106C205.679 35.7136 205.78 35.9776 205.78 36.3024C205.78 36.607 205.679 36.8608 205.476 37.0638C205.273 37.2669 205.009 37.3684 204.684 37.3684H187.842Z" fill="black"/>
<path d="M223.271 58.9926C222.926 58.9926 222.641 58.8809 222.418 58.6576C222.195 58.4342 222.083 58.1601 222.083 57.8353V49.9165C222.083 48.6577 221.839 47.6221 221.352 46.81C220.885 45.9978 220.235 45.3887 219.403 44.9826C218.591 44.5765 217.667 44.3734 216.631 44.3734C215.636 44.3734 214.733 44.5663 213.921 44.9521C213.129 45.3379 212.499 45.8658 212.032 46.5359C211.565 47.2059 211.332 47.9673 211.332 48.8201H209.657C209.697 47.5409 210.043 46.4039 210.692 45.409C211.342 44.3937 212.205 43.6019 213.281 43.0333C214.357 42.4445 215.555 42.1501 216.875 42.1501C218.317 42.1501 219.606 42.4547 220.743 43.0638C221.88 43.6526 222.773 44.5257 223.423 45.6831C224.093 46.8404 224.428 48.2516 224.428 49.9165V57.8353C224.428 58.1601 224.317 58.4342 224.093 58.6576C223.87 58.8809 223.596 58.9926 223.271 58.9926ZM210.175 58.9926C209.809 58.9926 209.515 58.8911 209.291 58.688C209.088 58.4647 208.987 58.1804 208.987 57.8353V43.5206C208.987 43.1552 209.088 42.8709 209.291 42.6679C209.515 42.4445 209.809 42.3328 210.175 42.3328C210.52 42.3328 210.794 42.4445 210.997 42.6679C211.22 42.8709 211.332 43.1552 211.332 43.5206V57.8353C211.332 58.1804 211.22 58.4647 210.997 58.688C210.794 58.8911 210.52 58.9926 210.175 58.9926ZM210.175 52.2008C209.809 52.2008 209.515 52.0891 209.291 51.8658C209.088 51.6424 208.987 51.3581 208.987 51.013V36.3938C208.987 36.0283 209.088 35.7441 209.291 35.541C209.515 35.3177 209.809 35.206 210.175 35.206C210.52 35.206 210.794 35.3177 210.997 35.541C211.22 35.7441 211.332 36.0283 211.332 36.3938V51.013C211.332 51.3581 211.22 51.6424 210.997 51.8658C210.794 52.0891 210.52 52.2008 210.175 52.2008Z" fill="black"/>
<path d="M237.152 59.1449C235.507 59.1449 234.045 58.7896 232.766 58.0789C231.507 57.3479 230.512 56.3429 229.781 55.0637C229.071 53.7845 228.715 52.3226 228.715 50.6779C228.715 49.013 229.05 47.5511 229.72 46.2922C230.411 45.013 231.355 44.008 232.553 43.277C233.751 42.546 235.131 42.1806 236.695 42.1806C238.238 42.1806 239.578 42.5359 240.715 43.2465C241.873 43.9369 242.766 44.9013 243.395 46.1399C244.025 47.3785 244.34 48.7896 244.34 50.3734C244.34 50.6983 244.238 50.9622 244.035 51.1653C243.832 51.348 243.568 51.4394 243.243 51.4394H230.299V49.4901H243.487L242.177 50.4343C242.197 49.2566 241.984 48.2008 241.537 47.2668C241.091 46.3328 240.451 45.6018 239.619 45.0739C238.807 44.546 237.832 44.2821 236.695 44.2821C235.538 44.2821 234.522 44.5562 233.649 45.1044C232.776 45.6526 232.096 46.414 231.609 47.3886C231.142 48.3429 230.908 49.4394 230.908 50.6779C230.908 51.9165 231.172 53.013 231.7 53.9673C232.248 54.9216 232.989 55.6728 233.923 56.2211C234.857 56.7693 235.933 57.0434 237.152 57.0434C237.883 57.0434 238.614 56.9216 239.345 56.6779C240.096 56.4139 240.695 56.0891 241.142 55.7033C241.365 55.5205 241.619 55.4292 241.903 55.4292C242.187 55.4089 242.431 55.4799 242.634 55.6424C242.898 55.886 243.03 56.15 243.03 56.4342C243.05 56.7185 242.938 56.9622 242.695 57.1652C242.025 57.7337 241.172 58.2109 240.136 58.5967C239.101 58.9621 238.106 59.1449 237.152 59.1449Z" fill="black"/>
<path d="M329.637 142.545C328.338 142.545 327.13 142.362 326.013 141.997C324.916 141.611 323.962 141.073 323.15 140.383C322.338 139.692 321.718 138.89 321.292 137.977C321.13 137.652 321.119 137.357 321.262 137.093C321.424 136.809 321.688 136.616 322.053 136.515C322.338 136.434 322.612 136.464 322.876 136.606C323.16 136.748 323.373 136.962 323.515 137.246C323.82 137.835 324.267 138.363 324.855 138.83C325.444 139.297 326.145 139.662 326.957 139.926C327.769 140.17 328.663 140.291 329.637 140.291C330.713 140.291 331.668 140.119 332.5 139.774C333.333 139.408 333.982 138.89 334.449 138.22C334.937 137.53 335.18 136.698 335.18 135.723C335.18 134.484 334.723 133.418 333.81 132.525C332.896 131.632 331.465 131.063 329.515 130.819C327.14 130.535 325.282 129.804 323.942 128.627C322.602 127.429 321.932 125.967 321.932 124.241C321.932 123.002 322.257 121.926 322.906 121.012C323.576 120.099 324.49 119.398 325.647 118.911C326.805 118.403 328.135 118.149 329.637 118.149C330.754 118.149 331.769 118.332 332.683 118.698C333.597 119.043 334.388 119.51 335.058 120.099C335.749 120.667 336.307 121.297 336.734 121.987C336.937 122.312 336.998 122.627 336.916 122.931C336.855 123.236 336.683 123.469 336.399 123.632C336.094 123.774 335.779 123.794 335.454 123.693C335.15 123.591 334.916 123.398 334.754 123.114C334.449 122.647 334.064 122.21 333.597 121.804C333.15 121.378 332.602 121.043 331.952 120.799C331.302 120.556 330.52 120.424 329.607 120.403C328.003 120.403 326.713 120.748 325.739 121.439C324.764 122.109 324.277 123.094 324.277 124.393C324.277 125.083 324.46 125.723 324.825 126.312C325.191 126.88 325.789 127.378 326.622 127.804C327.475 128.21 328.612 128.515 330.033 128.718C332.571 129.083 334.449 129.865 335.668 131.063C336.906 132.241 337.525 133.784 337.525 135.692C337.525 136.789 337.322 137.764 336.916 138.616C336.531 139.469 335.972 140.19 335.241 140.779C334.531 141.347 333.688 141.784 332.713 142.088C331.759 142.393 330.734 142.545 329.637 142.545Z" fill="black"/>
<path d="M348.706 142.241C347.63 142.241 346.666 141.987 345.813 141.479C344.98 140.972 344.321 140.281 343.833 139.408C343.346 138.515 343.102 137.5 343.102 136.363V121.469C343.102 121.124 343.204 120.84 343.407 120.616C343.63 120.393 343.914 120.281 344.26 120.281C344.605 120.281 344.889 120.393 345.112 120.616C345.336 120.84 345.447 121.124 345.447 121.469V136.363C345.447 137.398 345.752 138.251 346.361 138.921C346.97 139.571 347.752 139.895 348.706 139.895H349.529C349.854 139.895 350.117 140.007 350.321 140.231C350.524 140.454 350.625 140.738 350.625 141.083C350.625 141.428 350.503 141.713 350.26 141.936C350.016 142.139 349.711 142.241 349.346 142.241H348.706ZM341.123 128.231C340.818 128.231 340.564 128.139 340.361 127.957C340.158 127.753 340.057 127.51 340.057 127.226C340.057 126.921 340.158 126.677 340.361 126.495C340.564 126.292 340.818 126.19 341.123 126.19H348.889C349.194 126.19 349.447 126.292 349.65 126.495C349.854 126.677 349.955 126.921 349.955 127.226C349.955 127.51 349.854 127.753 349.65 127.957C349.447 128.139 349.194 128.231 348.889 128.231H341.123Z" fill="black"/>
<path d="M361.783 142.393C360.219 142.393 358.818 142.027 357.58 141.296C356.341 140.545 355.356 139.53 354.625 138.251C353.915 136.972 353.559 135.53 353.559 133.926C353.559 132.302 353.925 130.85 354.656 129.571C355.407 128.292 356.422 127.286 357.701 126.555C358.981 125.804 360.422 125.429 362.026 125.429C363.63 125.429 365.062 125.804 366.321 126.555C367.6 127.286 368.605 128.292 369.336 129.571C370.087 130.85 370.473 132.302 370.493 133.926L369.549 134.657C369.549 136.119 369.204 137.439 368.514 138.616C367.844 139.774 366.92 140.698 365.742 141.388C364.585 142.058 363.265 142.393 361.783 142.393ZM362.026 140.261C363.204 140.261 364.25 139.987 365.163 139.439C366.097 138.89 366.828 138.139 367.356 137.185C367.904 136.21 368.179 135.124 368.179 133.926C368.179 132.708 367.904 131.621 367.356 130.667C366.828 129.713 366.097 128.962 365.163 128.413C364.25 127.845 363.204 127.561 362.026 127.561C360.869 127.561 359.823 127.845 358.889 128.413C357.955 128.962 357.214 129.713 356.666 130.667C356.118 131.621 355.844 132.708 355.844 133.926C355.844 135.124 356.118 136.21 356.666 137.185C357.214 138.139 357.955 138.89 358.889 139.439C359.823 139.987 360.869 140.261 362.026 140.261ZM369.305 142.241C368.96 142.241 368.676 142.139 368.453 141.936C368.229 141.713 368.118 141.428 368.118 141.083V135.875L368.696 133.469L370.493 133.926V141.083C370.493 141.428 370.382 141.713 370.158 141.936C369.935 142.139 369.651 142.241 369.305 142.241Z" fill="black"/>
<path d="M382.486 142.393C380.882 142.393 379.45 142.027 378.191 141.296C376.953 140.545 375.968 139.53 375.237 138.251C374.526 136.972 374.171 135.53 374.171 133.926C374.171 132.302 374.516 130.85 375.207 129.571C375.897 128.292 376.841 127.286 378.039 126.555C379.237 125.804 380.618 125.429 382.181 125.429C383.42 125.429 384.557 125.672 385.592 126.16C386.648 126.647 387.572 127.378 388.364 128.352C388.587 128.596 388.668 128.86 388.608 129.144C388.547 129.408 388.374 129.642 388.09 129.845C387.866 130.007 387.613 130.068 387.328 130.028C387.064 129.967 386.831 129.814 386.628 129.571C385.45 128.231 383.968 127.561 382.181 127.561C381.044 127.561 380.039 127.835 379.166 128.383C378.313 128.931 377.643 129.682 377.156 130.637C376.689 131.591 376.455 132.687 376.455 133.926C376.455 135.144 376.709 136.231 377.217 137.185C377.724 138.139 378.435 138.89 379.349 139.439C380.262 139.987 381.308 140.261 382.486 140.261C383.278 140.261 383.998 140.159 384.648 139.956C385.318 139.733 385.907 139.398 386.415 138.951C386.658 138.748 386.912 138.637 387.176 138.616C387.44 138.596 387.684 138.677 387.907 138.86C388.151 139.083 388.283 139.337 388.303 139.621C388.344 139.906 388.252 140.149 388.029 140.352C386.547 141.713 384.699 142.393 382.486 142.393Z" fill="black"/>
<path d="M395.116 136.667L393.685 135.114L404.101 125.703C404.345 125.479 404.598 125.378 404.862 125.398C405.126 125.398 405.37 125.52 405.593 125.764C405.817 126.007 405.918 126.271 405.898 126.555C405.898 126.819 405.776 127.053 405.532 127.256L395.116 136.667ZM394.355 142.241C394.01 142.241 393.725 142.139 393.502 141.936C393.299 141.713 393.197 141.428 393.197 141.083V119.611C393.197 119.266 393.299 118.992 393.502 118.789C393.725 118.566 394.01 118.454 394.355 118.454C394.7 118.454 394.974 118.566 395.177 118.789C395.401 118.992 395.512 119.266 395.512 119.611V141.083C395.512 141.428 395.401 141.713 395.177 141.936C394.974 142.139 394.7 142.241 394.355 142.241ZM405.624 142.088C405.36 142.312 405.086 142.403 404.801 142.362C404.517 142.342 404.274 142.2 404.07 141.936L397.279 133.591L398.923 132.129L405.776 140.566C405.979 140.809 406.07 141.073 406.05 141.357C406.03 141.621 405.888 141.865 405.624 142.088Z" fill="black"/>
<path d="M174.106 106.099C171.913 106.099 169.855 105.693 167.933 104.88C166.038 104.041 164.373 102.891 162.938 101.429C161.53 99.9398 160.42 98.2071 159.608 96.2308C158.823 94.2545 158.431 92.1158 158.431 89.8146C158.431 87.5405 158.823 85.4289 159.608 83.4797C160.42 81.5034 161.53 79.7843 162.938 78.3223C164.373 76.8333 166.038 75.6692 167.933 74.83C169.828 73.9907 171.886 73.5711 174.106 73.5711C176.19 73.5711 177.977 73.8418 179.466 74.3833C180.982 74.9247 182.498 75.8181 184.014 77.0635C184.339 77.3342 184.556 77.5914 184.664 77.835C184.772 78.0787 184.826 78.3765 184.826 78.7284C184.826 79.2428 184.637 79.676 184.258 80.0279C183.906 80.3528 183.473 80.5423 182.958 80.5964C182.444 80.6235 181.943 80.4475 181.456 80.0685C180.454 79.2022 179.412 78.5389 178.329 78.0787C177.273 77.6184 175.865 77.3883 174.106 77.3883C172.508 77.3883 171.006 77.7132 169.598 78.3629C168.19 79.0127 166.945 79.9061 165.862 81.0431C164.806 82.1802 163.981 83.5067 163.385 85.0228C162.789 86.5118 162.492 88.1091 162.492 89.8146C162.492 91.5473 162.789 93.1716 163.385 94.6877C163.981 96.1767 164.806 97.4897 165.862 98.6267C166.945 99.7638 168.19 100.657 169.598 101.307C171.006 101.93 172.508 102.241 174.106 102.241C175.486 102.241 176.786 102.011 178.004 101.551C179.249 101.063 180.441 100.4 181.578 99.5607C182.065 99.2088 182.539 99.0599 182.999 99.114C183.486 99.1411 183.892 99.3306 184.217 99.6826C184.542 100.007 184.705 100.468 184.705 101.063C184.705 101.632 184.488 102.133 184.055 102.566C181.131 104.921 177.815 106.099 174.106 106.099Z" fill="black"/>
<path d="M199.499 105.855C197.306 105.855 195.37 105.381 193.691 104.434C192.013 103.459 190.686 102.133 189.712 100.454C188.764 98.7486 188.291 96.7993 188.291 94.6065C188.291 92.3865 188.764 90.4373 189.712 88.7588C190.686 87.0532 192.013 85.7267 193.691 84.7791C195.37 83.8045 197.306 83.3172 199.499 83.3172C201.664 83.3172 203.586 83.8045 205.265 84.7791C206.943 85.7267 208.257 87.0532 209.204 88.7588C210.179 90.4373 210.666 92.3865 210.666 94.6065C210.666 96.7993 210.192 98.7486 209.245 100.454C208.297 102.133 206.984 103.459 205.306 104.434C203.627 105.381 201.691 105.855 199.499 105.855ZM199.499 102.2C200.906 102.2 202.152 101.875 203.235 101.226C204.317 100.576 205.157 99.6826 205.752 98.5455C206.375 97.4085 206.686 96.0955 206.686 94.6065C206.686 93.1175 206.375 91.8045 205.752 90.6674C205.157 89.5033 204.317 88.5964 203.235 87.9466C202.152 87.2969 200.906 86.972 199.499 86.972C198.091 86.972 196.845 87.2969 195.763 87.9466C194.68 88.5964 193.827 89.5033 193.204 90.6674C192.582 91.8045 192.27 93.1175 192.27 94.6065C192.27 96.0955 192.582 97.4085 193.204 98.5455C193.827 99.6826 194.68 100.576 195.763 101.226C196.845 101.875 198.091 102.2 199.499 102.2Z" fill="black"/>
<path d="M218.902 105.733C218.306 105.733 217.805 105.544 217.399 105.165C217.02 104.759 216.831 104.258 216.831 103.662V85.5913C216.831 84.9686 217.02 84.4678 217.399 84.0888C217.805 83.7098 218.306 83.5203 218.902 83.5203C219.524 83.5203 220.025 83.7098 220.404 84.0888C220.783 84.4678 220.973 84.9416 220.973 85.5101C221.677 84.8062 222.516 84.2648 223.49 83.8857C224.465 83.4797 225.521 83.2766 226.658 83.2766C229.501 83.2766 231.639 84.346 233.074 86.4847C233.859 85.483 234.861 84.6979 236.079 84.1294C237.297 83.5609 238.665 83.2766 240.181 83.2766C242.509 83.2766 244.404 84.0346 245.866 85.5507C247.328 87.0668 248.059 89.2326 248.059 92.0481V103.662C248.059 104.258 247.869 104.759 247.49 105.165C247.111 105.544 246.61 105.733 245.988 105.733C245.392 105.733 244.891 105.544 244.485 105.165C244.106 104.759 243.917 104.258 243.917 103.662V92.0481C243.917 90.3425 243.497 89.0837 242.658 88.2715C241.819 87.4322 240.722 87.0126 239.368 87.0126C237.961 87.0126 236.797 87.4999 235.876 88.4745C234.983 89.4491 234.536 90.6945 234.536 92.2105V103.662C234.536 104.258 234.347 104.759 233.967 105.165C233.588 105.544 233.088 105.733 232.465 105.733C231.869 105.733 231.369 105.544 230.962 105.165C230.583 104.759 230.394 104.258 230.394 103.662V92.0481C230.394 90.3425 229.974 89.0837 229.135 88.2715C228.296 87.4322 227.199 87.0126 225.846 87.0126C224.438 87.0126 223.274 87.4999 222.353 88.4745C221.433 89.4491 220.973 90.6945 220.973 92.2105V103.662C220.973 104.258 220.783 104.759 220.404 105.165C220.025 105.544 219.524 105.733 218.902 105.733Z" fill="black"/>
<path d="M257.012 105.733C256.416 105.733 255.916 105.544 255.51 105.165C255.13 104.759 254.941 104.258 254.941 103.662V85.5913C254.941 84.9686 255.13 84.4678 255.51 84.0888C255.916 83.7098 256.416 83.5203 257.012 83.5203C257.635 83.5203 258.136 83.7098 258.515 84.0888C258.894 84.4678 259.083 84.9416 259.083 85.5101C259.787 84.8062 260.626 84.2648 261.601 83.8857C262.575 83.4797 263.631 83.2766 264.768 83.2766C267.611 83.2766 269.75 84.346 271.185 86.4847C271.97 85.483 272.971 84.6979 274.19 84.1294C275.408 83.5609 276.775 83.2766 278.291 83.2766C280.619 83.2766 282.514 84.0346 283.976 85.5507C285.438 87.0668 286.169 89.2326 286.169 92.0481V103.662C286.169 104.258 285.98 104.759 285.601 105.165C285.222 105.544 284.721 105.733 284.098 105.733C283.503 105.733 283.002 105.544 282.596 105.165C282.217 104.759 282.027 104.258 282.027 103.662V92.0481C282.027 90.3425 281.607 89.0837 280.768 88.2715C279.929 87.4322 278.833 87.0126 277.479 87.0126C276.071 87.0126 274.907 87.4999 273.987 88.4745C273.093 89.4491 272.646 90.6945 272.646 92.2105V103.662C272.646 104.258 272.457 104.759 272.078 105.165C271.699 105.544 271.198 105.733 270.575 105.733C269.98 105.733 269.479 105.544 269.073 105.165C268.694 104.759 268.504 104.258 268.504 103.662V92.0481C268.504 90.3425 268.085 89.0837 267.245 88.2715C266.406 87.4322 265.31 87.0126 263.956 87.0126C262.548 87.0126 261.384 87.4999 260.464 88.4745C259.543 89.4491 259.083 90.6945 259.083 92.2105V103.662C259.083 104.258 258.894 104.759 258.515 105.165C258.136 105.544 257.635 105.733 257.012 105.733Z" fill="black"/>
<path d="M303.122 105.855C300.93 105.855 298.994 105.381 297.315 104.434C295.637 103.459 294.31 102.133 293.336 100.454C292.388 98.7486 291.914 96.7993 291.914 94.6065C291.914 92.3865 292.388 90.4373 293.336 88.7588C294.31 87.0532 295.637 85.7267 297.315 84.7791C298.994 83.8045 300.93 83.3172 303.122 83.3172C305.288 83.3172 307.21 83.8045 308.889 84.7791C310.567 85.7267 311.88 87.0532 312.828 88.7588C313.803 90.4373 314.29 92.3865 314.29 94.6065C314.29 96.7993 313.816 98.7486 312.868 100.454C311.921 102.133 310.608 103.459 308.929 104.434C307.251 105.381 305.315 105.855 303.122 105.855ZM303.122 102.2C304.53 102.2 305.775 101.875 306.858 101.226C307.941 100.576 308.781 99.6826 309.376 98.5455C309.999 97.4085 310.31 96.0955 310.31 94.6065C310.31 93.1175 309.999 91.8045 309.376 90.6674C308.781 89.5033 307.941 88.5964 306.858 87.9466C305.775 87.2969 304.53 86.972 303.122 86.972C301.715 86.972 300.469 87.2969 299.386 87.9466C298.303 88.5964 297.451 89.5033 296.828 90.6674C296.205 91.8045 295.894 93.1175 295.894 94.6065C295.894 96.0955 296.205 97.4085 296.828 98.5455C297.451 99.6826 298.303 100.576 299.386 101.226C300.469 101.875 301.715 102.2 303.122 102.2Z" fill="black"/>
<path d="M322.525 105.733C321.93 105.733 321.429 105.544 321.023 105.165C320.644 104.759 320.454 104.258 320.454 103.662V85.5507C320.454 84.928 320.644 84.4272 321.023 84.0482C321.429 83.6692 321.93 83.4797 322.525 83.4797C323.148 83.4797 323.649 83.6692 324.028 84.0482C324.407 84.4272 324.596 84.928 324.596 85.5507V85.9974C325.436 85.1582 326.451 84.4949 327.642 84.0076C328.833 83.5203 330.119 83.2766 331.5 83.2766C333.368 83.2766 335.033 83.6827 336.495 84.4949C337.984 85.28 339.148 86.4441 339.987 87.9872C340.854 89.5304 341.287 91.4254 341.287 93.6725V103.662C341.287 104.258 341.084 104.759 340.678 105.165C340.299 105.544 339.811 105.733 339.216 105.733C338.62 105.733 338.119 105.544 337.713 105.165C337.334 104.759 337.145 104.258 337.145 103.662V93.6725C337.145 91.3713 336.522 89.6928 335.277 88.637C334.058 87.5541 332.529 87.0126 330.688 87.0126C329.551 87.0126 328.522 87.2427 327.602 87.703C326.681 88.1632 325.95 88.7859 325.409 89.571C324.867 90.329 324.596 91.2089 324.596 92.2105V103.662C324.596 104.258 324.407 104.759 324.028 105.165C323.649 105.544 323.148 105.733 322.525 105.733Z" fill="black"/>
<path d="M356.216 105.855C354.321 105.855 352.561 105.571 350.937 105.002C349.34 104.407 348.094 103.662 347.201 102.769C346.795 102.336 346.619 101.848 346.673 101.307C346.754 100.738 347.025 100.278 347.485 99.9262C348.027 99.4931 348.555 99.3171 349.069 99.3983C349.61 99.4524 350.071 99.6826 350.45 100.089C350.91 100.603 351.641 101.09 352.643 101.551C353.671 101.984 354.808 102.2 356.054 102.2C357.624 102.2 358.815 101.943 359.627 101.429C360.467 100.914 360.9 100.251 360.927 99.4389C360.954 98.6267 360.561 97.9229 359.749 97.3273C358.964 96.7317 357.516 96.2444 355.404 95.8653C352.67 95.3239 350.68 94.5117 349.435 93.4288C348.216 92.3459 347.607 91.0194 347.607 89.4492C347.607 88.0684 348.013 86.9314 348.825 86.038C349.638 85.1175 350.68 84.4407 351.952 84.0076C353.225 83.5473 354.551 83.3172 355.932 83.3172C357.719 83.3172 359.302 83.6015 360.683 84.17C362.064 84.7385 363.16 85.5236 363.972 86.5253C364.351 86.9585 364.527 87.4187 364.5 87.906C364.473 88.3662 364.243 88.7588 363.81 89.0837C363.377 89.3815 362.862 89.4762 362.267 89.3679C361.671 89.2596 361.17 89.016 360.764 88.637C360.088 87.9872 359.357 87.5405 358.571 87.2969C357.786 87.0532 356.879 86.9314 355.851 86.9314C354.66 86.9314 353.644 87.1344 352.805 87.5405C351.993 87.9466 351.587 88.5422 351.587 89.3273C351.587 89.8146 351.709 90.2613 351.952 90.6674C352.223 91.0464 352.737 91.3984 353.495 91.7232C354.253 92.021 355.363 92.3188 356.825 92.6166C359.885 93.2122 361.996 94.065 363.16 95.175C364.351 96.2579 364.947 97.598 364.947 99.1953C364.947 100.441 364.609 101.564 363.932 102.566C363.282 103.567 362.307 104.366 361.008 104.962C359.736 105.557 358.138 105.855 356.216 105.855Z" fill="black"/>
<defs>
<filter id="filter0_dd" x="82.0117" y="145.269" width="29.1274" height="29.3018" filterUnits="userSpaceOnUse" color-interpolation-filters="sRGB">
<feFlood flood-opacity="0" result="BackgroundImageFix"/>
<feColorMatrix in="SourceAlpha" type="matrix" values="0 0 0 0 0 0 0 0 0 0 0 0 0 0 0 0 0 0 127 0"/>
<feOffset dx="4" dy="4"/>
<feGaussianBlur stdDeviation="5"/>
<feColorMatrix type="matrix" values="0 0 0 0 1 0 0 0 0 1 0 0 0 0 1 0 0 0 0.7 0"/>
<feBlend mode="normal" in2="BackgroundImageFix" result="effect1_dropShadow"/>
<feColorMatrix in="SourceAlpha" type="matrix" values="0 0 0 0 0 0 0 0 0 0 0 0 0 0 0 0 0 0 127 0"/>
<feOffset dx="-4" dy="-4"/>
<feGaussianBlur stdDeviation="5"/>
<feColorMatrix type="matrix" values="0 0 0 0 1 0 0 0 0 1 0 0 0 0 1 0 0 0 0.7 0"/>
<feBlend mode="normal" in2="effect1_dropShadow" result="effect2_dropShadow"/>
<feBlend mode="normal" in="SourceGraphic" in2="effect2_dropShadow" result="shape"/>
</filter>
<linearGradient id="paint0_linear" x1="87.3964" y1="49.4583" x2="87.3964" y2="145.123" gradientUnits="userSpaceOnUse">
<stop stop-color="#67DE69"/>
<stop offset="1" stop-color="#0047B0"/>
</linearGradient>
<linearGradient id="paint1_linear" x1="96.4667" y1="159.637" x2="96.4667" y2="160.571" gradientUnits="userSpaceOnUse">
<stop stop-color="#67DE69"/>
<stop offset="1" stop-color="#0047B0"/>
</linearGradient>
<linearGradient id="paint2_linear" x1="58.3876" y1="67.4035" x2="58.3876" y2="154.46" gradientUnits="userSpaceOnUse">
<stop stop-color="#67DE69"/>
<stop offset="1" stop-color="#0047B0"/>
</linearGradient>
<linearGradient id="paint3_linear" x1="37.8991" y1="98.2342" x2="37.8991" y2="164.547" gradientUnits="userSpaceOnUse">
<stop stop-color="#67DE69"/>
<stop offset="1" stop-color="#0047B0"/>
</linearGradient>
<linearGradient id="paint4_linear" x1="106.306" y1="25.5758" x2="106.306" y2="79.2856" gradientUnits="userSpaceOnUse">
<stop stop-color="#67DE69"/>
<stop offset="1" stop-color="#0047B0"/>
</linearGradient>
<linearGradient id="paint5_linear" x1="107.211" y1="51.0495" x2="107.211" y2="180.747" gradientUnits="userSpaceOnUse">
<stop stop-color="#67DE69"/>
<stop offset="1" stop-color="#0047B0"/>
</linearGradient>
<linearGradient id="paint6_linear" x1="74.1731" y1="52.5529" x2="74.1731" y2="177.552" gradientUnits="userSpaceOnUse">
<stop stop-color="#67DE69"/>
<stop offset="1" stop-color="#0047B0"/>
</linearGradient>
<linearGradient id="paint7_linear" x1="46.9906" y1="60.2854" x2="46.9906" y2="174.762" gradientUnits="userSpaceOnUse">
<stop stop-color="#67DE69"/>
<stop offset="1" stop-color="#0047B0"/>
</linearGradient>
<linearGradient id="paint8_linear" x1="35.4978" y1="104.876" x2="35.4978" y2="180.89" gradientUnits="userSpaceOnUse">
<stop stop-color="#67DE69"/>
<stop offset="1" stop-color="#0047B0"/>
</linearGradient>
<linearGradient id="paint9_linear" x1="109.793" y1="20.879" x2="111.157" y2="69.5412" gradientUnits="userSpaceOnUse">
<stop stop-color="#67DE69"/>
<stop offset="1" stop-color="#0047B0"/>
</linearGradient>
</defs>
</svg>
