<?xml version="1.0" encoding="UTF-8" standalone="no"?>
<!-- Created with Inkscape (http://www.inkscape.org/) -->

<svg
   xmlns:dc="http://purl.org/dc/elements/1.1/"
   xmlns:cc="http://creativecommons.org/ns#"
   xmlns:rdf="http://www.w3.org/1999/02/22-rdf-syntax-ns#"
   xmlns:svg="http://www.w3.org/2000/svg"
   xmlns="http://www.w3.org/2000/svg"
   xmlns:sodipodi="http://sodipodi.sourceforge.net/DTD/sodipodi-0.dtd"
   xmlns:inkscape="http://www.inkscape.org/namespaces/inkscape"
   version="1.1"
   id="svg2"
   xml:space="preserve"
   width="816"
   height="1056"
   viewBox="0 0 816 1056"
   sodipodi:docname="Giveth dac Logo.svg"
   inkscape:version="0.92.3 (2405546, 2018-03-11)"><metadata
     id="metadata8"><rdf:RDF><cc:Work
         rdf:about=""><dc:format>image/svg+xml</dc:format><dc:type
           rdf:resource="http://purl.org/dc/dcmitype/StillImage" /><dc:title></dc:title></cc:Work></rdf:RDF></metadata><defs
     id="defs6"><clipPath
       clipPathUnits="userSpaceOnUse"
       id="clipPath18"><path
         d="M 0,792 H 612 V 0 H 0 Z"
         id="path16"
         inkscape:connector-curvature="0" /></clipPath></defs><sodipodi:namedview
     pagecolor="#ffffff"
     bordercolor="#666666"
     borderopacity="1"
     objecttolerance="10"
     gridtolerance="10"
     guidetolerance="10"
     inkscape:pageopacity="0"
     inkscape:pageshadow="2"
     inkscape:window-width="640"
     inkscape:window-height="480"
     id="namedview4"
     showgrid="false"
     inkscape:zoom="0.22348485"
     inkscape:cx="408"
     inkscape:cy="528"
     inkscape:window-x="0"
     inkscape:window-y="0"
     inkscape:window-maximized="0"
     inkscape:current-layer="g10" /><g
     id="g10"
     inkscape:groupmode="layer"
     inkscape:label="Giveth dac Logo"
     transform="matrix(1.3333333,0,0,-1.3333333,0,1056)"><g
       id="g12"><g
         id="g14"
         clip-path="url(#clipPath18)"><g
           id="g20"
           transform="translate(75.1973,523.3892)"><path
             d="m 0,0 c 0.448,13.34 5.98,25.573 17.551,36.186 1.175,1.077 2.555,2.03 3.844,3.038 0.915,0.716 2.007,0.814 3.022,0.237 1.627,-0.922 3.374,-1.804 4.678,-2.951 3.261,-2.865 6.48,-5.775 9.4,-8.834 12.255,-12.837 23.09,-26.347 33.73,-39.941 26.316,-33.622 51.01,-67.9 74.63,-102.61 11.152,-16.386 22.098,-32.851 31.84,-49.738 2.431,-4.213 4.529,-8.535 6.667,-12.839 0.642,-1.294 1.035,-2.678 1.301,-4.048 0.255,-1.319 -0.66,-1.895 -2.331,-1.446 -1.378,0.371 -2.78,0.898 -3.876,1.609 -4.158,2.694 -8.369,5.362 -12.244,8.273 -13.048,9.8 -25.074,20.293 -37.046,30.814 -24.215,21.284 -47.562,42.817 -98.085,89.781 -4.094,3.804 -8.248,7.573 -12.296,11.404 C 11.832,-32.592 5.11,-23.286 1.926,-12.678 0.697,-8.587 0.148,-4.44 0,0"
             style="fill:#155388;fill-opacity:1;fill-rule:nonzero;stroke:none"
             id="path22"
             inkscape:connector-curvature="0" /></g><g
           id="g24"
           transform="translate(48.6479,389.4131)"><path
             d="m 0,0 c 0.081,7.71 1.016,16.581 4.033,25.257 0.814,2.339 2.033,4.624 3.385,6.826 1.116,1.816 2.293,2.057 4.76,1.191 1.93,-0.677 3.8,-1.502 5.534,-2.428 7.388,-3.949 14.045,-8.543 20.603,-13.21 22.529,-16.032 43.72,-33.023 64.586,-50.24 20.364,-16.803 40.397,-33.822 59.341,-51.531 4.481,-4.189 8.656,-8.561 12.915,-12.882 0.934,-0.947 1.731,-1.99 2.405,-3.055 1.058,-1.673 0.411,-2.352 -2.112,-2.179 -1.474,0.102 -2.943,0.38 -4.371,0.688 -8.362,1.798 -16.297,4.423 -24.211,7.07 -27.683,9.259 -54.67,19.571 -81.607,29.956 -10.611,4.09 -21.144,8.292 -31.733,12.413 -2.31,0.899 -4.676,1.728 -7.075,2.488 -5.958,1.887 -10.521,4.976 -14.136,8.909 -4.392,4.779 -7.012,10.119 -8.842,15.694 C 0.908,-17.214 0.001,-9.254 0,0"
             style="fill:#6b98a7;fill-opacity:1;fill-rule:nonzero;stroke:none"
             id="path26"
             inkscape:connector-curvature="0" /></g><g
           id="g28"
           transform="translate(221.1646,234.9219)"><path
             d="m 0,0 c -2.016,-1.241 -4.212,-1.294 -6.303,-1.323 -6.352,-0.088 -12.719,-0.243 -19.059,-0.024 -13.147,0.454 -26.286,1.071 -39.417,1.742 -8.47,0.432 -16.929,1.01 -25.376,1.647 -13.365,1.007 -26.717,2.111 -40.072,3.188 -3.431,0.278 -6.846,0.759 -10.285,0.876 -5.857,0.2 -10.211,2.329 -13.984,5.439 -4.221,3.479 -7.79,7.3 -10.872,11.373 -4.093,5.41 -7.704,10.986 -9.52,17.095 -0.618,2.079 -1.464,4.159 -0.635,6.366 1.131,3.014 2.806,4 6.883,3.495 3.86,-0.478 7.718,-1.033 11.504,-1.765 15.384,-2.971 30.324,-6.969 45.22,-11.051 C -84.302,29.49 -56.991,21.354 -30.174,12.332 -21.415,9.386 -12.896,6.037 -4.31,2.811 -2.689,2.202 -1.008,1.515 0,0"
             style="fill:#6b98a7;fill-opacity:1;fill-rule:nonzero;stroke:none"
             id="path30"
             inkscape:connector-curvature="0" /></g><g
           id="g32"
           transform="translate(237.959,192.2881)"><path
             d="m 0,0 c -1.218,-0.934 -1.853,-1.64 -2.678,-2.011 -2.413,-1.084 -4.855,-2.141 -7.369,-3.02 -14.438,-5.048 -29.266,-9.068 -44.112,-13.031 -19.85,-5.3 -39.792,-10.31 -59.966,-14.556 -3.625,-0.763 -7.292,-1.442 -10.981,-1.884 -15.714,-1.883 -30.45,8.263 -34.88,19.405 -0.9,2.263 -1.595,4.585 -0.763,7.057 0.586,1.739 1.659,3.017 3.648,3.44 3.445,0.733 6.891,1.589 10.394,1.947 8.528,0.867 17.078,1.617 25.639,2.157 10.244,0.646 20.509,1.04 30.766,1.518 24.281,1.133 48.58,1.178 72.882,0.817 C -12.763,1.77 -8.111,1.273 -3.464,0.901 -2.509,0.825 -1.588,0.426 0,0"
             style="fill:#6b98a7;fill-opacity:1;fill-rule:nonzero;stroke:none"
             id="path34"
             inkscape:connector-curvature="0" /></g><g
           id="g36"
           transform="translate(349.4287,43.0303)"><path
             d="m 0,0 c -0.806,1.259 -0.669,2.535 -0.247,3.852 2.07,6.454 5.285,12.61 8.994,18.611 2.611,4.224 5.55,8.348 8.6,12.408 1.35,1.798 3.165,3.453 5.08,4.952 2.462,1.928 4.251,1.71 6.387,-0.462 2.165,-2.199 2.996,-4.776 3.564,-7.39 0.871,-4.011 0.708,-8.04 0.034,-12.063 -0.286,-1.711 -1.181,-3.18 -2.845,-4.416 C 21.528,9.522 12.979,4.069 2.556,0.482 2.233,0.372 1.973,0.163 1.684,0 Z"
             style="fill:#5ca43f;fill-opacity:1;fill-rule:nonzero;stroke:none"
             id="path38"
             inkscape:connector-curvature="0" /></g><g
           id="g40"
           transform="translate(259.0957,150.0645)"><path
             d="m 0,0 c -0.713,-1.113 -1.033,-1.909 -1.66,-2.533 -1.451,-1.448 -2.945,-2.889 -4.608,-4.201 -11.899,-9.386 -24.874,-17.873 -38.468,-25.876 -7.103,-4.183 -15.091,-6.165 -23.888,-6.987 -10.334,-0.965 -20.694,-1.085 -31.059,-0.711 -6.427,0.232 -12.871,0.726 -18.981,2.406 -1.806,0.497 -3.617,1.186 -5.103,2.084 -2.306,1.393 -2.376,2.989 -0.17,4.454 1.935,1.285 4.117,2.412 6.371,3.373 7.564,3.223 15.638,5.644 23.769,7.923 26.42,7.401 53.283,13.757 80.734,18.692 2.991,0.537 6.023,0.962 9.055,1.354 C -2.938,0.116 -1.808,0 0,0"
             style="fill:#5ca43f;fill-opacity:1;fill-rule:nonzero;stroke:none"
             id="path42"
             inkscape:connector-curvature="0" /></g><g
           id="g44"
           transform="translate(298.7402,111.8389)"><path
             d="m 0,0 c -0.619,-1.161 -0.904,-2.115 -1.576,-2.881 -2.808,-3.199 -5.589,-6.422 -8.643,-9.489 -6.96,-6.991 -14.715,-13.487 -22.47,-19.995 -6.216,-5.215 -14.023,-7.332 -22.935,-8.006 -7.176,-0.543 -14.359,-0.761 -21.509,0.025 -3.393,0.373 -6.759,1.004 -10.049,1.738 -1.553,0.346 -3.05,1.079 -4.305,1.872 -2.512,1.586 -2.715,3.41 -0.678,5.313 0.979,0.915 2.112,1.813 3.411,2.451 5.056,2.489 10.021,5.128 15.354,7.244 20.623,8.182 42.049,15.005 64.257,20.439 2.208,0.54 4.504,0.887 6.775,1.274 C -1.783,0.085 -1.142,0 0,0"
             style="fill:#5ca43f;fill-opacity:1;fill-rule:nonzero;stroke:none"
             id="path46"
             inkscape:connector-curvature="0" /></g><g
           id="g48"
           transform="translate(335.5098,91.2598)"><path
             d="m 0,0 c -0.667,-1.272 -1.221,-2.587 -2.021,-3.811 -4.71,-7.21 -10.373,-14.006 -16.411,-20.628 -2.149,-2.359 -4.518,-4.605 -6.776,-6.908 -1.922,-1.96 -4.449,-3.334 -7.361,-4.382 -6.446,-2.316 -13.28,-3.674 -20.299,-4.526 -4.882,-0.592 -9.803,-1.124 -14.757,-0.443 -1.359,0.187 -2.752,0.451 -3.982,0.903 -2.325,0.855 -2.939,2.342 -1.62,3.987 0.852,1.063 1.878,2.121 3.126,2.921 4.809,3.083 9.553,6.249 14.657,9.044 14.539,7.961 29.838,15.05 45.699,21.459 2.048,0.827 4.183,1.54 6.314,2.242 0.894,0.294 1.885,0.422 2.832,0.625 C -0.399,0.322 -0.199,0.161 0,0"
             style="fill:#5ca43f;fill-opacity:1;fill-rule:nonzero;stroke:none"
             id="path50"
             inkscape:connector-curvature="0" /></g><g
           id="g52"
           transform="translate(169.4082,625.5322)"><path
             d="m 0,0 c 7.059,13.017 19.285,23.73 37.496,31.406 1.848,0.78 3.867,1.387 5.81,2.071 1.38,0.486 2.654,0.32 3.511,-0.489 1.374,-1.296 2.902,-2.581 3.804,-4.021 2.254,-3.597 4.439,-7.229 6.215,-10.937 7.455,-15.556 12.985,-31.436 18.254,-47.352 13.032,-39.363 23.921,-78.986 33.391,-118.776 4.471,-18.785 8.673,-37.598 11.316,-56.538 0.66,-4.726 0.891,-9.479 1.178,-14.224 0.086,-1.426 -0.154,-2.883 -0.529,-4.293 -0.362,-1.359 -1.672,-1.707 -3.328,-0.866 -1.366,0.694 -2.681,1.548 -3.564,2.509 -3.345,3.643 -6.763,7.274 -9.685,11.064 -9.838,12.759 -18.188,25.954 -26.462,39.166 -23.152,36.966 -44.456,74.398 -66.04,111.759 -2.727,4.72 -5.541,9.42 -8.204,14.156 -5.892,10.475 -8.867,21.237 -7.231,32.432 C -3.437,-8.614 -2.016,-4.403 0,0"
             style="fill:#155388;fill-opacity:1;fill-rule:nonzero;stroke:none"
             id="path54"
             inkscape:connector-curvature="0" /></g><g
           id="g56"
           transform="translate(307.6172,710.6108)"><path
             d="m 0,0 c 13.009,15.082 30.351,27.313 52.548,35.813 2.253,0.862 4.607,1.519 6.916,2.267 1.64,0.531 2.885,0.301 3.417,-0.673 0.851,-1.56 1.868,-3.112 2.169,-4.826 0.753,-4.288 1.419,-8.613 1.63,-13.015 0.884,-18.47 -0.364,-37.268 -1.896,-56.099 -3.791,-46.575 -9.912,-93.395 -17.572,-140.37 -3.617,-22.179 -7.524,-44.38 -13.099,-66.689 -1.39,-5.566 -3.236,-11.153 -5.021,-16.73 -0.537,-1.677 -1.424,-3.38 -2.431,-5.025 -0.97,-1.585 -2.476,-1.956 -3.82,-0.922 -1.108,0.852 -2.094,1.892 -2.585,3.044 -1.86,4.371 -3.803,8.73 -5.161,13.261 -4.576,15.255 -7.423,30.979 -10.184,46.721 -7.725,44.046 -13.335,88.586 -19.265,133.051 -0.75,5.619 -1.598,11.214 -2.275,16.849 -1.497,12.463 0.147,25.179 6.75,38.276 C -7.332,-10.015 -4.015,-5.112 0,0"
             style="fill:#155388;fill-opacity:1;fill-rule:nonzero;stroke:none"
             id="path58"
             inkscape:connector-curvature="0" /></g><g
           id="g60"
           transform="translate(511.7021,384.8037)"><path
             d="m 0,0 -5.517,4.567 c -2.027,1.679 -2.313,4.711 -0.634,6.739 l 11.36,13.723 c 1.679,2.027 4.711,2.313 6.738,0.635 l 5.517,-4.567 c 2.028,-1.679 2.313,-4.711 0.635,-6.739 L 6.739,0.636 C 5.061,-1.393 2.028,-1.678 0,0"
             style="fill:#2c0d54;fill-opacity:1;fill-rule:nonzero;stroke:none"
             id="path62"
             inkscape:connector-curvature="0" /></g><g
           id="g64"
           transform="translate(488.3594,344.708)"><path
             d="m 0,0 c -0.043,3.661 -0.616,8.949 -3.412,13.39 -2.632,4.178 -6.226,6.007 -8.867,6.871 -0.307,-0.114 -0.838,-0.268 -1.306,-0.141 -0.283,0.076 -0.794,0.215 -0.779,0.963 0.017,0.875 0.742,1.945 0.875,2.139 3.536,4.209 7.073,8.418 10.61,12.626 2.065,2.494 4.703,3.747 5.865,2.785 L 20.19,24.391 c 1.163,-0.961 0.424,-3.788 -1.64,-6.282 L 5.864,2.785 C 3.801,0.292 1.161,-0.961 0,0"
             style="fill:#2c0d54;fill-opacity:1;fill-rule:nonzero;stroke:none"
             id="path66"
             inkscape:connector-curvature="0" /></g><g
           id="g68"
           transform="translate(495.6445,362.0059)"><path
             d="m 0,0 -8.857,7.332 c -2.358,1.952 -2.691,5.479 -0.739,7.837 L 0.771,27.69 c 1.952,2.358 5.478,2.691 7.835,0.739 l 8.858,-7.332 c 2.358,-1.952 2.69,-5.479 0.738,-7.837 L 7.837,0.738 C 5.885,-1.62 2.358,-1.952 0,0"
             style="fill:#2c0d54;fill-opacity:1;fill-rule:nonzero;stroke:none"
             id="path70"
             inkscape:connector-curvature="0" /></g><g
           id="g72"
           transform="translate(503.5713,373.2207)"><path
             d="m 0,0 -7.247,5.999 c -2.207,1.827 -2.518,5.128 -0.69,7.335 l 10.819,13.07 c 1.827,2.207 5.128,2.518 7.335,0.691 l 7.247,-5.998 c 2.207,-1.827 2.517,-5.128 0.69,-7.336 L 7.335,0.691 C 5.508,-1.517 2.207,-1.827 0,0"
             style="fill:#2c0d54;fill-opacity:1;fill-rule:nonzero;stroke:none"
             id="path74"
             inkscape:connector-curvature="0" /></g><g
           id="g76"
           transform="translate(522.958,399.8608)"><path
             d="m 0,0 -4.082,3.379 c -1.86,1.54 -2.122,4.322 -0.582,6.182 L 7.2,23.894 c 1.54,1.859 4.321,2.122 6.182,0.582 l 4.082,-3.379 c 1.86,-1.54 2.122,-4.322 0.582,-6.182 L 6.182,0.583 C 4.642,-1.277 1.86,-1.54 0,0"
             style="fill:#2c0d54;fill-opacity:1;fill-rule:nonzero;stroke:none"
             id="path78"
             inkscape:connector-curvature="0" /></g><g
           id="g80"
           transform="translate(529.9814,422.1377)"><path
             d="M 0,0 C 3.701,3.938 31.306,33.198 33.907,30.971 36.357,28.874 15.373,-0.071 11.783,-5.004"
             style="fill:#2c0d54;fill-opacity:1;fill-rule:nonzero;stroke:none"
             id="path82"
             inkscape:connector-curvature="0" /></g><g
           id="g84"
           transform="translate(494.5576,288.7295)"><path
             d="m 0,0 c -6.06,0 -10.971,5.267 -10.971,11.764 0,6.497 4.911,11.763 10.971,11.763 6.059,0 10.971,-5.266 10.971,-11.763 C 10.971,5.267 6.059,0 0,0 m 71.371,-73.979 c -2.795,16.279 -11.821,30.77 -21.529,44.133 -9.708,13.364 -20.385,26.242 -27.305,41.24 -8.599,18.637 -11.7,40.89 -26.807,54.788 -6.559,6.035 -15.391,10.549 -18.353,18.957 -4.598,13.055 -8.042,24.739 -5.398,43.661 -17.498,-13.659 -31.803,-29.031 -28.286,-37.803 -14.573,13.118 -53.532,3.574 -94.024,34.704 -14.362,-25.716 16.432,-49.516 22.03,-47.143 -20.609,-8.737 -51.693,17.528 -51.856,15.184 -2.344,-33.629 21.436,-38.372 22.248,-37.919 -20.795,-11.617 -45.679,4.564 -49.875,11.72 -6.755,-25.98 19.563,-44.016 23.969,-39.213 -13.182,-14.37 -46.183,4.141 -51.021,15.801 -8.605,-23.998 18.877,-47.646 31.81,-50.872 -8.723,-5.625 -33.434,-6.412 -38.245,-13.427 -17.417,-25.4 19.864,-82.073 31.173,-102.227 2.135,-3.803 4.435,-7.515 6.893,-11.12 10.648,-15.607 23.959,-30.33 40.702,-39.497 10.987,-6.015 23.227,-9.791 35.702,-10.952 5.933,-0.553 11.919,-0.514 17.85,0.156 7.212,0.815 14.771,2.756 19.728,8.057 8.62,9.218 5.864,23.814 3.278,36.167 -2.739,13.083 -4.655,26.536 -2.998,39.799 1.656,13.264 7.22,26.438 17.383,35.12 8.709,-14.073 23.338,-24.349 39.531,-27.765 7.219,-1.523 14.809,-1.774 21.553,-4.767 11.314,-5.02 18.217,-16.788 28.881,-23.071 11.475,-6.76 26.932,-6.017 37.706,1.811 13.363,9.71 18.056,28.198 15.26,44.478"
             style="fill:#2c0d54;fill-opacity:1;fill-rule:nonzero;stroke:none"
             id="path86"
             inkscape:connector-curvature="0" /></g></g></g></g></svg>