<svg xmlns="http://www.w3.org/2000/svg" viewBox="0 0 1447.7 2051.04"><defs><style>.cls-1{fill-opacity:0;}.cls-2{fill:#fff;}</style></defs><title>Giveth Logo Full whiteAsset 1</title><g id="Layer_2" data-name="Layer 2"><g id="Layer_1-2" data-name="Layer 1"><g id="Background"><rect class="cls-1" width="1447.63" height="2050.99"/></g><g id="Layer_1-3" data-name="Layer 1"><g id="Layer_4_Image" data-name="Layer 4 Image"><path class="cls-2" d="M1447.51,741.5c-1.42,20.34-1.92,40.81-4.41,61-26.4,214.4-126.4,386.2-301.94,512-131.13,94-279.13,137.87-440.33,132.29C514.42,1440.38,353.71,1371,219,1242c-1.24-1.19-1.21-5.94,0-7.21Q471.07,982.27,723.66,730.26a22.69,22.69,0,0,1,14.48-5.94q354.69-.44,709.37-.25Z"/><path class="cls-2" d="M741.45,0c19.88,1.51,39.8,2.39,59.61,4.53q174,18.86,320.5,114.88a22.33,22.33,0,0,1,1.9,1.6l-61.74,61.61c-13.44,13.41-26.79,26.91-40.39,40.15a6.27,6.27,0,0,1-5.85.51Q868,138.43,698,145.23c-253.61,10.22-474.7,189.83-535.51,436.12-37.64,152.6-16.7,297.57,60.81,434.4.74,1.3.78,4.17-.11,5q-50.47,50.84-101.29,101.42c-.33.33-.74.6-1.51,1.22-3.19-4.94-6.4-9.72-9.42-14.6C27.34,973.67-9.56,826.81,2.38,668.29,27.27,338.76,272.55,68.79,598.93,11.46c33-5.79,66.75-7.26,100.14-10.73L705.89,0Z"/><path class="cls-2" d="M1108.3,436.82a130.15,130.15,0,1,1,38.22,92.38A130.45,130.45,0,0,1,1108.3,436.82Z"/></g><g id="Layer_2_copy_Image" data-name="Layer 2 copy Image"><path class="cls-2" d="M208,1648.1a21.58,21.58,0,0,0,2.37.37c50.36,2.52,93.79,21.41,130.48,55.93.84.84,1.74,1.68,2.42,2.31L315.05,1735c-1.17-1.08-2.64-2.41-4.09-3.77a161.68,161.68,0,0,0-59.46-35,166.16,166.16,0,0,0-29.38-6.66,169.41,169.41,0,0,0-31.52-1,150.57,150.57,0,0,0-33.57,5.81,159.26,159.26,0,0,0-27.15,10.46,152.25,152.25,0,0,0-33.13,21.86c-3.88,3.4-7.71,6.88-11.33,10.55a154.13,154.13,0,0,0-19.31,24.13,161.81,161.81,0,0,0-13.8,26.09,154.92,154.92,0,0,0-10.24,35.82q-1.26,7.83-1.73,15.76a183.32,183.32,0,0,0-.25,18.9,155.19,155.19,0,0,0,5,32.27,161.42,161.42,0,0,0,34.37,65.19,161,161,0,0,0,109,55,179.82,179.82,0,0,0,23.33.16,154.71,154.71,0,0,0,37.06-6.78,157.36,157.36,0,0,0,24-9.59,162.07,162.07,0,0,0,63-55.66,159.19,159.19,0,0,0,20.14-43.19c.41-1.39.84-2.8,1.3-4.55-5.34-.06-10.34,0-15.34,0H160.88l41-41.09H402.61v2.82c-1.11,49.06-17.5,92.33-49.67,129.4-28.72,33.06-64.78,54.21-107.44,64.1a205.4,205.4,0,0,1-34,4.66,180.66,180.66,0,0,1-28.77-.61c-44-4.36-82.7-21-115.66-50.49-32.05-28.67-52.66-64.21-62.27-106.1A185.7,185.7,0,0,1,.1,1857.17c-1.53-53.37,15-100.44,50.11-140.64,28.36-32.48,63.94-53.33,105.91-63.26a204.26,204.26,0,0,1,31.21-4.68c1.53-.12,3.09-.07,4.63-.16.79-.09,1.58-.21,2.36-.37Z"/><path class="cls-2" d="M1447.7,2051h-40.13v-160.1h-121v159.73c-1.59.46-37.33.6-40.07.19V1810.23h40v39c1.68.45,117.13.62,121,.19V1730a13.55,13.55,0,0,1,1.68-.22h37.47c.33,0,.66.06,1,.09Z"/><path class="cls-2" d="M1044.63,1890.65H884.37l-41-41h155A119.47,119.47,0,0,0,972.31,1807c-18.58-19.56-41.22-31.81-67.81-36.32a121.09,121.09,0,0,0-97.22,212.94c24,19.59,51.63,28.82,82.51,27.41s57.28-13.36,79.39-34.56L997,2004.27c-39.71,41.74-115.12,64.52-184.9,29.53a160.63,160.63,0,0,1,111.49-299.28C1005,1755.32,1046.1,1828.69,1044.63,1890.65Z"/><path class="cls-2" d="M564.3,1969.65l138.41-239.73h45.87a1.74,1.74,0,0,1,.11.18c0,.06.06.15,0,.2a6.73,6.73,0,0,1-.32.73L563.71,2050.9h-40V1730.27l.15-.2a.4.4,0,0,1,.17-.09,4.22,4.22,0,0,1,.79-.14h37.87a8.49,8.49,0,0,1,1,.16v239.55Z"/><path class="cls-2" d="M1125.45,2050.88h-40.18V1769c-2.74-.15-5.33,0-7.92-.07h-39.67l-22.76-39H1286.4v39h-161Z"/><path class="cls-2" d="M483.09,2050.88H443.17V1810.23H482.9l.1.1c0,.05.12.1.12.15q0,119.64.08,239.29C483.19,2050.09,483.14,2050.42,483.09,2050.88Z"/><path class="cls-2" d="M463.16,1729.8a19.94,19.94,0,1,1-14.26,5.84A20,20,0,0,1,463.16,1729.8Z"/></g></g></g></g></svg>