<svg xmlns="http://www.w3.org/2000/svg" viewBox="0 0 1804.26 2294.19"><defs><style>.cls-1{fill:#2a6813;}.cls-2{fill-opacity:0;}.cls-3{fill:#fff;}</style></defs><title>Giveth Sticker GreenAsset 5</title><g id="Layer_2" data-name="Layer 2"><g id="Layer_1-2" data-name="Layer 1"><circle class="cls-1" cx="902.13" cy="1033.97" r="902.13"/><g id="Background"><rect class="cls-2" x="122.06" width="1619.29" height="2294.19"/></g><g id="Layer_4_Image" data-name="Layer 4 Image"><path class="cls-3" d="M1621.62,1051.71c-1.41,20.23-1.91,40.57-4.39,60.68-26.24,213.16-125.67,384-300.19,509.08-130.38,93.46-277.53,137.07-437.8,131.53-185.33-6.43-345.12-75.46-479.11-203.68-1.23-1.19-1.2-5.91,0-7.17q250.67-251.06,501.8-501.61a22.55,22.55,0,0,1,14.4-5.91q352.65-.44,705.29-.25Z"/><path class="cls-3" d="M919.63,314.48c19.77,1.5,39.57,2.37,59.26,4.51q173,18.74,318.65,114.21a23,23,0,0,1,1.9,1.59l-61.39,61.26c-13.36,13.33-26.63,26.75-40.16,39.92a6.26,6.26,0,0,1-5.82.51q-146.64-84.37-315.69-77.61C624.24,469,404.42,647.61,344,892.48c-37.43,151.72-16.61,295.86,60.45,431.9.74,1.29.78,4.15-.11,5Q354.12,1380,303.6,1430.24c-.33.33-.74.6-1.5,1.22-3.17-4.91-6.36-9.66-9.36-14.52-83.1-134.4-119.79-280.41-107.92-438,24.74-327.63,268.61-596,593.11-653.05,32.8-5.76,66.36-7.21,99.56-10.67l6.78-.72Z"/><path class="cls-3" d="M1284.37,748.79a129.38,129.38,0,1,1,38,91.85A129.68,129.68,0,0,1,1284.37,748.79Z"/></g><g id="Layer_2_copy_Image" data-name="Layer 2 copy Image"><path class="cls-1" d="M1035.44,1079.75a7.84,7.84,0,0,0,.83.13,69.52,69.52,0,0,1,45.46,19.49c.29.29.61.58.85.8l-9.84,9.84-1.42-1.32a56.32,56.32,0,0,0-20.72-12.2,57.73,57.73,0,0,0-10.24-2.32,58.77,58.77,0,0,0-11-.34,52.39,52.39,0,0,0-11.7,2,55.77,55.77,0,0,0-9.46,3.64,53,53,0,0,0-11.55,7.62c-1.35,1.18-2.68,2.4-3.95,3.68a53.64,53.64,0,0,0-6.73,8.41,56.28,56.28,0,0,0-4.81,9.09,54,54,0,0,0-3.57,12.48,55.16,55.16,0,0,0-.6,5.49,63.69,63.69,0,0,0-.09,6.59,54.26,54.26,0,0,0,1.74,11.24,57,57,0,0,0,3.82,10.36,56.23,56.23,0,0,0,46.14,31.52,62.76,62.76,0,0,0,8.13.06,53.91,53.91,0,0,0,12.91-2.36,54.78,54.78,0,0,0,8.38-3.34,56.45,56.45,0,0,0,22-19.39,55.47,55.47,0,0,0,7-15c.14-.48.29-1,.45-1.58-1.86,0-3.6,0-5.35,0H1019l14.3-14.32h69.92v1a70.24,70.24,0,0,1-54.74,67.42,71.33,71.33,0,0,1-11.86,1.63,63.09,63.09,0,0,1-10-.21,70.23,70.23,0,0,1-62-54.56,64.72,64.72,0,0,1-1.63-12.64c-.53-18.6,5.23-35,17.46-49a68.83,68.83,0,0,1,36.9-22,71.22,71.22,0,0,1,10.87-1.63c.54,0,1.08,0,1.61-.06a8.19,8.19,0,0,0,.82-.13Z"/><path class="cls-1" d="M1467.37,1220.12h-14v-55.78h-42.15V1220c-.55.16-13,.21-14,.06v-83.82h13.93v13.58c.58.16,40.81.22,42.17.07v-41.6a4.85,4.85,0,0,1,.58-.08H1467a3.46,3.46,0,0,1,.35,0Z"/><path class="cls-1" d="M1326.93,1164.26h-55.84L1256.81,1150h54a42.21,42.21,0,0,0-32.71-27.53,42.19,42.19,0,0,0-33.87,74.19,41.15,41.15,0,0,0,28.75,9.55,41.63,41.63,0,0,0,27.66-12l9.69,9.7c-13.84,14.54-40.11,22.48-64.43,10.29a56,56,0,0,1,38.84-104.28C1313.12,1117.1,1327.44,1142.67,1326.93,1164.26Z"/><path class="cls-1" d="M1159.57,1191.78l48.23-83.53h16l0,.06s0,0,0,.07a1.94,1.94,0,0,1-.11.25l-64.34,111.45h-13.92V1108.38l.05-.07.06,0,.28,0H1159l.35.06v83.46Z"/><path class="cls-1" d="M1355.09,1220.08h-14v-98.22c-1-.05-1.86,0-2.76,0h-13.82l-7.93-13.59h94.59v13.58h-56.08Z"/><path class="cls-1" d="M1131.28,1220.08h-13.91v-83.85h13.84l0,0s0,0,0,.05q0,41.69,0,83.37C1131.31,1219.81,1131.29,1219.92,1131.28,1220.08Z"/><path class="cls-1" d="M1124.33,1108.21a6.95,6.95,0,1,1-5,2A7,7,0,0,1,1124.33,1108.21Z"/></g></g></g></svg>