<svg width="274" height="229" viewBox="0 0 274 229" fill="none" xmlns="http://www.w3.org/2000/svg">
<path d="M1.3143 52.8965C2.94507 51.4785 4.51663 49.9819 6.21635 48.6553C24.2627 34.5657 44.632 29.1842 67.2146 32.9109C84.086 35.6928 98.4647 43.4958 110.127 55.9941C123.615 70.4437 130.459 87.6867 130.89 107.453C130.894 107.635 130.536 107.989 130.35 107.994C105.137 108.014 79.9262 108.011 54.716 107.983C54.1444 107.958 53.6005 107.729 53.182 107.339C35.4401 89.6413 17.7142 71.9279 0.0042689 54.199L1.3143 52.8965Z" fill="#2FC8E0"/>
<path d="M272.193 176.043C270.562 177.461 268.991 178.958 267.291 180.284C249.245 194.374 228.876 199.755 206.293 196.029C189.422 193.247 175.043 185.444 163.381 172.945C149.892 158.496 143.048 141.253 142.618 121.486C142.614 121.304 142.972 120.95 143.158 120.946C168.37 120.925 193.581 120.929 218.792 120.957C219.363 120.982 219.907 121.21 220.326 121.6C238.067 139.298 255.793 157.012 273.503 174.741L272.193 176.043Z" fill="#2FC8E0"/>
<path d="M272.193 52.8965C270.563 51.4785 268.991 49.9819 267.291 48.6553C249.245 34.5657 228.876 29.1842 206.293 32.9109C189.422 35.6928 175.043 43.4958 163.381 55.9941C149.892 70.4437 143.048 87.6867 142.618 107.453C142.614 107.635 142.972 107.989 143.158 107.994C168.37 108.014 193.581 108.011 218.792 107.983C219.363 107.958 219.907 107.729 220.326 107.339C238.067 89.6413 255.793 71.9279 273.503 54.199L272.193 52.8965Z" fill="#2FC8E0"/>
<path d="M1.31429 176.043C2.94506 177.461 4.51663 178.958 6.21634 180.284C24.2627 194.374 44.632 199.755 67.2146 196.029C84.086 193.247 98.4647 185.444 110.127 172.945C123.615 158.496 130.459 141.253 130.89 121.486C130.894 121.304 130.536 120.95 130.35 120.946C105.137 120.925 79.9262 120.929 54.716 120.957C54.1444 120.982 53.6005 121.21 53.182 121.6C35.4401 139.298 17.7142 157.012 0.00426113 174.74L1.31429 176.043Z" fill="#2FC8E0"/>
</svg>
