<svg width="185" height="185" viewBox="0 0 185 185" fill="none" xmlns="http://www.w3.org/2000/svg">
<path d="M183.026 111.733C178.665 132.578 167.215 151.268 150.625 164.622C134.035 177.976 113.33 185.167 92.0342 184.973C70.7384 184.779 50.168 177.211 33.8241 163.557C17.4803 149.903 6.37313 131.008 2.39321 110.086C-1.58672 89.1646 1.80654 67.5105 11.9954 48.8093C22.1843 30.1081 38.5392 15.5158 58.2762 7.51591C78.0133 -0.483945 99.9126 -1.39685 120.247 4.93256C140.581 11.262 158.094 24.4425 169.804 42.2308C176.47 52.3773 181.068 63.7388 183.337 75.665C185.606 87.5912 185.5 99.8477 183.026 111.733Z" fill="#165FFA"/>
</svg>
