<svg width="183" height="183" viewBox="0 0 183 183" fill="none" xmlns="http://www.w3.org/2000/svg">
<path d="M177 91.6642C176.962 111.434 170.074 130.58 157.509 145.843C144.943 161.105 127.477 171.542 108.082 175.376C88.6878 179.211 68.564 176.205 51.1359 166.872C33.7079 157.539 20.0527 142.455 12.4947 124.186C4.93675 105.918 3.94299 85.5957 9.68263 66.6774C15.4223 47.7591 27.5406 31.4144 43.975 20.4254C60.4093 9.43636 80.1439 4.48214 99.8199 6.40591C119.496 8.32968 137.897 17.0126 151.892 30.9767C159.862 38.9445 166.182 48.4061 170.49 58.8197C174.799 69.2334 177.011 80.3945 177 91.6642V91.6642Z" stroke="#FED670" stroke-width="12"/>
</svg>
