<svg width="466" height="505" viewBox="0 0 466 505" fill="none" xmlns="http://www.w3.org/2000/svg">
<path d="M307.643 171.589C312.702 173.99 317.835 176.23 322.813 178.79C351.953 193.788 376.096 214.604 395.242 241.236C395.365 241.434 395.478 241.638 395.579 241.847L373.179 251.768C368.303 253.927 363.441 256.119 358.54 258.217C358.259 258.276 357.967 258.265 357.691 258.186C357.415 258.106 357.162 257.96 356.955 257.761C336.886 233.014 311.765 215.516 281.592 205.269C214.078 182.362 138.002 207.136 97.2158 265.558C71.9549 301.76 62.8202 341.872 69.3363 385.558C69.3991 385.973 69.1201 386.73 68.8031 386.857C56.5637 392.347 44.3024 397.802 32.0193 403.223C31.8995 403.276 31.7648 403.305 31.5004 403.39C31.1625 401.773 30.8032 400.197 30.5038 398.613C22.2214 354.762 27.3629 312.545 46.4838 272.198C86.2504 188.333 177.783 142.314 269.126 160.214C278.361 162.026 287.357 165.045 296.46 167.504L298.321 168.001L307.643 171.589Z" fill="#2FC8E0"/>
<path d="M158.357 333.002C153.298 330.601 148.165 328.36 143.187 325.801C114.047 310.802 89.9035 289.987 70.758 263.354C70.6345 263.157 70.5221 262.953 70.4213 262.743L92.8212 252.823C97.6973 250.664 102.559 248.472 107.46 246.373C107.741 246.314 108.032 246.325 108.309 246.405C108.585 246.484 108.838 246.63 109.045 246.83C129.114 271.577 154.235 289.074 184.408 299.322C251.922 322.229 327.998 297.455 368.784 239.032C394.045 202.83 403.18 162.718 396.664 119.033C396.601 118.617 396.88 117.861 397.197 117.733C409.436 112.244 421.698 106.789 433.981 101.368C434.1 101.315 434.235 101.285 434.5 101.201C434.837 102.817 435.197 104.394 435.496 105.978C443.779 149.829 438.637 192.046 419.516 232.393C379.75 316.258 288.217 362.277 196.874 344.376C187.639 342.565 178.643 339.545 169.54 337.086L167.679 336.589L158.357 333.002Z" fill="#2FC8E0"/>
<path d="M257.643 259.074C256.54 264.349 253.642 269.079 249.444 272.458C245.246 275.838 240.006 277.658 234.617 277.608C229.227 277.559 224.022 275.644 219.886 272.189C215.75 268.733 212.939 263.951 211.931 258.657C210.924 253.362 211.783 247.883 214.361 243.15C216.94 238.417 221.079 234.724 226.074 232.7C231.068 230.675 236.61 230.444 241.756 232.046C246.902 233.648 251.334 236.983 254.298 241.485C255.984 244.053 257.148 246.928 257.722 249.946C258.296 252.964 258.27 256.066 257.643 259.074Z" fill="#FED670" stroke="#FED670" stroke-width="20"/>
</svg>
