<svg width="393" height="394" viewBox="0 0 393 394" fill="none" xmlns="http://www.w3.org/2000/svg">
<path d="M217.447 203.372C215.102 207.417 211.427 210.524 207.049 212.164C202.671 213.804 197.859 213.876 193.434 212.368C189.008 210.86 185.242 207.865 182.776 203.893C180.31 199.92 179.297 195.216 179.91 190.581C180.522 185.946 182.721 181.666 186.134 178.47C189.546 175.274 193.961 173.36 198.626 173.052C203.292 172.745 207.919 174.064 211.722 176.784C215.524 179.505 218.266 183.459 219.481 187.974C220.171 190.548 220.347 193.234 219.998 195.876C219.649 198.518 218.782 201.066 217.447 203.372Z" fill="white" stroke="white" stroke-width="20"/>
<path d="M118.464 36.2115C120.501 36.3537 122.55 36.4037 124.571 36.653C146.036 39.2958 163.236 49.3067 175.831 66.8798C185.242 80.007 189.634 94.8231 189.075 110.961C188.433 129.622 181.487 145.71 168.572 159.201C168.453 159.325 167.978 159.322 167.85 159.201C150.996 142.375 134.159 125.533 117.339 108.675C116.974 108.276 116.763 107.761 116.744 107.221C116.715 83.5488 116.706 59.8775 116.719 36.2065L118.464 36.2115Z" fill="#FED670"/>
<path d="M36.2094 118.462C36.3516 120.499 36.4016 122.548 36.6509 124.569C39.2938 146.034 49.3046 163.234 66.8777 175.829C80.0049 185.24 94.821 189.632 110.958 189.073C129.62 188.431 145.708 181.485 159.199 168.57C159.323 168.451 159.32 167.976 159.199 167.849C142.373 150.994 125.531 134.157 108.673 117.337C108.274 116.972 107.759 116.761 107.218 116.742C83.5468 116.713 59.8754 116.704 36.2044 116.717L36.2094 118.462Z" fill="#FED670"/>
<path d="M274.535 357.096C272.499 356.954 270.45 356.904 268.428 356.655C246.963 354.012 229.763 344.001 217.169 326.428C207.758 313.301 203.366 298.485 203.924 282.347C204.566 263.686 211.512 247.598 224.427 234.107C224.546 233.983 225.022 233.986 225.149 234.107C242.003 250.933 258.841 267.775 275.661 284.633C276.026 285.031 276.237 285.547 276.255 286.087C276.285 309.759 276.293 333.43 276.281 357.101L274.535 357.096Z" fill="#FED670"/>
<path d="M356.79 274.846C356.648 272.809 356.598 270.76 356.349 268.739C353.706 247.274 343.695 230.074 326.122 217.479C312.995 208.068 298.179 203.676 282.041 204.235C263.38 204.876 247.291 211.822 233.801 224.737C233.677 224.857 233.68 225.332 233.801 225.459C250.627 242.314 267.469 259.151 284.327 275.971C284.725 276.336 285.241 276.547 285.781 276.566C309.453 276.595 333.124 276.603 356.795 276.591L356.79 274.846Z" fill="#FED670"/>
<path d="M274.535 36.2115C272.499 36.3537 270.45 36.4037 268.428 36.653C246.963 39.2958 229.763 49.3067 217.169 66.8798C207.758 80.007 203.366 94.8231 203.924 110.961C204.566 129.622 211.512 145.71 224.427 159.201C224.546 159.325 225.022 159.322 225.149 159.201C242.003 142.375 258.841 125.533 275.661 108.675C276.026 108.276 276.237 107.761 276.255 107.221C276.285 83.5488 276.293 59.8775 276.281 36.2065L274.535 36.2115Z" fill="#FED670"/>
<path d="M356.79 118.462C356.648 120.499 356.598 122.548 356.349 124.569C353.706 146.034 343.695 163.234 326.122 175.829C312.995 185.24 298.179 189.632 282.041 189.073C263.38 188.431 247.291 181.485 233.801 168.57C233.677 168.451 233.68 167.976 233.801 167.849C250.627 150.994 267.469 134.157 284.327 117.337C284.725 116.972 285.241 116.761 285.781 116.742C309.453 116.713 333.124 116.704 356.795 116.717L356.79 118.462Z" fill="#FED670"/>
<path d="M118.464 357.096C120.5 356.954 122.55 356.904 124.571 356.655C146.036 354.012 163.236 344.001 175.831 326.428C185.242 313.301 189.634 298.485 189.075 282.347C188.433 263.686 181.487 247.598 168.572 234.107C168.453 233.983 167.978 233.986 167.85 234.107C150.996 250.933 134.159 267.775 117.339 284.633C116.974 285.031 116.763 285.547 116.744 286.087C116.715 309.759 116.706 333.43 116.719 357.101L118.464 357.096Z" fill="#FED670"/>
<path d="M36.2096 274.846C36.3517 272.809 36.4018 270.76 36.651 268.739C39.2939 247.274 49.3048 230.074 66.8778 217.479C80.005 208.068 94.8211 203.676 110.959 204.235C129.62 204.876 145.708 211.822 159.199 224.737C159.323 224.857 159.32 225.332 159.199 225.459C142.373 242.314 125.531 259.151 108.673 275.971C108.274 276.336 107.759 276.547 107.219 276.566C83.5469 276.595 59.8755 276.603 36.2045 276.591L36.2096 274.846Z" fill="#FED670"/>
</svg>
