<svg width="1514" height="925" viewBox="0 0 1514 925" fill="none" xmlns="http://www.w3.org/2000/svg">
<path d="M154.948 277.552C154.948 288.14 153.183 297.981 149.654 307.076C146.125 316.17 141.238 324.043 134.994 330.695C128.75 337.21 121.216 342.368 112.393 346.169C103.706 349.834 94.272 351.666 84.0914 351.666C73.6394 351.666 63.7982 349.766 54.5678 345.965C45.4732 342.165 37.5323 337.006 30.7453 330.491C24.094 323.84 18.8001 316.035 14.8636 307.076C11.0629 298.117 9.1625 288.479 9.1625 278.163C9.1625 267.847 11.0629 258.209 14.8636 249.25C18.8001 240.291 24.094 232.554 30.7453 226.038C37.3966 219.387 45.2695 214.161 54.3642 210.36C63.4588 206.56 73.1643 204.659 83.4806 204.659C95.29 204.659 106.556 207.103 117.28 211.989C128.004 216.74 136.691 223.527 143.342 232.35L118.705 253.73C114.226 247.757 108.932 243.277 102.824 240.291C96.851 237.305 90.4033 235.812 83.4806 235.812C78.0509 235.812 72.9607 236.898 68.2097 239.07C63.5945 241.241 59.5902 244.228 56.1967 248.028C52.8032 251.693 50.1562 256.173 48.2558 261.467C46.3555 266.625 45.4053 272.19 45.4053 278.163C45.4053 284.271 46.3555 289.972 48.2558 295.266C50.2919 300.424 53.0746 304.904 56.6039 308.705C60.1332 312.505 64.2732 315.492 69.0242 317.663C73.9108 319.835 79.1369 320.921 84.7022 320.921C92.7109 320.921 99.6337 318.681 105.471 314.202C111.443 309.723 115.38 304.021 117.28 297.099H81.6481V267.575H154.948V277.552ZM171.779 349.427V206.899H206.8V349.427H171.779ZM269.638 349.427L214.867 206.899H252.739L290.407 312.98L328.686 206.899H365.132L309.546 349.427H269.638Z" fill="#5326EC"/>
<path d="M521.448 277.552C521.448 288.14 519.683 297.981 516.154 307.076C512.625 316.17 507.738 324.043 501.494 330.695C495.25 337.21 487.716 342.368 478.893 346.169C470.206 349.834 460.772 351.666 450.591 351.666C440.139 351.666 430.298 349.766 421.068 345.965C411.973 342.165 404.032 337.006 397.245 330.491C390.594 323.84 385.3 316.035 381.364 307.076C377.563 298.117 375.663 288.479 375.663 278.163C375.663 267.847 377.563 258.209 381.364 249.25C385.3 240.291 390.594 232.554 397.245 226.038C403.897 219.387 411.77 214.161 420.864 210.36C429.959 206.56 439.664 204.659 449.981 204.659C461.79 204.659 473.056 207.103 483.78 211.989C494.504 216.74 503.191 223.527 509.842 232.35L485.205 253.73C480.726 247.757 475.432 243.277 469.324 240.291C463.351 237.305 456.903 235.812 449.981 235.812C444.551 235.812 439.461 236.898 434.71 239.07C430.095 241.241 426.09 244.228 422.697 248.028C419.303 251.693 416.656 256.173 414.756 261.467C412.855 266.625 411.905 272.19 411.905 278.163C411.905 284.271 412.855 289.972 414.756 295.266C416.792 300.424 419.575 304.904 423.104 308.705C426.633 312.505 430.773 315.492 435.524 317.663C440.411 319.835 445.637 320.921 451.202 320.921C459.211 320.921 466.134 318.681 471.971 314.202C477.943 309.723 481.88 304.021 483.78 297.099H448.148V267.575H521.448V277.552ZM538.279 349.427V206.899H573.3V349.427H538.279ZM636.138 349.427L581.367 206.899H619.239L656.907 312.98L695.186 206.899H731.632L676.046 349.427H636.138Z" fill="#5326EC"/>
<path d="M887.948 277.552C887.948 288.14 886.183 297.981 882.654 307.076C879.125 316.17 874.238 324.043 867.994 330.695C861.75 337.21 854.216 342.368 845.393 346.169C836.706 349.834 827.272 351.666 817.091 351.666C806.639 351.666 796.798 349.766 787.568 345.965C778.473 342.165 770.532 337.006 763.745 330.491C757.094 323.84 751.8 316.035 747.864 307.076C744.063 298.117 742.163 288.479 742.163 278.163C742.163 267.847 744.063 258.209 747.864 249.25C751.8 240.291 757.094 232.554 763.745 226.038C770.397 219.387 778.27 214.161 787.364 210.36C796.459 206.56 806.164 204.659 816.481 204.659C828.29 204.659 839.556 207.103 850.28 211.989C861.004 216.74 869.691 223.527 876.342 232.35L851.705 253.73C847.226 247.757 841.932 243.277 835.824 240.291C829.851 237.305 823.403 235.812 816.481 235.812C811.051 235.812 805.961 236.898 801.21 239.07C796.595 241.241 792.59 244.228 789.197 248.028C785.803 251.693 783.156 256.173 781.256 261.467C779.355 266.625 778.405 272.19 778.405 278.163C778.405 284.271 779.355 289.972 781.256 295.266C783.292 300.424 786.075 304.904 789.604 308.705C793.133 312.505 797.273 315.492 802.024 317.663C806.911 319.835 812.137 320.921 817.702 320.921C825.711 320.921 832.634 318.681 838.471 314.202C844.443 309.723 848.38 304.021 850.28 297.099H814.648V267.575H887.948V277.552ZM904.779 349.427V206.899H939.8V349.427H904.779ZM1002.64 349.427L947.867 206.899H985.739L1023.41 312.98L1061.69 206.899H1098.13L1042.55 349.427H1002.64Z" fill="#5326EC"/>
<path d="M1254.45 277.552C1254.45 288.14 1252.68 297.981 1249.15 307.076C1245.62 316.17 1240.74 324.043 1234.49 330.695C1228.25 337.21 1220.72 342.368 1211.89 346.169C1203.21 349.834 1193.77 351.666 1183.59 351.666C1173.14 351.666 1163.3 349.766 1154.07 345.965C1144.97 342.165 1137.03 337.006 1130.25 330.491C1123.59 323.84 1118.3 316.035 1114.36 307.076C1110.56 298.117 1108.66 288.479 1108.66 278.163C1108.66 267.847 1110.56 258.209 1114.36 249.25C1118.3 240.291 1123.59 232.554 1130.25 226.038C1136.9 219.387 1144.77 214.161 1153.86 210.36C1162.96 206.56 1172.66 204.659 1182.98 204.659C1194.79 204.659 1206.06 207.103 1216.78 211.989C1227.5 216.74 1236.19 223.527 1242.84 232.35L1218.21 253.73C1213.73 247.757 1208.43 243.277 1202.32 240.291C1196.35 237.305 1189.9 235.812 1182.98 235.812C1177.55 235.812 1172.46 236.898 1167.71 239.07C1163.09 241.241 1159.09 244.228 1155.7 248.028C1152.3 251.693 1149.66 256.173 1147.76 261.467C1145.86 266.625 1144.91 272.19 1144.91 278.163C1144.91 284.271 1145.86 289.972 1147.76 295.266C1149.79 300.424 1152.57 304.904 1156.1 308.705C1159.63 312.505 1163.77 315.492 1168.52 317.663C1173.41 319.835 1178.64 320.921 1184.2 320.921C1192.21 320.921 1199.13 318.681 1204.97 314.202C1210.94 309.723 1214.88 304.021 1216.78 297.099H1181.15V267.575H1254.45V277.552ZM1271.28 349.427V206.899H1306.3V349.427H1271.28ZM1369.14 349.427L1314.37 206.899H1352.24L1389.91 312.98L1428.19 206.899H1464.63L1409.05 349.427H1369.14Z" fill="#5326EC"/>
<path d="M154.948 103.125C154.948 113.713 153.183 123.554 149.654 132.649C146.125 141.744 141.238 149.616 134.994 156.268C128.75 162.783 121.216 167.941 112.393 171.742C103.706 175.407 94.272 177.24 84.0914 177.24C73.6394 177.24 63.7982 175.339 54.5678 171.539C45.4732 167.738 37.5323 162.58 30.7453 156.064C24.094 149.413 18.8001 141.608 14.8636 132.649C11.0629 123.69 9.1625 114.052 9.1625 103.736C9.1625 93.4198 11.0629 83.7822 14.8636 74.8233C18.8001 65.8644 24.094 58.1272 30.7453 51.6117C37.3966 44.9604 45.2695 39.7343 54.3642 35.9336C63.4588 32.1329 73.1643 30.2325 83.4806 30.2325C95.29 30.2325 106.556 32.6758 117.28 37.5625C128.004 42.3134 136.691 49.1005 143.342 57.9236L118.705 79.3028C114.226 73.3302 108.932 68.8507 102.824 65.8644C96.851 62.8781 90.4033 61.385 83.4806 61.385C78.0509 61.385 72.9607 62.4709 68.2097 64.6428C63.5945 66.8146 59.5902 69.8009 56.1967 73.6017C52.8032 77.2667 50.1562 81.7461 48.2558 87.04C46.3555 92.1981 45.4053 97.7635 45.4053 103.736C45.4053 109.844 46.3555 115.546 48.2558 120.839C50.2919 125.998 53.0746 130.477 56.6039 134.278C60.1332 138.079 64.2732 141.065 69.0242 143.237C73.9108 145.409 79.1369 146.494 84.7022 146.494C92.7109 146.494 99.6337 144.255 105.471 139.775C111.443 135.296 115.38 129.595 117.28 122.672H81.6481V93.1483H154.948V103.125ZM171.779 175V32.4722H206.8V175H171.779ZM269.638 175L214.867 32.4722H252.739L290.407 138.554L328.686 32.4722H365.132L309.546 175H269.638Z" fill="#5326EC"/>
<path d="M521.448 103.125C521.448 113.713 519.683 123.554 516.154 132.649C512.625 141.744 507.738 149.616 501.494 156.268C495.25 162.783 487.716 167.941 478.893 171.742C470.206 175.407 460.772 177.24 450.591 177.24C440.139 177.24 430.298 175.339 421.068 171.539C411.973 167.738 404.032 162.58 397.245 156.064C390.594 149.413 385.3 141.608 381.364 132.649C377.563 123.69 375.663 114.052 375.663 103.736C375.663 93.4198 377.563 83.7822 381.364 74.8233C385.3 65.8644 390.594 58.1272 397.245 51.6117C403.897 44.9604 411.77 39.7343 420.864 35.9336C429.959 32.1329 439.664 30.2325 449.981 30.2325C461.79 30.2325 473.056 32.6758 483.78 37.5625C494.504 42.3134 503.191 49.1005 509.842 57.9236L485.205 79.3028C480.726 73.3302 475.432 68.8507 469.324 65.8644C463.351 62.8781 456.903 61.385 449.981 61.385C444.551 61.385 439.461 62.4709 434.71 64.6428C430.095 66.8146 426.09 69.8009 422.697 73.6017C419.303 77.2667 416.656 81.7461 414.756 87.04C412.855 92.1981 411.905 97.7635 411.905 103.736C411.905 109.844 412.855 115.546 414.756 120.839C416.792 125.998 419.575 130.477 423.104 134.278C426.633 138.079 430.773 141.065 435.524 143.237C440.411 145.409 445.637 146.494 451.202 146.494C459.211 146.494 466.134 144.255 471.971 139.775C477.943 135.296 481.88 129.595 483.78 122.672H448.148V93.1483H521.448V103.125ZM538.279 175V32.4722H573.3V175H538.279ZM636.138 175L581.367 32.4722H619.239L656.907 138.554L695.186 32.4722H731.632L676.046 175H636.138Z" fill="#5326EC"/>
<path d="M887.948 103.125C887.948 113.713 886.183 123.554 882.654 132.649C879.125 141.744 874.238 149.616 867.994 156.268C861.75 162.783 854.216 167.941 845.393 171.742C836.706 175.407 827.272 177.24 817.091 177.24C806.639 177.24 796.798 175.339 787.568 171.539C778.473 167.738 770.532 162.58 763.745 156.064C757.094 149.413 751.8 141.608 747.864 132.649C744.063 123.69 742.163 114.052 742.163 103.736C742.163 93.4198 744.063 83.7822 747.864 74.8233C751.8 65.8644 757.094 58.1272 763.745 51.6117C770.397 44.9604 778.27 39.7343 787.364 35.9336C796.459 32.1329 806.164 30.2325 816.481 30.2325C828.29 30.2325 839.556 32.6758 850.28 37.5625C861.004 42.3134 869.691 49.1005 876.342 57.9236L851.705 79.3028C847.226 73.3302 841.932 68.8507 835.824 65.8644C829.851 62.8781 823.403 61.385 816.481 61.385C811.051 61.385 805.961 62.4709 801.21 64.6428C796.595 66.8146 792.59 69.8009 789.197 73.6017C785.803 77.2667 783.156 81.7461 781.256 87.04C779.355 92.1981 778.405 97.7635 778.405 103.736C778.405 109.844 779.355 115.546 781.256 120.839C783.292 125.998 786.075 130.477 789.604 134.278C793.133 138.079 797.273 141.065 802.024 143.237C806.911 145.409 812.137 146.494 817.702 146.494C825.711 146.494 832.634 144.255 838.471 139.775C844.443 135.296 848.38 129.595 850.28 122.672H814.648V93.1483H887.948V103.125ZM904.779 175V32.4722H939.8V175H904.779ZM1002.64 175L947.867 32.4722H985.739L1023.41 138.554L1061.69 32.4722H1098.13L1042.55 175H1002.64Z" fill="#5326EC"/>
<path d="M1254.45 103.125C1254.45 113.713 1252.68 123.554 1249.15 132.649C1245.62 141.744 1240.74 149.616 1234.49 156.268C1228.25 162.783 1220.72 167.941 1211.89 171.742C1203.21 175.407 1193.77 177.24 1183.59 177.24C1173.14 177.24 1163.3 175.339 1154.07 171.539C1144.97 167.738 1137.03 162.58 1130.25 156.064C1123.59 149.413 1118.3 141.608 1114.36 132.649C1110.56 123.69 1108.66 114.052 1108.66 103.736C1108.66 93.4198 1110.56 83.7822 1114.36 74.8233C1118.3 65.8644 1123.59 58.1272 1130.25 51.6117C1136.9 44.9604 1144.77 39.7343 1153.86 35.9336C1162.96 32.1329 1172.66 30.2325 1182.98 30.2325C1194.79 30.2325 1206.06 32.6758 1216.78 37.5625C1227.5 42.3134 1236.19 49.1005 1242.84 57.9236L1218.21 79.3028C1213.73 73.3302 1208.43 68.8507 1202.32 65.8644C1196.35 62.8781 1189.9 61.385 1182.98 61.385C1177.55 61.385 1172.46 62.4709 1167.71 64.6428C1163.09 66.8146 1159.09 69.8009 1155.7 73.6017C1152.3 77.2667 1149.66 81.7461 1147.76 87.04C1145.86 92.1981 1144.91 97.7635 1144.91 103.736C1144.91 109.844 1145.86 115.546 1147.76 120.839C1149.79 125.998 1152.57 130.477 1156.1 134.278C1159.63 138.079 1163.77 141.065 1168.52 143.237C1173.41 145.409 1178.64 146.494 1184.2 146.494C1192.21 146.494 1199.13 144.255 1204.97 139.775C1210.94 135.296 1214.88 129.595 1216.78 122.672H1181.15V93.1483H1254.45V103.125ZM1271.28 175V32.4722H1306.3V175H1271.28ZM1369.14 175L1314.37 32.4722H1352.24L1389.91 138.554L1428.19 32.4722H1464.63L1409.05 175H1369.14Z" fill="#5326EC"/>
<path d="M154.948 451.979C154.948 462.567 153.183 472.408 149.654 481.503C146.125 490.597 141.238 498.47 134.994 505.122C128.75 511.637 121.216 516.795 112.393 520.596C103.706 524.261 94.272 526.093 84.0914 526.093C73.6394 526.093 63.7982 524.193 54.5678 520.392C45.4732 516.592 37.5323 511.433 30.7453 504.918C24.094 498.267 18.8001 490.462 14.8636 481.503C11.0629 472.544 9.1625 462.906 9.1625 452.59C9.1625 442.274 11.0629 432.636 14.8636 423.677C18.8001 414.718 24.094 406.981 30.7453 400.465C37.3966 393.814 45.2695 388.588 54.3642 384.787C63.4588 380.987 73.1643 379.086 83.4806 379.086C95.29 379.086 106.556 381.53 117.28 386.416C128.004 391.167 136.691 397.954 143.342 406.777L118.705 428.157C114.226 422.184 108.932 417.704 102.824 414.718C96.851 411.732 90.4033 410.239 83.4806 410.239C78.0509 410.239 72.9607 411.325 68.2097 413.497C63.5945 415.668 59.5902 418.655 56.1967 422.455C52.8032 426.12 50.1562 430.6 48.2558 435.894C46.3555 441.052 45.4053 446.617 45.4053 452.59C45.4053 458.698 46.3555 464.399 48.2558 469.693C50.2919 474.851 53.0746 479.331 56.6039 483.132C60.1332 486.932 64.2732 489.919 69.0242 492.09C73.9108 494.262 79.1369 495.348 84.7022 495.348C92.7109 495.348 99.6337 493.108 105.471 488.629C111.443 484.15 115.38 478.448 117.28 471.526H81.6481V442.002H154.948V451.979ZM171.779 523.854V381.326H206.8V523.854H171.779ZM269.638 523.854L214.867 381.326H252.739L290.407 487.407L328.686 381.326H365.132L309.546 523.854H269.638Z" fill="#5326EC"/>
<path d="M1151.28 451.979C1151.28 462.567 1149.52 472.408 1145.99 481.503C1142.46 490.597 1137.58 498.47 1131.33 505.122C1125.09 511.637 1117.55 516.795 1108.73 520.596C1100.04 524.261 1090.61 526.093 1080.43 526.093C1069.98 526.093 1060.14 524.193 1050.9 520.392C1041.81 516.592 1033.87 511.433 1027.08 504.918C1020.43 498.267 1015.14 490.462 1011.2 481.503C1007.4 472.544 1005.5 462.906 1005.5 452.59C1005.5 442.274 1007.4 432.636 1011.2 423.677C1015.14 414.718 1020.43 406.981 1027.08 400.465C1033.73 393.814 1041.61 388.588 1050.7 384.787C1059.8 380.987 1069.5 379.086 1079.82 379.086C1091.63 379.086 1102.89 381.53 1113.62 386.416C1124.34 391.167 1133.03 397.954 1139.68 406.777L1115.04 428.157C1110.56 422.184 1105.27 417.704 1099.16 414.718C1093.19 411.732 1086.74 410.239 1079.82 410.239C1074.39 410.239 1069.3 411.325 1064.55 413.497C1059.93 415.668 1055.93 418.655 1052.53 422.455C1049.14 426.12 1046.49 430.6 1044.59 435.894C1042.69 441.052 1041.74 446.617 1041.74 452.59C1041.74 458.698 1042.69 464.399 1044.59 469.693C1046.63 474.851 1049.41 479.331 1052.94 483.132C1056.47 486.932 1060.61 489.919 1065.36 492.09C1070.25 494.262 1075.47 495.348 1081.04 495.348C1089.05 495.348 1095.97 493.108 1101.81 488.629C1107.78 484.15 1111.72 478.448 1113.62 471.526H1077.98V442.002H1151.28V451.979ZM1168.12 523.854V381.326H1203.14V523.854H1168.12ZM1265.98 523.854L1211.2 381.326H1249.08L1286.74 487.407L1325.02 381.326H1361.47L1305.88 523.854H1265.98Z" fill="#5326EC"/>
<path d="M154.948 626.406C154.948 636.994 153.183 646.835 149.654 655.929C146.125 665.024 141.238 672.897 134.994 679.548C128.75 686.064 121.216 691.222 112.393 695.023C103.706 698.688 94.272 700.52 84.0914 700.52C73.6394 700.52 63.7982 698.62 54.5678 694.819C45.4732 691.018 37.5323 685.86 30.7453 679.345C24.094 672.693 18.8001 664.888 14.8636 655.929C11.0629 646.971 9.1625 637.333 9.1625 627.017C9.1625 616.7 11.0629 607.063 14.8636 598.104C18.8001 589.145 24.094 581.408 30.7453 574.892C37.3966 568.241 45.2695 563.015 54.3642 559.214C63.4588 555.413 73.1643 553.513 83.4806 553.513C95.29 553.513 106.556 555.956 117.28 560.843C128.004 565.594 136.691 572.381 143.342 581.204L118.705 602.583C114.226 596.611 108.932 592.131 102.824 589.145C96.851 586.159 90.4033 584.666 83.4806 584.666C78.0509 584.666 72.9607 585.751 68.2097 587.923C63.5945 590.095 59.5902 593.081 56.1967 596.882C52.8032 600.547 50.1562 605.027 48.2558 610.321C46.3555 615.479 45.4053 621.044 45.4053 627.017C45.4053 633.125 46.3555 638.826 48.2558 644.12C50.2919 649.278 53.0746 653.758 56.6039 657.558C60.1332 661.359 64.2732 664.345 69.0242 666.517C73.9108 668.689 79.1369 669.775 84.7022 669.775C92.7109 669.775 99.6337 667.535 105.471 663.056C111.443 658.576 115.38 652.875 117.28 645.952H81.6481V616.429H154.948V626.406ZM171.779 698.281V555.753H206.8V698.281H171.779ZM269.638 698.281L214.867 555.753H252.739L290.407 661.834L328.686 555.753H365.132L309.546 698.281H269.638Z" fill="#5326EC"/>
<path d="M935.948 626.406C935.948 636.994 934.183 646.835 930.654 655.929C927.125 665.024 922.238 672.897 915.994 679.548C909.75 686.064 902.216 691.222 893.393 695.023C884.706 698.688 875.272 700.52 865.091 700.52C854.639 700.52 844.798 698.62 835.568 694.819C826.473 691.018 818.532 685.86 811.745 679.345C805.094 672.693 799.8 664.888 795.864 655.929C792.063 646.971 790.163 637.333 790.163 627.017C790.163 616.7 792.063 607.063 795.864 598.104C799.8 589.145 805.094 581.408 811.745 574.892C818.397 568.241 826.27 563.015 835.364 559.214C844.459 555.413 854.164 553.513 864.481 553.513C876.29 553.513 887.556 555.956 898.28 560.843C909.004 565.594 917.691 572.381 924.342 581.204L899.705 602.583C895.226 596.611 889.932 592.131 883.824 589.145C877.851 586.159 871.403 584.666 864.481 584.666C859.051 584.666 853.961 585.751 849.21 587.923C844.595 590.095 840.59 593.081 837.197 596.882C833.803 600.547 831.156 605.027 829.256 610.321C827.355 615.479 826.405 621.044 826.405 627.017C826.405 633.125 827.355 638.826 829.256 644.12C831.292 649.278 834.075 653.758 837.604 657.558C841.133 661.359 845.273 664.345 850.024 666.517C854.911 668.689 860.137 669.775 865.702 669.775C873.711 669.775 880.634 667.535 886.471 663.056C892.443 658.576 896.38 652.875 898.28 645.952H862.648V616.429H935.948V626.406ZM952.779 698.281V555.753H987.8V698.281H952.779ZM1050.64 698.281L995.867 555.753H1033.74L1071.41 661.834L1109.69 555.753H1146.13L1090.55 698.281H1050.64Z" fill="#5326EC"/>
<path d="M1302.45 626.406C1302.45 636.994 1300.68 646.835 1297.15 655.929C1293.62 665.024 1288.74 672.897 1282.49 679.548C1276.25 686.064 1268.72 691.222 1259.89 695.023C1251.21 698.688 1241.77 700.52 1231.59 700.52C1221.14 700.52 1211.3 698.62 1202.07 694.819C1192.97 691.018 1185.03 685.86 1178.25 679.345C1171.59 672.693 1166.3 664.888 1162.36 655.929C1158.56 646.971 1156.66 637.333 1156.66 627.017C1156.66 616.7 1158.56 607.063 1162.36 598.104C1166.3 589.145 1171.59 581.408 1178.25 574.892C1184.9 568.241 1192.77 563.015 1201.86 559.214C1210.96 555.413 1220.66 553.513 1230.98 553.513C1242.79 553.513 1254.06 555.956 1264.78 560.843C1275.5 565.594 1284.19 572.381 1290.84 581.204L1266.21 602.583C1261.73 596.611 1256.43 592.131 1250.32 589.145C1244.35 586.159 1237.9 584.666 1230.98 584.666C1225.55 584.666 1220.46 585.751 1215.71 587.923C1211.09 590.095 1207.09 593.081 1203.7 596.882C1200.3 600.547 1197.66 605.027 1195.76 610.321C1193.86 615.479 1192.91 621.044 1192.91 627.017C1192.91 633.125 1193.86 638.826 1195.76 644.12C1197.79 649.278 1200.57 653.758 1204.1 657.558C1207.63 661.359 1211.77 664.345 1216.52 666.517C1221.41 668.689 1226.64 669.775 1232.2 669.775C1240.21 669.775 1247.13 667.535 1252.97 663.056C1258.94 658.576 1262.88 652.875 1264.78 645.952H1229.15V616.429H1302.45V626.406ZM1319.28 698.281V555.753H1354.3V698.281H1319.28ZM1417.14 698.281L1362.37 555.753H1400.24L1437.91 661.834L1476.19 555.753H1512.63L1457.05 698.281H1417.14Z" fill="#5326EC"/>
<path d="M521.448 441.979C521.448 452.567 519.683 462.408 516.154 471.503C512.625 480.597 507.738 488.47 501.494 495.122C495.25 501.637 487.716 506.795 478.893 510.596C470.206 514.261 460.772 516.093 450.591 516.093C440.139 516.093 430.298 514.193 421.068 510.392C411.973 506.592 404.032 501.433 397.245 494.918C390.594 488.267 385.3 480.462 381.364 471.503C377.563 462.544 375.663 452.906 375.663 442.59C375.663 432.274 377.563 422.636 381.364 413.677C385.3 404.718 390.594 396.981 397.245 390.465C403.897 383.814 411.77 378.588 420.864 374.787C429.959 370.987 439.664 369.086 449.981 369.086C461.79 369.086 473.056 371.53 483.78 376.416C494.504 381.167 503.191 387.954 509.842 396.777L485.205 418.157C480.726 412.184 475.432 407.704 469.324 404.718C463.351 401.732 456.903 400.239 449.981 400.239C444.551 400.239 439.461 401.325 434.71 403.497C430.095 405.668 426.09 408.655 422.697 412.455C419.303 416.12 416.656 420.6 414.756 425.894C412.855 431.052 411.905 436.617 411.905 442.59C411.905 448.698 412.855 454.399 414.756 459.693C416.792 464.851 419.575 469.331 423.104 473.132C426.633 476.932 430.773 479.919 435.524 482.09C440.411 484.262 445.637 485.348 451.202 485.348C459.211 485.348 466.134 483.108 471.971 478.629C477.943 474.15 481.88 468.448 483.78 461.526H448.148V432.002H521.448V441.979ZM538.279 513.854V371.326H573.3V513.854H538.279ZM636.138 513.854L581.367 371.326H619.239L656.907 477.407L695.186 371.326H731.632L676.046 513.854H636.138ZM382.382 698.854V556.326H490.092V585.646H417.403V612.726H468.713V641.232H417.403V669.534H490.906V698.854H382.382ZM500.673 586.257V556.326H627.523V586.257H581.711V698.854H546.689V586.257H500.673ZM639.544 698.854V556.326H674.565V611.708H732.187V556.326H767.208V698.854H732.187V642.453H674.565V698.854H639.544Z" fill="#E1458D"/>
<path d="M154.948 800.833C154.948 811.421 153.183 821.262 149.654 830.357C146.125 839.451 141.238 847.324 134.994 853.976C128.75 860.491 121.216 865.649 112.393 869.45C103.706 873.115 94.272 874.947 84.0914 874.947C73.6394 874.947 63.7982 873.047 54.5678 869.246C45.4732 865.446 37.5323 860.287 30.7453 853.772C24.094 847.121 18.8001 839.316 14.8636 830.357C11.0629 821.398 9.1625 811.76 9.1625 801.444C9.1625 791.128 11.0629 781.49 14.8636 772.531C18.8001 763.572 24.094 755.835 30.7453 749.319C37.3966 742.668 45.2695 737.442 54.3642 733.641C63.4588 729.841 73.1643 727.94 83.4806 727.94C95.29 727.94 106.556 730.384 117.28 735.27C128.004 740.021 136.691 746.808 143.342 755.631L118.705 777.011C114.226 771.038 108.932 766.559 102.824 763.572C96.851 760.586 90.4033 759.093 83.4806 759.093C78.0509 759.093 72.9607 760.179 68.2097 762.351C63.5945 764.522 59.5902 767.509 56.1967 771.309C52.8032 774.974 50.1562 779.454 48.2558 784.748C46.3555 789.906 45.4053 795.471 45.4053 801.444C45.4053 807.552 46.3555 813.253 48.2558 818.547C50.2919 823.705 53.0746 828.185 56.6039 831.986C60.1332 835.786 64.2732 838.773 69.0242 840.944C73.9108 843.116 79.1369 844.202 84.7022 844.202C92.7109 844.202 99.6337 841.962 105.471 837.483C111.443 833.004 115.38 827.302 117.28 820.38H81.6481V790.856H154.948V800.833ZM171.779 872.708V730.18H206.8V872.708H171.779ZM269.638 872.708L214.867 730.18H252.739L290.407 836.261L328.686 730.18H365.132L309.546 872.708H269.638Z" fill="#5326EC"/>
<path d="M521.448 800.833C521.448 811.421 519.683 821.262 516.154 830.356C512.625 839.451 507.738 847.324 501.494 853.975C495.25 860.491 487.716 865.649 478.893 869.45C470.206 873.115 460.772 874.947 450.591 874.947C440.139 874.947 430.298 873.047 421.068 869.246C411.973 865.445 404.032 860.287 397.245 853.772C390.594 847.12 385.3 839.315 381.364 830.356C377.563 821.398 375.663 811.76 375.663 801.444C375.663 791.127 377.563 781.49 381.364 772.531C385.3 763.572 390.594 755.835 397.245 749.319C403.897 742.668 411.77 737.442 420.864 733.641C429.959 729.84 439.664 727.94 449.981 727.94C461.79 727.94 473.056 730.383 483.78 735.27C494.504 740.021 503.191 746.808 509.842 755.631L485.205 777.01C480.726 771.038 475.432 766.558 469.324 763.572C463.351 760.586 456.903 759.093 449.981 759.093C444.551 759.093 439.461 760.178 434.71 762.35C430.095 764.522 426.09 767.508 422.697 771.309C419.303 774.974 416.656 779.454 414.756 784.748C412.855 789.906 411.905 795.471 411.905 801.444C411.905 807.552 412.855 813.253 414.756 818.547C416.792 823.705 419.575 828.185 423.104 831.985C426.633 835.786 430.773 838.772 435.524 840.944C440.411 843.116 445.637 844.202 451.202 844.202C459.211 844.202 466.134 841.962 471.971 837.483C477.943 833.003 481.88 827.302 483.78 820.379H448.148V790.856H521.448V800.833ZM538.279 872.708V730.18H573.3V872.708H538.279ZM636.138 872.708L581.367 730.18H619.239L656.907 836.261L695.186 730.18H731.632L676.046 872.708H636.138Z" fill="#5326EC"/>
<path d="M887.948 800.833C887.948 811.421 886.183 821.262 882.654 830.356C879.125 839.451 874.238 847.324 867.994 853.975C861.75 860.491 854.216 865.649 845.393 869.45C836.706 873.115 827.272 874.947 817.091 874.947C806.639 874.947 796.798 873.047 787.568 869.246C778.473 865.445 770.532 860.287 763.745 853.772C757.094 847.12 751.8 839.315 747.864 830.356C744.063 821.398 742.163 811.76 742.163 801.444C742.163 791.127 744.063 781.49 747.864 772.531C751.8 763.572 757.094 755.835 763.745 749.319C770.397 742.668 778.27 737.442 787.364 733.641C796.459 729.84 806.164 727.94 816.481 727.94C828.29 727.94 839.556 730.383 850.28 735.27C861.004 740.021 869.691 746.808 876.342 755.631L851.705 777.01C847.226 771.038 841.932 766.558 835.824 763.572C829.851 760.586 823.403 759.093 816.481 759.093C811.051 759.093 805.961 760.178 801.21 762.35C796.595 764.522 792.59 767.508 789.197 771.309C785.803 774.974 783.156 779.454 781.256 784.748C779.355 789.906 778.405 795.471 778.405 801.444C778.405 807.552 779.355 813.253 781.256 818.547C783.292 823.705 786.075 828.185 789.604 831.985C793.133 835.786 797.273 838.772 802.024 840.944C806.911 843.116 812.137 844.202 817.702 844.202C825.711 844.202 832.634 841.962 838.471 837.483C844.443 833.003 848.38 827.302 850.28 820.379H814.648V790.856H887.948V800.833ZM904.779 872.708V730.18H939.8V872.708H904.779ZM1002.64 872.708L947.867 730.18H985.739L1023.41 836.261L1061.69 730.18H1098.13L1042.55 872.708H1002.64Z" fill="#5326EC"/>
<path d="M1254.45 800.833C1254.45 811.421 1252.68 821.262 1249.15 830.356C1245.62 839.451 1240.74 847.324 1234.49 853.975C1228.25 860.491 1220.72 865.649 1211.89 869.45C1203.21 873.115 1193.77 874.947 1183.59 874.947C1173.14 874.947 1163.3 873.047 1154.07 869.246C1144.97 865.445 1137.03 860.287 1130.25 853.772C1123.59 847.12 1118.3 839.315 1114.36 830.356C1110.56 821.398 1108.66 811.76 1108.66 801.444C1108.66 791.127 1110.56 781.49 1114.36 772.531C1118.3 763.572 1123.59 755.835 1130.25 749.319C1136.9 742.668 1144.77 737.442 1153.86 733.641C1162.96 729.84 1172.66 727.94 1182.98 727.94C1194.79 727.94 1206.06 730.383 1216.78 735.27C1227.5 740.021 1236.19 746.808 1242.84 755.631L1218.21 777.01C1213.73 771.038 1208.43 766.558 1202.32 763.572C1196.35 760.586 1189.9 759.093 1182.98 759.093C1177.55 759.093 1172.46 760.178 1167.71 762.35C1163.09 764.522 1159.09 767.508 1155.7 771.309C1152.3 774.974 1149.66 779.454 1147.76 784.748C1145.86 789.906 1144.91 795.471 1144.91 801.444C1144.91 807.552 1145.86 813.253 1147.76 818.547C1149.79 823.705 1152.57 828.185 1156.1 831.985C1159.63 835.786 1163.77 838.772 1168.52 840.944C1173.41 843.116 1178.64 844.202 1184.2 844.202C1192.21 844.202 1199.13 841.962 1204.97 837.483C1210.94 833.003 1214.88 827.302 1216.78 820.379H1181.15V790.856H1254.45V800.833ZM1271.28 872.708V730.18H1306.3V872.708H1271.28ZM1369.14 872.708L1314.37 730.18H1352.24L1389.91 836.261L1428.19 730.18H1464.63L1409.05 872.708H1369.14Z" fill="#5326EC"/>
<rect x="750.646" y="430.977" width="211.756" height="31.2204" fill="#E1458D"/>
</svg>
