<svg width="432" height="344" viewBox="0 0 432 344" fill="none" xmlns="http://www.w3.org/2000/svg">
<path fill-rule="evenodd" clip-rule="evenodd" d="M142.132 275.695L142.52 275.96L150.713 280.69L152.751 281.593L152.764 281.599C154.587 282.414 156.583 283.35 158.692 284.34C163.793 286.734 169.555 289.438 175.127 291.471L175.129 291.472C253.347 320.001 340.689 292.083 387.537 223.458L387.539 223.456C410.034 190.489 420.465 153.792 419.254 114.035L419.253 114.033C419.221 112.972 419.155 111.777 419.1 110.793C419.078 110.397 419.058 110.035 419.043 109.73L418.282 94.4676L360.881 109.635L360.804 119.093C360.528 152.911 348.934 182.622 325.725 206.777C288.388 245.616 228.498 255.218 180.709 230.138L180.706 230.136C159.119 218.797 141.228 202.136 129.15 181.293L124.458 173.196L115.388 175.496C112.111 176.327 108.813 177.213 105.615 178.072L105.607 178.074C104.506 178.37 103.417 178.662 102.345 178.948L67.8721 188.144L74.7379 201.759C87.9059 227.872 106.553 250.234 130.245 267.565L130.249 267.568C132.969 269.556 135.963 271.557 138.673 273.368L138.674 273.368L138.678 273.371C139.905 274.191 141.074 274.972 142.132 275.695ZM406.672 110.347C406.694 110.799 406.719 111.247 406.744 111.693L406.744 111.694C406.795 112.607 406.845 113.51 406.873 114.412C406.878 114.594 406.884 114.776 406.889 114.957C406.884 114.776 406.878 114.594 406.873 114.412" fill="#2FC8E0"/>
<path fill-rule="evenodd" clip-rule="evenodd" d="M104.138 137.488L98.7773 134.387L104.135 137.493C99.8447 144.891 93.1237 150.573 85.1157 153.573C77.1077 156.573 68.3075 156.705 60.213 153.947C52.1186 151.189 45.2301 145.711 40.7201 138.445C36.2101 131.18 34.3572 122.576 35.477 114.098C36.5967 105.62 40.6197 97.792 46.8614 91.9465C53.1031 86.101 61.1776 82.5992 69.7106 82.0371C78.2436 81.4749 86.7077 83.8872 93.6623 88.8633C100.617 93.8394 105.632 101.072 107.854 109.329L107.856 109.335C109.118 114.042 109.439 118.951 108.801 123.782C108.163 128.613 106.578 133.271 104.138 137.488Z" fill="#2FC8E0"/>
</svg>
