<svg width="1196" height="673" viewBox="0 0 1196 673" fill="none" xmlns="http://www.w3.org/2000/svg">
<path fill-rule="evenodd" clip-rule="evenodd" d="M159.103 383.315L159.307 383.553L163.771 388.017L164.929 388.951L164.937 388.957C165.97 389.796 167.094 390.744 168.281 391.745L168.285 391.748C171.159 394.172 174.406 396.91 177.646 399.183L177.647 399.183C223.137 431.082 284.258 428.172 326.307 392.029L326.308 392.028C346.502 374.664 359.564 352.811 365.65 326.975L365.65 326.974C365.812 326.285 365.976 325.503 366.11 324.86C366.165 324.6 366.214 324.364 366.257 324.164L368.403 314.195L328.784 314.058L327.101 320.141C321.082 341.892 308.478 359.04 289.345 370.601C258.571 389.187 218.309 385.032 191.838 360.613L191.836 360.611C179.88 349.574 171.225 335.745 167.04 320.223L165.414 314.194L159.17 314.11C156.915 314.08 154.637 314.081 152.427 314.083L152.426 314.083C151.664 314.083 150.909 314.083 150.167 314.083L126.358 314.056L128.432 324.018C132.41 343.124 140.567 360.758 152.845 376.021L152.847 376.024C154.257 377.775 155.841 379.582 157.275 381.217L157.276 381.218C157.926 381.959 158.545 382.665 159.103 383.315ZM186.231 366.686C215.392 393.588 259.678 398.175 293.619 377.677C314.644 364.972 328.512 346.034 335.067 322.345L358.176 322.425C358.176 322.426 358.176 322.426 358.176 322.427L335.067 322.347C328.512 346.036 314.644 364.973 293.619 377.678C259.678 398.176 215.392 393.589 186.231 366.687C173.762 355.177 164.502 340.796 159.683 324.576C164.502 340.795 173.762 355.177 186.231 366.686ZM159.279 323.176C159.204 322.91 159.131 322.643 159.059 322.375C156.866 322.346 154.673 322.347 152.48 322.348C151.706 322.349 150.932 322.349 150.157 322.348L136.525 322.333C136.525 322.334 136.525 322.334 136.525 322.334L150.158 322.349C150.932 322.35 151.706 322.35 152.481 322.349C154.674 322.348 156.867 322.347 159.059 322.376C159.131 322.644 159.204 322.91 159.279 323.176Z" fill="#2FC8E0"/>
<path fill-rule="evenodd" clip-rule="evenodd" d="M363.679 383.315L363.884 383.553L368.347 388.017L369.505 388.951L369.513 388.957C370.546 389.796 371.67 390.744 372.857 391.745L372.861 391.748C375.735 394.172 378.982 396.91 382.222 399.183L382.223 399.183C427.714 431.082 488.834 428.172 530.883 392.029L530.885 392.028C551.078 374.664 564.14 352.811 570.226 326.975L570.226 326.974C570.388 326.285 570.552 325.503 570.687 324.86C570.741 324.6 570.79 324.364 570.833 324.164L572.979 314.195L533.36 314.058L531.677 320.141C525.658 341.892 513.054 359.04 493.922 370.601C463.147 389.187 422.885 385.032 396.414 360.613L396.412 360.611C384.456 349.574 375.801 335.745 371.616 320.223L369.99 314.194L363.746 314.11C361.491 314.08 359.213 314.081 357.003 314.083L357.003 314.083C356.24 314.083 355.486 314.083 354.743 314.083L330.934 314.056L333.008 324.018C336.986 343.124 345.143 360.758 357.421 376.021L357.423 376.024C358.833 377.775 360.417 379.582 361.851 381.217L361.852 381.218C362.502 381.959 363.121 382.665 363.679 383.315ZM390.807 366.686C419.968 393.588 464.254 398.175 498.195 377.677C519.22 364.972 533.088 346.034 539.643 322.345L562.753 322.425C562.753 322.426 562.752 322.426 562.752 322.427L539.644 322.347C533.089 346.036 519.22 364.973 498.195 377.678C464.255 398.176 419.968 393.589 390.807 366.687C378.222 355.07 368.906 340.527 364.125 324.122C368.906 340.527 378.222 355.069 390.807 366.686ZM363.855 323.176C363.781 322.91 363.707 322.643 363.635 322.375C361.443 322.346 359.249 322.347 357.056 322.348C356.282 322.349 355.508 322.349 354.734 322.348L341.101 322.333C341.101 322.334 341.101 322.334 341.101 322.334L354.734 322.349C355.508 322.35 356.283 322.35 357.057 322.349C359.25 322.348 361.443 322.347 363.635 322.376C363.707 322.644 363.781 322.91 363.855 323.176Z" fill="#2FC8E0"/>
<path fill-rule="evenodd" clip-rule="evenodd" d="M568.514 383.315L568.718 383.553L573.182 388.017L574.34 388.951L574.347 388.957C575.381 389.796 576.504 390.744 577.692 391.745L577.695 391.748C580.569 394.172 583.816 396.91 587.056 399.183L587.058 399.183C632.548 431.082 693.668 428.172 735.718 392.029L735.719 392.028C755.912 374.664 768.974 352.811 775.06 326.975L775.06 326.974C775.222 326.285 775.386 325.503 775.521 324.86C775.575 324.6 775.625 324.364 775.668 324.164L777.813 314.195L738.194 314.058L736.511 320.141C730.493 341.892 717.888 359.04 698.756 370.601C667.981 389.187 627.72 385.032 601.248 360.613L601.246 360.611C589.29 349.574 580.635 335.745 576.45 320.223L574.824 314.194L568.581 314.11C566.325 314.08 564.047 314.081 561.838 314.083L561.837 314.083C561.074 314.083 560.32 314.083 559.577 314.083L535.769 314.056L537.843 324.018C541.821 343.124 549.977 360.758 562.256 376.021L562.258 376.024C563.667 377.775 565.252 379.582 566.685 381.217L566.686 381.218C567.336 381.959 567.956 382.665 568.514 383.315ZM595.641 366.686C624.802 393.588 669.089 398.175 703.029 377.677C724.054 364.972 737.923 346.034 744.478 322.345L767.587 322.425C767.587 322.426 767.587 322.426 767.587 322.427L744.478 322.347C737.923 346.036 724.054 364.973 703.029 377.678C669.089 398.176 624.802 393.589 595.641 366.687C582.612 354.66 573.086 339.496 568.469 322.376C566.277 322.347 564.084 322.348 561.891 322.349C561.116 322.35 560.342 322.35 559.568 322.349L545.935 322.334C545.935 322.334 545.935 322.334 545.935 322.333L559.568 322.348C560.342 322.349 561.116 322.349 561.89 322.348C564.084 322.347 566.277 322.346 568.469 322.375C573.086 339.495 582.612 354.659 595.641 366.686Z" fill="#2FC8E0"/>
<path fill-rule="evenodd" clip-rule="evenodd" d="M772.006 383.315L772.21 383.553L776.674 388.017L777.832 388.951L777.839 388.957C778.873 389.796 779.997 390.744 781.184 391.745L781.187 391.748C784.062 394.172 787.308 396.91 790.548 399.183L790.55 399.183C836.04 431.082 897.16 428.172 939.21 392.029L939.211 392.028C959.405 374.664 972.466 352.811 978.552 326.975L978.552 326.974C978.715 326.285 978.878 325.503 979.013 324.86C979.067 324.6 979.117 324.364 979.16 324.164L981.305 314.195L941.687 314.058L940.003 320.141C933.985 341.892 921.38 359.04 902.248 370.601C871.474 389.187 831.212 385.032 804.74 360.613L804.738 360.611C792.782 349.574 784.128 335.745 779.942 320.223L778.316 314.194L772.073 314.11C769.817 314.08 767.539 314.081 765.33 314.083L765.329 314.083C764.566 314.083 763.812 314.083 763.07 314.083L739.261 314.056L741.335 324.018C745.313 343.124 753.47 360.758 765.748 376.021L765.75 376.024C767.16 377.775 768.744 379.582 770.178 381.217L770.178 381.218C770.829 381.959 771.448 382.665 772.006 383.315ZM799.134 366.686C828.294 393.588 872.581 398.175 906.521 377.677C927.546 364.972 941.415 346.034 947.97 322.345L971.079 322.425C971.079 322.426 971.079 322.426 971.079 322.427L947.97 322.347C941.415 346.036 927.546 364.973 906.521 377.678C872.581 398.176 828.294 393.589 799.134 366.687C786.104 354.66 776.578 339.496 771.962 322.376C769.769 322.347 767.576 322.348 765.383 322.349C764.609 322.35 763.834 322.35 763.06 322.349L749.427 322.334C749.427 322.334 749.427 322.334 749.427 322.333L763.06 322.348C763.834 322.349 764.608 322.349 765.383 322.348C767.576 322.347 769.769 322.346 771.962 322.375C776.578 339.495 786.104 354.659 799.134 366.686Z" fill="#2FC8E0"/>
<path fill-rule="evenodd" clip-rule="evenodd" d="M159.103 589.73L159.307 589.968L163.771 594.432L164.929 595.366L164.936 595.372C165.97 596.211 167.093 597.159 168.281 598.16L168.284 598.163C171.158 600.587 174.405 603.325 177.645 605.598L177.647 605.598C223.137 637.497 284.257 634.587 326.307 598.444L326.308 598.443C346.501 581.079 359.563 559.226 365.649 533.39L365.649 533.389C365.812 532.7 365.975 531.918 366.11 531.275C366.164 531.015 366.214 530.779 366.257 530.579L368.402 520.61L328.784 520.473L327.1 526.556C321.082 548.306 308.477 565.455 289.345 577.016C258.571 595.602 218.309 591.447 191.837 567.028L191.835 567.026C179.879 555.989 171.224 542.16 167.039 526.638L165.413 520.609L159.17 520.525C156.914 520.495 154.636 520.496 152.427 520.498L152.426 520.498C151.663 520.498 150.909 520.498 150.167 520.498L126.358 520.471L128.432 530.433C132.41 549.539 140.567 567.173 152.845 582.436L152.847 582.439C154.257 584.19 155.841 585.997 157.274 587.632L157.275 587.633C157.925 588.374 158.545 589.08 159.103 589.73ZM136.524 528.748L136.524 528.748C137.105 531.54 137.782 534.297 138.553 537.016C142.716 551.697 149.64 565.265 159.285 577.256C160.588 578.873 161.957 580.435 163.328 581.997L163.329 581.998L163.331 582C164.014 582.779 164.698 583.558 165.373 584.345L169.304 588.275L170.138 588.948C171.428 589.995 172.699 591.068 173.971 592.141L173.971 592.142C176.717 594.458 179.462 596.775 182.392 598.831C224.802 628.569 281.749 625.843 320.919 592.176C331.502 583.075 339.976 572.677 346.379 561.026C339.976 572.677 331.502 583.074 320.919 592.175C281.749 625.842 224.803 628.568 182.393 598.83C179.463 596.775 176.717 594.457 173.971 592.141C172.7 591.068 171.428 589.994 170.138 588.948L169.304 588.274L165.374 584.344C164.697 583.557 164.013 582.777 163.329 581.997C161.959 580.435 160.588 578.873 159.286 577.255C147.854 563.044 140.245 546.617 136.524 528.748Z" fill="#2FC8E0"/>
<path fill-rule="evenodd" clip-rule="evenodd" d="M363.679 589.73L363.883 589.968L368.347 594.432L369.505 595.366L369.513 595.372C370.546 596.211 371.67 597.159 372.857 598.16L372.86 598.163C375.735 600.587 378.982 603.325 382.222 605.598L382.223 605.598C427.713 637.497 488.833 634.587 530.883 598.444L530.884 598.443C551.078 581.079 564.14 559.226 570.226 533.39L570.226 533.389C570.388 532.7 570.552 531.918 570.686 531.275C570.741 531.015 570.79 530.779 570.833 530.579L572.979 520.61L533.36 520.473L531.677 526.556C525.658 548.306 513.054 565.455 493.921 577.016C463.147 595.602 422.885 591.447 396.413 567.028L396.412 567.026C384.456 555.989 375.801 542.16 371.615 526.638L369.99 520.609L363.746 520.525C361.491 520.495 359.213 520.496 357.003 520.498L357.002 520.498C356.24 520.498 355.485 520.498 354.743 520.498L330.934 520.471L333.008 530.433C336.986 549.539 345.143 567.173 357.421 582.436L357.423 582.439C358.833 584.19 360.417 585.997 361.851 587.632L361.852 587.633C362.502 588.374 363.121 589.08 363.679 589.73ZM341.101 528.748L341.1 528.748C341.682 531.54 342.358 534.297 343.129 537.016C347.292 551.697 354.216 565.265 363.862 577.256C365.164 578.873 366.534 580.435 367.904 581.997L367.905 581.998L367.907 582C368.591 582.779 369.274 583.558 369.95 584.345L373.88 588.275L374.715 588.948C376.004 589.995 377.276 591.068 378.547 592.141L378.548 592.142C381.293 594.458 384.039 596.775 386.969 598.831C429.379 628.569 486.325 625.843 525.495 592.176C535.899 583.229 544.263 573.03 550.627 561.618C544.264 573.03 535.899 583.229 525.495 592.175C486.326 625.842 429.379 628.568 386.969 598.83C384.039 596.775 381.293 594.457 378.548 592.141C377.276 591.067 376.005 589.994 374.715 588.948L373.88 588.274L369.95 584.344C369.274 583.557 368.589 582.777 367.905 581.997C366.535 580.435 365.165 578.873 363.862 577.255C352.43 563.044 344.821 546.617 341.101 528.748Z" fill="#2FC8E0"/>
<path fill-rule="evenodd" clip-rule="evenodd" d="M568.669 589.73L568.873 589.968L573.337 594.432L574.495 595.366L574.503 595.372C575.536 596.211 576.66 597.159 577.847 598.16L577.85 598.163C580.725 600.587 583.971 603.325 587.212 605.598L587.213 605.598C632.703 637.497 693.823 634.587 735.873 598.444L735.874 598.443C756.068 581.079 769.129 559.226 775.215 533.39L775.216 533.389C775.378 532.7 775.541 531.918 775.676 531.275C775.73 531.015 775.78 530.779 775.823 530.579L777.968 520.61L738.35 520.473L736.666 526.556C730.648 548.306 718.043 565.455 698.911 577.016C668.137 595.602 627.875 591.447 601.403 567.028L601.401 567.026C589.445 555.989 580.791 542.16 576.605 526.638L574.98 520.609L568.736 520.525C566.481 520.495 564.202 520.496 561.993 520.498L561.992 520.498C561.23 520.498 560.475 520.498 559.733 520.498L535.924 520.471L537.998 530.433C541.976 549.539 550.133 567.173 562.411 582.436L562.413 582.439C563.823 584.19 565.407 585.997 566.841 587.632L566.841 587.633C567.492 588.374 568.111 589.08 568.669 589.73ZM546.09 528.748L546.09 528.748C546.672 531.54 547.348 534.297 548.119 537.016C552.282 551.697 559.206 565.265 568.851 577.256C570.154 578.873 571.524 580.435 572.894 581.997L572.895 581.998L572.897 582C573.58 582.779 574.264 583.558 574.939 584.345L578.87 588.275L579.704 588.948C580.994 589.995 582.266 591.068 583.537 592.141L583.537 592.142C586.283 594.458 589.028 596.775 591.958 598.831C634.369 628.569 691.315 625.843 730.485 592.176C747.849 577.244 759.533 558.821 765.714 537.099C766.239 535.255 766.724 533.387 767.17 531.495C767.308 530.909 767.431 530.318 767.556 529.721L767.556 529.72L767.556 529.719C767.432 530.316 767.308 530.908 767.17 531.494C761.476 555.666 749.324 575.975 730.485 592.175C691.315 625.842 634.369 628.568 591.958 598.83C589.028 596.775 586.283 594.457 583.537 592.141C582.266 591.067 580.994 589.994 579.704 588.948L578.87 588.274L574.939 584.344C574.263 583.557 573.579 582.777 572.895 581.997C571.524 580.435 570.154 578.873 568.852 577.255C557.42 563.044 549.811 546.617 546.09 528.748Z" fill="#2FC8E0"/>
<path fill-rule="evenodd" clip-rule="evenodd" d="M772.005 589.73L772.209 589.968L776.673 594.432L777.831 595.366L777.839 595.372C778.872 596.211 779.996 597.159 781.183 598.16L781.187 598.163C784.061 600.587 787.308 603.325 790.548 605.598L790.549 605.598C836.04 637.497 897.16 634.587 939.209 598.444L939.211 598.443C959.404 581.079 972.466 559.226 978.552 533.39L978.552 533.389C978.714 532.7 978.878 531.918 979.013 531.275C979.067 531.015 979.116 530.779 979.159 530.579L981.305 520.61L941.686 520.473L940.003 526.556C933.984 548.306 921.38 565.455 902.248 577.016C871.473 595.602 831.211 591.447 804.74 567.028L804.738 567.026C792.782 555.989 784.127 542.16 779.942 526.638L778.316 520.609L772.072 520.525C769.817 520.495 767.539 520.496 765.329 520.498L765.329 520.498C764.566 520.498 763.812 520.498 763.069 520.498L739.26 520.471L741.334 530.433C745.312 549.539 753.469 567.173 765.747 582.436L765.749 582.439C767.159 584.19 768.743 585.997 770.177 587.632L770.178 587.633C770.828 588.374 771.447 589.08 772.005 589.73ZM749.427 528.748L749.427 528.748C750.008 531.54 750.684 534.297 751.455 537.016C755.618 551.697 762.542 565.265 772.188 577.256C773.49 578.873 774.86 580.435 776.23 581.997L776.231 581.998L776.233 582C776.917 582.779 777.6 583.558 778.276 584.345L782.206 588.275L783.041 588.948C784.33 589.995 785.602 591.068 786.874 592.141L786.874 592.142C789.619 594.458 792.365 596.775 795.295 598.831C837.705 628.569 894.652 625.843 933.821 592.176C951.186 577.244 962.869 558.821 969.051 537.099C969.575 535.255 970.061 533.387 970.506 531.495C970.644 530.909 970.768 530.318 970.893 529.721L970.893 529.72L970.893 529.719C970.768 530.316 970.644 530.908 970.506 531.494C964.812 555.666 952.66 575.975 933.821 592.175C894.652 625.842 837.705 628.568 795.295 598.83C792.365 596.775 789.619 594.457 786.874 592.141C785.602 591.067 784.33 589.994 783.041 588.948L782.206 588.274L778.276 584.344C777.6 583.557 776.915 582.777 776.231 581.997C774.861 580.435 773.491 578.873 772.188 577.255C760.756 563.044 753.147 546.617 749.427 528.748Z" fill="#2FC8E0"/>
<path fill-rule="evenodd" clip-rule="evenodd" d="M159.103 173.963L159.307 174.201L163.771 178.665L164.929 179.599L164.937 179.605C165.97 180.444 167.094 181.391 168.281 182.393L168.285 182.395C171.159 184.819 174.406 187.557 177.646 189.83L177.647 189.831C223.137 221.729 284.258 218.82 326.307 182.677L326.308 182.676C346.502 165.311 359.564 143.459 365.65 117.623L365.65 117.622C365.812 116.933 365.976 116.151 366.11 115.507C366.165 115.248 366.214 115.012 366.257 114.812L368.403 104.843L328.784 104.706L327.101 110.789C321.082 132.539 308.478 149.688 289.345 161.249C258.571 179.835 218.309 175.68 191.838 151.261L191.836 151.259C179.88 140.222 171.225 126.392 167.04 110.871L165.414 104.842L159.17 104.758C156.915 104.728 154.637 104.729 152.427 104.73L152.426 104.73C151.664 104.731 150.909 104.731 150.167 104.73L126.358 104.704L128.432 114.666C132.41 133.772 140.567 151.406 152.845 166.669L152.847 166.672C154.257 168.423 155.841 170.23 157.275 171.865L157.276 171.866C157.926 172.607 158.545 173.313 159.103 173.963ZM186.231 157.334C215.392 184.236 259.678 188.823 293.619 168.325C314.644 155.62 328.512 136.682 335.067 112.993L358.176 113.073C358.176 113.074 358.176 113.074 358.176 113.074L335.067 112.994C328.512 136.684 314.644 155.621 293.619 168.326C259.678 188.824 215.392 184.237 186.231 157.335C173.762 145.825 164.502 131.443 159.683 115.224C164.502 131.443 173.762 145.824 186.231 157.334ZM159.279 113.824C159.204 113.558 159.131 113.291 159.059 113.023C156.866 112.994 154.673 112.995 152.48 112.996C151.706 112.997 150.932 112.997 150.157 112.996L136.525 112.981C136.525 112.982 136.525 112.982 136.525 112.982L150.158 112.997C150.932 112.998 151.706 112.998 152.481 112.997C154.674 112.996 156.867 112.995 159.059 113.024C159.131 113.291 159.204 113.558 159.279 113.824Z" fill="#2FC8E0"/>
<path fill-rule="evenodd" clip-rule="evenodd" d="M363.679 173.963L363.884 174.201L368.347 178.665L369.505 179.599L369.513 179.605C370.546 180.444 371.67 181.391 372.857 182.393L372.861 182.395C375.735 184.819 378.982 187.557 382.222 189.83L382.223 189.831C427.714 221.729 488.834 218.82 530.883 182.677L530.885 182.676C551.078 165.311 564.14 143.459 570.226 117.623L570.226 117.622C570.388 116.933 570.552 116.151 570.687 115.507C570.741 115.248 570.79 115.012 570.833 114.812L572.979 104.843L533.36 104.706L531.677 110.789C525.658 132.539 513.054 149.688 493.922 161.249C463.147 179.835 422.885 175.68 396.414 151.261L396.412 151.259C384.456 140.222 375.801 126.392 371.616 110.871L369.99 104.842L363.746 104.758C361.491 104.728 359.213 104.729 357.003 104.73L357.003 104.73C356.24 104.731 355.486 104.731 354.743 104.73L330.934 104.704L333.008 114.666C336.986 133.772 345.143 151.406 357.421 166.669L357.423 166.672C358.833 168.423 360.417 170.23 361.851 171.865L361.852 171.866C362.502 172.607 363.121 173.313 363.679 173.963ZM390.807 157.334C419.968 184.236 464.254 188.823 498.195 168.325C519.22 155.62 533.088 136.682 539.643 112.993L562.753 113.073C562.753 113.074 562.752 113.074 562.752 113.074L539.644 112.994C533.089 136.684 519.22 155.621 498.195 168.326C464.255 188.824 419.968 184.237 390.807 157.335C378.235 145.73 368.925 131.205 364.14 114.821C368.925 131.205 378.235 145.729 390.807 157.334ZM363.855 113.824C363.781 113.558 363.707 113.291 363.635 113.023C361.443 112.994 359.249 112.995 357.056 112.996C356.282 112.997 355.508 112.997 354.734 112.996L341.101 112.981C341.101 112.982 341.101 112.982 341.101 112.982L354.734 112.997C355.508 112.998 356.282 112.998 357.057 112.997C359.25 112.996 361.443 112.995 363.635 113.024C363.707 113.291 363.781 113.558 363.855 113.824Z" fill="#2FC8E0"/>
<path fill-rule="evenodd" clip-rule="evenodd" d="M568.669 173.963L568.874 174.201L573.337 178.665L574.495 179.599L574.503 179.605C575.536 180.444 576.66 181.391 577.847 182.393L577.851 182.395C580.725 184.819 583.972 187.557 587.212 189.83L587.213 189.831C632.704 221.729 693.824 218.82 735.873 182.677L735.875 182.676C756.068 165.311 769.13 143.459 775.216 117.623L775.216 117.622C775.378 116.933 775.542 116.151 775.677 115.507C775.731 115.248 775.78 115.012 775.823 114.812L777.969 104.843L738.35 104.706L736.667 110.789C730.648 132.539 718.044 149.688 698.912 161.249C668.137 179.835 627.875 175.68 601.404 151.261L601.402 151.259C589.446 140.222 580.791 126.392 576.606 110.871L574.98 104.842L568.736 104.758C566.481 104.728 564.203 104.729 561.993 104.73L561.993 104.73C561.23 104.731 560.476 104.731 559.733 104.73L535.924 104.704L537.998 114.666C541.976 133.772 550.133 151.406 562.411 166.669L562.413 166.672C563.823 168.423 565.407 170.23 566.841 171.865L566.842 171.866C567.492 172.607 568.111 173.313 568.669 173.963ZM595.797 157.334C624.958 184.236 669.244 188.823 703.185 168.325C724.21 155.62 738.078 136.682 744.633 112.993L767.743 113.073C767.743 113.074 767.742 113.074 767.742 113.074L744.633 112.994C738.078 136.684 724.21 155.621 703.185 168.326C669.244 188.824 624.958 184.237 595.797 157.335C582.767 145.308 573.241 130.144 568.625 113.024C566.432 112.995 564.239 112.996 562.046 112.997C561.272 112.998 560.498 112.998 559.723 112.997L546.091 112.982C546.091 112.982 546.091 112.982 546.091 112.981L559.724 112.996C560.498 112.997 561.272 112.997 562.046 112.996C564.239 112.995 566.433 112.994 568.625 113.023C573.241 130.143 582.767 145.306 595.797 157.334ZM767.557 113.954C767.432 114.551 767.308 115.142 767.17 115.729C767.142 115.847 767.114 115.965 767.086 116.082C766.756 117.466 766.405 118.836 766.033 120.194" fill="#2FC8E0"/>
<path fill-rule="evenodd" clip-rule="evenodd" d="M772.006 173.963L772.21 174.201L776.674 178.665L777.832 179.599L777.839 179.605C778.873 180.444 779.997 181.391 781.184 182.393L781.187 182.395C784.062 184.819 787.308 187.557 790.548 189.83L790.55 189.831C836.04 221.729 897.16 218.82 939.21 182.677L939.211 182.676C959.405 165.311 972.466 143.459 978.552 117.623L978.552 117.622C978.715 116.933 978.878 116.151 979.013 115.507C979.067 115.248 979.117 115.012 979.16 114.812L981.305 104.843L941.687 104.706L940.003 110.789C933.985 132.539 921.38 149.688 902.248 161.249C871.474 179.835 831.212 175.68 804.74 151.261L804.738 151.259C792.782 140.222 784.128 126.392 779.942 110.871L778.316 104.842L772.073 104.758C769.817 104.728 767.539 104.729 765.33 104.73L765.329 104.73C764.566 104.731 763.812 104.731 763.07 104.73L739.261 104.704L741.335 114.666C745.313 133.772 753.47 151.406 765.748 166.669L765.75 166.672C767.16 168.423 768.744 170.23 770.178 171.865L770.178 171.866C770.829 172.607 771.448 173.313 772.006 173.963ZM799.134 157.334C828.294 184.236 872.581 188.823 906.521 168.325C927.546 155.62 941.415 136.682 947.97 112.993L971.079 113.073C971.079 113.074 971.079 113.074 971.079 113.074L947.97 112.994C941.415 136.684 927.546 155.621 906.521 168.326C872.581 188.824 828.294 184.237 799.134 157.335C786.104 145.308 776.578 130.144 771.962 113.024C769.769 112.995 767.576 112.996 765.383 112.997C764.609 112.998 763.834 112.998 763.06 112.997L749.427 112.982C749.427 112.982 749.427 112.982 749.427 112.981L763.06 112.996C763.834 112.997 764.608 112.997 765.383 112.996C767.576 112.995 769.769 112.994 771.962 113.023C776.578 130.143 786.104 145.306 799.134 157.334Z" fill="#2FC8E0"/>
<path fill-rule="evenodd" clip-rule="evenodd" d="M978.538 173.963L978.743 174.201L983.207 178.665L984.365 179.599L984.372 179.605C985.406 180.444 986.529 181.391 987.716 182.393L987.72 182.395C990.594 184.819 993.841 187.557 997.081 189.83L997.083 189.831C1042.57 221.729 1103.69 218.82 1145.74 182.677L1145.74 182.676C1165.94 165.311 1179 143.459 1185.08 117.623L1185.09 117.622C1185.25 116.933 1185.41 116.151 1185.55 115.507C1185.6 115.248 1185.65 115.012 1185.69 114.812L1187.84 104.843L1148.22 104.706L1146.54 110.789C1140.52 132.539 1127.91 149.688 1108.78 161.249C1078.01 179.835 1037.74 175.68 1011.27 151.261L1011.27 151.259C999.315 140.222 990.66 126.392 986.475 110.871L984.849 104.842L978.606 104.758C976.35 104.728 974.072 104.729 971.863 104.73L971.862 104.73C971.099 104.731 970.345 104.731 969.602 104.73L945.794 104.704L947.868 114.666C951.845 133.772 960.002 151.406 972.281 166.669L972.282 166.672C973.692 168.423 975.276 170.23 976.71 171.865L976.711 171.866C977.361 172.607 977.98 173.313 978.538 173.963ZM1005.67 157.334C1034.83 184.236 1079.11 188.823 1113.05 168.325C1134.08 155.62 1147.95 136.682 1154.5 112.993L1177.61 113.073C1177.61 113.074 1177.61 113.074 1177.61 113.074L1154.5 112.994C1147.95 136.684 1134.08 155.621 1113.05 168.326C1079.11 188.824 1034.83 184.237 1005.67 157.335C992.637 145.308 983.111 130.144 978.494 113.024C976.302 112.995 974.109 112.996 971.916 112.997C971.141 112.998 970.367 112.998 969.593 112.997L955.96 112.982C955.96 112.982 955.96 112.982 955.96 112.981L969.593 112.996C970.367 112.997 971.141 112.997 971.915 112.996C974.109 112.995 976.302 112.994 978.494 113.023C983.111 130.143 992.637 145.306 1005.67 157.334Z" fill="#2FC8E0"/>
<path fill-rule="evenodd" clip-rule="evenodd" d="M57.0216 278.937L57.2258 279.175L61.6897 283.639L62.8477 284.573L62.8553 284.579C63.8887 285.418 65.0124 286.366 66.1996 287.367L66.203 287.37C69.0774 289.794 72.3242 292.532 75.5644 294.805L75.5657 294.806C121.056 326.704 182.176 323.794 224.226 287.651L224.227 287.65C244.42 270.286 257.482 248.433 263.568 222.598L263.568 222.596C263.731 221.907 263.894 221.126 264.029 220.482C264.083 220.223 264.133 219.986 264.176 219.787L266.321 209.817L226.702 209.68L225.019 215.763C219.001 237.514 206.396 254.662 187.264 266.224C156.49 284.809 116.228 280.655 89.756 256.235L89.7541 256.233C77.7981 245.196 69.1434 231.367 64.958 215.846L63.3323 209.817L57.0887 209.733C54.8333 209.702 52.5551 209.704 50.3458 209.705L50.3449 209.705C49.5823 209.705 48.8279 209.706 48.0856 209.705L24.2768 209.679L26.3508 219.64C30.3286 238.746 38.4855 256.381 50.7638 271.644L50.7656 271.646C52.1755 273.397 53.7596 275.204 55.1934 276.839L55.1943 276.84C55.8444 277.581 56.4636 278.288 57.0216 278.937ZM84.1494 262.309C113.31 289.21 157.597 293.797 191.537 273.299C212.562 260.594 226.431 241.657 232.986 217.968L256.095 218.048C256.095 218.048 256.095 218.048 256.095 218.049L232.986 217.969C226.431 241.658 212.563 260.596 191.537 273.3C157.597 293.798 113.31 289.211 84.1497 262.31C71.5646 250.692 62.2482 236.149 57.4674 219.744C62.2483 236.149 71.5646 250.691 84.1494 262.309ZM57.1974 218.799C57.1228 218.532 57.0495 218.265 56.9774 217.998C54.7848 217.968 52.5917 217.969 50.3984 217.971C49.6243 217.971 48.8501 217.971 48.0759 217.971L34.443 217.956C34.443 217.956 34.4432 217.956 34.4432 217.957L48.0762 217.972C48.8505 217.973 49.6248 217.972 50.3992 217.972C52.5923 217.97 54.7853 217.969 56.9777 217.999C57.0497 218.266 57.1229 218.532 57.1974 218.799Z" fill="#2FC8E0"/>
<path fill-rule="evenodd" clip-rule="evenodd" d="M261.598 278.937L261.802 279.175L266.266 283.639L267.424 284.573L267.431 284.579C268.465 285.418 269.589 286.366 270.776 287.367L270.779 287.37C273.654 289.794 276.9 292.532 280.141 294.805L280.142 294.806C325.632 326.704 386.752 323.794 428.802 287.651L428.803 287.65C448.997 270.286 462.058 248.433 468.144 222.598L468.145 222.596C468.307 221.907 468.47 221.126 468.605 220.482C468.659 220.223 468.709 219.986 468.752 219.787L470.897 209.817L431.279 209.68L429.595 215.763C423.577 237.514 410.972 254.662 391.84 266.224C361.066 284.809 320.804 280.655 294.332 256.235L294.33 256.233C282.374 245.196 273.72 231.367 269.534 215.846L267.908 209.817L261.665 209.733C259.409 209.702 257.131 209.704 254.922 209.705L254.921 209.705C254.158 209.705 253.404 209.706 252.662 209.705L228.853 209.679L230.927 219.64C234.905 238.746 243.062 256.381 255.34 271.644L255.342 271.646C256.752 273.397 258.336 275.204 259.77 276.839L259.77 276.84C260.421 277.581 261.04 278.288 261.598 278.937ZM288.726 262.309C317.886 289.21 362.173 293.797 396.113 273.299C417.138 260.594 431.007 241.657 437.562 217.968L460.671 218.048C460.671 218.048 460.671 218.048 460.671 218.049L437.562 217.969C431.007 241.658 417.139 260.596 396.114 273.3C362.173 293.798 317.886 289.211 288.726 262.31C276.257 250.8 266.997 236.418 262.177 220.198C266.997 236.417 276.257 250.799 288.726 262.309ZM261.774 218.799C261.699 218.532 261.626 218.265 261.554 217.998C259.361 217.968 257.168 217.969 254.975 217.971C254.2 217.971 253.426 217.971 252.652 217.971L239.019 217.956C239.019 217.956 239.019 217.956 239.019 217.957L252.652 217.972C253.427 217.973 254.201 217.972 254.975 217.972C257.168 217.97 259.361 217.969 261.554 217.999C261.626 218.266 261.699 218.532 261.774 218.799Z" fill="#2FC8E0"/>
<path fill-rule="evenodd" clip-rule="evenodd" d="M466.587 278.937L466.792 279.175L471.255 283.639L472.413 284.573L472.421 284.579C473.454 285.418 474.578 286.366 475.765 287.367L475.769 287.37C478.643 289.794 481.89 292.532 485.13 294.805L485.131 294.806C530.622 326.704 591.742 323.794 633.791 287.651L633.793 287.65C653.986 270.286 667.048 248.433 673.134 222.598L673.134 222.596C673.296 221.907 673.46 221.126 673.595 220.482C673.649 220.223 673.698 219.986 673.741 219.787L675.887 209.817L636.268 209.68L634.585 215.763C628.566 237.514 615.962 254.662 596.83 266.224C566.055 284.809 525.793 280.655 499.322 256.235L499.32 256.233C487.364 245.196 478.709 231.367 474.524 215.846L472.898 209.817L466.654 209.733C464.399 209.702 462.121 209.704 459.911 209.705L459.911 209.705C459.148 209.705 458.394 209.706 457.651 209.705L433.842 209.679L435.916 219.64C439.894 238.746 448.051 256.381 460.329 271.644L460.331 271.646C461.741 273.397 463.325 275.204 464.759 276.839L464.76 276.84C465.41 277.581 466.029 278.288 466.587 278.937ZM493.715 262.309C522.876 289.21 567.162 293.797 601.103 273.299C622.128 260.594 635.996 241.657 642.551 217.968L665.661 218.048C665.66 218.048 665.66 218.048 665.66 218.049L642.552 217.969C635.997 241.658 622.128 260.596 601.103 273.3C567.163 293.798 522.876 289.211 493.715 262.31C481.216 250.772 471.941 236.347 467.131 220.079C471.941 236.347 481.216 250.771 493.715 262.309ZM466.763 218.799C466.689 218.532 466.615 218.265 466.543 217.998C464.351 217.968 462.157 217.969 459.964 217.971C459.19 217.971 458.416 217.971 457.642 217.971L444.009 217.956C444.009 217.956 444.009 217.956 444.009 217.957L457.642 217.972C458.416 217.973 459.19 217.972 459.965 217.972C462.158 217.97 464.351 217.969 466.543 217.999C466.615 218.266 466.689 218.532 466.763 218.799Z" fill="#2FC8E0"/>
<path fill-rule="evenodd" clip-rule="evenodd" d="M669.924 278.937L670.128 279.175L674.592 283.639L675.75 284.573L675.758 284.579C676.791 285.418 677.915 286.366 679.102 287.367L679.106 287.37C681.98 289.794 685.227 292.532 688.467 294.805L688.468 294.806C733.958 326.704 795.079 323.794 837.128 287.651L837.129 287.65C857.323 270.286 870.385 248.433 876.471 222.598L876.471 222.596C876.633 221.907 876.797 221.126 876.932 220.482C876.986 220.223 877.035 219.986 877.078 219.787L879.224 209.817L839.605 209.68L837.922 215.763C831.903 237.514 819.299 254.662 800.167 266.224C769.392 284.809 729.13 280.655 702.659 256.235L702.657 256.233C690.701 245.196 682.046 231.367 677.861 215.846L676.235 209.817L669.991 209.733C667.736 209.702 665.458 209.704 663.248 209.705L663.247 209.705C662.485 209.705 661.731 209.706 660.988 209.705L637.179 209.679L639.253 219.64C643.231 238.746 651.388 256.381 663.666 271.644L663.668 271.646C665.078 273.397 666.662 275.204 668.096 276.839L668.097 276.84C668.747 277.581 669.366 278.288 669.924 278.937ZM697.052 262.309C726.213 289.21 770.499 293.797 804.44 273.299C825.465 260.594 839.333 241.657 845.888 217.968L868.997 218.048C868.997 218.048 868.997 218.048 868.997 218.049L845.888 217.969C839.333 241.658 825.465 260.596 804.44 273.3C770.499 293.798 726.213 289.211 697.052 262.31C684.022 250.282 674.496 235.118 669.88 217.999C667.688 217.969 665.495 217.97 663.302 217.972C662.527 217.972 661.753 217.973 660.979 217.972L647.346 217.957C647.346 217.956 647.346 217.956 647.346 217.956L660.978 217.971C661.753 217.971 662.527 217.971 663.301 217.971C665.494 217.969 667.687 217.968 669.88 217.998C674.496 235.117 684.022 250.281 697.052 262.309Z" fill="#2FC8E0"/>
<path fill-rule="evenodd" clip-rule="evenodd" d="M876.153 278.937L876.357 279.175L880.821 283.639L881.979 284.573L881.987 284.579C883.02 285.418 884.144 286.366 885.331 287.367L885.335 287.37C888.209 289.794 891.456 292.532 894.696 294.805L894.697 294.806C940.187 326.704 1001.31 323.794 1043.36 287.651L1043.36 287.65C1063.55 270.286 1076.61 248.433 1082.7 222.598L1082.7 222.596C1082.86 221.907 1083.03 221.126 1083.16 220.482C1083.21 220.223 1083.26 219.986 1083.31 219.787L1085.45 209.817L1045.83 209.68L1044.15 215.763C1038.13 237.514 1025.53 254.662 1006.4 266.224C975.621 284.809 935.359 280.655 908.888 256.235L908.886 256.233C896.93 245.196 888.275 231.367 884.09 215.846L882.464 209.817L876.22 209.733C873.965 209.702 871.687 209.704 869.477 209.705L869.476 209.705C868.714 209.705 867.96 209.706 867.217 209.705L843.408 209.679L845.482 219.64C849.46 238.746 857.617 256.381 869.895 271.644L869.897 271.646C871.307 273.397 872.891 275.204 874.325 276.839L874.326 276.84C874.976 277.581 875.595 278.288 876.153 278.937ZM903.281 262.309C932.442 289.21 976.728 293.797 1010.67 273.299C1031.69 260.594 1045.56 241.657 1052.12 217.968L1075.23 218.048C1075.23 218.048 1075.23 218.048 1075.23 218.049L1052.12 217.969C1045.56 241.658 1031.69 260.596 1010.67 273.3C976.728 293.798 932.442 289.211 903.281 262.31C890.251 250.282 880.725 235.118 876.109 217.999C873.917 217.969 871.724 217.97 869.53 217.972C868.756 217.972 867.982 217.973 867.208 217.972L853.575 217.957C853.575 217.956 853.575 217.956 853.575 217.956L867.207 217.971C867.982 217.971 868.756 217.971 869.53 217.971C871.723 217.969 873.916 217.968 876.109 217.998C880.725 235.117 890.251 250.281 903.281 262.309Z" fill="#2FC8E0"/>
<path fill-rule="evenodd" clip-rule="evenodd" d="M57.0221 486.407L57.2263 486.645L61.6902 491.109L62.8482 492.043L62.8558 492.049C63.8892 492.888 65.0129 493.836 66.2001 494.837L66.2034 494.84C69.0779 497.264 72.3247 500.002 75.5648 502.275L75.5662 502.276C121.056 534.174 182.176 531.264 224.226 495.121L224.227 495.12C244.421 477.756 257.483 455.903 263.569 430.067L263.569 430.066C263.731 429.377 263.895 428.595 264.029 427.952C264.084 427.693 264.133 427.456 264.176 427.256L266.322 417.287L226.703 417.15L225.02 423.233C219.001 444.984 206.397 462.132 187.264 473.693C156.49 492.279 116.228 488.124 89.7565 463.705L89.7546 463.703C77.7986 452.666 69.1439 438.837 64.9585 423.315L63.3328 417.286L57.0892 417.202C54.8338 417.172 52.5556 417.173 50.3462 417.175L50.3454 417.175C49.5828 417.175 48.8284 417.176 48.086 417.175L24.2773 417.148L26.3513 427.11C30.3291 446.216 38.486 463.85 50.7643 479.114L50.7661 479.116C52.176 480.867 53.7601 482.674 55.1939 484.309L55.1948 484.31C55.8449 485.051 56.4641 485.757 57.0221 486.407ZM84.1499 469.778C113.31 496.68 157.597 501.267 191.538 480.769C212.563 468.064 226.431 449.127 232.986 425.438L256.095 425.517C256.095 425.518 256.095 425.518 256.095 425.519L232.986 425.439C226.431 449.128 212.563 468.065 191.538 480.77C157.597 501.268 113.311 496.681 84.1502 469.78C71.6813 458.27 62.4211 443.888 57.6015 427.668C62.4212 443.887 71.6813 458.269 84.1499 469.778ZM57.1978 426.268C57.1233 426.002 57.05 425.735 56.9779 425.467C54.7853 425.438 52.5922 425.439 50.3989 425.44C49.6247 425.441 48.8506 425.441 48.0764 425.44L34.4435 425.425C34.4435 425.426 34.4436 425.426 34.4437 425.427L48.0766 425.442C48.851 425.442 49.6253 425.442 50.3997 425.442C52.5928 425.44 54.7858 425.439 56.9781 425.469C57.0502 425.736 57.1234 426.002 57.1978 426.268Z" fill="#2FC8E0"/>
<path fill-rule="evenodd" clip-rule="evenodd" d="M261.598 486.407L261.802 486.645L266.266 491.109L267.424 492.043L267.432 492.049C268.465 492.888 269.589 493.836 270.776 494.837L270.78 494.84C273.654 497.264 276.901 500.002 280.141 502.275L280.142 502.276C325.633 534.174 386.753 531.264 428.802 495.121L428.804 495.12C448.997 477.756 462.059 455.903 468.145 430.067L468.145 430.066C468.307 429.377 468.471 428.595 468.606 427.952C468.66 427.693 468.709 427.456 468.752 427.256L470.898 417.287L431.279 417.15L429.596 423.233C423.577 444.984 410.973 462.132 391.841 473.693C361.066 492.279 320.804 488.124 294.333 463.705L294.331 463.703C282.375 452.666 273.72 438.837 269.535 423.315L267.909 417.286L261.665 417.202C259.41 417.172 257.132 417.173 254.922 417.175L254.922 417.175C254.159 417.175 253.405 417.176 252.662 417.175L228.853 417.148L230.927 427.11C234.905 446.216 243.062 463.85 255.34 479.114L255.342 479.116C256.752 480.867 258.336 482.674 259.77 484.309L259.771 484.31C260.421 485.051 261.04 485.757 261.598 486.407ZM288.726 469.778C317.887 496.68 362.173 501.267 396.114 480.769C417.139 468.064 431.007 449.127 437.562 425.438L460.672 425.517C460.671 425.518 460.671 425.518 460.671 425.519L437.562 425.439C431.008 449.128 417.139 468.065 396.114 480.77C362.174 501.268 317.887 496.681 288.726 469.78C276.141 458.162 266.825 443.619 262.044 427.214C266.825 443.619 276.141 458.161 288.726 469.778ZM261.774 426.268C261.699 426.002 261.626 425.735 261.554 425.467C259.362 425.438 257.168 425.439 254.975 425.44C254.201 425.441 253.427 425.441 252.653 425.44L239.02 425.425C239.02 425.426 239.02 425.426 239.02 425.427L252.653 425.442C253.427 425.442 254.201 425.442 254.976 425.442C257.169 425.44 259.362 425.439 261.554 425.469C261.626 425.736 261.7 426.002 261.774 426.268Z" fill="#2FC8E0"/>
<path fill-rule="evenodd" clip-rule="evenodd" d="M466.588 486.407L466.792 486.645L471.256 491.109L472.414 492.043L472.421 492.049C473.455 492.888 474.579 493.836 475.766 494.837L475.769 494.84C478.644 497.264 481.89 500.002 485.131 502.275L485.132 502.276C530.622 534.174 591.742 531.264 633.792 495.121L633.793 495.12C653.987 477.756 667.048 455.903 673.134 430.067L673.135 430.066C673.297 429.377 673.46 428.595 673.595 427.952C673.649 427.693 673.699 427.456 673.742 427.256L675.887 417.287L636.269 417.15L634.585 423.233C628.567 444.984 615.962 462.132 596.83 473.693C566.056 492.279 525.794 488.124 499.322 463.705L499.32 463.703C487.364 452.666 478.71 438.837 474.524 423.315L472.898 417.286L466.655 417.202C464.399 417.172 462.121 417.173 459.912 417.175L459.911 417.175C459.148 417.175 458.394 417.176 457.652 417.175L433.843 417.148L435.917 427.11C439.895 446.216 448.052 463.85 460.33 479.114L460.332 479.116C461.742 480.867 463.326 482.674 464.76 484.309L464.76 484.31C465.411 485.051 466.03 485.757 466.588 486.407ZM493.716 469.778C522.876 496.68 567.163 501.267 601.103 480.769C622.128 468.064 635.997 449.127 642.552 425.438L665.661 425.517C665.661 425.518 665.661 425.518 665.661 425.519L642.552 425.439C635.997 449.128 622.129 468.065 601.104 480.77C567.163 501.268 522.876 496.681 493.716 469.78C481.15 458.18 471.843 443.664 467.056 427.291C471.843 443.664 481.15 458.179 493.716 469.778ZM466.764 426.268C466.689 426.002 466.616 425.735 466.544 425.467C464.351 425.438 462.158 425.439 459.965 425.44C459.19 425.441 458.416 425.441 457.642 425.44L444.009 425.425C444.009 425.426 444.009 425.426 444.009 425.427L457.642 425.442C458.417 425.442 459.191 425.442 459.965 425.442C462.158 425.44 464.351 425.439 466.544 425.469C466.616 425.736 466.689 426.002 466.764 426.268Z" fill="#2FC8E0"/>
<path fill-rule="evenodd" clip-rule="evenodd" d="M669.925 486.407L670.129 486.645L674.593 491.109L675.751 492.043L675.758 492.049C676.792 492.888 677.915 493.836 679.103 494.837L679.106 494.84C681.98 497.264 685.227 500.002 688.467 502.275L688.469 502.276C733.959 534.174 795.079 531.264 837.129 495.121L837.13 495.12C857.323 477.756 870.385 455.903 876.471 430.067L876.471 430.066C876.634 429.377 876.797 428.595 876.932 427.952C876.986 427.693 877.036 427.456 877.079 427.256L879.224 417.287L839.606 417.15L837.922 423.233C831.904 444.984 819.299 462.132 800.167 473.693C769.393 492.279 729.131 488.124 702.659 463.705L702.657 463.703C690.701 452.666 682.046 438.837 677.861 423.315L676.235 417.286L669.992 417.202C667.736 417.172 665.458 417.173 663.249 417.175L663.248 417.175C662.485 417.175 661.731 417.176 660.989 417.175L637.18 417.148L639.254 427.11C643.232 446.216 651.389 463.85 663.667 479.114L663.669 479.116C665.079 480.867 666.663 482.674 668.096 484.309L668.097 484.31C668.747 485.051 669.367 485.757 669.925 486.407ZM697.053 469.778C726.213 496.68 770.5 501.267 804.44 480.769C825.465 468.064 839.334 449.127 845.889 425.438L868.998 425.517C868.998 425.518 868.998 425.518 868.998 425.519L845.889 425.439C839.334 449.128 825.465 468.065 804.44 480.77C770.5 501.268 726.213 496.681 697.053 469.78C684.023 457.752 674.497 442.588 669.88 425.469C667.688 425.439 665.495 425.44 663.302 425.442C662.528 425.442 661.753 425.442 660.979 425.442L647.346 425.427C647.346 425.426 647.346 425.426 647.346 425.425L660.979 425.44C661.753 425.441 662.527 425.441 663.302 425.44C665.495 425.439 667.688 425.438 669.88 425.467C674.497 442.587 684.023 457.751 697.053 469.778Z" fill="#2FC8E0"/>
<path fill-rule="evenodd" clip-rule="evenodd" d="M876.153 486.407L876.357 486.645L880.821 491.109L881.979 492.043L881.987 492.049C883.02 492.888 884.144 493.836 885.331 494.837L885.335 494.84C888.209 497.264 891.456 500.002 894.696 502.275L894.697 502.276C940.187 534.174 1001.31 531.264 1043.36 495.121L1043.36 495.12C1063.55 477.756 1076.61 455.903 1082.7 430.067L1082.7 430.066C1082.86 429.377 1083.03 428.595 1083.16 427.952C1083.21 427.693 1083.26 427.456 1083.31 427.256L1085.45 417.287L1045.83 417.15L1044.15 423.233C1038.13 444.984 1025.53 462.132 1006.4 473.693C975.621 492.279 935.359 488.124 908.888 463.705L908.886 463.703C896.93 452.666 888.275 438.837 884.09 423.315L882.464 417.286L876.22 417.202C873.965 417.172 871.687 417.173 869.477 417.175L869.476 417.175C868.714 417.175 867.96 417.176 867.217 417.175L843.408 417.148L845.482 427.11C849.46 446.216 857.617 463.85 869.895 479.114L869.897 479.116C871.307 480.867 872.891 482.674 874.325 484.309L874.326 484.31C874.976 485.051 875.595 485.757 876.153 486.407ZM903.281 469.778C932.442 496.68 976.728 501.267 1010.67 480.769C1031.69 468.064 1045.56 449.127 1052.12 425.438L1075.23 425.517C1075.23 425.518 1075.23 425.518 1075.23 425.519L1052.12 425.439C1045.56 449.128 1031.69 468.065 1010.67 480.77C976.728 501.268 932.442 496.681 903.281 469.78C890.251 457.752 880.725 442.588 876.109 425.469C873.917 425.439 871.724 425.44 869.53 425.442C868.756 425.442 867.982 425.442 867.208 425.442L853.575 425.427C853.575 425.426 853.575 425.426 853.575 425.425L867.207 425.44C867.982 425.441 868.756 425.441 869.53 425.44C871.723 425.439 873.916 425.438 876.109 425.467C880.725 442.587 890.251 457.751 903.281 469.778Z" fill="#2FC8E0"/>
</svg>
