<?xml version="1.0" encoding="UTF-8" standalone="no"?>
<!DOCTYPE svg PUBLIC "-//W3C//DTD SVG 1.1//EN" "http://www.w3.org/Graphics/SVG/1.1/DTD/svg11.dtd">
<svg width="100%" height="100%" viewBox="0 0 2339 481" version="1.1" xmlns="http://www.w3.org/2000/svg" xmlns:xlink="http://www.w3.org/1999/xlink" xml:space="preserve" xmlns:serif="http://www.serif.com/" style="fill-rule:evenodd;clip-rule:evenodd;stroke-linejoin:round;stroke-miterlimit:2;">
    <g id="Layer_2">
        <g id="Layer_1-2">
            <g id="Layer_2-2">
                <g id="Group_1">
                    <g id="Layer_2_copy_Image">
                        <path d="M247.85,0C248.781,0.197 249.723,0.344 250.67,0.44C310.67,3.44 362.41,25.95 406.12,67.08C407.12,68.08 408.2,69.08 409.01,69.83L375.35,103.49C373.96,102.2 372.21,100.61 370.48,98.99C350.142,80.144 325.974,65.909 299.63,57.26C288.229,53.557 276.514,50.903 264.63,49.33C252.177,47.778 239.605,47.393 227.08,48.18C213.527,48.963 200.108,51.284 187.08,55.1C175.943,58.259 165.118,62.43 154.74,67.56C140.498,74.48 127.225,83.238 115.26,93.61C110.64,97.61 106.08,101.81 101.76,106.18C93.146,114.965 85.44,124.597 78.76,134.93C72.34,144.76 66.84,155.16 62.33,166C56.557,179.683 52.461,194.014 50.13,208.68C49.129,214.898 48.441,221.163 48.07,227.45C47.58,234.946 47.48,242.463 47.77,249.97C48.398,262.96 50.392,275.848 53.72,288.42C56.914,300.622 61.288,312.485 66.78,323.84C96.502,385.121 156.646,426.207 224.54,431.61C233.789,432.282 243.072,432.348 252.33,431.81C267.324,430.926 282.154,428.212 296.49,423.73C306.337,420.71 315.919,416.887 325.14,412.3C355.565,397.193 381.471,374.32 400.23,346C410.761,330.145 418.852,312.798 424.23,294.54C424.72,292.88 425.23,291.21 425.78,289.12C419.42,289.05 413.46,289.12 407.5,289.12L191.67,289.12L240.58,240.21L479.68,240.21L479.68,243.58C478.36,302.03 458.83,353.58 420.5,397.75C386.29,437.13 343.32,462.33 292.5,474.11C279.16,477.1 265.592,478.96 251.94,479.67C240.515,480.337 229.056,480.093 217.67,478.94C165.27,473.75 119.13,453.94 79.86,418.78C41.68,384.63 17.13,342.28 5.68,292.37C2.402,278.162 0.539,263.665 0.12,249.09C-1.71,185.5 18,129.42 59.83,81.53C93.61,42.83 136,18 186,6.21C198.241,3.393 210.681,1.527 223.21,0.63C225.04,0.49 226.89,0.55 228.73,0.44C229.67,0.34 230.6,0.19 231.53,0L247.85,0Z" style="fill:rgb(46,3,63);fill-rule:nonzero;stroke:black;stroke-width:1px;"/>
                        <path d="M1724.81,480L1677,480L1677,289.25L1532.88,289.25L1532.88,479.56C1530.99,480.11 1488.41,480.27 1485.14,479.78L1485.14,193.2L1532.76,193.2L1532.76,239.62C1534.76,240.16 1672.31,240.36 1676.96,239.85L1676.96,97.6C1677.62,97.473 1678.29,97.387 1678.96,97.34L1723.6,97.34C1724,97.34 1724.39,97.41 1724.79,97.45L1724.81,480Z" style="fill:rgb(46,3,63);fill-rule:nonzero;"/>
                        <path d="M1244.58,289L1053.65,289L1004.83,240.16L1189.48,240.16C1182.83,221.201 1172.24,203.861 1158.42,189.28C1136.28,165.97 1109.31,151.38 1077.63,146.01C1069.62,144.643 1061.5,143.956 1053.37,143.956C974.226,143.956 909.1,209.081 909.1,288.226C909.1,331.374 928.457,372.323 961.8,399.71C990.35,423.05 1023.31,434.04 1060.11,432.36C1096.91,430.68 1128.35,416.45 1154.69,391.19L1187.84,424.35C1140.53,474.08 1050.68,501.22 967.54,459.53C873.11,412.03 835.07,296.98 882.54,202.53C922.714,122.696 1013.72,81.115 1100.37,103C1197.36,127.74 1246.33,215.11 1244.58,289Z" style="fill:rgb(46,3,63);fill-rule:nonzero;"/>
                        <path d="M672.31,383.1L837.22,97.47L891.86,97.47C891.912,97.54 891.959,97.613 892,97.69C892,97.76 892.07,97.86 892,97.92C891.891,98.219 891.76,98.509 891.61,98.79L671.61,479.89L624,479.89L624,97.89C624.049,97.802 624.109,97.721 624.18,97.65C624.236,97.596 624.305,97.558 624.38,97.54C624.687,97.456 625.002,97.402 625.32,97.38L670.44,97.38C670.843,97.419 671.244,97.482 671.64,97.57L671.64,383L672.31,383.1Z" style="fill:rgb(46,3,63);fill-rule:nonzero;"/>
                        <path d="M1340.87,479.88L1293,479.88L1293,144C1289.74,143.82 1286.65,143.94 1283.57,143.92C1280.49,143.9 1277.17,143.92 1273.97,143.92L1236.3,143.92L1209.19,97.45L1532.63,97.45L1532.63,143.89L1340.87,143.89L1340.87,479.88Z" style="fill:rgb(46,3,63);fill-rule:nonzero;"/>
                        <path d="M575.56,479.88L528,479.88L528,193.17L575.33,193.17L575.45,193.29C575.45,193.35 575.59,193.41 575.59,193.47C575.63,288.497 575.663,383.527 575.69,478.56C575.68,478.94 575.61,479.33 575.56,479.88Z" style="fill:rgb(46,3,63);fill-rule:nonzero;"/>
                        <path d="M551.81,97.34C564.781,97.438 575.4,108.137 575.4,121.109C575.4,134.149 564.67,144.879 551.63,144.879C538.59,144.879 527.86,134.149 527.86,121.109C527.86,108.137 538.479,97.438 551.45,97.34L551.81,97.34Z" style="fill:rgb(46,3,63);fill-rule:nonzero;"/>
                        <path d="M1905.73,479.85L1858.17,479.85L1858.17,193.14L1905.5,193.14L1905.62,193.26C1905.67,193.32 1905.76,193.38 1905.76,193.44C1905.8,288.48 1905.83,383.51 1905.86,478.53C1905.85,478.91 1905.78,479.3 1905.73,479.85Z" style="fill:rgb(46,3,63);fill-rule:nonzero;"/>
                        <path d="M1882,97.31C1894.97,97.411 1905.59,108.109 1905.59,121.079C1905.59,134.119 1894.86,144.849 1881.82,144.849C1868.78,144.849 1858.05,134.119 1858.05,121.079C1858.05,108.109 1868.66,97.411 1881.63,97.31L1882,97.31Z" style="fill:rgb(46,3,63);fill-rule:nonzero;"/>
                        <path d="M1789.81,432.13C1802.78,432.228 1813.4,442.927 1813.4,455.899C1813.4,468.939 1802.67,479.669 1789.63,479.669C1776.59,479.669 1765.86,468.939 1765.86,455.899C1765.86,442.927 1776.48,432.228 1789.45,432.13L1789.81,432.13Z" style="fill:rgb(46,3,63);fill-rule:nonzero;"/>
                        <path d="M2147.26,97.16C2041.63,97.16 1956,182.79 1956,288.42C1956,394.05 2041.63,479.68 2147.26,479.68C2252.89,479.68 2338.51,394.05 2338.51,288.42C2338.51,182.79 2252.89,97.16 2147.26,97.16ZM2147.26,432.16C2147.26,432.16 2147.25,432.16 2147.25,432.16C2068.51,432.16 2003.71,367.364 2003.71,288.62C2003.71,209.876 2068.51,145.08 2147.25,145.08C2225.99,145.08 2290.78,209.864 2290.79,288.6C2290.79,367.338 2226,432.13 2147.26,432.13L2147.26,432.16Z" style="fill:rgb(46,3,63);fill-rule:nonzero;"/>
                    </g>
                </g>
            </g>
        </g>
    </g>
</svg>
