<svg xmlns="http://www.w3.org/2000/svg" viewBox="0 0 288 432"><defs><style>.cls-1{fill:#fff;}.cls-2,.cls-6{fill:#165488;}.cls-3{fill:#6c98a7;}.cls-4{fill:#5ca445;}.cls-5{fill:#2c1a54;}.cls-6{font-size:14.82px;font-family:Futura-Medium, Futura;}.cls-7{letter-spacing:0.01em;}.cls-8{letter-spacing:0em;}.cls-9{letter-spacing:0.02em;}.cls-10{letter-spacing:-0.04em;}.cls-11{letter-spacing:-0.04em;}</style></defs><title>Unicorn StickerAsset 1</title><g id="Layer_2" data-name="Layer 2"><g id="Layer_1-2" data-name="Layer 1"><rect class="cls-1" width="288" height="432"/><path class="cls-2" d="M33.37,126.56c.21-6.33,2.84-12.14,8.33-17.18.56-.51,1.21-1,1.82-1.44a1.24,1.24,0,0,1,1.44-.11,13.43,13.43,0,0,1,2.22,1.4c1.55,1.36,3.08,2.74,4.46,4.19,5.82,6.09,11,12.51,16,19,12.49,16,24.21,32.23,35.43,48.71,5.29,7.78,10.49,15.59,15.11,23.61,1.15,2,2.15,4.05,3.16,6.09a7.51,7.51,0,0,1,.62,1.92c.12.63-.31.9-1.11.69a6.64,6.64,0,0,1-1.84-.76c-2-1.28-4-2.55-5.81-3.93-6.19-4.65-11.9-9.63-17.59-14.63C84.13,184,73.05,173.76,49.07,151.46c-1.94-1.81-3.92-3.59-5.84-5.41-4.25-4-7.44-8.44-9-13.48A23.32,23.32,0,0,1,33.37,126.56Z"/><path class="cls-3" d="M20.76,190.16a37.85,37.85,0,0,1,1.91-12,16.94,16.94,0,0,1,1.61-3.24c.53-.86,1.09-1,2.26-.57a18.83,18.83,0,0,1,2.63,1.15A90.16,90.16,0,0,1,39,181.78c10.69,7.61,20.75,15.68,30.66,23.85,9.67,8,19.18,16.05,28.17,24.46,2.13,2,4.11,4.06,6.13,6.11a8.64,8.64,0,0,1,1.14,1.45c.5.79.2,1.12-1,1a14.72,14.72,0,0,1-2.08-.33A107.26,107.26,0,0,1,90.48,235c-13.14-4.39-26-9.29-38.74-14.22-5-1.94-10-3.94-15.06-5.89-1.1-.43-2.22-.82-3.36-1.18a15.06,15.06,0,0,1-6.71-4.23,19.79,19.79,0,0,1-4.2-7.45A37.11,37.11,0,0,1,20.76,190.16Z"/><path class="cls-3" d="M102.66,263.49a5.56,5.56,0,0,1-3,.63c-3,0-6,.12-9,0-6.24-.22-12.48-.51-18.71-.83-4-.21-8-.48-12-.78-6.34-.48-12.68-1-19-1.51-1.63-.13-3.25-.36-4.88-.42A10.56,10.56,0,0,1,29.32,258a31.84,31.84,0,0,1-5.16-5.4,26.21,26.21,0,0,1-4.52-8.11,4.59,4.59,0,0,1-.3-3c.54-1.43,1.33-1.9,3.27-1.66s3.66.49,5.46.84c7.3,1.41,14.39,3.31,21.47,5.25,13.11,3.59,26.07,7.45,38.8,11.74,4.16,1.4,8.2,3,12.28,4.52A3.93,3.93,0,0,1,102.66,263.49Z"/><path class="cls-3" d="M110.63,283.73a8.13,8.13,0,0,1-1.27,1c-1.15.51-2.3,1-3.5,1.43-6.85,2.4-13.89,4.3-20.94,6.19-9.42,2.52-18.89,4.89-28.47,6.91-1.72.36-3.46.68-5.21.89-7.46.89-14.45-3.92-16.56-9.21a4.72,4.72,0,0,1-.36-3.35,2.24,2.24,0,0,1,1.73-1.63A46.53,46.53,0,0,1,41,285c4-.41,8.11-.77,12.17-1,4.86-.31,9.74-.49,14.6-.72,11.53-.54,23.06-.56,34.6-.39,2.21,0,4.42.27,6.63.44A11.16,11.16,0,0,1,110.63,283.73Z"/><path class="cls-4" d="M163.54,354.58a2,2,0,0,1-.12-1.83,40.56,40.56,0,0,1,4.27-8.83c1.24-2,2.63-4,4.08-5.89a13.15,13.15,0,0,1,2.41-2.35,1.94,1.94,0,0,1,3,.22,6.72,6.72,0,0,1,1.69,3.51,15,15,0,0,1,0,5.73,3.2,3.2,0,0,1-1.35,2.1,46.89,46.89,0,0,1-12.82,7.12,2.56,2.56,0,0,0-.41.23Z"/><path class="cls-4" d="M120.66,303.77a7.34,7.34,0,0,1-.79,1.2,25.35,25.35,0,0,1-2.19,2,162.6,162.6,0,0,1-18.26,12.28,26.8,26.8,0,0,1-11.34,3.32,114.17,114.17,0,0,1-14.74.34,39.37,39.37,0,0,1-9-1.14,9.8,9.8,0,0,1-2.42-1c-1.09-.66-1.13-1.42-.08-2.11a18.89,18.89,0,0,1,3-1.6,92.35,92.35,0,0,1,11.28-3.76c12.54-3.51,25.29-6.53,38.32-8.87,1.42-.26,2.86-.46,4.3-.64A17.53,17.53,0,0,1,120.66,303.77Z"/><path class="cls-4" d="M139.48,321.92a7.21,7.21,0,0,1-.75,1.37c-1.33,1.52-2.65,3-4.1,4.5-3.3,3.32-7,6.4-10.67,9.49-3,2.48-6.66,3.48-10.89,3.8a55.18,55.18,0,0,1-10.21,0,44.09,44.09,0,0,1-4.77-.82,6.65,6.65,0,0,1-2-.89c-1.19-.75-1.29-1.62-.32-2.52a6.83,6.83,0,0,1,1.62-1.16c2.4-1.18,4.76-2.43,7.29-3.44a232.32,232.32,0,0,1,30.5-9.7c1-.26,2.14-.42,3.22-.61A8.33,8.33,0,0,1,139.48,321.92Z"/><path class="cls-4" d="M156.93,331.69c-.32.6-.58,1.23-1,1.81a78.38,78.38,0,0,1-7.79,9.79c-1,1.12-2.14,2.19-3.22,3.28a9.1,9.1,0,0,1-3.49,2.08,44.15,44.15,0,0,1-9.64,2.15,27.16,27.16,0,0,1-7,.21,9.2,9.2,0,0,1-1.89-.43c-1.1-.41-1.4-1.11-.77-1.89a6.31,6.31,0,0,1,1.48-1.39c2.28-1.46,4.53-3,7-4.29a205.19,205.19,0,0,1,21.69-10.19c1-.39,2-.73,3-1.06a13.31,13.31,0,0,1,1.34-.3Z"/><path class="cls-2" d="M78.09,78.07c3.35-6.18,9.15-11.26,17.8-14.91.88-.37,1.84-.66,2.76-1a1.58,1.58,0,0,1,1.67.23,11,11,0,0,1,1.81,1.91,53.4,53.4,0,0,1,3,5.19A188.11,188.11,0,0,1,113.73,92c6.19,18.69,11.36,37.49,15.85,56.38,2.12,8.92,4.12,17.85,5.37,26.84.31,2.24.42,4.5.56,6.75a6.48,6.48,0,0,1-.25,2c-.17.64-.79.81-1.58.41a6.08,6.08,0,0,1-1.69-1.19c-1.59-1.73-3.21-3.45-4.6-5.25-4.67-6.06-8.63-12.32-12.56-18.59-11-17.55-21.1-35.32-31.35-53.05-1.29-2.24-2.63-4.47-3.89-6.72-2.8-5-4.21-10.08-3.43-15.4A22.55,22.55,0,0,1,78.09,78.07Z"/><path class="cls-2" d="M143.69,37.69a61.1,61.1,0,0,1,24.94-17c1.07-.41,2.19-.72,3.28-1.08.78-.25,1.37-.14,1.62.32a7.89,7.89,0,0,1,1,2.29,49.37,49.37,0,0,1,.77,6.18,207.6,207.6,0,0,1-.9,26.63c-1.8,22.11-4.7,44.33-8.34,66.63-1.72,10.53-3.57,21.07-6.22,31.66-.66,2.64-1.54,5.29-2.38,7.94a11.32,11.32,0,0,1-1.15,2.39,1.16,1.16,0,0,1-1.81.44,3.85,3.85,0,0,1-1.23-1.45,61.1,61.1,0,0,1-2.45-6.29A192.91,192.91,0,0,1,146,134.16c-3.67-20.91-6.33-42.05-9.14-63.16-.36-2.67-.76-5.32-1.08-8A31,31,0,0,1,139,44.84,43,43,0,0,1,143.69,37.69Z"/><rect class="cls-5" x="239.44" y="179.75" width="7.94" height="13" rx="3.97" ry="3.97" transform="translate(174.68 -112.43) rotate(39.62)"/><path class="cls-5" d="M229.49,211.38a12.35,12.35,0,0,0-1.62-6.36,7.68,7.68,0,0,0-4.21-3.26,1.08,1.08,0,0,1-.62.07.42.42,0,0,1-.37-.46,2.26,2.26,0,0,1,.41-1l5-6c1-1.18,2.23-1.78,2.78-1.32l8.17,6.76c.55.46.2,1.8-.78,3l-6,7.27C231.29,211.24,230,211.83,229.49,211.38Z"/><rect class="cls-5" x="229.62" y="189.92" width="10.74" height="13" rx="5.37" ry="5.37" transform="translate(179.23 -104.73) rotate(39.62)"/><rect class="cls-5" x="234.43" y="184.91" width="9.41" height="13" rx="4.71" ry="4.71" transform="translate(176.99 -108.53) rotate(39.62)"/><rect class="cls-5" x="245.75" y="172.89" width="6.68" height="13" rx="3.34" ry="3.34" transform="translate(171.6 -117.63) rotate(39.62)"/><path class="cls-5" d="M249.25,174.62c1.76-1.87,14.86-15.76,16.1-14.7s-8.8,14.74-10.5,17.08"/><path class="cls-5" d="M266.31,273.07c-1.33-7.73-5.61-14.61-10.22-21s-9.68-12.46-13-19.58c-4.08-8.85-5.55-19.41-12.72-26-3.11-2.86-7.31-5-8.71-9-2.18-6.2-3.82-11.74-2.56-20.73-8.31,6.48-15.1,13.78-13.43,17.94-6.92-6.23-25.41-1.7-44.63-16.47-6.82,12.21,7.8,23.51,10.46,22.38-9.78,4.15-24.54-8.32-24.62-7.21-1.11,16,10.18,18.22,10.56,18-9.87,5.51-21.68-2.17-23.68-5.56-3.21,12.33,9.29,20.89,11.38,18.61-6.26,6.82-21.92-2-24.22-7.5-4.08,11.39,9,22.62,15.1,24.15-4.14,2.67-15.87,3-18.15,6.37-8.27,12.06,9.43,39,14.8,48.53q1.52,2.71,3.27,5.28c5.05,7.41,11.37,14.4,19.32,18.75a43.91,43.91,0,0,0,16.95,5.2,41.36,41.36,0,0,0,8.47-.07c3.42-.39,7-1.31,9.36-3.82,4.09-4.38,2.78-11.3,1.56-17.17-1.3-6.21-2.21-12.6-1.42-18.89s3.43-12.55,8.25-16.67a29.51,29.51,0,0,0,18.76,13.18c3.43.72,7,.84,10.23,2.26,5.37,2.38,8.65,8,13.71,11a16.74,16.74,0,0,0,17.9-.86C265.41,289.57,267.64,280.79,266.31,273.07Zm-33.88-35.12a5.6,5.6,0,1,1,5.21-5.58A5.41,5.41,0,0,1,232.43,237.95Z"/><g id="Layer_2_copy_Image" data-name="Layer 2 copy Image"><path class="cls-2" d="M51.86,375.61l.19,0a16.29,16.29,0,0,1,10.65,4.57l.2.19L60.6,382.7l-.33-.31a13.2,13.2,0,0,0-4.85-2.86A13.53,13.53,0,0,0,53,379a13.77,13.77,0,0,0-2.57-.08,12.27,12.27,0,0,0-2.74.47,13.07,13.07,0,0,0-2.22.85A12.42,12.42,0,0,0,42.78,382c-.32.28-.63.56-.92.86a12.57,12.57,0,0,0-1.58,2A13.19,13.19,0,0,0,39.15,387a12.65,12.65,0,0,0-.84,2.92,12.92,12.92,0,0,0-.14,1.29,14.92,14.92,0,0,0,0,1.54,12.71,12.71,0,0,0,.41,2.63,13.35,13.35,0,0,0,.89,2.43,13.18,13.18,0,0,0,10.81,7.38,14.7,14.7,0,0,0,1.9,0,12.63,12.63,0,0,0,3-.55,12.83,12.83,0,0,0,2-.78,13.23,13.23,0,0,0,5.14-4.54,13,13,0,0,0,1.64-3.53c0-.11.07-.23.11-.37H48l3.35-3.35H67.74v.23a16.46,16.46,0,0,1-12.83,15.8,16.71,16.71,0,0,1-2.78.38,14.78,14.78,0,0,1-2.35-.05,16.46,16.46,0,0,1-14.53-12.78,15.16,15.16,0,0,1-.38-3A16.46,16.46,0,0,1,47.62,376a16.69,16.69,0,0,1,2.55-.38h.38l.19,0Z"/><path class="cls-2" d="M153.06,408.5h-3.28V395.43h-9.88v13c-.13,0-3,0-3.27,0V388.84h3.26V392c.14,0,9.56.05,9.88,0v-9.75l.14,0h3.14Z"/><path class="cls-2" d="M120.16,395.41H107.07l-3.35-3.35h12.65a9.89,9.89,0,0,0-7.66-6.45A9.89,9.89,0,0,0,100.78,403a9.64,9.64,0,0,0,6.74,2.24,9.75,9.75,0,0,0,6.48-2.82l2.27,2.27a13.11,13.11,0,1,1,3.89-9.28Z"/><path class="cls-2" d="M80.94,401.86l11.3-19.57H96v0s0,0,0,0l0,.06L80.9,408.49H77.63V382.3H80.9v19.56Z"/><path class="cls-2" d="M126.76,408.49h-3.28v-23c-.22,0-.44,0-.65,0h-3.24l-1.86-3.18h22.16v3.18H126.76Z"/><path class="cls-2" d="M74.32,408.49H71.06V388.84h3.26q0,9.77,0,19.53S74.32,408.45,74.32,408.49Z"/><path class="cls-2" d="M72.69,382.28a1.63,1.63,0,1,1-1.16.48A1.63,1.63,0,0,1,72.69,382.28Z"/></g><text class="cls-6" transform="translate(160.19 408.49)"><tspan class="cls-7">U</tspan><tspan class="cls-8" x="11.05" y="0">nico</tspan><tspan class="cls-9" x="38.84" y="0">r</tspan><tspan x="44.61" y="0">n </tspan><tspan class="cls-10" x="57.31" y="0">D</tspan><tspan class="cls-11" x="67.52" y="0">A</tspan><tspan x="77.97" y="0">C </tspan></text></g></g></svg>