<svg id="Capa_1" data-name="Capa 1" xmlns="http://www.w3.org/2000/svg" viewBox="0 0 1080 1080">
  <circle cx="540" cy="540" r="500" fill="#165ffa"/>
  <path d="M852.2,550.1c-.6,8.7-.8,17.5-1.9,26.1C839,668,796.2,741.5,721.1,795.3,665,835.6,601.6,854.4,532.6,852c-79.7-2.8-148.5-32.5-206.2-87.7a3.4,3.4,0,0,1,0-3.1q107.9-108,216-215.9a9.6,9.6,0,0,1,6.2-2.6H852.2Z" fill="#fff"/>
  <path d="M550,232.7c8.5.7,17,1.1,25.5,2a307.6,307.6,0,0,1,137.2,49.1,2.7,2.7,0,0,0,.8.7L687,310.9c-5.7,5.7-11.4,11.5-17.2,17.2a2.8,2.8,0,0,1-1.3.4,2.5,2.5,0,0,1-1.2-.2Q604.2,292,531.4,294.9c-108.6,4.4-203.2,81.2-229.2,186.7-16.1,65.3-7.2,127.3,26,185.9a2.6,2.6,0,0,1,0,2.1q-21.6,21.8-43.4,43.4c-.1.2-.3.3-.6.6-1.4-2.2-2.8-4.2-4.1-6.3-35.7-57.8-51.5-120.7-46.4-188.5C244.3,377.7,349.3,262.2,489,237.6c14.1-2.4,28.6-3.1,42.8-4.5l3-.4Z" fill="#fff"/>
  <path d="M707,419.7a55.6,55.6,0,0,1,44.9-54.5,55.7,55.7,0,1,1-40.6,75.9A56.4,56.4,0,0,1,707,419.7Z" fill="#fff"/>
</svg>
